<?xml version="1.0" encoding="utf-8"?>
<!-- Generator: Adobe Illustrator 19.0.0, SVG Export Plug-In . SVG Version: 6.00 Build 0)  -->
<svg version="1.1" id="Layer_1" xmlns="http://www.w3.org/2000/svg" xmlns:xlink="http://www.w3.org/1999/xlink" x="0px" y="0px"
	 viewBox="0 0 320 379" style="enable-background:new 0 0 320 379;" xml:space="preserve">
<style type="text/css">
	.st0{fill:none;stroke:#EBEBEF;stroke-width:2;}
	.st1{fill:#EBEBEF;clip-path:url(#SVGID_2_);}
</style>
<line class="st0" x1="0" y1="378" x2="292.3" y2="378"/>
<g>
	<defs>
		<rect id="SVGID_1_" x="0.2" width="299.6" height="379"/>
	</defs>
	<clipPath id="SVGID_2_">
		<use xlink:href="#SVGID_1_"  style="overflow:visible;"/>
	</clipPath>
	<path class="st1" d="M261.1,179.3c-0.2,1.3,1.1,1.2,1.7,1.7c0-0.7,0.1-1.3,0.4-1.7H261.1z M269.2,307.6c-3.3,0.4-7.1-0.9-7.7,1.3
		c1.1,2.5,9.1,1.3,8.1-0.9c-0.1,0.3,0,0.8-0.4,0.9V307.6z M262.4,314.4c2.7-1.1,4.8-1.8,7.7,0c-2.5,0.3-4-0.9-5.6,0.4
		c1.9-0.3,5.4,0.8,6-0.9C269,312.8,263.1,311.5,262.4,314.4 M267.1,305.4c-2.1-0.2-3.5,0.2-4.3,1.3c1.7-0.6,6.6-0.2,6.4-1.3
		c-1.9,0.4-2-0.7-0.9-1.3c-3.1-0.4-7.4,0.2-6.8,2.1c0.2-0.8,0.5,0.2,0.9,0.4C262.3,304.1,265.7,304.3,267.1,305.4 M254.7,178
		c0.2,2.7,4.6,4.9,6.4,2.1c-1.2-0.5-1.4-2-2.6-2.6C257.1,177.6,256.4,178.3,254.7,178 M244.9,309.7c0.5-1.6,0.7-3.2-0.4-4.3
		C245.4,307.3,243,308.3,244.9,309.7 M245.7,75.7c0.2,0.7-0.6,1.1,0,1.3c1.3-1.3-2.4-4-3-2.1c2,0.2,0.9,0.8,2.1,0.4
		c0.1,0.3,0,0.8,0.4,0.9C245.3,75.9,245.4,75.7,245.7,75.7 M248.3,79.2c0.4-1.2,0.4,1.4,1.3,0c0,0.5-0.5,0.6-0.4,1.3
		c0.6,1,1.6-0.5,1.7,0.4c-1.2,0.5,0.7,0.5,0.4-0.4c-0.9-0.8-2.4,0.5-1.3-1.3c-0.5-0.2-1.2-0.9-1.7-1.3c0,0,0,0,0,0c0,0,0,0,0,0
		c-0.4-0.3-0.7-0.4-0.4,0.4c0-0.3,0.1-0.5,0.4-0.4c0,0,0,0,0,0C248.4,78.6,247.7,79,248.3,79.2 M245.3,311H244
		c0.1,1.4-0.6,3.7,1.3,3.4V311z M232,167.7c2.8,2.9,7.5,3.9,11.1,6c1-1.1-1.1-1.4-0.9-3c0.3-0.7,1.3-0.7,1.7-1.3
		c-1.3-0.6-2.3-1.4-4.3-1.3c-0.1,0.3,0,0.8-0.4,0.9c-0.3,1.7,1.8,1,1.7,2.6C238,170.3,235.2,168.8,232,167.7 M228.2,169
		c-2.7,0.1-4.3-0.9-5.4-2.4c-0.6-0.9-1.1-2-1.4-3.1c-3.6,1-4.1-2-6.8-3c0.8-0.2,1.8-0.2,2.1-0.9c-1.8,0-3.5,0.1-4.7-0.4
		c1.3,4,5.7,4.9,7.7,8.1c0.1-0.9,1.8-0.2,2.6-0.4c0.7,1.8,2,2.9,2.6,4.7c5.1-1,3.6,4.7,6.8,5.6c0.3-1.1,1-1.8,2.1-2.1
		c0.6,1.2,2.6,1,3,1.3c0.5,2.5,6,3.7,8.6,5.6c-0.2-5.3,5.5-3,8.6-4.3c-2.9-1.5-3.7-3.4-7.7-3c-1.4,0.5-0.2,3.5-1.7,3.8
		c-5.2-1.1-7.9-6.5-12.8-6.4c-0.2,0.6,0.5,2.2-0.4,2.1C229.3,173.2,228.9,171,228.2,169 M222.2,292.6c1.6-0.5,3.3-3.3,3-4.3
		c-0.1,1-1.9,0.3-1.7-0.4c-1.7-3.6,1.3-13-1.3-16.2C220.4,278.9,222.6,286.4,222.2,292.6 M217.5,131.8c4.3-0.7,9.3-1.6,11.1-3.4
		c1.1,1.4-0.3,3.1-1.7,3.4c0-0.5,0.6-0.6,0.4-1.3c-3.4,0.7-4.5,4.6-9,3c-0.1,2.3,1.9,2.4,2.1,4.3c5.1,0.3,10.7-0.7,15.8-1.7
		c0.2,1,1.9,1.1,0.9,2.1c-1.5-0.2-2.1-1.1-3.4-0.4c0.4,4.8-5.2,6.6-8.1,9.4c0.3,0.1,0.5,0.4,0.4,0.9c4.6,0.8,9.5,2.3,11.1-2.1
		c0.2,0.7-0.6,1.1,0,1.3c0.5-1.1,1.5-1.6,1.7-3c-2.4-0.9,3.3-4.9,0.9-4.7c0.9-0.5,1.6-1.2,2.1-2.1c-2,0.2-1-2.3-0.9-3.4
		c-1.4-0.5-0.3,1.4-1.7,0.9c1.8-9,8.9-14.7,7.7-25.2c-3.4,0.2-7.8,4.1-9.8,6c-0.5,0.5-1.3,1-2.3,1.4l-0.3-0.5
		c-0.7-1.7,1.1-0.9,1.3-1.7c-0.8-0.8-1.2-1.9-3-1.7c0.2,1.6-0.9,1.9-1.7,2.6c-1.1-0.3-1.6-1.2-2.6-1.7c-0.1,1.3-1.1,1.7-2.1,2.1
		c-0.9-1.5-4.3-3.8-6.4-3.9c3.2-4.7,14.9-6.6,20.5-4.7c-3-0.2-8.2-0.6-9.4,3c4.1,0.2,7.7-0.8,9.4-3c1.2-1.4,1.6-3.3,0.8-5.6
		c-1.4-2.4-4.5-3.2-6-5.6c-2.2,0.3,0.9,0.6,0.4,1.7c-4.1-0.4-4.8-5.5-9-7.3c-3-1.3-9.1,1.4-13.3,1.3c-1.5,0-4.3-1.6-5.6-1.3
		c-6.7,1.8-3.1,13.2-2.1,19.7c5.5-0.4,11-0.7,12.4,3.4c1.7,4.9-2.5,8.1-5.6,11.1C213.8,128.4,216.1,129.7,217.5,131.8 M226.9,292.2
		c-2.6,1.4-3.1,4.5-6,4.7c-0.3-1.3,0.4-1.6,0.4-2.6c-5.4-1-4.2-8.7-8.1-11.1c-5.7,10.9-0.5,28.8,6,32.9c2.2-0.2,3.4,0.6,3.4,2.6
		c-2.1-0.3-3.6-1.3-4.7-2.6c0.5,2.3,2,3.7,5.1,3.4c0.6,2.1,3.5,3.3,5.6,2.6c-1.9-5.2-4.2-11.2-3.4-18.4c0.1,0.3,0,0.8,0.4,0.9
		C225.7,296.8,224.6,296.1,226.9,292.2 M223.5,294.3c0.4-0.4,1.9-3,0.9-2.1C224,292.6,222.1,293.6,223.5,294.3 M240.6,72.7
		c-0.9-2-11.1-6.1-15.8-4.3C230.2,68.6,236.1,71.3,240.6,72.7c0.1,0.3,0.2,0.3,0.4,0.2c0.3,0.1,0.6,0.2,0.8,0.3
		c-1.2,1,1.2,2,1.3,0.4c-1.9,0.5-0.5,0.3-1.3-0.9c-0.4-0.1-0.6,0.1-0.8,0.2C240.9,72.9,240.7,72.8,240.6,72.7
		C240.6,72.8,240.6,72.8,240.6,72.7 M226.5,165.1c-0.5,2.2,0.8,2.6,1.7,3.4c1.5,0.1,0.8-2,2.6-1.7c0,0.2,0.3,0.5,0.4,0
		C229.8,166.1,228.9,164.9,226.5,165.1 M210.6,232.7c-1.3,0.3-1.1,4.3-3,2.6c-0.1-0.6,2.2-0.9,0.9-1.3c0.3,1.2-2-0.3-1.7,0.9
		c1.6,3.8,5,8.1,6.8,10.3c-2.2-1.7-4.1-3.6-7.7-3.8c-0.3,1.6,0.7,1.8,0.4,3.4c-1,0.8-1.1,0.8-2.1,0c-1.5,2-2.4,4.7-2.6,6.8
		c4.3,8.3,17.9,9.5,29.5,9c6.4-8.2,2.7-24.9,8.6-34.2c-0.6-0.3-1.3-1.5-2.1-2.8l1.3-0.2c1.8-4.7,0.7-9.8,0.9-14.5
		c0.6-0.4,1.6-0.4,2.1-0.9c-0.2-0.8,0.3-2.3-0.1-2.8c0.1-0.5,0.2-1,0.2-1.5c0.1,0,0.2,0,0.3,0.1c0.1-0.3-0.1-0.5-0.3-0.7
		c0-0.1,0-0.2,0-0.2l-0.4,0c0-0.1,0-0.3,0-0.4c0,0,0,0,0-0.1c-0.4-0.1-0.8-0.3-1-0.7c-0.2,0.2-0.3,0.3-0.3,0.4l-1,0.1
		c-0.3-5.2-6.9-3.8-10.3-2.2c0,0.6,0.2,0.9,0.4,1.3c-1.1-0.5-3.1,1.3-3.4,3c-4.4,0.9-4.1,5.6-5.1,9.4c-2,7.5-8.3,8.5-14.5,12.4
		c-0.3,2.6,0.5,4,1.7,5.1c0.2-1,2.3-0.4,2.1,0.4c-0.6,0.1-1.6-0.2-1.7,0.4C209.6,231.8,210.3,232.1,210.6,232.7 M172.2,127.5
		c-0.4,1.5-0.8,8.7,0,7.3c0.7-5.4,2.1-12.7,2.6-19.7c1.1-1,1.4-0.2,2.1-1.3v-6c-1.3,0.9,0.4,4.7-0.9,5.6c0.1-2.2-0.1-2.4-0.9-0.9
		c0.6-1.6-0.1-8.7,1.3-5.6c0.2-1.8-1.2-6.7,0.4-3.9c-1.8-5.1,1.7-12.3-0.9-17.5c0,4.1,1.4,9.8-0.9,10.7c0,1.3,1.4,3.4,0.4,4.3
		c-0.7-1-0.4-3-1.3-3.8c-0.3,3.1,0.6,7.4-0.4,9.8c-0.3-1.3,0.6-3.7-0.4-4.3c-5.2,9.8-4.1,25.5-6,36.8c1-2.1,1.6-4.7,3-6.4
		c-0.3,3.5-0.9,5.9,0,2.1c0.4-1.5,1.1-4.1,0.9-6C172,128.8,171.5,127.6,172.2,127.5 M166.2,120.2c0.1,2.4-1.2,4.8-1.7,7.3
		c-0.4,2-1.5,6.6,0,3c1.3-3.2,3.1-9.6,3-13.2C167.5,118.7,166.9,119.5,166.2,120.2 M164.9,121.9c-1.8,4.7-4.2,8.9-4.7,15
		c1.2-0.4,1.1,0.6,2.1,0.4C162.8,131.9,163.9,126.9,164.9,121.9 M160.6,84.3c1.7,0.1,3-0.2,3.4-1.3c-0.9,0-0.5-1.2-1.7-0.9
		C162.5,83.6,161,83.4,160.6,84.3 M157.6,25.7c-0.9,0.3-2.8-0.5-3,0.4c1.5-0.3,4.1,1.8,3.9,1.3C158.5,26.6,157.3,26.9,157.6,25.7
		 M160.2,30.4c1.3-1.5-4-3.1-4.3-1.7c1.1,0.1,2.3,2.2,3,1.3c-0.4,0-0.5-0.8,0-0.9C159.3,29.6,159.7,30,160.2,30.4 M156.8,100.1
		c0-1.3,1.3-3.5-0.9-3.4C155.4,97.9,155.6,99.5,156.8,100.1 M153.3,170.3c0.5,0,0.7,0.6,0.9,0c-1.4,0-1.8-3.3-3-2.1
		c3.3,5.4,6.1,11.3,10.3,15.8c0.4,3.9,0.8,5.7,3.8,7.3c0-0.5,0.1-1,0.9-0.9c1.8,0.8,1.9,3.3,3.4,4.3c-0.3-1.7-1.7-2.3-2.1-3.9
		c1.6,0.3,1.3-1.3,2.6-1.3c0.4,0.7,1.5,0.8,2.1,1.3c0.6-2.9,3.4-1.2,4.3-3c-2.1-3.6-5.2-6.2-8.1-9c2,0.3,3.7,3.1,5.1,2.6
		c-5-3.3-10.6-8.2-15.4-10.3c1.1,1.2,2.9,1.7,3.4,3.4c-1.3,0.4-1.6-2-2.4-1c-0.7-1.4-1.4-2.5-3.1-2.4c3.4,1.5,3.9,7.5,5.6,10.7
		C158.4,178.2,156.2,175.5,153.3,170.3 M154.6,97.6c2.8-5.9,9.2,2.8,11.5,1.3c2.4-0.9,4.1-6.2,3.9-11.1c-1.4,0.1-0.9-1.7-2.1-1.7
		c-0.8,0.8-2.6,0.6-3.4,1.3c0.7-2.4-2.1,0.2-0.9-1.7c-3.5,0.6-1.4-0.9-3.9,0.4c1-1.3-2-3.6-3-3c-0.5,1.3,0.7,1,0.9,1.7
		c-1.4-0.2-2,0.3-3,0.4C154.8,86.8,154,92.9,154.6,97.6 M152.5,190.4c-0.6,1.4-0.5,2.5,0.4,3.4C152.9,192.1,152.7,190.8,152.5,190.4
		 M151,315.1c0.8-1.7,1.4-3.5,1.8-5.4c0.4,0.3-0.5,1.9,0.5,1.7c-0.1-1.8,0.3-2.9,0.1-4.2c0.1-0.4,0.2-0.9,0.3-1.3c0.1,0,0.2,0,0.4,0
		c-0.2-2,0.3-4.7,0.5-7.2c1.2-2.6,1.8-5.4,2.1-8.2c0.2-2.4,0.2-5.2-0.9-7.5c-0.3-4.8,1.6-9.8-0.8-13.5c0-1,0.7-1.3,0.4-2.6
		c1,0.2,0.9-0.8,2.1-0.4c0-0.4-0.4-1-0.9-1.3c0.4-0.4,0.7-0.8,1.1-1.2c0.7-0.3,1.2-1.1,1.8-1.9c0.3-0.2,0.5-0.5,0.8-0.7
		c0.1,0,0.1-0.1,0.1-0.2c0.2-0.1,0.3-0.2,0.5-0.3c-0.2,0-0.5,0-0.6,0c-1.3-2.2-2.1-4.7-3-7c-0.8-2.1-2-3.9-3.2-5.9
		c-0.6-1-1.3-2.2-0.9-3.4c0.3-0.9,1-1.5,1.3-2.4c0.3-1,0.2-2.3-0.5-3.1c-0.1-0.1-0.2-0.2-0.3-0.3c0-0.4-0.1-0.8-0.5-1.3
		c-0.8,0-1.4,0.3-1.7,0.7c-1.5,0-3.2,0.5-4.3,0.8c-1.6,0.4-3.1,0.9-4.7,1.4c-0.5,0.1-1,0.3-1.6,0.4h0c-4.4-1.4-9.8,0.4-13.4,0.7
		c-0.7,2.7-0.2,5.2,2.1,6c-1.1-0.1-2.1-0.1-2.1,0.9c0.4,1,1.8,1,2.6,1.7h-2.6c-0.5,1.8,0.1,2.8,0.9,4.3c-2.4,1.9,1,4.9,1.7,6.4
		c-4.7-1.1-3,4.1-5.1,5.6c-0.6,4.1-1.2,8.5-1.3,12.4c-0.1,3.3,0.6,7.9,1.7,11.5c0.6,1.8,2,2.8,2.6,4.7c0.6,2.2,2.1,8.7,1.7,9.4
		c1,8.5,4.9,14.2,11.1,17.5c0.9-1.5,2.6,0.9,4.7,0.4c0.1-0.5-0.1-1.2,0.4-1.3c1,0.3,1.7-0.4,2.1-1.3
		C149.4,318.3,150.3,316.6,151,315.1 M149.5,56.5c1.5,0.1,2.2-0.6,2.1-2.1C150.3,54.5,149.9,55.5,149.5,56.5 M141.8,162.6
		c1.9,5.8,3.6,11.2,5.3,16.3c0.2,0.7,0.5,1.4,0.7,2c0.1-0.5-0.1-1.2,0.4-1.3c-0.5,8.7,3.7,20.8,1.7,26.5c3.3-8.3-0.2-20.1-1.3-28.2
		c-0.8-0.1-0.9,0.6-1.3,0.9c0.8-1.6-0.3-2.9,0-3.4c2.7,5.3,8.5,11.2,8.1,16.7c1.5,0.3,1.8-0.5,2.6-0.9c-3.3-5.4-7.7-12-9.4-17.5
		c1.6,1.8,2.7,6.5,4.3,6.8C149.3,174.4,146.6,167.4,141.8,162.6 M151.6,25.3c-2,0-2.6-3.6-4.3-2.6c1.3,1.2,0.9,2,1.3,3.4
		c1.6-0.7,0.8,0.1,1.7,0.9C150.6,25.8,150.4,26,151.6,25.3 M143.1,180.5c-0.7-1.1,0.5-3.1-0.9-4.3c0.6,3.9-1,7.8-1.3,9.4
		c-0.5,0-0.6-0.5-1.3-0.4c-0.4,1.4,1.1,0.9,1.3,1.7c-1.9-0.6-0.4,3.3,0,1.7c-0.7-0.7,2.2-1.4,2.6-0.9c-0.7,3-3.8,5.8-3.9,8.1
		c2.4-2.4,4.4-5.3,7.3-7.3c0.3,2-0.6,2.6,0,3.8c-1.9-1-3.1,1.9-4.3,3c1.3,0.6,2.9-1.8,4.3-2.6c-0.1,1.1,0.7,1.3,1.3,1.7
		c-0.9-1.5-0.1-11.2-1.3-9.4c-0.5-1.1,1.3-2,0-2.6c-0.1,1.8-0.3,0.1-0.9,0c-0.2,0.6,0.5,2.2-0.4,2.1c0-3.7,0.6-7.1-1.7-10.3
		C143.8,176.7,143.7,178.9,143.1,180.5 M94.7,278.9c-1.8-1.4,1.7-4.4-0.4-4.7c3.5-10.8,6.3-19.8,7.3-29.5c-0.4-1.4,1.1-0.9,1.3-1.7
		c-0.3-0.4-0.8-0.6-1.3-0.9c0.9-3.7,2.2-10.2,1.7-14.5c0.6-0.9,1,0.5,1.3-0.4c0.1-0.4,0.1-0.7,0.1-0.9c0.5-0.5,0.8-1.1,1-1.8
		c0.1,0,0.1,0,0.2,0c0-0.8,0.6-3,0-3.9c1.5-0.7,2.4-2.3,2.9-3.9c1.5-1.8,2.6-4,3.6-6.2c0,0.1,0,0.2,0,0.2
		c7.6-11.1,18-28.4,19.2-43.2c-3.7-0.2-4.6,2.5-7.3,3.4c-5.1,8.5-9.5,17.5-15,25.7c-1.4-0.1-1.4,1.1-3,0.9c0.1-1.6,1.8-1.6,1.7-3.4
		c1.2,0.6-0.7,1.8-0.9,2.6c2.7-1.9,4.4-4.7,4.7-9c0.1-0.1,0.7,0.6,0.9,0.4c3.8-4.5,5-13.7,8.6-19.2c3.7-0.3,2.6-3.3,4.3-6
		c1.3,0.8-0.5,2,0,3.4c6.3-3,10.7-7.8,14.5-13.3c0.9-0.2,0.6,0.8,1.3,0.9c4.7-4.9,11.2-14.9,3.9-20.1c-3.9-2.8-11.3-1.6-17.1-0.4
		c-0.5-3.7-2.9-10.2-0.4-14.1c-2.4-1.5-0.7-7.3-0.9-11.5c0-0.1,0.1-0.1,0.1-0.1c0.5,0,0.6,4.7,0.3,4.8c0.2,0.6,0.5-0.2,1.3,0
		c-0.3,1.6,0.7,1.8,0.4,3.4c0.6,0.2,0.5,0.4,1.7,0.9c1.3,13,20.7,14.5,25.2,3.9c-3.5,0.9-8.6,0.2-12.8,0.4c-0.6-1.1,1.3-1.8,0-2.1
		c3.7-0.6,9.9-1.7,12.4-6.4c-2.7-1.5-3.4,3.1-6,1.7c0.8-1.5,2.9-1.7,3.8-3c-3.6-0.4-11.2-0.1-15.8-1.7l0.1-0.4
		c4.4,1.4,10.6,0.8,14.5,0c-0.4-1.8-2.1-1.8-3.9-1.3c0-0.9-0.3-1.6-0.8-2c3.1,0.8,7,0.8,7.7-2.7c0.1-0.4-0.1-2-0.4-3
		c-1.9-5.4-5-15-2.1-20.1c3.9-3.5,10.1-3,13.7-7.3c-1.8-0.9-2.2-5.5-3.9-5.1c-0.7-3.4,1.7-10.9-4.3-13.7c-0.7,0.2,0,0.4,0.4,0.4
		c-0.5,1.7-3.1-0.2-3.9-0.9c-2,3.6-5.7,3-8.6,6.4c-0.3,0.3,2.1-3.8,3.4-4.7c-1-0.3-2.8,1.1-2.6,2.6c-2.5-0.6-4.2,0.5-5.1,2.6
		c-0.7-1.9,2.7-3.3,4.3-4.3c-0.9-1.3-1.7,1.1-3,0.9c1.4-1,1.9-3,3.8-3.4c-1.4-2-2.5,1-3.8,0c1.5-2.5,3.2-4.8,6-6
		c-3.2,1.1-4.9,1.6-7.3,4.7c-0.1-2.5,4.3-4.2,5.1-7.3c-1.8-0.1-4.5,2.6-6,4.3c2.8-1.6-2.9,3.2-3,5.8c0-6.3,4.9-11.3,8.6-15.2
		c-4.6,2.3-5.8,7.5-9.8,9.4c0,0.2,0,0.3,0,0.5l-0.4,0c-0.7,0-1.1,0.3-1.3,0.9c-0.5-1.1,0.4-1.8,0.9-3c-4.3,3.5-6.1,9.6-6.8,16.7
		c-1-5.5,1.9-10.7,2.1-16.2c-0.4,0.2-0.7,0.6-0.8,1.1c1-5.8,6.1-10.6,10.6-14c-4.3,1.8-7,5.2-9.4,9c-1.4-1.3,1.3-2.1,1.3-3.4
		c-3.5,3.3-7,6.7-9.8,10.7c0.4-0.5,0.6-1.1,0.4-2.1c-1.3,0.3-0.4,4-2.1,2.6c0.9-0.3,1.3-3.8,3-5.6c0.1-0.1,0.3-0.3,0.5-0.4
		c-0.2,0.1-0.3,0.3-0.5,0.4c-3,3-4.8,7.1-6.8,11.1c-0.8-3,2.5-5.5,3-8.6c-0.9,1.5-2,2.8-2.6,4.7c2.5-10.8,11.8-19.2,24-22.7
		c-8-0.5-12.9,5.6-18.4,9c4.6-4.7,9.6-8.9,17.1-10.7c-6.5,0.3-12.8,4.6-16.7,9c-1-0.5,1.3-1.2,1.3-2.1c-2.7,1.9-2.5,3.5-4.9,4.6
		c1.9-0.9-1.3-1.4-0.6,0.1c-0.8,0,0.3-1.7,0.9-1.7c-0.3-0.8-1.9,0.6-2.1,1.3c0.5-4.2,7.2-5.9,10.7-8.6c-7.1,1.3-13.3,7.2-16.7,13.7
		c-0.5-2.9,3.1-5.4,4.7-7.7c0-1.2-1.2,1-0.9-0.9c6.2-4.6,13-8.6,22.7-9.8c-7.9-2.1-17.9,3.1-23.5,6c2.2-5.7,7.9-4.2,12.8-9
		c-1.7-0.9-6.2-0.1-9.4,0.9c1.1-0.9,2.3-1.5,3.5-1.8c4.1-1.1,8.5,0.6,12.3,0.9c-1.8-0.9-2.6-2-5.1-1.3c1.8-1.7,3.3,0.2,5.1,0
		c0.7-1.7,2.2-1.4,4.7-1.7c-1.8,0.9,0.6,1.7,1.7,2.1c0.5-1.2-2.6-1.9-0.4-2.1c1.1-0.1,1.9,0.1,3.8,0.9c-0.1-2.1-3.2-2.2-4.7-1.7
		c1.5-1.9-2.3,0.6-0.9-1.3l0-0.9c0.1,0,0.3,0,0.4,0c7.6,0.6,11.5,7.6,18.4,6.8c3.9,6.3,11.5,9.9,15.8,16.7
		c3.3,5.1,6.9,13.1,6.8,20.5c0,3.7-2.2,7.8-2.6,12c-0.8,8.6-0.5,19.1,0,28.2c0.2,3.8,1.2,7.5,0.9,11.1c-0.9,10.1-6,19.4-4.7,28.7
		c4.9,4.5,13.2,5.6,20.1,8.1c-1.3-9.7,2.2-17,3.4-24.8c2-12.9,0.6-26.8,2.6-40.6c10.5-10.9,28.3-25.4,47.9-18c2,0.8,5.5,1.7,6.8,3
		c2,2,4.7,9,6.4,13.3c2,5,3.3,10.5,4.7,15c4.5,13.9,10.2,24.5,9.4,41.9c2.6,4.7,6.5,8,11.1,10.7l8.5,8.5l4.9,13.8v17.1l-3,31.6
		l-3.7,27.8V266v13.7l3.7,14.5l3,20.6v63.6l-13.4,0.5h-53.5c0-0.2,0-0.5,0-0.7c0.2-0.1,0.4-0.2,0.6-0.3c0.1,0.1,0.2,0.1,0.2,0.1
		c0-0.1,0.1-0.2,0.1-0.3c1.5-0.6,3-1.1,4.5-1.6c3-1,6.1-1.9,9.3-2.5c2.5-0.5,5.2-0.8,7.6-1.9c1.4-0.7,2.5-1.8,3.1-3.2
		c0.1,0,0.2,0,0.3,0c-0.1,0-0.2-0.1-0.3-0.1c0.2-0.5,0.4-1.1,0.6-1.6c1.1-4.5-1.4-9.5-3.8-13.2c-5.4-8.1-15.5-9.8-24.5-10.5
		c-0.5,0-1-0.1-1.4-0.1c0,0,0-0.1-0.1-0.1c-0.1,0-0.1,0-0.2,0.1c-0.2,0-0.4,0-0.7,0v-0.1c0,0-0.1,0-0.1,0
		c-7.2-0.4-14.3-0.4-21.5-0.2c-0.4,0-0.8,0-1.2,0c-2,0-4,0.1-6,0.2c-4.1-1.2-8.9,1-11.9-1.3c-1.5,0.8-4.2,1.4-5.1-0.4
		c-4.5,2.3-13.4-3.2-14.1,7.3c0.3,1.9-0.7,2.9-0.4,0.4c0.6-3.5,1.9-6.3,2.1-10.3c-6.6-2.4-20.3-1.2-29.5-3.4c-1.6,0.9-2.4,2.8-3,4.7
		c-2.2-0.8-3.8-0.4-5.6-0.9c0.7-0.8,2.2-0.9,3.8-0.9c0-0.6-2.5-0.6-0.4-0.9c-8-3-17-10.1-19.7-19.2c3.7,5.9,7.7,11.4,13.7,15
		c-7.3-8.8-15-17.2-17.5-30.8l-0.4-0.4c1.3-3.3-3.2-6.6-3.4-11.1c-4.8-2.9-3-10.1-7.7-12.8c-1.1,0.7-2,3.1-1.4,4.5l-0.9,0.4
		c-0.1-0.2-0.2-0.4-0.3-0.6c-5-0.3-3.4,6.8-2.1,9.4c-2.1-2.3-2.3-7.4-3-9.8C93.4,281,93.5,279.4,94.7,278.9 M271.4,180.5
		c1.9,0.3,2.6-0.6,4.3-0.4c-0.8-1.8-1.1-1.4-1.7-3C270.5,176.7,271.9,179,271.4,180.5 M262.8,322.1c3.4-0.5,7.5,1.2,7.7-0.9
		c-2.3-0.9-5-1.3-8.1-1.3C262.2,321,263.2,320.9,262.8,322.1 M259.8,326c2.3,0.7,6.1,2.2,8.1,1.7C265.8,326.8,262.1,325.3,259.8,326
		 M261.1,323.4c1.1,1.3,5.5,1.6,7.3,0.9C266.1,323.7,262.3,323.9,261.1,323.4 M256,331.1c3.4-1.6,6.4,1.8,9-0.4
		c-2.4-1-6.1-1.1-9-0.4C255.6,328.4,255.6,330.4,256,331.1 M263.3,172.4c-3.7,0.5-2.1-1.4-4.7,0.4c0.2-0.6,0.5-0.7,0-1.3
		c-1.4,0.2-2.5,0.6-2.1,2.6C258.7,174.2,261.2,174.5,263.3,172.4 M257.3,299.9c1.8-1.9,5.4-2,6.8-4.3
		C261.7,296.6,257.3,297.9,257.3,299.9 M261.5,334.1c-2.7-0.5-6.2-0.2-8.6,0.9C255.8,334.6,259.1,334.8,261.5,334.1 M258.6,287.5
		c-1.2-0.5-2-0.2-2.1,1.3C257.9,289,257.8,287.9,258.6,287.5 M253,286.2c0.1-2.9,7-3,3.8-6.4C256.2,282.1,250.5,283.4,253,286.2
		 M248.3,338.4c2.5,0.8,6.8-1.5,8.6-0.4C254.8,335.4,249.6,338.7,248.3,338.4 M245.7,171.1c2,2.1,4,2.3,7.3,1.3
		C252.4,169.4,247.7,169.4,245.7,171.1 M224.3,141.6c1.9-0.7,4.9-0.2,5.6-2.1C227.7,139.9,225.5,140.2,224.3,141.6 M216.6,116.8
		c0.1-0.9-0.3-1.4-1.3-1.3c-0.2,0.6-0.6,1.1-0.9,1.7C215.7,117.6,215.6,116.6,216.6,116.8 M173.9,173.7c8.1,14.5,26.8-6,20.5-18.4
		c0.2,0,0.5-0.3,0-0.4c-0.7,0.6-2-1.7-2.6-2.6c-7.2-0.7-9.3-4.9-18.8-5.6c0,9.2-3.5,14.8-8.6,18.8
		C167.3,170.2,169.3,171.3,173.9,173.7 M174.3,145.5c0.3-1.6-0.5-2.1-1.7-2.1c-0.1,0.6-0.6,0.8-0.4,1.7
		C173.1,144.9,173.8,145.1,174.3,145.5 M159.7,38.5c2.1,1.1,4.6,3.9,6.4,3.8C163.9,41.5,162.6,37.4,159.7,38.5 M164,105.7
		c0.7-0.9,2-2.5,0.4-3.4C164,103.5,162.5,104.8,164,105.7 M163.6,115.5c0.1-0.8,1.5-2.4,0.4-3C163.6,113,162.4,114.9,163.6,115.5
		 M160.2,201.9c0-0.9,1.2-0.5,0.9-1.7c-1.1-0.2-1.3-1.3-2.6-1.3c0.4,1.4-1.4,0.6-1.3,1.7C158.3,201,158.9,201.8,160.2,201.9
		 M154.6,209.2c0-1.3,1.1-1.5,1.3-2.6c-0.8-0.4-1.1-1.2-2.6-0.9c-0.3,0.8-0.6,1.7-1.3,2.1C153.2,208.1,153.5,208.2,154.6,209.2
		 M149.1,234.9c1.6,0.4,1.7-2.1,0.4-2.1C149.1,233.2,148.9,233.9,149.1,234.9 M143.9,211.3c0.5-0.6,1.5-1.8,0-2.1
		C143.3,210,142.8,210.6,143.9,211.3 M141.8,210.9c0.4-1.3-1.2-2.8-1.7-1.7c1.3,0.4-0.5,1.2-0.9,1.3c0-0.7-0.3-1.1-0.9-1.3
		c0,0.8-1.4,0.3-1.3,1.3c1.6,0.1,1.1,0.6,0.9,1.7C139.1,211.6,140.5,211.3,141.8,210.9 M140.5,220.3c0.2-1.5-0.4-2.2-1.3-2.6
		c0.4,1.9-1.3,2.6-1.7,1.3c0.3,0.8-1.3,1.8,0,2.1C137.9,219.7,139.2,221.3,140.5,220.3 M134.5,212.2c0.1-1.4-1.6-2.2-2.6-1.3
		c0.5,0.8,0.6,2,1.7,2.1C134.2,213,134.1,212.3,134.5,212.2 M132.8,234c1.6,0.7,2.4-1.6,1.3-2.1C133.7,232.6,133.1,233.1,132.8,234
		 M131.5,221.2c1.2,0.4,3.6,1,3.8-1.3C134.2,220.5,132.1,220,131.5,221.2"/>
	<path class="st1" d="M78.9,152.7c0.7-1.1,0.7-4.9-0.2-4.8c0.3-0.2,0.3-0.7-0.2-0.8C78.2,149.1,76.8,151.9,78.9,152.7 M83.2,148
		c0.3-1.9,1.1-2.8,0.4-4.3c-1.6,2.6-2.1,1.7-2.1,5.6c0.8-1.5,2.5,0.1,2.1,0.4C84.1,149.2,84.1,145.3,83.2,148 M74.2,167.3
		c2.5-1.9,1.5,5.3,3.4,2.6c0.1,2.3,1.1,3.7,1.7,5.6c0.1-4.1-1.6-9.3-3.4-12.8c-0.1,0.8-0.7-0.2-0.9,0.4c0.7,0.8,1.5,3.6,0.9,4.3
		c-0.3-1.3-0.7-2.5-2.1-2.6C74.4,166,73.6,166.4,74.2,167.3 M78.9,153.6c-1,1.4-2.5,2.4-3.9,3.4c0,2.1,1.3,3,1.3,5.1
		C78.2,160.5,79.9,156.6,78.9,153.6 M41.3,370.9c-0.5,0.5-0.5,1.5-0.4,2.6h1.7C42.8,371.9,42.2,371.2,41.3,370.9 M31,170.3
		c-0.4-2.3-1.5-3.9-2.6-5.6c2.2,8.2,8.5,23.1,15.4,29.1c-2.8-2.7-2.2-4.2-3.9-7.3c0.6-0.1,0.9,2.2,1.3,0.9c-0.4-2.7-3.9-2-3-4.7
		c-0.2,1.3,0.5,1.7,1.3,2.1c0.6-3.6-3-5.6-2.1-9c0.9,2.4,1.9,4.7,3,6.8c-2.8-11.4-5.8-21.6-4.7-38.5c-0.9-0.2-0.2,4.9-0.4,6.8
		c-0.3,2.4,0.6,6-0.4,7.7c-0.6-2.2-0.4-6.3-1.7-9c-0.6,5.7,0.4,10.4,0.4,14.5c-0.1-0.5,0.1-1.2-0.4-1.3c0,0.8-0.3,0.9-0.9,0.4
		c0.2,1.6-1,3.3,0.4,1.7c-1.2,4.7,3.1,9.6,3,13.3c-1.9-3.6-3.7-7.4-4.7-12C29.6,165.7,32.3,169.7,31,170.3 M33.1,93.7
		c-1.9,2.2-3.3,5-5.1,7.3c-0.8-0.1,0.2-0.7-0.4-0.9c-0.6,1.3-2,1.4-2.6,1.3c3.4-1.1,7-7,8.6-9.8c-0.4,0.5-2.9,1-1.7,1.7
		c0.1-0.5,0.5-0.7,0.9-0.9c-0.7,1.2-1.8,1.9-2.6,3c-0.2-0.7,0.6-1.1,0-1.3c-0.8,1.2-1.6,2.4-2.6,3.4c0.2-2.7,3.6-4.4,3.4-6
		c-1.5,0.7-2.1,4.3-4.3,3c-2.3,4.7-7.2,10.3-7.7,12.8c1.2-1.8,3-3,4.7-4.3c-0.4,1.3-3.3,2.3-2.6,3.4c1.8-2.3,5.2-4.5,7.3-5.1
		c-1.7,4.1-4.1,5.8-8.1,8.1c2.8-1.3,5.3-0.8,6.4-1.3c-0.1,1.2-1.7,3.1-0.9,3.8c0.2-0.5,0.5-1,0.9-1.3c-0.1,1.7-1.8,3.9-1.3,4.7
		c0.7-1,2-1.4,2.6-2.6c-1,2.8-1.4,4.6-2.6,7.7c2,0.1,2.9-3,3.8-2.6c-1,2.3-5.8,3.3-4.3,5.6c1.8-3,4.5-4.1,6.4-6
		c-0.2,0.6-0.5,0.7,0,1.3c3.2,0.2,5-2.9,7.3-2.6c-0.8,1.3-1.6,2.4-1.7,3.4c0.1-0.5,0.5-0.3,0.9,0c1.6-3.1,3-6.4,5.6-8.6
		c0,0.8,1.4,0.3,1.3,1.3c-0.8,3.5-3.4,7-5.6,7.7c0.5,0.3-1.1,2-0.4,3.8c-1.8-0.2-0.6,1.9-3.4,2.1c-0.5,0-0.6-0.6-1.3-0.4
		c-0.9-1.5-2.4-4.7-3.4-4.7c1.1,1.9,2.4,3.6,3.4,5.6c-0.8,0.1-2.1-1.2-2.6,0c0.4,0.2,2.4,0.9,1.3,1.3c-2,0.4-2.9-2.5-3.8-1.7
		c2.8,2.5,5.3,5.2,10.3,5.6v0.9c-2.6,0.4-6.2-2.2-6-1.7c0.8,1.1,2.5,1.2,3,2.6c-2.2,0.5-4.1-1.6-5.1-0.9c2.3,2.4,6.4,0.4,8.6,2.6
		c-0.3,0.1-0.8,0-0.9,0.4c0.3,0.1,0.9,0,0.9,0.4c-2.1,8.9,0,24.3-1.3,31.7c0.5-1.3,0.5,1.4,1.3,1.3c0.2-2.7,0.2,0,0.9,0.4
		c-0.1-4.7,0.7-7,1.3-10.3c0.6-3.2,1.9-9,3.2-14.1c1.3-5,2.7-9.3,3.7-10.3c1.5-1.4,3.6-1.4,4.7-2.6c2.7-2.7,4.5-9.5,4.7-12.8
		c1.4,1.9-0.5,6.2,0.4,7.7c1-4.7,2.9-8.5,3-14.1c0.8,0.1,0.9-0.5,1.7-0.4c0.9,3,1.3,6,2.1,8.1c0.6,0,0.9-0.2,1.3-0.4
		c0.6,6.5,11.5,6.1,10.7,0c-1,0.8-0.1-3,0-3.9c2.9,0.1,5-3.8,3.4-5.6c1.8-2.6,2.3-4,6.8-3.4c0.5-5.8,3.8-4.2,9-4.7
		c6-5-1.5-17.7,1.3-26.1c0.1,0.8,0.4,3.5,0.9,2.6c-0.6-2.9-1.3-6,0.9-7.7c0,1.1,0.2,2,0.9,2.6c-0.3-2.5-0.9-4.1-0.9-6
		c0.5,0.2,2.2,1.9,1.3,0.9c-1.8-2.5,1.3-11.3,0-14.5c-0.7-1.7-2.7-1-0.4-2.6c-1.7-0.5-1.7-2.9-3.4-3.4c-0.1,0.5,0.1,1.2-0.4,1.3
		c-0.6-0.5-0.5-1.8-1.7-1.7c-0.8,1.9-1.7,3.1-3,2.6c-1.4,3.9-6.1,4-9,8.1c-0.1-0.3,0-0.8-0.4-0.9c-3.5,2.7-6.2,5.3-8.6,9.8
		c-0.6-1.5,1.9-2,0.4-3c-0.4,0.6-0.7,1.3-1.3,1.7c-0.4-0.8,1.3-1.4,0-1.7c-1.7,4-6.7,4.7-9,8.1c-0.1-0.3,0-0.8-0.4-0.9
		c-0.6,1.5-2.3,4.8-4.7,4.3c-0.3,1.2-0.9,3.4-1.7,1.7c-0.2,2-1.4,2.6-2.1,0.9c-0.4,1-0.4,2.5-1.7,2.6c-0.2-0.8,1.3-1.8-0.4-1.7
		c-0.7,1.1-1.7,2-2.6,3c-0.1-0.6,0.2-1.6-0.4-1.7c0,1.8-0.9,2.8-2.1,4.3c-1-0.9,0.9-3,0-2.1c-1.8,0.9-1.8,3.6-2.6,5.6
		c-1.1-2.4,0.6-5.3-1.3-1.7c1,1.4-0.7,2.9,0.4,4.3c-1.5-0.7-1.3,1.9-1.7-0.4c-0.8,1.5-0.8,3.8-2.1,4.7c0.2-1.4,0.6-2.1,0-3
		c-0.7,2-1.3,1.3-3,2.1c1.1-1.5,2.1-4.3,3.4-4.3c-0.6-1.8,3.2-5,2.1-7.3c-1,3.1-2.9,5.4-4.3,8.1c-0.4-0.8,1.3-1.4,0-1.7
		c-0.8,2.2-1.5,4.4-3.4,5.6c0-0.8,2.2-1.5,0.9-2.1c0,0.2-0.3,0.5-0.4,0c0.3-1.1,0.4-2.4,1.3-3c1.2-6.9,0-0.7-2.1,1.3
		c0.3,1.6-0.7,1.8-0.4,3.4c-1-0.1-0.5,1.2-1.3,1.3c-0.5-1.5-0.1,1.2-1.3,0.4C31.6,95,34.4,94.5,33.1,93.7 M6.6,176.3
		c-1.5-2-4.1,0.6-2.6,2.6c0.2-1.3,1.4-3,2.1-1.3C6.2,177,6.4,176.6,6.6,176.3 M3.6,181.8c0.5-1.5,0.1,1.2,1.3,0.4
		c-0.6-1.7-0.8-1.1,0-2.6C3.5,180,4,180,3.2,179.3C3.5,180,2.7,181.8,3.6,181.8 M7.9,186.5c-0.2-1,2,0.2,1.3-1.3
		c-1.5-1-1.7,2.1-3.4,2.1c0.4,0.5,1.6,0.1,1.3,1.3c-0.6,0-2.4-0.8-1.3,0c1.2,0.3,1.1,3.7,2.1,1.7c-0.3,1-0.9,2.2,0.9,2.1
		c1.2-4.3,1-1.8,2.6-1.3c-1.3-1.2,1.6-2.4,1.7-2.6c-0.8,0,0.5-1.4,0-2.6C11.3,186.8,9.8,187.4,7.9,186.5 M1.5,169.8
		c1,0,2.5-1.7,1.3-2.6c-0.1,0.3-0.4,0.5-0.9,0.4c0,0.6,0.2,0.9,0.4,1.3C1.9,169.1,1.7,169.5,1.5,169.8 M3.2,169.4
		c-1,2.2-1.5,2.3-3,3.9v-68.9c0.9-3.1,3.3-10.1,6-12c1.5-1,3.1-0.7,5.1-1.3c31.7-9.4,62-29.8,87.1-47l0.6,0.8
		c1.9,1.2,2.5,2.7,4.7,4.3c-0.5,0.2-1.7-0.2-2.8-0.8c-0.5-0.3-1-0.6-1.5-0.9c-1.1-0.6,0,0.2,1.5,0.9c4.1,2.7,5.6,4.9,5.8,11.5
		c-0.7,0-0.3,1.1-1.3,0.9c-0.9,9-2.5,19.8-4.5,27.5c-0.2,0.2-0.1,0.5-0.2,0.8c0.1-0.3,0.1-0.5,0.2-0.8c0.1-0.1,0.1-0.1,0.2-0.1
		c-0.6,3.1-1.5,7.8-0.4,12c2-5,2.7-11,3.8-15.8c0.5,1.4-1.3,2.6,0,3.4c0.3-1.6,0.4-3.3,1.3-4.3c-0.1,4.5-0.8,8.1-1.3,10.3
		c-0.2-2-0.8,2.3,0,3c0.6-1.1-0.2-1.3,0.4-1.7c-1.2,8,1.6,0.4,2.1-1.7c0.9-3.3,0.8-7.6,2.6-9c-0.2,0.3-1,2,0,2.1l0.9,0.9
		c0.3,3.2-0.7,5-0.4,8.1c-1.3,0.9-0.9,3.6,0,4.7c0.3-1-0.5-3.1,0.4-3.4c0.2,2.7,0.2,0,0.9-0.4c0.1,2.1,0.3,7.4-1.7,4.7
		c0.1,6.5,1.1,7.3,0,13.7c-0.8-4.6,0-8.1-2.1-11.1c0.9,6.6,2.6,14.5,3.4,19.7c-0.9-1.8-1.1-4.3-2.1-6c-0.6,2.6,1,5.3,0,6.8
		c-1.1-2.7-2.5-6.4-0.9-9.4c0.6,0,0.3,3.1,0.9,1.7c-0.8-2.3-0.5-5.1-1.7-7.7c-0.7,0.3,0.1,2.1-1.3,1.7c0.6-3-0.2-2-0.9-4.7
		c0,1.4-0.2,2.6-0.9,3.4c-0.1-1.4-0.9-1.9-1.3-3c-1.2,3.1-0.3,8.2-1.7,11.1c-0.2-3.7,0.4-5.8-1.3-8.1c-1,8.6,0.2,12.8,0,21.8
		c0.4,1,2.6,2.9,0.9,3.4c-1.6-1.2-1.7-3.7-3-5.1c-0.3,3.7,1.7,3.7,1.3,6.8c-1.1-1.8-0.8,0.2-2.1,0.4c-0.7-1.1,0.5-1.5-0.4-2.1
		c-0.8-0.2-2.1-2.6-2.1-5.1c-0.1-3.1,2.6-6.3,1.3-7.7c-0.2,0.8-0.2,1.8-0.9,2.1c0.3-3.3,1-4.1,1.7-6.4c-3.1-0.1-1.5-4.8-3-6.4
		c0,3,0.9,5,1.7,7.3c-4.3,5.4,0.4,16.8-2.1,20.5c-0.8,3.3-2.4,9.6-4.3,13.3c0.4-5.4,3.2-11.8,2.6-14.5c-0.4,0.7-0.1,2.1-0.9,2.6
		c-1.2,0.3,0.3-2-0.9-1.7c-2.3,6.2-2.6,14.5-5.1,20.5c-0.5-1.1,1.3-2,0-2.6c-0.8,0.3,0.1,2.4-0.9,2.6c0.2-2.3-0.7-0.6-1.3,0v0
		c0.8-1.4,1.7-6.4,2.5-3.8c0.3-1.9-0.3-1.9-0.9-2.1c0.5-2.3,2.7-5.6,0.9-7.7c-0.7,2.6,0.4,4.9-2.1,6c-0.6,1.2-0.5,4.6-0.4,7.6
		c0,0,0,0,0,0.1c0,0,0,0,0,0c0,1.3,0,2.5,0,3.5c-0.1,0.9-1.9,6.2,0,1.7c0.3,2.9-0.5,6.9,0,8.6c-0.1-0.6,0.7-2.4,0.9-1.3
		c-2.5,8.6-2.8,22.2-0.9,31.7c0.3-6.8-0.1-14,0.9-21.4c-0.1,7.1,0.3,12.4,0.9,17.5c0.9,4.5-0.1-5.2,0.9-6c0.5,1.4,0.2,3.8,0.9,6
		c-5.5,11.4-8.9,25.3-11.5,35.1c-1.2,4.3-5.3,18.3-6.8,27.4c-1.6,0.3-1.9,4.9-2.1,6.8c-0.8,5.4-4.5,12.2-4.7,15.4
		c-0.3,4.9,2.5,8,3.8,12c4.1,12.4,8.3,26.9,14.1,39.8c5.9,13.1,14.1,24.3,18.4,34.6c-0.8,0.1-0.9-0.5-1.7-0.4
		c0.3,4.1,2.5,6.3,3.8,9.4H70.4v-0.4c-3,0.4-6.7-2.9-8.6-0.9v1.3H34c1.3-2.4,3.9-3.5,6.4-4.7v-3.8c-0.9-0.2-3.9-2.1-1.7-2.6
		c-2.2-1.3-5.7-1.4-7.7-3c1.5-2.4,4.7,2,7.3,0c-1.3-3.4-3.4-6-6.4-7.7c1.4-2.9,6-3.8,9.4-3.4c-0.4-2.4-3.7-4.1-1.7-6.4
		c-2-2.6-6.1-3-9.4-4.3c1.2-2.6,3-9.4,1.7-13.3c1.5,1.4,1.4-1.4,0.9-2.1c0.1-1,1.1,0.5,1.7,0.4c-0.5-3.8,0.2-3.8,0-6
		c-10.7-3.4-23.1-5.1-34.2-8.1V177.1c2.1,3.1,2.5-2.3,3.4-2.6c0.1-0.9-1.5-0.2-2.1-0.4c0-1.1,1.6-1,2.1-0.4
		C3.3,172.1,2.7,170.7,3.2,169.4 M97.7,110c1-2,2.6-5.7,1.7-8.1C98.9,104.3,97,107.6,97.7,110 M80.2,124.5c-0.6,0-0.9-0.2-1.3-0.4
		c-0.8,0.9-1.2,2.2-1.7,3.4C82.7,126.4,78.8,126.3,80.2,124.5 M55,137.8c0.5-2.9,3.4-7.9,2.6-9.4C57.2,131.7,54.5,135,55,137.8"/>
	<path class="st1" d="M122.1,22.5c-5.4,1.5-10.5,3.2-15.8,4.9l-0.4-0.2c3.5-3.4,10.5-4,16.6-5.8c5.1-1.5,11.5-3.7,16.3-3.4l-0.1,0.9
		C132.9,19.7,127.4,21,122.1,22.5"/>
	<path class="st1" d="M44.1,144.8c-0.4,1.7-1.2,3.5-1.6,4.9c-0.8-0.9-0.3-2.2,0.3-3.7c0.6-1.5,1.5-3.3,1.4-4.8
		C44.6,142.3,44.5,143.5,44.1,144.8"/>
	<path class="st1" d="M131.9,58.2c-0.4,4-1,8.9-2.3,13.7c0.3-7.7,0-16.6,5.3-18.9c-0.4-1.2-1.6,0.4-1.7,0.9c-0.6-1.4,2.6-2.5,3-4.3
		l0.4,0C136.4,52.6,133.7,55.8,131.9,58.2"/>
	<path class="st1" d="M112.3,74.9c-0.3,1-1.7,3.1-0.4,4.3c0-1.4,0.2-2.6,0.9-3.4c0.5,4.5-1.1,6.5,0,9.8c0.5-4.8,1.5-9.1,2.6-13.3
		c0,6.5-0.8,12-0.4,17.5c1.2-9.3,1.5-14,4.3-21.4c-1.5,12.1-1.5,26.5-2.1,41.9c-0.1-0.6,0.2-1.6-0.4-1.7c-0.4,1.2-0.1,3-0.9,3.8
		c0.2-6.3-0.1-14.2-1.3-18.8c-0.5,1.7,1,5.7-0.4,4.3c0.9,3.1,0.4,8-0.4,10.7c-0.1-4.7-1.1-8.4-1.8-12.5c-0.5-2.7-0.9-5.6-0.8-8.9
		c0.7-0.2,0.1-0.5-0.4,0l-0.9-0.9c1.2-1.5,0.7-16.1,1.7-10.3C111.3,75.6,112.1,73.8,112.3,74.9"/>
	<path class="st1" d="M241.6,202.2C241.6,202.2,241.6,202.2,241.6,202.2c0,0.2,0,0.3,0,0.5c-0.6-0.3-1.3-0.5-1.3-0.8
		c0-0.1,0.1-0.2,0.3-0.4C240.8,201.9,241.2,202.1,241.6,202.2"/>
	<path class="st1" d="M241.5,203.6c-0.1,0.6-0.2,1.2-0.3,1.8c-0.2,0.3-0.5,0.4-0.6,0C240,204.7,240.4,203.7,241.5,203.6"/>
	<path class="st1" d="M238.9,223.3l-1.3,0.2c-1.4-2.2-3.3-4.7-6-4.1c1.4,2,3.5,6.7,4.3,10.7c-3.3-0.1-4.3-2.9-9-1.7
		c0.5-0.1,1.5,1.2,0.4,1.3c-0.8-0.7-2.1-1-2.6-2.1c-0.6-3.3,1.6-3.9,2.1-6c-1.1,0.1-1.3-0.7-1.7-1.3c0.5-1.1,1.5-1.6,1.7-3
		c-1.2-0.4-1.8-1.4-2.1-2.6c0.3-1.1,1-1.8,2.1-2.1C232.3,215.7,236,217.9,238.9,223.3 M232.9,227.6c-0.3-1.3-0.9-2.2-1.3-3.4
		c-1.5,0.3-2.9,0.7-4.3,0C228.1,226.4,230.2,227.3,232.9,227.6"/>
	<path class="st1" d="M234.6,116.4l0.3,0.5c-3.1,1.4-7.6,2-7.6-0.5c0-1.9,4.9-0.4,2.1-0.4C231.8,116,233.5,115.7,234.6,116.4"/>
	<path class="st1" d="M222.3,379H120.8c-0.1-1,1.2-0.5,1.3-1.3c-0.5,0-1-0.1-0.9-0.9c2-0.3,3.2-2.9,3.4-4.8c0.2-0.1,0.2-0.3,0-0.4
		c0-0.3,0-0.6,0-0.8c-0.4,0.5-0.8,0.7-1,0.9c-0.9,0.2-1.7,0.4-2.6,0.7c-0.4,0.1-0.9,0.3-1.4,0.4c0,0-0.1,0-0.1,0
		c-0.3,0-0.7,0-0.9-0.2c-1-0.8-1-3.1-1.1-4.2c-0.2-1.8-0.4-3.6-0.3-5.4c0,0,0.1,0,0.1,0c0,0-0.1,0-0.1,0c0-0.4,0-0.8,0.1-1.2
		c0.4-0.3,0.7-0.6,0.9-0.9c-1.1-1.9-3.3-8.6-4.3-6.8c0.7-3.3-1.9-4.1-2.9-5.7c0.1-0.7,0-1.4-0.2-2c0-0.1,0.1-0.3,0.1-0.4
		c-0.1,0-0.2,0-0.3,0c-0.3-0.5-0.6-0.9-1-1.4c-0.3-1.2-0.3-0.8,0-2c-0.3-0.2-0.7-0.1-1-0.1c-0.2-0.3-0.5-0.6-0.7-0.9
		c0-0.1,0-0.2-0.1-0.4c-0.1-0.9-0.7-2.1-1.2-3.3c5.5,6.1,9.2,15.6,16.7,18.2c0.1,0,0.1,0.1,0.2,0.1c0,0,0.1,0,0.2,0l-0.2,0
		c-0.2-0.1-0.2-0.3,0.2-0.4c1.6,3.3,8.7,0.2,11.1,3.4v2.6c1.7,2.2,5,0.8,7.3,1.3c3.3,0.6,6.2,3,9.8,3.4c5.2,0.6,8.5,0.6,11.5,3
		c0.1-1.5,1.4,0.9,1.3-0.4c-0.7-0.7,1.1-2.4-0.4-2.1c1.7-3.1,1.1-10.4,3.4-15.8c-0.4,5.7-3.3,12.2,0.4,16.3
		c17.5,4.1,32.5,7.7,50.5,10.5C220,378.4,221.1,378.7,222.3,379"/>
	<path class="st1" d="M214.5,296c2.3,1.2,1.4,6.4-1.3,6.4c-1.2-3.2,1.6-4,0-6C213.8,296.5,214.4,296.5,214.5,296"/>
	<path class="st1" d="M170.9,123.2c0.3,2.8-0.9,6.1-1.3,9C168.7,129.6,170.3,126.6,170.9,123.2"/>
	<path class="st1" d="M159.3,174c1.9,1.6,3.7,1.5,3,3.5C160.7,176.9,160,175.4,159.3,174"/>
	<path class="st1" d="M159,173.5c0.1,0.2,0.2,0.3,0.3,0.5c-0.1-0.1-0.3-0.2-0.4-0.3C158.9,173.6,159,173.6,159,173.5"/>
	<path class="st1" d="M155.9,266.1c0.1-0.1,0.1-0.2,0.2-0.2C156.2,265.9,156.1,266,155.9,266.1"/>
	<path class="st1" d="M147.4,105.8c-0.6-0.2-1.2-0.3-1.8-0.5C146.4,105.3,147,105.4,147.4,105.8"/>
	<path class="st1" d="M143.9,59.1c0.6-1.1,0.9-1.3,2.1-0.9c-0.4,0.8-1,1.3-1.7,1.7c-1.2-0.2,0.7-0.6,0.9-0.9
		C145,58.4,144.7,59.2,143.9,59.1"/>
	<path class="st1" d="M144.8,80.5c-1.6,1.3-1.9,1.2-1.3,3.9c-1.2,1.6-3.7,2.1-5.4,3.3c1.1-0.7,0.4,1-1.1,0.6c0.9,1.8-2.1,3-3.9,2.1
		c-1.2,0.5-1.2,2.2-2.1,3c0.9-11.1,2.8-24.9,9-32.1c0.3,1.6-2.3,4-3,6c2.6-1-0.1,1.1,0,2.6c1.2-1.2,1.8-3.1,3-4.3
		c-0.3,1.9-2.9,5.1-3.9,7.7c1.3-0.6,1.4-2.3,2.1-3.4c0.3,1.6-1.4,4.9-2.6,6.4C136.3,80.1,142.7,78.1,144.8,80.5 M139.2,85.2
		c-1.1-2.1-3.4-1-3.9,0.9C136.6,86.5,138.6,86.4,139.2,85.2"/>
	<path class="st1" d="M139.6,98.4c0.1,3.1-4.4,5.3-6.4,7.7c0.9,1.5,2.5,2.4,4.4,3l-0.1,0.4c-1,0.4,1.6,0.9,1.7,1.7
		c-2,0.2-3.4-2.2-6.4-1.7c-0.9,0.7-0.8,2.3-2.6,2.1c-0.4-2.1-1.2-3.6-1.3-6c-0.8-0.2-1.3,0-1.3,0.6c0-0.1,0-0.3,0-0.4
		c0.3-2.2,2.4-4.7,3.9-6.1c-0.9,1.3,0.5,2.2-0.4,3.4C134,103.1,137,100.1,139.6,98.4"/>
	<path class="st1" d="M126.4,87.7c0-0.1,0-0.2,0-0.3c0.1-0.2,0.3-0.3,0.4-0.5c-0.2,0-0.3,0.2-0.4,0.5c0,0.1-0.1,0.1-0.1,0.1
		c-1.4-3.4,2.7-7.6,3.1-11.8c0.1-1,0.2-2.1,0.2-3.2c1.3-1.1,1.6-3.3,2.4-5c0.4,5.4-3.3,10.4-3.8,16.3c0.9-1.7,1.6-3.6,2.1-5.6
		c1.6,3.1-2.6,5.7-1.3,8.6c-0.4,0-0.3-0.5-0.4-0.9c-0.8,5.2-3.1,8.1-3.4,12.8c1.9-1.8,2.4-5,3.4-7.7c1,4.6-5.7,8.5-2.1,13.3
		c-2.4,8.7-1.1,19.5-0.9,29.1c-1.8-5.1-1.1-10.5-1.7-16.3c-0.7,0.8-0.6,2.3-0.9,3.4c0.6-13.4-1.5-31,3.4-42.8
		c0.6,4.6-1.5,9.7-1.7,14.5c1.1-1.9,0.8-3.5,1.6-4.9C126.3,87.6,126.3,87.6,126.4,87.7"/>
	<path class="st1" d="M130.3,49.1c0,0.2-0.1,0.4-0.1,0.6C130.3,49.5,130.3,49.3,130.3,49.1"/>
	<path class="st1" d="M129.6,71.9c0,0.2,0,0.4,0,0.6c-0.1,0.1-0.1,0.1-0.2,0.2C129.5,72.5,129.5,72.2,129.6,71.9"/>
	<path class="st1" d="M127.6,106.3c0,0.2,0,0.5,0.1,0.7C127.6,106.7,127.6,106.5,127.6,106.3"/>
	<path class="st1" d="M126.8,102.7c1.3,0.6-0.4,1.9,0,3c-0.5-0.1-0.4-0.8-0.4-1.3C127,104.3,126.7,103.3,126.8,102.7"/>
	<path class="st1" d="M121.7,124.9c0.3,1.8,1.9,6,1.3,9h-0.9C120.1,133.1,122.1,128.1,121.7,124.9"/>
	<path class="st1" d="M122.1,100.6c1,3,0.2,8.8,0,10.7C121.3,108.5,122.6,104.4,122.1,100.6"/>
	<path class="st1" d="M121.7,112.1c0.9,1.7-0.8,8-0.9,11.6c-0.7-1.9-0.6-4-0.2-6C120.9,115.7,121.5,113.8,121.7,112.1"/>
	<path class="st1" d="M120.9,100.6c0.2,1.9-0.7,4.8-1,4.6c-0.2-0.1-0.2-1,0.1-3.3c0.1-1,0.5-0.8,0.4-2.6
		C120.7,99.6,120.8,100,120.9,100.6"/>
	<path class="st1" d="M120.8,52.6c0.3,2.8-2.4,6.5-3,9.8C117.3,59.4,119.7,55.5,120.8,52.6"/>
	<path class="st1" d="M119.5,106.1c0.5,4.2,0.4,8.1-0.2,11.4c-0.3,1.5-0.6,2.8-1.1,4C119,116.7,118.8,110.9,119.5,106.1"/>
	<path class="st1" d="M111.8,321.3c3.3,3.7,6.9,7,11.1,9.8c-5.9-4.1-12.6-7-17.5-12c-2.2-2.3-3.6-5.6-6-7.7c-3.9-3.4-9.7-4.3-12.8-9
		c4.8-0.2,7.7,6.5,13.3,5.6c-0.2-0.7,0.3-0.8,0.9-0.9c-1.3-3.5-2.2-7.5-3.4-11.1c1.8,3.5,4,8.9,4.7,15.8c1,0.2,0.9-0.8,2.1-0.4
		c-0.2,0.8-1.7,0.3-1.3,1.7C105.1,316.4,106.8,322.2,111.8,321.3"/>
	<path class="st1" d="M115.7,116.4c1,1.5,0.6,2.8,0.4,4.7C115.1,120.4,116,117.8,115.7,116.4"/>
	<path class="st1" d="M114.8,48.4c0.8,1.8-2.9,2.8-3,5.1C111.2,51.8,114.1,50,114.8,48.4"/>
	<path class="st1" d="M113.1,59.5c1.2,1.4-0.8,3.1-0.4,5.1C111.6,64.8,113.1,61,113.1,59.5"/>
	<path class="st1" d="M111.8,302.4c-0.4,5.2,2.1,8.8,1.3,15.4c-2.8-1.1-1.6-6.1-4.3-7.3c0.7-1.1-0.7-1.7,0.9-1.7
		c-2.4-10.1-7.8-17.3-11.7-25.9l0.9-0.4c0.3,0.8,1.2,1.3,2.7,1.1c2.4,6.4,5,13.3,9.8,18.4L111.8,302.4z"/>
	<path class="st1" d="M111.8,53.9c1-0.8,1-2.4,2.6-2.6c-2.2,3.9-2.3,7.4-3,12.4c-0.2-8.1-6.9-13.4-4.7-17.1l1-0.1
		c0.2,2.3,3,4.4,2.8,6.5C111,51.8,111,54.3,111.8,53.9"/>
	<path class="st1" d="M109.3,36c-0.3,1.9,0.9-0.3,0.9,0.9c-0.9,0.8-0.8-0.3-1.7,0.4c0.5,3.2-1.3,4.1-1.3,6.8
		c1.1,0.6,1.3-1.7,1.7-0.4c-0.9,1-1.2,2-1.1,2.9l-1,0.1c-1.1-0.5-4.3-4.3-7.7-1.7l-0.6-0.8c1.5-1,3-2,4.4-3c0.3,1.8,1.8-0.2,2.6,0.9
		C106.1,39.3,107.6,37.6,109.3,36"/>
	<path class="st1" d="M110.1,135.6c-1.1-0.5-2.1-1.1-2.6-2.1c-0.7,0.1,0.4,1.8,1.3,1.7c-0.1,1-1.9,0.3-1.7-0.4
		c-0.3,0.5-0.2,1.1-1.3,1.7c-2.6-1.7-2.5-6.1-3.4-9.4c0.7,0.6,1.1,1.5,1.3,2.6c1-1.3-1.2-3-1.3-4.7
		C105.2,129.1,106.9,131.8,110.1,135.6"/>
	<path class="st1" d="M105,30.8c1.9,0,2.6-1.6,3.9,0c-0.9,2.3-2.3,3.8-3.4,6.8c-1,0.1-3-0.8-1.3-3.4c-1-0.1-2.3-2.5-3-4.3l0.2-0.2
		c0.8,0.6,1.6,1.3,2.4,1.9c0.3-1.9,1-3.3,2.2-4.5l0.4,0.2C105.7,28.4,105.6,29.8,105,30.8"/>
	<path class="st1" d="M102,172.8c2.4-2.2,5.6-4.4,8.1-5.1c-6.5,4.6-12.2,10-17.1,16.3C95,180.8,98.4,176.1,102,172.8"/>
	<path class="st1" d="M104.6,137.8c-1.3-0.4-1.4-2-2.6-2.6C102.6,134.7,104.4,136.5,104.6,137.8"/>
	<path class="st1" d="M102.9,124.5c-2,0.5,0-2.9-1.3-3C102.8,120,102.3,123.9,102.9,124.5"/>
	<path class="st1" d="M100.3,136.9c1.3,0.8,1.8,1.2,1.3,3C99.9,140.2,100.4,138.3,100.3,136.9"/>
	<path class="st1" d="M101.3,29.8l-0.2,0.2C86.1,19.1,73,6.2,52.4,0.9C38.3,1.5,30.6,8.5,22.5,15c-0.1,0.9,0.3,1.4,1.3,1.3
		c-0.1,1.1-1.4,0.1-1.7,0c0.2,0.1,0.5,1.6,0.8,1.2c-1.3,3.9-5.8,8.3-6.3,14.2c-0.2,1.7,0.2,3.5,0.4,5.2L16.4,37
		c-0.3-1.9-1-4.2-0.8-5.7c0.3-3,4.2-14.1,6-16.7c1.3-2,5-4.5,7.7-6.4c2.6-1.9,6.1-4.6,8.6-5.6C41.2,1.4,48.3-0.3,52.4,0
		c3.8,0.3,12.8,4.2,16.7,6C81.4,11.8,91,21.5,101.3,29.8"/>
	<path class="st1" d="M96,137.8c2.2,1.1-1.4,2.4,0,4.7c-1.7-0.3-0.8,2.9-2.6,4.3C93.3,144.5,95.3,140.6,96,137.8"/>
	<path class="st1" d="M92.2,99.7c0.6,0.5,1.9,0.4,1.7,1.7C92.9,101.3,91.9,101.1,92.2,99.7"/>
	<path class="st1" d="M92.2,71.9c3-0.2,2.7,6.2,1.3,6.8C91.4,77.2,93.8,73.2,92.2,71.9"/>
	<path class="st1" d="M90.9,77c1,1.4-0.5,3.8-0.4,4.7c-1.2-2.2-1.7-6.8,0.4-9.4c0,1.2,0.7,4.3-0.9,5.6C90,78.9,91.2,77.7,90.9,77"/>
	<path class="st1" d="M90.9,99.7c-0.3,2-1.9,0.2-3,1.3C86.9,100.3,89.9,98.5,90.9,99.7"/>
	<path class="st1" d="M85.8,188.7c0.5-0.7,2,1.1,3.8,0.4c-0.9,2.6-2.4,4.7-3,7.7c-1.2-0.6-0.5-1.8-0.9-3.8c0.5,0.1,0.4,0.8,0.4,1.3
		C87,193.1,86.1,190,85.8,188.7"/>
	<path class="st1" d="M87.5,166.4c1.4,4.6,1.7,11.9-0.4,16.7c-1-0.3-0.2-2.4-0.4-3.4c-0.5,3.2-1,6.4-1.3,9.8
		c0.1,0.8-0.4,0.9-0.4,0.4c-0.3-1.3,0.5-3.7-0.4-4.3c0.1-0.6,0.8-0.7,0.9-1.3C84.4,178.4,86.7,172.1,87.5,166.4 M86.6,179.3
		C88,173,85.7,177.5,86.6,179.3"/>
	<path class="st1" d="M84.5,159.2c1.4-0.4,0.6,3.1-0.4,3C84.6,161.6,84.5,160.3,84.5,159.2"/>
	<path class="st1" d="M84.5,163.9c0,0.4-0.4,0.3-0.7,0.4C84,164,84.2,163.9,84.5,163.9"/>
	<path class="st1" d="M83.8,164.3c-0.1,0.1-0.1,0.1-0.1,0.2c0,0,0-0.1,0-0.1C83.7,164.3,83.7,164.3,83.8,164.3"/>
	<path class="st1" d="M83.6,164.4c0.2,3-0.1,3.9,0,5.4C82.5,169.5,82.6,165.8,83.6,164.4"/>
	<path class="st1" d="M79.8,107.4c0.6,0.2,2.2-0.5,2.1,0.4c-0.2,1.8-1.4,2.6-2.6,3.4c-1.7,0.1-2.2-0.9-3.4-1.3
		c-0.6,1.5-1.8-1.1-2.6,1.3c-0.5-2.9,5.3-3.2,6.4-6C80.4,105.9,79.9,106.6,79.8,107.4"/>
	<path class="st1" d="M78.9,102.3c0.3,0.4,1,0.4,0.9,1.3c-0.4,0.1-0.4-0.2-0.4-0.4c-0.6,0.9-0.9,2.2-2.6,2.1c0.4-1.4,1.7-2,2.1-3.4
		C79.4,101.9,79.1,102.3,78.9,102.3"/>
	<path class="st1" d="M78.7,148c-0.1,0-0.1,0.1-0.2,0.1C78.5,148,78.6,148,78.7,148"/>
	<path class="st1" d="M62.7,107.4c1.2-0.1-0.4,2.6,0.9,2.6c-0.7,1-1.9-1-1.7-2.1C62.3,107.9,62.6,107.7,62.7,107.4"/>
	<path class="st1" d="M58,107c1.3,1.2-1.7,2-0.4,3.4h-1.7c2.1,1.1-1,2.4,0.9,3.4c1,0.2-0.2-1.9,1.3-1.3c-0.9,8.3-1,20.5-10.3,21.8
		c1-1,2.4-1.6,3.4-2.6c-0.5-0.6-2.1,1.3-3,1.7c-1.2-3,3.9-3.5,4.7-6c-1.8,0.2-3.7,4-6.8,4.3c0.2-1.4,2.3-0.9,2.1-2.6
		c-0.1-0.9-1.5,0.4-1.3,1.3c-0.8-1.8,4.3-5.9,5.1-9.4c1.7,0.1,1.7,1.7,3,2.1c-0.9-1-1.5-2.2-2.6-3c1.8-2.8,2.7-7.2,1.7-12
		C54.4,106.7,57.5,107.3,58,107"/>
	<path class="st1" d="M43.8,109.5c0.8-0.4,2-1.4,3-0.4c-0.5,1.6-1.3,0.6-1.7,2.6C44.4,111.3,43.6,110.9,43.8,109.5"/>
	<path class="st1" d="M45.1,129.2c1.3,0.7,0.5,1.6,0.4,3c-0.6,0-1.2-0.1-1.3,0.4c-1.3-0.5,0.7-1.2,0.9-1.7c-0.4-0.8-3.1,1.8-2.1,0
		c-1.2,0.4-0.8,2.3-3,1.7C41,130,44.3,131.1,45.1,129.2"/>
	<path class="st1" d="M40.4,136.1c1.5-1.5,3.8,0.7,6.4-0.4c-2.3,2.5-3.6,6.1-4.3,10.3c-0.8,1-0.3-2.8-0.4-3.9
		c-1.1,6-1.4-1.8-0.4-3.4c-0.4-0.6-0.7,0.2-1.3-0.9C40,136.4,43.2,136.1,40.4,136.1 M42.6,141.2c0-0.7,1.4-3.1-0.4-3
		C42.4,139.1,41.6,141,42.6,141.2"/>
	<path class="st1" d="M45.5,133.1c-0.3,2.6-4.3,0.7-6,0.9C41.1,133.2,43.6,133.4,45.5,133.1"/>
	<path class="st1" d="M40.8,111.7c-0.2,1.7-1.2,3.3-2.1,4.7C39,114.4,39.5,112.6,40.8,111.7"/>
	<path class="st1" d="M39.6,94.1c0.4,0.8-1.1,2.8-1.8,3.8c-0.9-1.3,0.8-2.4,0.9-3.8C39.1,94.4,39.5,94.7,39.6,94.1"/>
	<path class="st1" d="M38.7,116.4C38.7,116.4,38.7,116.4,38.7,116.4L38.7,116.4C38.7,116.4,38.7,116.4,38.7,116.4"/>
	<path class="st1" d="M32.7,128.8c1.5-1.2,3.7,0.6,6,0C38,130.6,34.2,130.3,32.7,128.8"/>
	<path class="st1" d="M37.8,97.9C37.8,97.9,37.8,98,37.8,97.9C37.1,98.7,37.3,98.5,37.8,97.9"/>
	<path class="st1" d="M34,109.5c0,1.3-2.2,0.4-2.1,1.7c-0.5-0.1-0.2-0.4,0-0.4c0-0.4-0.5-0.3-0.9-0.4c0.4-0.6,0.4-1.6,0.9-2.1h1.7
		C33.3,108.7,32.6,109.8,34,109.5"/>
	<path class="st1" d="M28.4,118.1c-0.4-1,0.7-4.1,3-3.8C31.1,116.2,29.1,116.5,28.4,118.1"/>
	<path class="st1" d="M22.8,17.5c0-0.1,0.1-0.2,0.1-0.3C22.8,17.3,22.8,17.4,22.8,17.5"/>
	<path class="st1" d="M16.9,36.9c0.4,2.9,0.6,5.8-2.1,7.6c-1.8,12.6-4.1,24.7-6,37.2C7.1,83,6,84.6,4.9,86.4c-1.9-0.1-2.9-1-4.7-1.3
		v-0.9C8,88.4,8.8,75.8,10,68c1.3-8,1.9-17,3.4-22.7c0.7-2.7,2.8-5.2,3-6.8c0-0.5,0-1-0.1-1.6L16.9,36.9z"/>
	<path class="st1" d="M3.2,379h-3v-32.9c0.3-0.1,0.5-0.4,0.4-0.9c2.4-0.1,3.7,0.9,5.1,1.7C2.4,355.1,1.7,368,3.2,379"/>
</g>
</svg>
