<?xml version="1.0" encoding="utf-8"?>
<!-- Generator: Adobe Illustrator 19.0.0, SVG Export Plug-In . SVG Version: 6.00 Build 0)  -->
<svg version="1.1" id="Layer_1" xmlns="http://www.w3.org/2000/svg" xmlns:xlink="http://www.w3.org/1999/xlink" x="0px" y="0px"
	 viewBox="0 0 320 378.9" style="enable-background:new 0 0 320 378.9;" xml:space="preserve">
<style type="text/css">
	.st0{fill:none;stroke:#EBEBEF;stroke-width:2;}
	.st1{fill:#EBEBEF;clip-path:url(#SVGID_2_);}
</style>
<line class="st0" x1="0" y1="378" x2="292.3" y2="378"/>
<g>
	<defs>
		<rect id="SVGID_1_" x="39.4" width="253.2" height="378"/>
	</defs>
	<clipPath id="SVGID_2_">
		<use xlink:href="#SVGID_1_"  style="overflow:visible;"/>
	</clipPath>
	<path class="st1" d="M222.4,93.4l5.7,8.3c-0.1,2.3,2.3,6.7,3.2,9.7C228.6,106.6,225.9,99.4,222.4,93.4"/>
	<path class="st1" d="M222.4,93.4l-4-5.7C219.9,89.3,221.2,91.3,222.4,93.4"/>
	<path class="st1" d="M292.6,378h-200c1-3.6,0.6-8.8-1.1-11.3c-0.7,3.6-1,7.6-1.6,11.3H39.4c1.3-10,1.9-20.1,2.7-31.2
		c2.5-35.3,6-62.1,11.3-97.3c2.8-19,4.5-38.2,6.5-54.3c1.4-11.5,3.2-38.1,11.3-42.5c12.9-7,24-11.2,36-16.1
		c7.5-20.8,12-44.6,32.8-52.2c0,1.2,0.6,4.3,1.6,2.7c-1.5-0.4,1.8-3.1,0.5-3.2c-0.4,1.8-1.8,0.5-2.2-0.5c3.2,1.1,3.3-4,1.9-4.8
		c2,0.5,2-0.2,3.5-1.2c0.8,1.9,3,5.1,4.8,4.3c2.3,3.1,4.2,8.5,8.6,6.4c-0.3-1.8,0-5.7-1.1-8.1c-2.2,0.9-4.2-2.5-5.4-0.5
		c-0.7-0.8,2.3-4.7,1.1-5.9c-1.3-0.2-4.1-3.4-5.9-4.8c-0.2,1.1-1.6,3.7-2.2,2.7c1.7-0.7-2.1-0.7-2.2,0c-2.9-5.2-1.2-13.6,2.2-17.7
		c-1,0-2.8-0.2-3.8,0c-0.1-2.8-1.9-2-2.2-5.4c-2-0.3-0.2,6.7-2.2,4.3c1.1,8.5-1.1,16.5,1.6,24.7c-5.4,3.4-8.9-2.4-7.6-6.2
		c0.1-0.1,0.1-0.2,0.1-0.3c0,0.1-0.1,0.2-0.1,0.3c-0.3,0.4-1.4,0.3-1.5-0.3c0.1-5-2.6-9.5-2.6-14c0-0.8,0.1-1.5,0.2-2.2
		c0.2-0.7,0.4-1.4,0.8-2.1c3.1,0.2,4.9,1.3,7.5,1.1c-1.3-4.1-2.4-8.4-3.2-12.9c-0.7,5.4,2.7,9.4,2.1,12.9c-2-0.8-3-2.7-6.5-2.2
		c-0.3,1-0.6,2-0.8,3.2c-0.2,0.7-0.2,1.5-0.2,2.2c-0.5,8.1,2.3,18.2,6.9,22.1c2.4,0.6,2.7-0.9,4.3-1.1c1,2.3,1.6,7.5-1.1,6.5
		c1.9-1.3,1.2-1.9,1.1-4.8c-0.9-0.8-2.7,0.5-4.8,0c-2.5-1.4-4.5-4.8-5.4-9.1c-1.3-6.4-3.9-14.7,0-19.4c2.9-0.4,4.6,0.4,5.9,1.6
		c-1.5-5.2-2.9-10.3-2.7-16.1c0.7-24.7,21.4-36.6,41.5-36.2c0.2,0,0.4,0,0.7,0c0.1,0,0.2,0,0.3,0c0.3,0,0.6,0,0.8,0
		c0.3,0,0.6,0,0.9,0.1c-0.3,0-0.6,0-0.9,0c-0.4,0-0.9,0-1.3,0c-2.5,0-3.6,0.2-3.7,0.3c0,0,0,0,0,0.1c0,0,0.1,0,0.1,0.1
		c0.1,0,0.1,0,0.2,0c0.1,0,0.2,0,0.4,0.1c0.1,0,0.2,0,0.4,0c0,0,0,0,0.1,0c1.1,0.1,2.8,0.1,4.4,0c0.4,0,0.8-0.1,1.2-0.1
		c0.4,0,0.8-0.1,1.1-0.2h0h0c0.3,0,0.7,0.1,1,0.1c0.3,0,0.7,0.1,1,0.2c1.4,0.2,2.7,0.5,4,0.8c0.7,0.2,1.3,0.3,2,0.5
		c0.3,0.1,0.6,0.2,0.9,0.3c0.1,0,0.1,0,0.2,0c0.6,0.2,1.2,0.4,1.8,0.6c0,0,0,0,0.1,0c0.6,0.2,1.2,0.5,1.8,0.7c0,0,0.1,0,0.1,0
		c0.3,0.1,0.6,0.3,0.9,0.4c0.3,0.1,0.6,0.3,0.8,0.4c0.1,0,0.1,0.1,0.2,0.1c0.3,0.1,0.5,0.3,0.8,0.4c0.3,0.2,0.6,0.3,0.9,0.5
		c0.6,0.3,1.2,0.7,1.7,1c0.2,0.1,0.4,0.3,0.7,0.4c0.1,0,0.1,0.1,0.2,0.1c0.2,0.1,0.5,0.3,0.7,0.5c0.1,0,0.1,0.1,0.2,0.1
		c0.2,0.2,0.5,0.3,0.7,0.5c0,0,0.1,0,0.1,0.1c0.3,0.2,0.5,0.4,0.7,0.6c0.9,0.7,1.7,1.4,2.5,2.2c0.2,0.2,0.4,0.4,0.6,0.6
		c0,0,0.1,0.1,0.1,0.1c0.2,0.2,0.5,0.5,0.7,0.7c0,0,0.1,0.1,0.1,0.1c0.2,0.2,0.3,0.4,0.5,0.5c0.1,0.1,0.2,0.3,0.3,0.4
		c0.1,0.1,0.2,0.3,0.3,0.4c0.1,0.2,0.3,0.3,0.4,0.5c0.2,0.3,0.4,0.5,0.6,0.8c7.3,10,7,22.4,6.5,37.6c2.4-1.9,4.6,1.1,5.9,2.2
		c0.9,4.6-1.3,6.1-2.2,8.6c-1.7,5.4,0.4,13.9-5.4,16.1c4.8-7.9,4.4-14.7,7-24.7c-1.1-0.5-2.6-0.7-2.7-2.2c-2.7-0.5-2.6,1.7-4.8,1.6
		c-0.4-4.1,3.3-12.5,1.1-16.7c-0.3,1.6,0.7,4.6-0.5,5.4c-1.6-1-1.1-2-1.6-3.2c-0.1,0-0.2,0-0.3,0c-0.1,0-0.2,0-0.2-0.1
		c-0.1-0.9,0.6-0.8,1.2-0.7c0.2,0,0.3,0.1,0.5,0.1c0.3,0.1,0.4,0.1-0.1-0.4c-1.5-0.8-1-2.3,0-3.2c-1.9-1-0.7-4.9-2.2-1.1
		c-0.8-3.1,3.3-3.9,0.5-5.9c0.5,2.3-0.5,3-1.6,3.8c0.1,0.7,1.8,3,0,4.3c0,0,0.1,0,0.1,0c0,0,0.1,0,0.1,0c0,0,0.1,0,0.1,0
		c0.1,0.1,0.2,0.2,0.3,0.3c0,0.1,0.1,0.1,0.1,0.2c0,0,0,0,0,0c0.3,0.7,0.1,1.9,0.6,2.4c-0.1,0-0.2-0.1-0.3-0.1
		c-0.1,0-0.2-0.1-0.3-0.2c-0.1-0.1-0.2-0.1-0.3-0.2l-0.1-0.1c0,0,0,0,0,0c-0.1,0-0.1-0.1-0.2-0.2c-0.1-0.1-0.2-0.1-0.3-0.2
		c-0.1,0-0.1-0.1-0.2-0.2c-0.3-0.3-0.6-0.7-0.9-1c0-0.1-0.1-0.1-0.1-0.2c-0.4-0.6-0.8-1.3-1.2-2c-0.1-0.1-0.2-0.3-0.2-0.4
		c0,0,0,0,0,0c-0.2-0.3-0.3-0.6-0.5-0.9c0,0,0,0,0,0c-0.3-0.5-0.5-1-0.8-1.4c-0.4-0.7-0.7-1.3-1.1-1.9c-0.1-0.1-0.2-0.3-0.3-0.4
		c-0.1-0.1-0.1-0.2-0.2-0.3c0-0.1-0.1-0.1-0.2-0.2c-0.1-0.1-0.2-0.2-0.2-0.3c-0.1-0.1-0.2-0.2-0.3-0.3c-0.3-0.4-0.7-0.7-1.1-1
		c-4.1,5.1-21.1,0-23.1,5.4c-0.2-0.4-0.7-0.4-1.4,0.1l-12.6,0.6c-0.3-0.2-0.7-0.2-1.2,0.1c-0.2-0.2-0.5-0.1-0.8,0.7
		c0,0.1-0.1,0.1-0.1,0.2c0-0.1,0-0.1,0.1-0.2c0.1-0.3,0.4-0.5,0.8-0.7c0.7,0.5,1.3,3.9,2.3,2.5c0.1,0.1,0.2,0.1,0.5,0
		c1.5,1.2,3.1,2.3,4.4,3.6c-1.2,1.4-2.4,2.9-3.4,4.1c-1.2,0.6-2.3,1.4-3.3,2.5c-1.6-0.3-3.9,2.5-3.8,3.8c-0.5-0.3-1.9,0.2-2.5,0
		c-0.3,2.3,3.3,3.4,4.3,2.7c-0.9-0.5-1.5-2,0-2.2c2.5,4.7,5.9,1.9,7.5,4.3c-0.8,2.9-1.8-2.3-2.2,0.5c1.4,1.3,5.1,5,8.1,6.5
		c-0.1-3.1,4.1,0,4.8-1.1c0.2-1.3,2.3-0.7,4.8-0.5c4.5-3.7,10.6-5.8,17.7-7c0.5,1.1,2.4,0.9,2.2,2.7c-2.6,0.2-4.3,0.5-5.4,3.2
		c2,1.8,6.2,1.3,7,4.3c-5.6,1.3-6.9,7-13.4,9.7c-3.1-3.2-10.7-1.9-10.8-8.1c-6.5,2.2-8.7,6.8-8.1,15.1c-4-0.2-8.6,1.8-8.1,4.3
		c1.3-2,6.3-0.5,7.5-1.1c-0.4,4.1,5.5,4.8,4.8,5.9c4.2-0.7,6.9-6.5,11.8-3.2c0,4.4-9.8,5.8-7.5,10.2c-0.5,0.9,3.2,1.5,5.4,2.2
		c2.8,0.8,5.8,1.6,7.5,2.7c-0.8,1.7,0.3,2.4,0.5,4.3c-1.2-1.4-3.8,0.7-2.1,2.2c1.7-0.8-1.1-2.7,2.7-1.1c3.7-2.4,5.4-6.8,9.7-8.6
		c2.3-5.4,2.5-12.9,4.3-18.8c3.8,2.3,7.2,5,10.8,7.5l4,5.7c3.5,6,6.2,13.2,8.9,17.9c-0.9-3-3.3-7.4-3.2-9.7c6,9.6,9.4,26.9,3.2,37.1
		c1.9-0.6,1.4-1.1,2.7-1.6c7.5,2,12.5,6.1,18.3,9.1c1.2,4.8,7.1,4.3,7.5,8.6c6.2-0.9,5.4,5.3,9.1,7.5c1.6-1.7-0.8-5,0.5-5.4
		c1.7,3.1,3,7,3.3,10.5c0,0.1,0,0.2,0,0.3c0.2,2,0,3.9-0.5,5.4c-0.1,0-0.2,0.2-0.1,0.4c0.1-0.1,0.1-0.3,0.1-0.4
		c0.3-0.1,0.8,0.2,1.1,0.5l0.1,0.5c-1.1,0.7,0.9,5.4-0.8,5.8c2.9,1.7,0,5.9,2.2,8.1c-2.6-1,1.2,1.1-1.1,1.6c1.5,1.6,0.1,2.7,1.6,2.7
		c3.3,42.7,7.2,94.5,12.4,142.5C289.4,349.8,291,364.6,292.6,378 M252.8,171c3.3,0.7,5.3,5.4,7,5.9
		C258.9,174.2,253.8,170.2,252.8,171 M242.1,167.8c2.9,0.2,6.2,2.7,8.6,1.6C247.8,169.2,244.3,166.8,242.1,167.8 M237.8,166.7
		c-3-1.9-3.1-6.6-8.1-6.5c-1.5,0.1-1.2,2-2.2,2.7c-2.3-4.7-1.1-11.2-3.2-15.1c-1.7,4.5,2.6,9.7,1.1,15.1
		C229.6,164.1,233.9,165.2,237.8,166.7 M222.7,276.9c10.9,2.5,11.4-13.3,4.8-14C221.9,262.4,218.5,272.8,222.7,276.9 M215.7,349
		c4.2-0.7,8.6-5.3,7-10.8c-2.9-9.8-19.6,2.8-10.8,10.2C213.9,347.9,213.8,349.3,215.7,349 M210.4,33.3c0.5-7.2-4.7-17.8-10.8-22
		c0.1,0.4,0,1.1,0.5,1.1c3.5,3.3,7.4,9,7.5,14C209.8,27.4,210,30.5,210.4,33.3 M200.1,16.1c1.3,0.3,2.1,3.9,3.2,2.7
		C202.3,18.2,201.7,14.5,200.1,16.1 M202.3,175.8c9.4-9,1.5-24.2-2.2-30.1c-1.3-0.2-1.2,1-2.7,0.5c0.1-1.4-0.5-2.5-1-4.1
		c-0.1-0.2-0.1-0.5-0.2-0.7c0-0.1,0-0.2-0.1-0.3c0-0.2-0.1-0.4-0.1-0.5c0-0.2-0.1-0.4-0.1-0.6c-0.1-0.5-0.1-1-0.2-1.6c0,0,0,0,0,0v0
		c0-0.4,0.1-0.8,0-1.1c0-0.1,0-0.3,0-0.4c0-0.1,0-0.2-0.1-0.2c0,0,0-0.1,0-0.1c0,0,0-0.1,0-0.1c-0.1-0.1-0.2-0.2-0.3-0.2
		c-0.1-0.7-0.2-2.2-0.3-4v0c0-0.5,0-1-0.1-1.5c0-0.2,0.1-0.5,0.2-0.7c-0.1,0-0.2,0-0.3,0c-0.2-3.9-0.4-8.2-0.5-10.7c0,0,0-0.1,0-0.1
		c0-0.1,0-0.1,0-0.2v0c0-0.1,0.1-0.2,0.1-0.2c0,0,0,0,0,0c0.1-0.4,0.2-0.9,0.3-1.3v0c0.2-0.3,0.3-0.6,0.2-0.9c0-0.1-0.1-0.2-0.2-0.3
		c-0.1-0.1-0.1-0.1-0.2-0.2c-0.3,3.2-2.6-0.5-3.2,0.5c-3.8,3.5-10.9,11.3-19.9,9.7c-0.1-1.9,1.7,0.4,1.1-2.7
		c-4.5-0.9-5.5,1.2-8.6-0.5c-3.7,3-1.9,3.5-2.2,7c-5.6,0.7-4.8,0.8-7.5,5.4c1.4,2.1,5.2,8.3,2.2,9.7c-1.6-2.6-4,2.3-6.5-0.5
		c-0.2,1.1-1.1,1.4-1.6,2.1c0.7,0.5,2,0.5,2.2,1.6c-2.1,4.2-5.9,3.2-10.2,4.8c-0.7,6.7,0.2,13.5,4.8,17.2c0,17,7.1,29.6,10.2,43.6
		c1.2,5.2,1.8,10.4,4.8,15.1c2.4-1.2,2.8-0.7,4.8,0.5c1.5-2.3,1.2-1.2,2.7-2.7c1.6,0.6,1.7-0.3,0.5,1.6c2.3,0.7,0.7-2.6,2.7-2.2
		c0.4,4,2.3,3.5,3.8,4.8c1.8-0.7,1.1-0.8,2.7-1.1c0.9,2-0.3,0.8-0.5,2.7c1.9-0.2,1.3-1.5,3.2-0.5c0.1-0.7,0.2-1.3,1.1-1.1
		c0.3-2.8,1.5-4.6,1.1-8.1C191,209.3,196.2,192.1,202.3,175.8 M200.7,64.5c0.2-2-2-1.6-3.2-2.1C197.6,64,199.4,64.1,200.7,64.5
		 M198.5,65.1c-2.1-1.1-4.4-0.4-4.8,1.6C196,66.8,198.2,66.9,198.5,65.1 M191,5.4c2.9,1.2,5.9,5.2,8.1,5.4
		C196.9,9.1,192.1,4.6,191,5.4 M184.6,2.7c10.1,4.6,0.3-1.7-1.6-0.5C183.5,2.5,183.9,2.4,184.6,2.7 M189.4,104.3
		c-1.5-1.2-4.9-1-8.6-0.5c-1.2,1.6-0.6,2.6-2.7,3.8C183.4,108,187.1,106.9,189.4,104.3 M188.3,113.5c-3.3-1-4.2,0.1-6.5-1.1
		c-1.7,2.1-5.4,3.2-7,3.8C179.1,116.9,185.3,116.6,188.3,113.5 M171.6,108.1c2,0.3,7.4-0.4,2.7-0.5c-1.7-0.3-2.2-1.7-4.3-1.6
		C169.2,108,171.4,107,171.6,108.1 M173.8,249c2.2-3.3,1.5-6.3-1.1-9.1C170.9,242.9,169.6,247.5,173.8,249 M172.2,2.2
		c-1.8,0.1-4.6-1.1-5.9,0.5C168.1,2.4,171.3,3.4,172.2,2.2 M163,100.6c0.5-1.4,3.3-0.7,3.2-2.7C164.4,97.7,161.7,99.4,163,100.6
		 M164.7,97.9c-0.6-1.6,2.6-2,1.1-2.7c0.2,1-2.4,0.8-1.6-0.5c-1.6-0.1-3,1.8-1.1,2.2c0.1-0.7,0.2-1.3,1.1-1.1c0,0.5,0.4,0.6,0.5,1.1
		c-1.4,0.1-2.6,0.3-3.2,1.1H164.7z M160.9,3.2c0.7,0.7,3.2,0.5,3.2-1.1C162.7,2.2,161.6,2.5,160.9,3.2 M161.4,65.6
		c-1.6-1.4-2.6,1-3.8,1.6C159.6,67.3,160.9,66.9,161.4,65.6 M159.3,341.5C159.3,341.5,159.3,341.5,159.3,341.5c0,0-0.1,0.1-0.1,0.2
		c0,0.1-0.1,0.2-0.1,0.2c0,0,0,0,0,0c-0.1,0-0.2,0.1-0.3,0v-1.1c-1-0.3-2.2,1.6-2.7,0c1.2-0.4,2.1-1.1,2.2-2.7
		c-1.3-1.3-1,0.8-2.7,0.5c1.9-1.9-1.5-1.2-1.6-2.7c1.7,0.3,2.1-1.1,3.8-2.2c0.7,0.3,0.1,2.1,1.1,2.2c0.8-2.2,1.5-5-0.5-5.9
		c1.7-0.5,1.7,0.8,2.7,1.1c-4.6-5-9.6,3.2-9.1,8.1c0.1,1.1,0.5,2,1,2.8c0.2,0.2,0.4,0.5,0.6,0.7c0.8,0.8,1.8,1.3,2.8,1.3
		c0.1,0,0.2,0,0.2,0c0.1,0,0.1,0,0.2,0c0.1,0,0.1,0,0.2,0c0.1,0,0.2,0,0.2-0.1c0.1,0,0.1,0,0.2-0.1c0.2-0.1,0.3-0.1,0.5-0.2
		c0.5-0.3,1-0.7,1.3-1.4c0-0.1,0.1-0.2,0.1-0.3c0.1,0,0.1-0.1,0.1-0.2l0,0C159.2,341.7,159.3,341.6,159.3,341.5
		C159.3,341.6,159.3,341.5,159.3,341.5 M151.2,64.5c-0.3,2.3,3.4,3.4,4.8,2.2C153.7,66.7,154.3,63.8,151.2,64.5 M148.5,36.6
		c-0.1,0.2,5.2-1.6,3.8-2.7c-0.5,1.2-2.4,0.9-3.2,1.6C149.8,37.6,146.9,35.3,148.5,36.6 M133.5,28.5c1.9-6.7,5.4-11.8,9.7-16.1
		c-5.2,3.7-8.4,9.5-10.2,16.7C132.6,32.2,133.9,30.9,133.5,28.5 M129.7,60.8c-0.9,7.4,3.2-4.3,1.1-4.3
		C131.2,58.7,129.7,59,129.7,60.8 M98,290.4c0.6-3.4,1.5-11.5-0.5-14C95.8,280.5,96.5,286.5,98,290.4"/>
	<path class="st1" d="M206.8,37.7c0-0.1-0.1-0.1-0.1-0.2C206.7,37.6,206.8,37.7,206.8,37.7"/>
	<path class="st1" d="M200.2,30.4c0-0.1-0.1-0.1-0.2-0.2C200.1,30.2,200.2,30.3,200.2,30.4"/>
	<path class="st1" d="M196.1,140.7c0,0.2,0.1,0.4,0.1,0.5C196.2,141.1,196.1,140.9,196.1,140.7"/>
	<path class="st1" d="M161.4,34.6l-1.2,0.1C160.7,34.4,161.1,34.4,161.4,34.6"/>
	<path class="st1" d="M195.1,130.1C195,130.1,195,130.1,195.1,130.1c-0.3-3.2-0.6-6.8-0.8-9c0.1-0.6,0.2-1.2,0.3-1.7c0,0,0,0,0,0
		C194.7,121.9,194.9,126.2,195.1,130.1"/>
	<path class="st1" d="M196.3,141.5c0.1,0.2,0.1,0.5,0.2,0.7C196.4,142,196.4,141.7,196.3,141.5"/>
	<path class="st1" d="M195.1,130.8c0,0.5,0,1,0.1,1.5c0-0.4-0.1-0.9-0.1-1.3C195.1,130.9,195.1,130.8,195.1,130.8"/>
	<path class="st1" d="M194.6,119.4L194.6,119.4c-0.1,0.5-0.2,1.1-0.3,1.7v-0.1C194.3,120.5,194.4,119.9,194.6,119.4"/>
	<path class="st1" d="M204.6,37.8c0,0.1,0.1,0.1,0.1,0.2C204.7,37.9,204.6,37.8,204.6,37.8"/>
	<path class="st1" d="M175.1,1.1c0.4,0,0.8-0.1,1.2-0.1C175.9,1,175.5,1,175.1,1.1"/>
	<path class="st1" d="M273.5,174.3l1.9,18.2c-1.5,0-0.1-1.1-1.6-2.7c2.3-0.5-1.5-2.6,1.1-1.6c-2.2-2.2,0.8-6.4-2.2-8.1
		C274.4,179.7,272.4,175,273.5,174.3"/>
	<path class="st1" d="M175.4,33.9L174,34C174.7,33.5,175.2,33.5,175.4,33.9"/>
	<path class="st1" d="M272.8,167.8l0.6,5.9c-0.3-0.3-0.9-0.6-1.1-0.5C272.9,171.7,273,169.8,272.8,167.8"/>
	<path class="st1" d="M207.4,40.2C207.4,40.2,207.4,40.1,207.4,40.2c-0.5-0.5-0.4-1.7-0.6-2.4C207.1,38.5,206.9,39.6,207.4,40.2"/>
	<path class="st1" d="M193.2,127c-0.1,0.1-0.2,0.3-0.3,0.4C193,127.3,193.1,127.1,193.2,127"/>
	<path class="st1" d="M201.9,12c-0.2-0.2-0.4-0.4-0.6-0.6C201.5,11.6,201.7,11.8,201.9,12"/>
	<path class="st1" d="M194.3,121.1L194.3,121.1c-0.1,1.4-0.2,2.8-0.4,4.1C194.1,123.9,194.1,122.4,194.3,121.1"/>
	<path class="st1" d="M206.4,37.2C206.4,37.2,206.3,37.2,206.4,37.2C206.3,37.2,206.4,37.2,206.4,37.2"/>
	<path class="st1" d="M205.6,39c0.1,0.1,0.1,0.1,0.2,0.2C205.8,39.1,205.7,39.1,205.6,39"/>
	<path class="st1" d="M195.5,136.4c0,0-0.1,0-0.1,0c-0.1-1.1-0.1-2.5-0.2-4C195.3,134.2,195.4,135.7,195.5,136.4"/>
	<path class="st1" d="M178.1,0.5c-0.1,0-0.2,0.1-0.3,0.1c-0.1,0-0.2,0.1-0.3,0.1c-0.6-0.1-1.3-0.1-1.9-0.2c0.6,0,1.1,0,1.7,0
		C177.5,0.6,177.8,0.6,178.1,0.5"/>
	<path class="st1" d="M203.3,13.5c-0.2-0.2-0.3-0.4-0.5-0.5C203,13.2,203.2,13.3,203.3,13.5"/>
	<path class="st1" d="M170,43.7c-2.2-0.2-4.2,0.2-6.1,1.1c1-1.2,2.2-2.7,3.4-4.1C168.4,41.6,169.3,42.6,170,43.7"/>
	<path class="st1" d="M175.5,0.5L175.5,0.5C175.5,0.5,175.5,0.5,175.5,0.5C175.5,0.5,175.5,0.5,175.5,0.5"/>
	<path class="st1" d="M195.9,138.5c0,0.6,0.1,1.1,0.2,1.6C195.9,139.7,195.9,139.1,195.9,138.5C195.8,138.5,195.9,138.5,195.9,138.5
		"/>
	<path class="st1" d="M177.4,0.7c-0.3,0.1-0.7,0.1-1.1,0.2c-0.4,0.1-0.8,0.1-1.2,0.1c-1.6,0.1-3.3,0.1-4.4,0c0,0,0,0-0.1,0
		c-0.1,0-0.3,0-0.4,0c-0.2,0-0.3,0-0.4-0.1c-0.1,0-0.2,0-0.2,0c-0.1,0-0.1,0-0.1-0.1c0,0,0,0,0-0.1c0.1-0.1,1.2-0.2,3.7-0.3
		c0.4,0,0.9,0,1.3,0c0.3,0,0.6,0,0.9,0h0C176.2,0.6,176.8,0.7,177.4,0.7"/>
	<path class="st1" d="M175.1,1.1c-1.6,0.1-3.3,0.1-4.4,0C171.8,1.2,173.5,1.2,175.1,1.1"/>
	<path class="st1" d="M194.3,121.1c0.2,2.2,0.5,5.8,0.7,9c-1.4-0.3-1.6-1.8-2.9-2.1c0.3-0.1,0.6-0.3,0.8-0.6
		c0.1-0.1,0.2-0.3,0.3-0.4c0.1-0.2,0.3-0.5,0.3-0.7c0.1-0.2,0.1-0.3,0.2-0.5c0.1-0.2,0.1-0.4,0.1-0.6
		C194.1,123.9,194.1,122.4,194.3,121.1"/>
	<path class="st1" d="M169.5,0.8C169.5,0.8,169.5,0.9,169.5,0.8C169.5,0.9,169.5,0.8,169.5,0.8"/>
	<path class="st1" d="M176.3,0.9c0.4-0.1,0.8-0.1,1.1-0.2C177.1,0.8,176.7,0.9,176.3,0.9"/>
	<path class="st1" d="M175.5,0.5c0.6,0,1.1,0,1.7,0C176.6,0.6,176.1,0.5,175.5,0.5C175.5,0.5,175.5,0.5,175.5,0.5"/>
	<path class="st1" d="M202.7,12.8c-0.2-0.2-0.5-0.5-0.7-0.7C202.3,12.4,202.5,12.6,202.7,12.8"/>
	<path class="st1" d="M175.5,0.5c-0.3,0-0.6,0-0.9,0C174.9,0.5,175.2,0.5,175.5,0.5L175.5,0.5C175.5,0.5,175.5,0.5,175.5,0.5"/>
	<path class="st1" d="M193.8,125.2c0,0.2-0.1,0.4-0.1,0.6C193.8,125.6,193.8,125.4,193.8,125.2"/>
	<path class="st1" d="M169.7,0.9c0.1,0,0.1,0,0.2,0C169.8,1,169.7,1,169.7,0.9"/>
	<path class="st1" d="M195.2,132.3c0.1,1.5,0.1,2.9,0.2,4c-0.6-0.2-1.4-0.2-1.1-1.3c1.6-0.3,0.7-2.4,0.8-4
		C195.1,131.4,195.1,131.9,195.2,132.3L195.2,132.3z"/>
	<path class="st1" d="M177.4,0.7C177.4,0.7,177.4,0.7,177.4,0.7L177.4,0.7c-0.6-0.1-1.3-0.1-1.9-0.2C176.2,0.6,176.8,0.7,177.4,0.7"
		/>
	<path class="st1" d="M170.6,1.1c-0.1,0-0.3,0-0.4,0C170.4,1.1,170.5,1.1,170.6,1.1"/>
	<path class="st1" d="M206.3,37.2c0,0-0.1,0-0.1,0C206.2,37.1,206.3,37.2,206.3,37.2"/>
	<path class="st1" d="M206.3,39.6l0.1,0.1L206.3,39.6z"/>
	<path class="st1" d="M193.7,125.7c-0.1,0.2-0.1,0.4-0.2,0.5C193.6,126.1,193.7,125.9,193.7,125.7"/>
	<path class="st1" d="M272.8,167.5l1,6.7c0-0.1-0.2-0.3-0.3-0.5l-0.6-5.9C272.8,167.7,272.8,167.6,272.8,167.5"/>
	<path class="st1" d="M273.8,174.2l1.6,18.3l-1.9-18.2C273.6,174.3,273.7,174.2,273.8,174.2"/>
	<path class="st1" d="M234.6,165.1c-1.6-0.7-2.2-2.5-3.8-3.2C231.7,161.1,234.3,163.3,234.6,165.1"/>
	<path class="st1" d="M226.5,265.1c5.9-2.4,5.7,9,1.6,10.2c-3.8-0.2-3.6-2.7-5.9-3.2v-3.2c1.9-0.5,0.5,2.3,1.6,2.7
		c0.7-0.7,0.1-1.1,0-2.7c0.8-0.6,1.4-0.6,2.1,0c0.1-1.3,0.1-2.6-1.1-2.7c-0.2-1.1,1.6,0.1,1.6,0.5
		C227,266.5,228.4,264.6,226.5,265.1 M229.7,269.9c-1.9,0.4-1.8-3.9-3.2-2.2c2.2,1.3-0.8,1.7,1.1,3.8c-0.9-0.1-2.9,2.3-1.6,1.1
		c1.5-0.4,1.4,0.8,2.7,0.5C228.8,271.9,229.3,270.9,229.7,269.9"/>
	<path class="st1" d="M217.9,347.4c1.6-2.1,3.8-3.7,3.2-8.1c-1.3-0.2,0.3,2.4-1.6,1.6c0.1-2.3,1.9-2.7-0.5-3.8
		c-1.1,0.1-0.1,2.4-1.6,2.2c0.2,1.7,2.2,1.7,2.7,3.2c-0.6,3-2.9,4.3-6.5,4.3c0.8-2,2.2,0.3,2.2-2.1c0.1-1.2-1.9-0.2-2.7-0.5
		c1.3-1.6,0.8-2.3,0.5-4.8c-1,0.2-0.4,2.1-2.2,1.6c1.4-2.9,3.9-4.7,8.6-4.3C223.5,339.2,222.2,346.5,217.9,347.4"/>
	<path class="st1" d="M215.7,55.4c0.3,3.1-0.2,5.6-1.1,7.5c-1.4-2.4,0.7-4.7,0.5-6.5c-1.6-0.5-1,1.2-1.1,2.2
		C213,59.7,213.5,54.4,215.7,55.4"/>
	<path class="st1" d="M199.6,11.3c6,4.2,11.3,14.9,10.8,22c-0.4-2.9-0.5-5.9-2.7-7c-0.1-5-4-10.6-7.5-14
		C199.6,12.4,199.7,11.7,199.6,11.3"/>
	<path class="st1" d="M209.3,61.8c4.2-0.2,5.5,8.1,0,7.5C209.9,66.4,208.2,63.6,209.3,61.8"/>
	<path class="st1" d="M203.4,18.8c-1.1,1.2-1.9-2.3-3.2-2.7C201.7,14.5,202.3,18.2,203.4,18.8"/>
	<path class="st1" d="M199.1,10.8c-2.2-0.1-5.1-4.2-8.1-5.4C192.1,4.6,196.9,9.1,199.1,10.8"/>
	<path class="st1" d="M182.9,2.2c1.9-1.2,11.8,5.2,1.6,0.5C183.9,2.4,183.5,2.5,182.9,2.2"/>
	<path class="st1" d="M180.2,58.1c-0.4,0.9-1.2,0.3-1.1-0.5c-0.5,0-0.4,0.7-0.5,1.1c-1.3,0.1-1.7-0.8-2.7-1.1c0.1-0.6,0.5-0.3,0.5,0
		c1.6,0.4,2-0.5,3.2-0.5C179.6,57.6,179.8,58,180.2,58.1"/>
	<path class="st1" d="M166.3,2.7c1.3-1.7,4.1-0.4,5.9-0.5C171.3,3.4,168.1,2.4,166.3,2.7"/>
	<path class="st1" d="M170.8,43.9c0.1,0.2,0,0.4-0.2,0.4L170.8,43.9z"/>
	<path class="st1" d="M164.1,2.2c0,1.6-2.5,1.8-3.2,1.1C161.6,2.5,162.7,2.2,164.1,2.2"/>
	<path class="st1" d="M159.3,35.3c0,0.1,0,0.1-0.1,0.2C159.3,35.4,159.3,35.4,159.3,35.3"/>
	<path class="st1" d="M143.1,12.4c-4.3,4.4-7.8,9.4-9.7,16.1c0.4,2.4-0.8,3.7-0.5,0.5C134.7,21.9,137.9,16.1,143.1,12.4"/>
</g>
</svg>
