<?xml version="1.0" encoding="utf-8"?>
<!-- Generator: Adobe Illustrator 19.0.0, SVG Export Plug-In . SVG Version: 6.00 Build 0)  -->
<svg version="1.1" id="Layer_1" xmlns="http://www.w3.org/2000/svg" xmlns:xlink="http://www.w3.org/1999/xlink" x="0px" y="0px"
	 viewBox="0 0 324 365.3" style="enable-background:new 0 0 324 365.3;" xml:space="preserve">
<style type="text/css">
	.st0{fill:none;stroke:#EBEBEF;stroke-width:2;}
	.st1{clip-path:url(#SVGID_2_);fill-rule:evenodd;clip-rule:evenodd;}
	.st2{fill:#EBEBEF;clip-path:url(#SVGID_2_);}
	.st3{clip-path:url(#SVGID_2_);}
	.st4{fill:#EBEBEF;clip-path:url(#SVGID_2_);fill-rule:evenodd;clip-rule:evenodd;}
</style>
<line class="st0" x1="0" y1="364.4" x2="292.3" y2="364.4"/>
<g>
	<defs>
		<rect id="SVGID_1_" width="324" height="364.4"/>
	</defs>
	<clipPath id="SVGID_2_">
		<use xlink:href="#SVGID_1_"  style="overflow:visible;"/>
	</clipPath>
	<path class="st1" d="M323.4,250.2c-7.7,1.2-7.4,1.9-14-3.9c-1.6-1.4-2.7-3-3.1-5.1c-0.3-1.5-0.7-2.9-0.8-4.4c-0.4-6-0.6-12-1-17.9
		c-0.2-2.9-0.6-5.8-1.3-8.6c-1.5-6.1-4.6-11-10.8-13.6c-4.4-1.8-8.7-4-13-6.1c-0.5-0.2-1.1-0.5-1.2-1c-1.1-3.7-2.1-7.4-3.1-11.1
		c-0.3-1.2-0.4-2.5-0.5-3.8c-0.3-4.3,0.2-8.8-2.6-12.7c-0.2-0.2-0.1-0.6-0.1-0.9c0.4-1.6,0.9-3.2,1.2-4.8c0.7-3,1.3-6,2-8.9
		c0.4-1.8,0.2-3.5-0.3-5.3c-1.8-6.8-5-12.9-8.2-19.1c-0.8-1.6-2.4-2.9-3.9-3.8c-1.5-0.9-3.4-1.3-5-2c-0.5-0.2-0.9-0.3-1.3-0.6
		c-1.6-1.2-3.2-2.5-4.9-3.5c-1.9-1.1-3.9-1.2-5.6,0.3c-1.6-1.1-2.9-2.2-4.3-3.1c-5.6-3.6-10.3-8-13.6-13.8c-0.7-1.2-1.1-2.4-1-3.9
		c0.8-10.2-0.3-20.2-2.3-30.2c-4-20.1-15-35-32.9-44.6c-5.9-3.2-12.4-5.4-18.7-7.9c-2.6-1-5.3-2-8-2.4c-2.1-0.3-3.6-1.3-5.3-2.3
		c-1.9-1.1-3.9-2.3-6-3.1c-3.4-1.3-6.9-2.2-10.6-1.7c-5.6,0.8-9.3,4.2-12,8.9c-0.5,0.9-1.1,1.9-1.9,2.6c-5.4,4.6-10.6,9.4-16.3,13.7
		c-7,5.3-12.3,11.9-15.9,19.9c-4.1,9.3-7,19.1-9.3,29c-3.3,14.5-5,29.2-3.5,44.1c0.1,1.1-0.2,2.4-0.5,3.5c-0.2,1.1-1.1,2.3-0.9,3.3
		c0.4,3-0.8,5.4-2,7.8c-0.4,0.7-1.1,1.2-1.8,1.6c-2.9,1.5-6.2,2.5-8.8,4.4c-5.9,4.2-11.9,8.6-16.6,14.3c-0.3,0.4-0.8,0.6-1.3,0.9
		c0.7-2.2,0.4-4.2-0.3-6.2c-0.1-0.4-0.3-0.9-0.2-1.3c1.1-3.1,2.2-6.2,4.2-8.8c0.9-1.1,2.3-1.9,2.9-3.1c1.3-2.3,2.9-3.5,5.7-3.9
		c3.6-0.6,5.9-3.4,8.2-6c0.6-0.7,0.5-2.1,0.6-3.3c0-0.4-0.2-0.8-0.2-1.3c0-1.7-0.5-2.4-2.2-2.4c-1.5,0-3.3-0.2-4.5,0.5
		c-3.4,1.9-7,1.4-10.5,1.4c-0.3,0-0.7,0-1,0c-1.7,0.1-3.2,0.8-4.3,2.2c-3.5,4.1-6.9,8.2-10.5,12.1c-3.6,4-5.2,8.6-4.7,14
		c0.1,1.4,0,2.7-0.1,4.1c-0.2,1.8-0.6,3.6-0.8,5.4c-0.4,4.2,0,8.6-1,12.6c-1.9,8-4.6,15.8-6.9,23.7c-0.1,0.3-0.5,0.6-0.9,0.8
		c-3.1,1.6-6.5,2.7-9.1,4.8c-2.9,2.4-5.6,5.1-9,6.8c-1.6,0.8-2.3,2.2-2.1,4.1c0.2,1.6,0,3.3,0.3,4.9c0.3,1.5-0.4,2.5-1.2,3.6
		c-0.7,1-1.6,2.2-1.8,3.4c-0.5,3.2-0.9,6.4-1,9.7c-0.2,6.9-0.2,13.9-0.4,20.8c-0.1,2.4-0.5,4.8-0.3,7.2c0.3,4.5,1,9,1.5,13.4
		c0.8,6.2,2.1,12.4,2.4,18.6c0.7,12.8,0.3,25.6-1.2,38.4c-1,8.7-2.2,17.5-3.3,26.2c-0.3,2.6-0.5,5.2-0.8,7.9h1.4
		c-0.3-1.9,0.8-4,3.3-4c0.9,0,1.6,0.3,2.1,0.7c8.7-0.5,17.4,0,26.1,0.1c1.9-1.9,6-1.1,6,2.3v0.9h86.4c-0.1-0.3-0.2-0.7-0.2-1.1
		c0-1.7,1.6-3.6,3.4-3.4c1.7,0.2,3.7,0.1,5-0.1c1.8-0.3,3.7,0.5,4.2,2.4c0.2,0.7,0.1,1.5-0.2,2.2h89.7c-0.2-1.8,0.9-3.9,3.3-4
		c4.3-0.2,8.4-2.1,12.7-2.3c4.3-0.2,8.4,1,12.7,1.1c1.5,0,2.5,0.9,3,1.9c0.6,0.6,0.9,1.4,0.8,2.3c0,0.3-0.1,0.6-0.1,0.9h33.3
		c-0.2-2-0.3-3.9-0.5-5.8c-1.3-10.2-2.7-20.4-4.1-30.6c-0.1-0.8,0-1.6,0.3-2.4c0.9-2.7,1.8-5.3,1.3-8.2c-0.7-4.4-0.6-8.6,1.9-12.5
		c2.3-3.6,2.9-7.7,2.1-11.9c-0.5-2.8-0.5-5.5,0.3-8.3c0.8-3,1.2-6.2,1.9-9.2c0.4-1.6,0.9-3.2,1.8-4.6c3.2-5.2,4-10.9,4-16.9
		c0-0.9-0.1-1.9-0.1-2.8c0.3-0.1,0.5-0.1,0.8-0.2c2.3,3.7,4,7.8,4,12.3c0.1,4.5-1.7,8.6-3.9,12.5c1.2-1.1,2.3-2.2,2.9-3.5
		c3.8-8,3.9-15.9-1.3-23.5c-1.4-2-3.5-3.6-4.3-5.8c-0.8-2.2-0.2-4.9-0.4-7.4c-0.3-4.1-0.4-8.2,0.9-12.2c0.3,1,0.5,2.1,0.6,3.1
		c0.2,5.5,1.2,10.8,3.7,15.8c1.7,3.4,4.1,6.2,7.5,7.8c4,1.9,7.8,1.6,11.6-0.6C323.8,250.2,323.6,250.2,323.4,250.2"/>
	<path class="st2" d="M323.4,250.2c-7.7,1.2-7.4,1.9-14-3.9c-1.6-1.4-2.7-3-3.1-5.1c-0.3-1.5-0.7-2.9-0.8-4.4c-0.4-6-0.6-12-1-17.9
		c-0.2-2.9-0.6-5.8-1.3-8.6c-1.5-6.1-4.6-11-10.8-13.6c-4.4-1.8-8.7-4-13-6.1c-0.5-0.2-1.1-0.5-1.2-1c-1.1-3.7-2.1-7.4-3.1-11.1
		c-0.3-1.2-0.4-2.5-0.5-3.8c-0.3-4.3,0.2-8.8-2.6-12.7c-0.2-0.2-0.1-0.6-0.1-0.9c0.4-1.6,0.9-3.2,1.2-4.8c0.7-3,1.3-6,2-8.9
		c0.4-1.8,0.2-3.5-0.3-5.3c-1.8-6.8-5-12.9-8.2-19.1c-0.8-1.6-2.4-2.9-3.9-3.8c-1.5-0.9-3.4-1.3-5-2c-0.5-0.2-0.9-0.3-1.3-0.6
		c-1.6-1.2-3.2-2.5-4.9-3.5c-1.9-1.1-3.9-1.2-5.6,0.3c-1.6-1.1-2.9-2.2-4.3-3.1c-5.6-3.6-10.3-8-13.6-13.8c-0.7-1.2-1.1-2.4-1-3.9
		c0.8-10.2-0.3-20.2-2.3-30.2c-4-20.1-15-35-32.9-44.6c-5.9-3.2-12.4-5.4-18.7-7.9c-2.6-1-5.3-2-8-2.4c-2.1-0.3-3.6-1.3-5.3-2.3
		c-1.9-1.1-3.9-2.3-6-3.1c-3.4-1.3-6.9-2.2-10.6-1.7c-5.6,0.8-9.3,4.2-12,8.9c-0.5,0.9-1.1,1.9-1.9,2.6c-5.4,4.6-10.6,9.4-16.3,13.7
		c-7,5.3-12.3,11.9-15.9,19.9c-4.1,9.3-7,19.1-9.3,29c-3.3,14.5-5,29.2-3.5,44.1c0.1,1.1-0.2,2.4-0.5,3.5c-0.2,1.1-1.1,2.3-0.9,3.3
		c0.4,3-0.8,5.4-2,7.8c-0.4,0.7-1.1,1.2-1.8,1.6c-2.9,1.5-6.2,2.5-8.8,4.4c-5.9,4.2-11.9,8.6-16.6,14.3c-0.3,0.4-0.8,0.6-1.3,0.9
		c0.7-2.2,0.4-4.2-0.3-6.2c-0.1-0.4-0.3-0.9-0.2-1.3c1.1-3.1,2.2-6.2,4.2-8.8c0.9-1.1,2.3-1.9,2.9-3.1c1.3-2.3,2.9-3.5,5.7-3.9
		c3.6-0.6,5.9-3.4,8.2-6c0.6-0.7,0.5-2.1,0.6-3.3c0-0.4-0.2-0.8-0.2-1.3c0-1.7-0.5-2.4-2.2-2.4c-1.5,0-3.3-0.2-4.5,0.5
		c-3.4,1.9-7,1.4-10.5,1.4c-0.3,0-0.7,0-1,0c-1.7,0.1-3.2,0.8-4.3,2.2c-3.5,4.1-6.9,8.2-10.5,12.1c-3.6,4-5.2,8.6-4.7,13.9
		c0.1,1.4,0,2.7-0.1,4.1c-0.2,1.8-0.6,3.6-0.8,5.4c-0.4,4.2,0,8.6-1,12.6c-1.9,8-4.6,15.8-6.9,23.7c-0.1,0.3-0.5,0.6-0.9,0.8
		c-3.1,1.6-6.5,2.7-9.1,4.8c-2.9,2.4-5.6,5.1-9,6.8c-1.6,0.8-2.3,2.2-2.1,4.1c0.2,1.6,0,3.3,0.3,4.9c0.3,1.5-0.4,2.5-1.2,3.6
		c-0.7,1-1.6,2.2-1.8,3.4c-0.5,3.2-0.9,6.4-1,9.7c-0.2,6.9-0.2,13.9-0.4,20.8c-0.1,2.4-0.5,4.8-0.3,7.2c0.3,4.5,1,9,1.5,13.4
		c0.8,6.2,2.1,12.4,2.4,18.6c0.7,12.8,0.3,25.6-1.2,38.4c-1,8.7-2.2,17.5-3.3,26.2c-0.3,2.6-0.5,5.2-0.8,7.9h1.4
		c-0.1-0.4-0.1-0.7,0-1.1h0c0.2-2.1,0.3-4.1,0.5-6c1.2-9.7,2.6-19.3,3.6-29c0.7-7.3,0.8-14.7,1.3-22.1c0.4-5.4,1-10.7,1.5-16.1
		c0.9-9.9,1.2-19.9-0.3-29.8c-0.5-3.2,0.1-6.6,0.2-9.9c0-0.7,0.3-1.4,0.1-2c-0.6-2.2,0.3-4,1.3-5.8c0.9-1.6,1.9-3.3,2.6-5
		c0.6-1.6,0.9-3.3,1.3-4.9c0.4-1.8,0.7-3.6,1.3-5.3c3.9-10.3,7.6-20.7,11.8-30.8c3.5-8.6,6-17.5,8.4-26.5c0.9-3.3,0.6-6.9,0.9-10.3
		c0.3-2.7,0.7-5.3,0.9-8c0.1-1.5,0.2-3.1,0.1-4.6c-0.4-5,1.2-9.1,4.5-12.8c3.5-3.8,6.8-7.8,10.2-11.7c1-1.2,2.2-1.8,3.7-2
		c1.8-0.2,2.3,0.6,1.8,2.4c-1.3,4.3-4.1,7.8-6.5,11.4c-2.2,3.2-3.8,6.4-3.3,10.6c0.5,4,0.4,8,0.5,12c0,2.1-0.1,4.3-0.2,6.4
		c0,0.5,0.1,1,0.2,2c0.5-0.6,0.8-0.9,0.9-1.2c0.6-1.6,1.2-3.2,1.7-4.8c0.5-1.7,1.1-3.1,2.6-4.3c3-2.6,5.4-5.8,8.5-8.2
		c4.3-3.4,8.9-6.5,13.4-9.6c0.9-0.6,2-0.9,2.9-1.3c0.7,1.7,1.7,3.2,1.9,4.8c0.3,2.1-0.5,4.1-2.2,5.8c-2.2,2.1-4.3,4.4-6.5,6.5
		c-2.1,2-3.7,4.7-6.6,5.8c-0.5,0.2-1.1,0.6-1.6,0.5c-2.8-0.4-4.1,1.8-5.7,3.2c-0.4,0.3-0.6,1.1-0.6,1.6c-0.1,1.2,0.2,2.3,0,3.5
		c-0.3,2.1-0.9,4.2-1.3,6.3c-0.6,3-2,5.7-3.6,8.2c-0.9,1.5-0.9,2.8,0.3,4.2c1.2,1.4,2.5,2.7,3.8,4.1c0.7,0.8,1.6,1,2.5,0.2
		c1.3-1.1,2.6-2.2,3.8-3.4c1.2-1.2,2.5-1.4,3.9-0.8c1.7,0.8,3.3,0.6,5,0.3c10.3-1.5,20-4.9,29.3-9.3c5.9-2.8,11.6-5.8,17.4-8.6
		c2.5-1.2,5.1-2.5,7.7-3.3c1.7-0.5,3.7-0.6,5.3,0.7c0.7,0.6,0.9,1.3,0.2,2.1c-1.2,1.5-2.3,3-3.5,4.5c-0.7,0.8-3.4,0.9-4.3,0.1
		c-1.3-1.3-1.4-2.6-0.1-3.9c1-0.9,2-1.8,3.1-2.6l-0.3-0.4c-1.1,0.7-2.3,1.4-3.3,2.2c-1.4,1.3-2.6,2.7-4,4.1
		c-0.6,0.6-1.2,1.2-1.9,1.8c-0.6,0.6-1.2,1.1-1.8,1.7c-0.2,0.2-0.5,0.7-0.6,0.7c-1.8-0.2-1.8,1.2-2.1,2.3c-0.5,1.8-1.4,3.2-3.2,4.2
		c-1.1,0.6-1.9,1.9-2.9,2.6c-1.8,1.2-3.7,2.1-6,1.9c-0.4,0-0.9,0.4-1.4,0.4c-0.8,0.1-1.7,0.4-2.4,0.2c-1-0.3-1.8-0.2-2.2,0.6
		c-0.8,1.8-2.3,2.7-4.3,3.3c0.4,0.6,0.7,1,1,1.4c0.8,1.1,0.6,1.6-0.7,2c-0.5,0.1-1.1,0.2-1.6,0.2c-2.4-0.1-4.3,1-6,2.6
		c-0.4,0.3-0.7,0.7-1.2,0.9c-3.1,1.2-6.3,2.3-9.3,3.6c-3.9,1.6-7.7,3.5-11.5,5.2c-0.4,0.2-0.9,0.4-1.3,0.6c-1.3,0.6-2.3,1.3-2,3.1
		c-2.7,0.1-4.1,1.9-5.4,3.9c-0.4,0.5-0.3,1.3-0.5,2c0.6,0.1,1.2,0.2,1.8,0.3c0.8,0.1,1.8,0.1,2.5,0.5c1.2,0.7,1.8,0.3,2.8-0.5
		c1.9-1.7,3.8-3.4,6-4.7c1.7-1,3.2,0.7,4.5,1.7c1.1,0.9,2.2,2.1,2.7,3.5c0.3,0.8,0,2.4-0.6,2.9c-2,1.4-4.2,2.5-6.4,3.6
		c-0.3,0.2-0.7,0.3-1,0.5c-1.9,1.6-3.8,3.3-5.7,5c-0.4,0.4-0.7,1-0.9,1.5c-0.6,1.5-1.4,2.7-2.7,3.8c-1.4,1.2-2.3,3-3.2,4.6
		c-1.5,2.6-2.7,5.5-5.3,7.4c-0.9,0.7-1.9,1.3-2.7,2c-0.4,0.3-0.4,1-0.5,1.6c0.5,0.1,1,0.3,1.5,0.2c1.1-0.1,2.2-0.5,3.2-0.5
		c0.6,0,1.4,0.5,1.7,1c0.2,0.3-0.1,1.3-0.5,1.7c-0.9,0.9-2,1.5-2.9,2.3c-1.1,1.1-2,2.4-3,3.6c-0.3,0.4-0.5,1-0.9,1.3
		c-1.5,1.2-3.1,2.4-4.8,3.4c-2.7,1.6-4.4,3.9-5.3,6.9c-0.8,2.6-1.6,5.1-2.3,7.7c-0.4,1.5-0.6,3,1,4.2c-1.6-1.1,1.7-2,0,0
		c1.7-2,3.3-3.9,5.1-6c1,2.3,1.9,4.4,2.8,6.5c10.3,24.4-1.2,52.5,1,77.8c0,0.3,0,0.5,0,0.7c0.1,0.3,0.2,0.7,0.2,1.1v0.9h86.4
		c-0.1-0.3-0.2-0.7-0.2-1.1c0-0.6,0.2-1.3,0.6-1.9c0.1-0.7,0.2-1.4,0.4-2c0.5-2.1,1.1-4.2,1.5-6.4c0.1-0.4-2.2-4.4-0.8-5.8
		c-0.5-0.1-0.5-0.3,1.3-0.5c3.4,7.9,5.6-3.2,8.6-5.1c1.7-1,2.4-2.5,2.4-4.5c0-1.5,0.4-3,0.7-4.5c0.7-4.7,1.9-9.4,0.2-14.1
		c-0.2-0.5-0.2-1.1-0.4-2.3c1.7,0.7,3,1.2,4.6,1.8c1.2-1.5,2.8,0.4,4.5,0.1c-1.1-0.7-2.1-1.4-3.1-2.1c-0.9-0.7-0.6-1.2,0.3-1.5
		c3.3-1.3,6.6-2.6,10-3.8c0.4-0.1,1.3,0.3,1.5,0.7c0.8,1.8,1.4,3.6,2.1,5.5c0.3,0.8,1,1.8,0.8,2.5c-0.4,1.8-2.2,3-3.1,4.6
		c-1.2,2.1-2.4,4.3-3.7,6.4c-1.1,2-2.3,3.9-3.7,5.8c-0.8,1.1-2,1.5-2.6,2.4c-2.2,3.3-3.4,7.8-5,11.5c-1.8,4-3.6,7.2-4.1,11.7
		c0,0.3-0.1,0.5-0.1,0.6c0.1,0.6,0,1.3-0.2,1.9h89.7c0-0.4,0-0.8,0.1-1.3c0-0.4-0.1-0.9,0-1.3c1.9-10.9,3.9-21.8,5.9-32.7
		c0.1-0.8,0.7-1.4,1-2.2c0.1-0.2,0.2-0.5,0.3-0.7c0.1-2.5,0.1-5,0.3-7.5c1.2-10.2,2.3-20.4,3.6-30.7c0.7-5.2,1.5-10.3,2.3-15.5
		c0-0.3,0.2-0.6,0.5-1.2c0.5,0.6,0.8,0.9,1,1.4c0.7,1.3,1.6,2.2,3.2,2.1c0.7,0,1.4,0.2,2.1,0.4c1.1,0.3,1.9,0.3,2.4-0.9
		c0.2-0.4,1-0.7,1.4-0.6c3.2,0.5,6.3,1.1,9.4,1.6c1.4,0.2,2.2,1,2.4,2.3c0.2,1.7,0.3,3.4,0.4,5.1c0.9,8.4,1.1,15,0.3,23.5
		c-0.7,7.8,4.7,8.8-0.4,15.4c2.2,7.2,1.5-1.6,5.5,3.8c-4.1,3.1-0.2,11.9-3.4,16.5c-6-2.9-2,14.1-2.9,15.8c-0.9,1.6-1.9,3.2-2.9,4.8
		c-0.1,0.1-0.1,0.2-0.2,0.2c0,0.2,0,0.4,0,0.6c0,0.3-0.1,0.6-0.1,0.9h33.3c-0.2-2-0.3-3.9-0.5-5.8c-1.3-10.2-2.7-20.4-4.1-30.6
		c-0.1-0.8,0-1.6,0.3-2.4c0.9-2.7,1.8-5.3,1.3-8.2c-0.7-4.4-0.6-8.6,1.9-12.5c2.3-3.6,2.9-7.7,2.1-11.9c-0.5-2.8-0.5-5.5,0.3-8.3
		c0.8-3,1.2-6.2,1.9-9.2c0.4-1.6,0.9-3.2,1.8-4.6c3.2-5.2,4-10.9,4-16.9c0-0.9-0.1-1.9-0.1-2.8c0.3-0.1,0.5-0.1,0.8-0.2
		c2.3,3.7,4,7.8,4,12.3c0.1,4.5-1.7,8.6-3.9,12.5c1.2-1.1,2.3-2.2,2.9-3.5c3.8-8,3.9-15.9-1.3-23.5c-1.4-2-3.5-3.6-4.3-5.8
		c-0.8-2.2-0.2-4.9-0.4-7.4c-0.3-4.1-0.4-8.2,0.9-12.2c0.3,1,0.5,2.1,0.6,3.1c0.2,5.5,1.2,10.8,3.7,15.8c1.7,3.3,4.1,6.2,7.5,7.8
		c4,1.9,7.8,1.6,11.6-0.6C323.8,250.2,323.6,250.2,323.4,250.2 M24.9,198.4c-3.6,9.5-7.3,19-10.8,28.6c-0.9,2.5-1.2,5.2-1.9,7.8
		c-0.5,1.8-1.2,3.5-2,5.2c-0.7,1.6-1.8,3-2.3,4.5c-0.5,1.3-0.5,2.8-0.7,4.3c-0.1,1.3-0.3,2.6-0.3,3.9c0,3.1-0.4,6.2,0.1,9.2
		c1.4,9.9,1.1,19.9,0.1,29.8c-0.1,0.9-0.2,1.8-0.3,2.6c-0.1,0-0.2,0-0.3,0c-1.4-11-2.8-22-4.1-33.1c-0.3-2.4,0.2-4.8,0.2-7.2
		c0.1-7,0.2-14,0.4-20.9c0.1-3.2,0.5-6.5,1-9.7c0.2-1.2,0.9-2.3,1.6-3.3c1-1.3,1.8-2.5,1.4-4.3c-0.4-1.5-0.1-3.1-0.3-4.6
		c-0.2-1.7,0.4-3,1.9-3.7c3.4-1.5,5.9-4.1,8.6-6.5c2.3-2,5.3-3.2,8-4.8c0.1,0.1,0.2,0.2,0.3,0.3C25.3,197.2,25.1,197.8,24.9,198.4
		 M297.6,209.2c0.2,0,0.4,0.1,0.6,0.1c-0.1,0.3-0.2,0.7-0.2,1c-0.1,0-0.3,0-0.4-0.1C297.5,209.9,297.6,209.6,297.6,209.2
		 M296.6,203.3c0.3,0.5,0.6,1,0.9,1.5c-0.3,0.1-0.7,0.3-0.8,0.3c-0.3-0.5-0.5-1-0.8-1.5C296.1,203.5,296.3,203.4,296.6,203.3
		 M281.7,201.2c1.1,0,2.4,0.1,3.3-0.3c1.7-0.9,2.7-0.1,3.9,0.8c1.1,0.8,1.8,3,1.4,4c-0.3,0.8-2.3,1.6-3.3,1.2
		c-1-0.4-2.2-0.7-1.5-2.3c0.1-0.3-0.3-0.9-0.5-1.4c-0.1,0-0.3,0.1-0.4,0.1c-0.2,1.2-0.4,2.3-0.6,3.6c-1.2-0.5-2-0.9-3.1-1.4
		c-0.1-1.2-0.2-2.8-0.3-4.6C280.9,201,281.3,201.2,281.7,201.2 M273.9,179.1c0.6,1.7,1.1,3.4,1.7,5.2c-0.2,0.1-0.4,0.1-0.6,0.2
		c-0.5-1.7-1.1-3.5-1.6-5.2C273.6,179.2,273.7,179.2,273.9,179.1 M236.9,108.7c2.6,1.8,5.3,3.6,8.1,5.6c-0.8,0.9-1.3,1.5-1.6,1.9
		c-1.4-1-2.5-1.9-3.7-2.7l-1.8-2.1c-0.4-0.8-0.8-1.5-1.3-2.3C236.7,108.9,236.8,108.8,236.9,108.7 M241.7,116.5
		c-0.1,0.1-0.2,0.2-0.2,0.2L240,115c0.1,0,0.1-0.1,0.2-0.2C240.7,115.4,241.2,115.9,241.7,116.5 M246.9,126.2
		c0.1-0.1,0.3-0.1,0.4-0.2c-0.4-0.8-0.8-1.6-1.1-2.4c-0.2-0.7-0.4-1.4-0.5-2c0.6,0.2,1.3,0.2,1.7,0.5c3.4,2.5,5.9,5.8,8.3,9.3
		c1.6,2.3,2,4.8,2,7.4c0,2,0.2,3.9,0.3,5.9c0,1.4-0.2,2.6-1.6,3.5c-0.9,0.5-1.4,1.6-2.1,2.4c-0.3-3.1-4.1-5.4-1.7-9
		c-3.2-0.1-3.2-3-4.2-5c-1.4-2.6-2.4-5.3-4.5-7.6c-1.9-2-3.5-4.3-5.2-6.5c-1.3-1.8-2.7-3.6-3.8-5.6c-1.1-1.9-1.9-4.1-2.8-6.1
		c-0.4-0.8-0.7-1.6-1-2.4C237.8,113.1,242.1,119.9,246.9,126.2 M251.8,149c-2.4-1.2-2.7-2.3-1.2-3.6
		C251.1,146.6,251.4,147.6,251.8,149 M249,144.1c-0.3,0.1-0.6,0.1-0.9,0.2c-0.4-1.4-0.8-2.8-1.1-4.2c-0.1-0.3,0.4-0.6,0.6-1
		c0.3,0.2,0.7,0.4,0.8,0.6C248.6,141.2,248.8,142.7,249,144.1 M246.5,136.4c-0.2,0.1-0.5,0.2-0.7,0.3c-0.4-0.9-0.7-1.8-1.1-2.7
		c0.2-0.1,0.4-0.2,0.6-0.3C245.7,134.6,246.1,135.5,246.5,136.4 M241.1,135.8c-0.1,0.2-0.4,0.6-0.4,0.6c-0.5-0.2-0.9-0.5-1.4-0.8
		l0.2-0.5L241.1,135.8z M237.2,132.8l-0.5,0.3c-0.3-0.8-0.7-1.7-1-2.5c0,0,0,0-0.1,0c0,0,0,0,0,0c-0.6-0.2-1.2-0.3-1.7-0.5
		c-0.4-0.8-0.8-1.6-1.2-2.4c1.5-0.2,2.6,0.9,2.9,2.8l0,0c0,0,0,0,0,0C237,130.8,236.9,132,237.2,132.8 M228.8,103.9
		c0.3,0.6,0.6,1.3,0.9,1.9c-0.2,0.1-0.4,0.2-0.6,0.3c-0.3-0.6-0.6-1.3-0.9-1.9C228.3,104.1,228.5,104,228.8,103.9 M231,135.9
		c0.4,0.4,0.9,0.8,1.5,1.4c0.3-0.9,0.4-1.4,0.6-2.2c2.3,1.2,4.7,2.2,6.2,4.2c0.6,0.8,0.6,2.2,0.6,3.3c0,1-0.5,1.9-0.8,2.8
		c-0.7,2,0,2.7,2.3,2.9c2.6,0.3,4.1,1.5,4.7,4c0.3,1.1,1,2,1.4,3.1c0.3,0.6,0.5,1.2,0.7,1.8c0.7,1.9,0.9,4,2.5,5.5
		c0.7,0.6,1,1.5,1.5,2.3c0.3,0.6,0.6,1.2,1,1.6c1.3,1.1,1.3,2.4,0.4,3.5c-2,2.5-2.5,5.3-2.8,8.3c-0.1,0.6-0.2,1.2-0.3,1.8
		c-0.5,2-2.9,2.7-4.6,1.5c-0.9-0.7-2-1-2.9-1.6c-0.4-0.3-0.9-0.7-1-1.1c-0.2-0.7-0.2-1.6,0-2.3c0.7-2.4,0.5-4.7-0.2-7.1
		c-0.4-1.4-0.2-3-1.1-4.3c-2.6-3.9-4.9-7.9-7.9-11.6c-3.5-4.3-7.4-8.3-11.2-12.3c-2.2-2.3-2.4-5-1.8-7.8c0.6-2.7,3.8-4.2,6-2.5
		C227.9,132.4,229.4,134.3,231,135.9 M236.1,186.1c-0.4,0.2-1.1,0-1.6-0.1c0.1-0.5,0-1,0.2-1.4c0.3-0.7,0.9-1.2,1.5-2
		C237.3,184.4,237.2,185.7,236.1,186.1 M225.6,91.7v-2.8c0.1,0,0.1,0,0.2,0v2.9C225.7,91.7,225.6,91.7,225.6,91.7 M197.1,32.3
		c0,0.3-0.5,0.7-0.8,1.1c0.6,0.3,1.4,0.6,2.6,1.2c-0.4-2.6-0.8-4.7-1.1-6.8c1.8,0.3,2.2,0.7,2.3,2.5c0.1,1.9,0.3,3.7,0.5,5.5
		c0.1,0.7,0.4,1.4,0.6,2.1c0.2,0,0.5-0.1,0.7-0.1c-0.3-2.7-0.6-5.4-0.9-8.4c0.5,0.2,1.3,0.3,1.4,0.6c0.7,2,2.6,2.9,3.7,4.4
		c0.5,0.7,1.6,1.1,2.2,1.8c1,1.1,1.6,2.4,2.6,3.5c1.2,1.4,2.6,2.7,3.9,4c0.3,0.3,0.6,0.7,0.8,1.1c0.6,1.5,1.2,3.1,1.8,4.6
		c0,0.1,0,0.2,0.1,0.3c3.3,2.3,2.5,6.2,3.6,9.3c1.4,3.6,2.3,7.4,3.5,11.1c0.1,0.5,0.3,1,0.3,1.5c0.4,4.7,0.7,9.4,1,14.1
		c0,0.6-0.1,1.1-0.2,1.8c-0.6-0.3-1.1-0.5-1.6-0.8c0.2-0.4,0.5-0.9,0.6-1.4c0.1-0.4-0.3-0.8-0.4-1.2c-0.1-0.5-0.3-1-0.3-1.5
		c0-0.7,0.4-1.5,0.1-2c-0.3-0.5-1.2-0.8-1.9-1.2c1-1.3,0.9-2.4,0-3.8c-0.4-0.6-0.1-1.6-0.1-2.6c-0.5,0.2-0.8,0.3-1.1,0.4
		c-0.1-0.1-0.2-0.2-0.1-0.2c0.4-1.2-0.2-3-0.8-4.2c-0.6-1-0.7-2.3-1.1-3.6c-0.2,0.1-0.5,0.2-1,0.4c0-0.5,0-0.9-0.1-1.4
		c-0.2,0-0.4,0-0.5,0c-0.1-1-0.1-1.9-0.2-2.8c-0.6,0.5-1.2,1-2.1,1.6c0.5-0.8,0.9-1.5,1.2-2.1c-0.1-0.1-0.2-0.2-0.3-0.2
		c-0.3,0.2-0.7,0.5-1.1,0.8c0.3-1.2,0.5-2.2,0.8-3.2c-0.1,0-0.3-0.1-0.4-0.1c-0.6,0.5-1.2,0.9-1.9,1.5c0.5-1.4,0.9-2.4,1.2-3.5
		c-0.1-0.1-0.2-0.1-0.3-0.2c-0.2,0.2-0.4,0.5-0.9,1c-0.1-1.2-0.1-2-0.2-2.8l-0.3-0.1l-0.6,1.4l-0.4,0c-0.1-0.7-0.1-1.5-0.2-2.4
		c-0.5,0.7-0.9,1.2-1.3,1.7c-0.1,0-0.2-0.1-0.3-0.1c0.3-0.7,0.7-1.4,0.9-2.1c0.1-0.7-0.1-1.4-0.1-2.4c-0.8,1-1.5,1.8-2.2,2.7
		c-0.2-2.1-0.4-3.7-0.5-5.6c-0.9,0.7-1.5,1.1-2.3,1.6c0.3-1.1,0.6-2.1,0.9-3.1c-0.1,0-0.2-0.1-0.3-0.2c-0.3,0.3-0.5,0.6-0.7,0.8
		c-0.3-0.7-0.6-1.5-1.1-2.5c-0.8,1-1.3,1.6-1.8,2.2c-0.1,0-0.2-0.1-0.3-0.1c0.3-1,0.7-1.9,1-2.9c-0.1-0.1-0.3-0.1-0.4-0.2
		c-0.4,0.8-0.9,1.5-1.3,2.3l-0.7-0.2c1.9-2.1,1-4.1,0.3-6.3c-1.1,2-0.6,4.6-3.4,5.8c0.6-1,1-1.7,1.4-2.4c-0.2-0.1-0.3-0.2-0.5-0.3
		c-0.7,0.9-1.5,1.8-2.2,2.7c0.8-2.4,3.1-4.4,1.6-7.4c-0.7,1.1-1.3,2.1-2,3.3c-0.1-0.4-0.2-0.6-0.2-0.7c0.8-1.3,0.2-2.8-0.4-3.7
		c-1.1-1.8-0.8-3.7-1.1-5.6c-0.4-1.9-0.5-3.8-0.8-5.6C197.4,26.6,197.1,29.5,197.1,32.3 M195.7,40l-1.6,2.8
		c-0.3-0.2-0.5-0.3-0.8-0.5c0.6-0.9,1.2-1.8,1.8-2.6C195.3,39.8,195.5,39.9,195.7,40 M189.3,22.3c0.2,2.1,0.2,4.3,0.5,6.4
		c0.2,1.2,0.7,2.4,1.1,3.7c0.6-0.5,1-0.9,1.7-1.5v-2.1c-0.4,0.3-0.6,0.6-1.1,1c-0.1-1.7-0.2-3-0.3-4.4c0.1,0,0.2,0,0.3,0
		c-0.5-1.3-1-2.7-1.5-4.1c1.5-0.4,2.2,0.1,2.5,1.3c0.5,2.3,0.8,4.5,1.2,6.8c0.2,1.3,0.2,2.6,0.6,3.8c0.6,2,0,3.4-1.4,4.7
		c-0.2,0.8-0.5,1.5-0.7,2.3l-0.5-0.1c0.1-0.7,0.2-1.4,0.2-2.2c-0.3,0.5-0.6,1-0.9,1.5c-0.3,0.6-0.6,1.1-0.9,1.7
		c-0.3-0.2-0.6-0.5-0.8-0.7c0.6-1.1,1.2-2.3,1.9-3.3c0.9-1.2,1.2-2.5,0.6-4.1c-1.9,0.7-1.9,2.8-3.2,3.8c0.5-1.5,1-3.1,1.5-4.6
		c-2-0.7-2.4-1.8-2.3-4.1c0.1-1.5-0.4-3.1-0.6-4.6c-0.2-1.3-0.5-2.7-0.8-4.2C188,20,189.1,20.6,189.3,22.3 M177.4,110.6
		c1.2-1.9,3.7-2,5.2-0.3c0.4,0.5,1.2,0.6,1.9,0.9c1.4,0.5,1.4,0.4,1.8,1.8c-3.5,2-6.1,1.6-9.5-1.7C177,111,177.2,110.8,177.4,110.6
		 M176.5,106.8c-0.1-0.4,0.4-1,0.7-1.5c0.2,0,0.4,0.1,0.6,0.1c0.1,0.8,0.2,1.5,0.3,2.3c-0.1,0.1-0.3,0.2-0.4,0.3
		C177.2,107.5,176.6,107.2,176.5,106.8 M179.4,106.3c0.2-0.4,0.4-0.9,0.7-1.3c0.3,0.2,0.5,0.5,0.8,0.7c-0.3,0.3-0.6,0.6-1,1
		C179.7,106.5,179.5,106.4,179.4,106.3 M184.3,100.4c1.7-0.3,3.4-1.6,5.2-0.2c0.2,0.2,0.7,0,1,0c0.5,0,1-0.1,1.8-0.2
		C191.1,101.3,187.6,101.5,184.3,100.4 M185.6,39.3c1-2.2,2-4.3,3-6.5C188.9,34.9,187.3,38.4,185.6,39.3 M185.7,22.2
		c0.1,2.6,0.1,5.1,1.1,7.5c0.2,0.5,0.2,1.1,0,1.6c-0.6,1.5-1.2,3.1-2.1,4.5c-0.4,0.7-1.5,0.9-2.3,1.3l-0.5-0.5
		c0.7-1.4,1.6-2.8,2.1-4.3c0.3-1,0.3-2.2,0.2-3.3c-0.2-2-0.7-3.9-1.1-5.9c-0.3-2.1-0.6-4.1-0.9-6.1
		C184.8,17.5,185.7,20.2,185.7,22.2 M181.4,18.6c0.3,3.4-0.3,7,1.8,10.2c0.2,0.3-0.3,1.1-0.5,1.6c-0.2-0.1-0.4-0.1-0.5-0.2
		c-0.2-0.6-0.4-1.3-0.5-1.9c-0.2,0-0.3,0-0.5,0c-0.1,1.1-0.2,2.1-0.2,3.4c0.5-0.2,0.8-0.4,1.4-0.6c-0.4,1-0.6,1.9-1,2.6
		c-0.2,0.3-0.8,0.4-1.1,0.6c-0.5,0.5-0.9,1-1.7,1.6c0.2-0.9,0.3-1.9,0.6-2.7c0.7-1.9,1.6-3.7,1.1-5.9c-0.4-1.8-0.8-3.6-1.1-5.4
		c-0.3-1.9-0.4-3.8-0.7-5.7C180.8,16.3,181.2,16.8,181.4,18.6 M177.8,19c-0.2,2.4-0.1,4.7,0.7,7.1c0.7,2,0,4.1-1.2,6.1
		c-0.2-0.3-0.3-0.6-0.4-0.8c-0.2,0.3-0.4,0.6-0.6,1c-0.3,0.7-0.5,1.4-0.8,2.1l-0.6-0.2c0.2-1.2,0.4-2.3,0.7-3.5
		c0.8-2.8,0-5.5-0.3-8.3c-0.3-2.6-0.7-5.2-1-7.8C176.7,15.2,177.9,16.7,177.8,19 M76.4,156.7c0.2,1.1,0.4,1.8,0.5,2.6
		c0.2,0,0.4-0.1,0.6-0.1c-0.2-0.9-0.4-1.9-0.7-2.8c-0.6-1.6,0.8-3.6,2.6-3.5c0.6,4.9-0.2,6.8-3.7,8.3
		C76.5,159.8,74.6,158.3,76.4,156.7 M74.7,155.9c-0.2,1.3-0.6,2.6-0.5,4c0.1,2.5,0.4,4.9,0.6,7.4c0,0.5-0.1,1.2-0.4,1.6
		c-1.6,1.8-3.3,3.3-4.8,5.1c-1.8,2.2-3.4,4.6-5.1,6.9C62.1,172.4,65.5,160.6,74.7,155.9 M81.7,184.8c-3.8,0.8-7.6,1.6-11.4,2.4
		c-3.2,0.6-4,0.1-5.5-3.5c3.1,0,5.9-1.7,9,0c2.9-1.2,5.9-2.5,9.2-3.8c0,0.5,0.3,1.4-0.1,1.9c-0.6,1-0.9,1.7,1,2.3
		C82.8,184.4,82.3,184.6,81.7,184.8 M83.9,127.4c0.1-1.1,0-2.5,0.5-3.4c1.7-3,0.9-6.1,0.8-9.2c-0.1-2.8-0.1-5.7-0.2-8.5
		c0-0.8,0.3-1,1-1.1c0,0,0,0,0,0c-0.7-0.4-1.1-0.8-1-1.8c0.1-1.1,0-2.1,0-3.5c0.6,0.4,0.9,0.7,1.2,0.9c0.3,0.2,0.6,0.5,1.1,0.9
		c-0.5,0.3-1,0.6-1.5,0.9c0.3,0.7,0.6,1.4,1,2.4c-0.2,0-0.5,0.1-0.8,0.2c0,0,0,0,0,0c0,0,0,0,0,0c0,0,0,0,0,0
		c0.1,0.8,0.2,1.6,0.2,2.4c0,1,0.2,2.2-0.2,3.1c-0.7,1.5,0,2.2,1.1,2.9c-1.2,0.7-1.4,1.5-0.6,2.6c0.2,0.2,0.1,0.7,0.1,1.1
		c0,0.8-0.1,1.7,0.2,2.6l-2.1,7.7C84.4,127.5,84.1,127.5,83.9,127.4 M87.3,136.6c-0.4,0.2-1-0.3-1.5-0.5c0.2-0.4,0.4-1,0.7-1.1
		c1.7-0.5,3.4-0.8,5.1-1.2c0,0.2,0.1,0.3,0.1,0.5C90.2,135.1,88.8,136,87.3,136.6 M99.9,61.8c-0.1,0-0.3-0.1-0.4-0.1
		c-0.5,0.5-1,0.9-1.6,1.4l0.3,0c-0.4,0.9-0.9,1.8-1.2,2.4c-0.7-0.1-1.2-0.3-1.7-0.4c1.5,2.3,1.4,2.8-0.7,4.3c0.9,0.6,1.5,1,0.1,1.8
		c-0.6,0.3-1.7,1.1-1,2.3c0,0.1-0.1,0.2-0.1,0.3c-0.5,0.8-1.2,1.5-1.6,2.4c-0.3,0.8-0.3,1.8-0.4,2.9c0.3,0.2,0.8,0.6,1.3,1
		c-0.9,0.5-1.9,1.2-3,1.9c0.5,0.4,0.7,0.7,1.1,1c-0.5,0.7-1,1.5-1.5,2.4c0.2,0.1,0.5,0.3,0.8,0.5c-0.7,0.8-1.3,1.6-2.1,2.5
		c0.7,0.4,1.3,0.7,1.8,1c-0.8,0.7-1.7,1.3-2.2,2.1c-0.5,0.7-0.5,1.6-0.7,2.5v2.3c-0.6-0.2-0.9-0.3-1.2-0.4c0.1,0.3,0,0.7,0.2,1
		c0.5,0.8,1.7,1.4,0,2.7c-0.3-0.7-0.9-1.4-0.8-2c1.1-12,3.5-23.7,6.9-35.2c2.1-7.1,4.7-14.1,8.2-20.7c3.6-6.8,9.1-11.8,15.2-16.5
		c5.3-4.1,10.2-8.7,15.2-13.2c0.9-0.8,1.3-2,2-3c2.5-4.1,6.2-6.4,10.8-7.4c1-0.2,1.7,0.1,2.7,0.7c2,1.2,4.2,2,6.3,3
		c0.5,0.2,1,0.4,1.4,0.7c1.1,0.7,2.4,1.3,3.3,2.3c0.9,1,2.2,0.8,3.2,1.4c1.1,0.6,2.3,1,3.3,1.7c0.8,0.5,1.3,1.3,2.1,2.1
		c0.1-0.4,0.2-0.8,0.2-1.1c1.9,0.4,3.7,0.9,5.6,1.2c1.6,0.2,1.8,1.2,2,2.5c0.3,3,0.7,6.1,1,9.1c0.1,1-0.2,1.9-0.3,2.9
		c-1.2-0.4-1.9,0.2-1.9,1.4c0,0.6,0.2,1.3,0.1,1.9c-0.1,0.4-0.4,0.8-0.7,1.2c-0.2-0.1-0.3-0.1-0.5-0.2c0.1-0.9,0.3-1.7,0.4-2.6
		c0.1-2,0.6-3.9,0-6c-0.7-2.7-0.7-5.6-1-8.4c0-0.4-0.4-0.8-0.6-1.2c-0.2,0.4-0.6,0.8-0.6,1.2c-0.1,0.8-0.1,1.6,0,2.4
		c0.2,1.9,0.5,3.8,0.7,5.7c0.1,1.1,0,2.2,0,3.3c-0.2,0-0.3,0-0.5,0c-0.2-0.6-0.4-1.1-0.6-2c-1.3,1.9,0.5,4-1.3,5.5
		c0.2-5.3-0.9-10.4-1.3-15.6c-0.3,0-0.6,0-0.9,0c-0.1,1.9-0.3,3.8-0.1,5.6c0.2,1.9,0.8,3.7,0.2,5.6l0,0c0.1,0.8,0.1,1.6,0.2,2.6
		c-0.6-0.2-0.9-0.3-1.3-0.5c-0.1,0.7-0.3,1.3-0.4,1.9c-0.1,0-0.2,0-0.3,0c-0.4-3.1-0.8-6.2-1.1-9.3c-0.3-3.1,0.1-6.3-1.3-9.2
		c-0.2,0-0.4,0.1-0.6,0.1c0.3,6.1,0.6,12.2,0.9,18.3c-0.2,0-0.5,0-0.7,0.1c-0.1-1.8-0.3-3.5-0.4-5.3c-0.1,0-0.3,0-0.4,0v5.2
		c-0.2,0-0.3,0-0.5,0c-1.4-6-0.7-12.3-2.3-18.3c-0.2,0-0.3,0-0.5,0.1c0,1.4-0.1,2.8,0,4.1c0.2,2.7,0.7,5.4,0.7,8.1
		c0,1.4,0.7,3.3-1.1,4.5c-0.4,0.3-0.4,1.4-0.6,2.1c-1.1-3.6-1.5-7.3-1.6-11c0-2-0.5-4-0.7-6c0-0.4,0.1-0.8,0-1.1
		c-0.1-0.3-0.4-0.5-0.7-0.8c0,3.9,0,7.6,0,11.2c0,1.4,0.2,2.7,0.3,4.1c0.1,1.4-0.2,2.7-1.5,3.7c-0.6-0.9-1.2-1.6-1.2-2.9
		c0-1.7-0.6-3.4-0.7-5.1c-0.1-2.3,0-4.7,0-7c0-1.2-0.2-2.3-0.3-3.4c-0.1,0-0.3-0.1-0.4-0.2c-0.2,0.6-0.4,1.1-0.5,1.7
		c-0.1,2.7-0.2,5.3-0.1,8c0,1.8,0.3,3.6,0.5,5.4c0.1,0.9,0,1.8,0,2.8c-0.3,0-0.5-0.1-0.8-0.1v1.8c-2.3-2.2-3-4.7-2.9-7.6
		c-0.2,0.2-0.6,0.5-0.6,0.7c-0.1,0.9-0.1,1.8,0,2.6c0.4,1.7,0.3,3.2-1.2,4.4c-0.6-0.7-1.2-1.5-1.9-2.4c0.7-0.9,0.1-1.6-1.4-2.4
		c0.2,1.4,0.3,2.5,0.4,3.7c-0.1,0.1-0.2,0.1-0.3,0.2c-0.3-0.5-0.6-0.9-0.8-1.4c-0.1,0-0.3,0.1-0.4,0.1c0.3,1.1,0.6,2.2,0.8,3.3
		c-0.2,0.1-0.3,0.1-0.5,0.2c-0.5-0.7-0.8-1.7-1.5-2.2c-1.4-1-0.7-2.3-0.9-3.4c0-0.3-0.4-0.5-0.9-1.2c-0.4,2.8,0.4,5,1,7.4
		c-0.4-0.5-0.7-0.8-1.1-1.2c-0.3,0.4-0.4,0.8-0.6,1.1c-0.2,0-0.3-0.1-0.5,0c-1.2,0.3-0.4-2-1.8-1.4c-0.2-0.9-0.5-1.8-0.5-2.6
		c0-3.4,0.2-6.8,0.3-10.3c0-0.1-0.2-0.3-0.5-0.4c-0.3,4.9-1.1,9.9-0.3,14.6c-0.4,0.2-1,0.4-1,0.6c0.1,0.4,0.3,0.8,0.6,1.4
		c-1.6-0.4-3.1-1.9-3.1-3.1c0-0.9,0.1-1.9,0.1-2.8c0-2.8,0-5.6-0.2-8.5c-0.1,0.8-0.3,1.6-0.3,2.4c-0.1,2.2-0.2,4.5-0.2,6.7
		c0,1.4-0.1,2.9,0.4,4.2c0.6,1.4,0.7,2.5-0.7,3.4c-1.2-1.6-3.4-2.8-2.8-5.6c-0.2,0-0.4,0.1-0.5,0.1c-0.1,0.5-0.4,0.9-0.3,1.4
		c0.2,1.2,0.5,2.4,0.9,3.5c0.7,1.8,0.6,2.1-1.4,2.8c0-0.8,0.2-1.9-1.2-0.6c0.1-0.5,0.2-0.8,0.3-1.2c-0.6,0.5-1.1,0.9-1.5,1.2
		c0.3,0.7,1,1.4,0.9,1.9c-0.2,0.6-1,1-1.5,1c-0.5-0.5-1-1.3-1.7-1.4c-1.1-0.2-1.6,0.4-1.1,1.5c0,0,0,0,0.1,0c0,0,0,0,0,0
		c0.3,0.4,0.7,0.8,1.1,1.3c-0.6-0.1-1.1-0.3-1.6-0.4c0.2-0.3,0.4-0.6,0.5-0.9c0,0,0,0,0,0c0,0,0,0,0-0.1c-0.3-0.3-0.7-0.6-1-0.8
		c-0.2,0.6-0.5,1.3-0.7,1.9c-0.7-0.4-1.4-0.8-2.3-1.4c0.4,1.2,0.8,2.4,1.2,3.6c-0.5,0.4-1,0.9-1.2,1.1c-0.9-0.2-1.5-0.3-2.3-0.5
		c0.4,2.1-0.6,3-2.3,2.5c0,0.5,0.1,1.1,0.1,1.3c-0.5,0.6-0.9,1.1-1.3,1.5c-0.5-0.2-1.1-0.4-1.6-0.5c-0.1,0-0.3,0.7-0.6,1.2
		c-0.3-0.1-0.7-0.2-1.2-0.3c0.2,0.6,0.3,1.2,0.5,1.7c0,0,0,0,0,0v0c0.4-0.3,0.8-0.6,1.2-0.8c0.1,0.1,0.2,0.2,0.3,0.2
		c-0.4,0.5-0.9,1-1.6,1.8v-1.2c0,0,0,0,0,0c0,0,0,0,0,0c-0.5,0.2-0.9,0.4-1.5,0.6c0.4,0.7,0.8,1.3,1.3,2.2c-0.8,0.5-1.7,0.9-2.5,1.4
		c0.1,0.5,0.2,1,0.3,1.6c-0.2,0.1-0.5,0.3-0.9,0.6c-0.2-0.5-0.4-0.9-0.5-1.2c-0.6,0.5-1.2,1.1-2,1.7C99.4,60.8,99.7,61.3,99.9,61.8
		c0.3,0.1,0.6,0.1,1,0.2c-0.2,0.1-0.5,0.3-0.7,0.4C100.1,62.3,100,62,99.9,61.8 M173.9,30.8c-0.2,0-0.4,0.1-0.5,0.1
		c-0.1-0.6-0.2-1.1-0.2-1.7c0.2,0,0.4,0,0.6-0.1C173.7,29.7,173.8,30.3,173.9,30.8 M101.9,130.8c-1.2-2.4-2.5-4.7-0.4-7.8
		c0.4,2.7,0.7,5.2,1.1,7.7C102.3,130.7,102.1,130.8,101.9,130.8 M80.7,203.6c5.4-2.2,10.7-4.6,16.2-6.5c3.5-1.2,6.6-3.1,10-4.3
		c0.2-0.1,0.3-0.1,0.4-0.3c4-4.3,9.7-6,14.2-9.5c3-2.3,5.9-4.6,8.7-7.1c1-0.9,1.7-2.1,2.4-3.3c1-1.9,0.5-3.7-0.9-5.2
		c-1.3-1.5-0.9-3.2-0.6-4.8c0.1-0.5,1.1-1.1,1.7-1.1c0.4,0,1.2,0.8,1.3,1.3c0.7,2.5,1.2,5,1.7,7.3c1,1,3.6-0.9,3.1,2.1
		c0.2-0.5,0.5-0.9,0.9-1.7c1.1,1,2,1.9,3,2.7c-0.1,0.1-0.2,0.2-0.3,0.3l-3.6-1.2c0.7,1,1.3,2.1,2.1,3c0.7,0.8,1.8,1.2,2.6,1.9
		c2.3,2,4.9,3.3,8.1,3.7c1,0.1,2.2,1.4,2.6,2.4c0.7,1.6,2,1.5,3.3,1.9c1.2,0.4,2.8,0.8,3.4,1.8c0.6,1,0.4,2.6,0.2,3.9
		c-0.2,1.3-0.6,2.5-1.1,3.7c-0.4,0.7-1.1,1.3-1.8,1.8c-0.3,0.2-1,0.2-1.2,0.1c-1.7-2.1-3.6-1-5.4-0.5c-1.6,0.5-3.2,1-4.7,1.7
		c-0.5,0.3-0.9,1.1-1.1,1.8c-0.1,0.3,0.1,0.8,0.3,1.1c0.4,0.6,0.9,1.1,1.4,1.7c-0.7,0.5-1.1,1-1.5,1.1c-1.7,0.5-1.9,1.9-2,3.2
		c-0.3,3.5-0.4,7-0.7,10.5c0,0.4,0,0.9-0.2,1.3c-0.8,1.7-1.1,3.5-0.8,5.4c0.4,2-1.2,3.3-2.3,4.3c-4.1,3.7-4.6,8.2-4.1,13.2
		c0.1,1.1,0.1,2.3,0.2,3.5c0.1,0.7,0.1,1.5,0.4,2.1c0.7,1.4,0.3,2.8-0.1,4.1c-0.4,1.1-0.8,1.1-2,0.5c-5-2.4-7.5-7.3-11.1-11
		c-6.3-6.6-10.9-14.4-16-22c-1.1-1.6-1-1.7,0.8-2.7c1.6-0.9,3.3-1.8,4.9-2.7c2.9-1.7,5.5-3.6,7.4-6.4c1.1-1.6,2.6-2.9,4-4.4
		c1.8-1.8,1.4-3.9-0.7-5.4c-4.2-2.9-7.6-0.8-11,1.4c-0.8,0.5-1.6,1.2-2.3,1.8c-2,1.6-4.2,2.6-6.7,3.3c-6.2,1.9-12.5,2.9-18.8,4.2
		c-1.9,0.4-3.5-0.2-4.8-1.5C79.1,205.1,79.2,204.2,80.7,203.6 M159.5,165.3c0.8-0.1,1.8,0,2.5,0.3c0.3,0.1,0.4,1.2,0.2,1.8
		c-0.4,1.2-0.9,2.4-1.6,3.4c-0.9,1.2-1.8,1-2.2-0.5c-0.2-0.6-0.2-1.2-0.4-2c-0.3,0.4-0.5,0.5-0.5,0.7c-0.5,1.4-0.9,2.5-3,2
		c-1.8-0.5-3.9,0-5.9,0c-0.7,0-1.4-0.5-2.1-0.7c-2.2-0.5-3.8-1.7-5.3-3.4c-1.1-1.3-2-2.4-1-3.9c0.3-0.5,1.1-1.1,1.7-1.1
		c1.7,0.1,3.6-0.4,4.4,1.5c1,0.1,2-0.2,2.6,0.2c2.5,1.5,5.2,1,7.8,1.3c0.7,0.1,1.4,0.6,2.1,0.9c0,0.2-0.1,0.3-0.1,0.5
		C158.8,165.8,159.1,165.3,159.5,165.3 M79.2,214.3c3.3-2.9,7.5-3.5,11.5-4.3c1.3-0.3,2.6-0.3,3.9-0.5c0-0.1,0-0.1,0.1-0.2
		c1.4,0.3,2.9,0.6,4.3,0.9c0.9,0.2,1.2,0.7,0.9,1.6c-0.2,0.9-0.2,2-1.5,2.1c-2.1,0.2-4.2,0.7-6,1.7c-0.3,0.2-0.8,0.2-1.1,0.2
		c-1.3-0.3-2.2,0.2-2.8,1.2c-0.8,1.2-1.9,1.4-3.2,1.2c-0.5-0.1-1.1-0.1-1.6,0.2c-2,0.9-3.6-0.3-5.3-1
		C77.5,216.8,78.1,215.2,79.2,214.3 M148.9,313.6c0.2-2.5,2.3-2.7,3.6-3.8C153.1,311.8,152.5,312.5,148.9,313.6 M148.3,349.9
		c-0.8-0.3-1.5-0.5-2.3-0.8c0.9-0.6,1.8-1.2,2.7-1.8C149.4,347.9,148.6,349.1,148.3,349.9 M151.1,346.7c1,0.5-1.8,5.6-2.5,5.3
		C149.4,350.2,150.3,348.4,151.1,346.7 M144.6,350.6c0-0.1,0.1-0.2,0.3-0.4v1.4c0.5,0,0.5-1.1,0.6-1.4c0.5,1.7-0.6,3.6-1.8,4.7
		C143.9,353.5,143.8,351.8,144.6,350.6 M145.2,360.8c-0.7-0.2,0.2-3.3,1-3.1C145.9,358.7,145.6,359.8,145.2,360.8 M151.7,358.6
		c0.1,0.1,0.3,0.2,0.4,0.3C150.7,361,150.4,360.6,151.7,358.6 M147.4,360.8c1.1-4.4,2.8-8.6,4.7-12.7c0.6-1.3,2.6-0.8,3-1.9
		c0.4-1.1,1.2-3,0.5-3.8c1.1-0.8,2.3-1.5,0.6,0.6c0.3-0.4,0.1,0.4,0,0c0.9,2.3-1.2,7-2.3,9.2C152.3,355.3,149.5,358,147.4,360.8
		 M151.6,345.8c0.2-0.4,0.4-0.8,0.6-1.1C153,345,152.5,346.2,151.6,345.8 M155.9,339.1c0.2,0.1,0.4,0.3,0.5,0.4
		c-0.9,1.2-1.8,2.4-2.6,3.6C153,342.6,155.4,339.9,155.9,339.1 M154.1,363.9c-0.1-2.5,2.5-2.8,3.6-4.6
		C157.2,362.9,156.4,363.9,154.1,363.9 M155,356.8c0.4-1.1,0.6-1.5,0.6-1.5c0.9-1.9,2.1-3.8,4-4.8
		C161.1,352.5,156.8,356.5,155,356.8 M159,326.8c-1,1.8-2.1,1-2.1,3.4c0.4-0.6,0.7-1.3,1.1-1.9c2.1,1.7-2.2,7.9-2.8,9.9c0,0,0,0,0,0
		c0,0,0,0,0,0c0,0,0,0,0,0c0.4-0.7,0.9-1.8,1.7-2.1c0,0.6-0.4,3.6-1.7,2.1c1.2,1.4-0.3,0.3,0,0c0,0,0,0,0,0c0,0,0,0,0,0
		c-1.7,1.8-2.5,4.2-4.1,6.1c-1.4,1.5-3.2,2.3-5.1,3.1c1.3-3.8,2.9-7.5,5.4-10.7c1-1.3,3.1-2.5,3.2-4.3c0.1-1.1-0.5-2.3,1.1-1.1
		c0.9-1.9,0.9-4.2,2.1-5.9c0.9-1.4,1.9-2.7,2.8-4.1C160.6,323,159.8,325.2,159,326.8 M161.6,248c-0.5,1.3-1.1,2.6-1.4,4
		c-0.2,0.8,0.2,1.7,0.2,2.6c0,2.7,0.5,5.4-1.6,7.8c-1.1,1.3-1.6,3.1-2.3,4.7c-0.5,1.2-0.8,2.5-1.2,3.7c0.2,0.1,0.4,0.2,0.6,0.3
		c0.8-1.3,1.5-2.6,2.3-4c1.1,0.8,0.9,1.5,0.5,2.3c-0.5,0.9-1,2,0.5,2.6c0.6-0.7,1.2-1.5,1.9-2.4c0.8,1.2,0,1.9-0.6,2.6
		c-0.8,1-1.8,1.9-0.3,3.2c0.8,0.8-0.7,3.3-2.1,3.9c0.1,1,0.3,2-1.1,2.3c-0.2,0-0.3,0.3-0.4,0.5c-1,3-3.1,5.1-5.2,7.3
		c-2.4,2.5-3.9,5.6-5.2,8.8c-0.1,0.3-0.2,0.7-0.4,0.9c-2.6,2.1-2.1,5.1-2.4,7.9c-0.1,1.6,0,3.3-0.1,4.9c0,0.4-0.3,0.9-0.6,1.3
		c-0.4,0.5-1,0.9-1.4,1.4c-1,1.3-2.4,1.4-3.3,0c-0.5-0.8-0.7-1.7-1.1-2.5c-0.5-1.3-1-2.7-1.7-3.9c-0.6-1-3.4-0.1-4,1.3
		c-0.4,0.9-0.6,2-0.5,3c0.3,4.3,0.2,8.6-0.3,12.8c-0.3,2.5-0.1,5.1-1.4,7.5c-0.5,1-0.4,2.2-0.5,3.4c-0.4,2.6-1.7,4.8-3.1,7
		c-0.4,0.7-0.7,1.5-1.1,2.2c-0.5,0.9-1,1.1-2.2,0.5c-3.6-1.8-4-5-4.5-8.4c-0.7-5.4-1.5-10.8-2.5-16.2c-0.9-4.6-2.2-9.1-3.3-13.6
		c-0.1-0.3-0.4-0.6-0.8-1.3c-0.1,0.8-0.1,1.1-0.1,1.5c-0.1,1.1-0.2,2.2-0.3,3.3c0,0.5-0.2,1-0.1,1.5c0.1,1.5-0.3,2.1-1.8,2
		c-1.2-0.1-1.7,0.2-1.5,1.5c0,0.4-0.3,0.8-0.4,1.2c-0.1,1-0.6,2.2-0.1,2.8c1.3,1.8,0.4,3.6,0.6,5.4c0.2,2.1,0.4,4.1,0.6,6.2
		c0.3,2.6,0.5,5.1,0.8,7.7c0.5,3,1,6,1.6,9c0.4,1.9,0.7,3.8,1.5,5.5c1.1,2.1,0.9,3.9-0.2,5.9c-1-0.4-2-0.8-2.9-1.2
		c-2-1-3.9-2.1-6.2-2.3c-0.5-0.1-1.2-0.8-1.5-1.4c-1.6-2.9-3.2-5.9-4.7-8.9c-4.3-9-7.3-18.4-9-28.2c-0.1-0.8-0.2-1.6-0.2-2.5
		c0-4.2-1.3-8.1-3.2-11.8c-1.7-3.3-3.8-6.4-5.6-9.7c-0.9-1.6-2.5-2.8-2.3-4.9c0-0.3-0.5-0.8-0.8-0.9c-0.3-0.1-0.8,0.3-0.9,0.6
		c-0.7,1.1-1.4,0.9-2.3,0.2c-2.9-2.3-4.2-5.5-5-8.9c-0.7-3.1-1.3-6.2-2-9.3c-0.2-0.9-0.6-1.7-0.9-2.6c-0.3,0.2-0.4,0.3-0.4,0.3
		c0,4.6-0.1,9.2,0.2,13.8c0.3,4.9,2.2,9.5,4.1,14.1c0.4,1,1.1,2,1.9,2.9c2.4,2.8,3.6,6.1,5,9.4c1.9,4.4,2.3,8.9,2.2,13.6
		c0,2.4,0,4.8,0,7.2c0,0.6-0.1,1.2-0.2,1.9c-0.1,0-0.3,0.1-0.4,0.1c-0.3-0.6-0.8-1.1-1-1.7c-0.5-1.2-0.8-2.5-1.2-3.8
		c-0.4-1.3-1.1-2.4-2.2-3.3c-1-0.9-1.6-2.5-2.1-3.8c-0.7-2-1.4-4.1-1.8-6.2c-1.7-9.1-2.8,2.7-2.7,5.8c0.1,1.2,0.4,2.3,0.6,3.5
		c0.2,1.1,0.3,2.3,0.7,3.3c0.8,1.8,1.8,3.6,2.7,5.4c0.2,0.5,0.2,1.1,0.3,2c-0.6-0.2-1-0.3-1.3-0.5c-3-2.2-6.3-3.8-9.9-4.9
		c-1.1-0.3-1.5-0.9-1.6-2c-1-9.2-2.1-18.5-3.2-27.7c-0.9-7.3-2.1-14.5-2.9-21.8c-0.5-4.4-0.5-8.9,0.7-13.2c0.2-0.7,0.6-1.4,1-2
		c1.8-2.6,3.6-5.2,5.5-7.8c2.2-3,4.3-6.1,7.2-8.7c2.5-2.3,4.5-5.2,6.7-7.9c1.6-1.9,3.1-3.8,3.8-6.3c0.2-0.5,0.9-1,1.4-1.4
		c2-1.5,4-2.9,6-4.3c0.4-0.3,1-0.5,1.5-0.7c6.6-2,13.1-4,19.7-6c1.2-0.4,1.6-0.2,2.1,0.9c4.3,8.7,8.9,17.2,12.9,26
		c3.4,7.2,7.9,13.6,13.1,19.5c3.2,3.6,6.9,6.8,10.5,10c1.3,1.2,2.4,1.1,3.7-0.1c1.8-1.7,3.6-3.4,5.2-5.3c0.5-0.5,0.5-1.6,0.4-2.4
		c-0.2-1.3-0.4-2.6-2-3.1c-0.2,0-0.2-1.1,0-1.6c0.2-0.6,0.7-1,1.2-1.8c-1.7,0-1.7-0.6-1.9-1.9c-0.4-2.8,1.2-4.7,1.9-7
		c0.1-0.4,0.2-0.9,0.1-1.2c-0.5-1.1,0.2-1.9,1-2.4c0.5-0.3,1.3-0.2,1.7-0.3c0.8-0.5,1.5-0.9,2.1-1.3c0.1-0.1,0.2-0.2,0.3-0.4
		c0.8-1.4,1.5-2.9,2.5-4.1c0.8-1,2.1-1.8,3.3-2.4c-0.7,1.5-1.5,3.1-2.2,4.6C161.5,243.9,162.3,246.4,161.6,248 M159.8,163
		c-1.5-0.1-3,0.4-4.5-0.6c-0.9-0.6-2.6,0.3-3.9,0.3c-1.2,0-2.5,0.2-3.1-1.3c0-0.1-0.4-0.2-0.5-0.2c-1.9,0.3-3.2-0.4-3.9-1.8
		c-0.9-0.1-1.8,0.2-2.2-0.2c-0.9-0.7-1.3-3.3-0.6-3.8c0.6-0.4,1.7-0.6,2.3-0.4c1,0.3,1.5,0.2,2.1-0.6c0.8-1.1,1.8-1.6,3-0.4
		c0.3,0.3,1.1,0.2,1.7,0.1c3-0.2,3.6,0.1,4.8,3c0.1,0.3,0.2,0.6,0.5,1.2c0.8-1.7,1.5-2.9,3.3-2.8c1.7,0.1,3.1,1.6,3.7,3.9
		C163.1,162.2,162.3,163.2,159.8,163 M165.3,169.4c-0.2,0.4-0.7,0.8-1,1.1c-0.3-0.4-0.9-0.7-0.9-1.1c-0.1-1.4,0-2.7,0-4.1
		c0.2,0,0.4,0,0.6,0C165.1,166.4,165.9,167.7,165.3,169.4 M162.7,159.1c0.6-0.6,1.1-1.1,1.6-1.6c0.3,0.3,0.8,0.7,0.7,0.9
		c-0.3,0.8-0.9,1.6-1.3,2.4C163.4,160.3,163.2,159.9,162.7,159.1 M165.9,98.7c-0.5-0.5-1-1.1-1.7-1.8c0.8,2.4-0.6,3.9-1.7,5.7
		c-0.6,0.9,0.1,2.6,0.2,3.9c0,0.3,0.1,0.8,0,0.9c-1.3,1.2-0.7,2.7-0.6,4.1c0.1,2.5,0.3,4.9,0.5,7.4c0.1,0.8,0.2,1.6,0.2,2.4
		c0,0.5,0.1,1.3-0.2,1.6c-1.2,1-0.6,2.2-0.5,3.3c0.2,2.1,0.5,4.3,0.2,6.4c-0.3,2.4-2.1,4.1-3.9,5.5c-0.6,0.4-1.1,0.9-1.7,1.3
		c-1.1,0.9-1.9,1.9-1.4,3.5l-0.5-0.2c-0.3,0.8-1,1.7-0.9,2.4c0.3,1.4,1.4,1.7,2.8,1.5c1.1-0.2,2.4,0.1,3.5,0.5
		c1.3,0.4,2.1,2.7,1.6,3.9c-0.1,0.2-0.4,0.4-0.6,0.5c-1.7,0.2-3.4,0.4-4.9,0.6c0-1.5,0-2.6,0-3.7c0-0.2-0.4-0.5-0.7-0.6
		c-1.9-0.5-3.1,0.1-4.1,1.8c-0.2,0.3-0.6,0.6-1,0.7c-2.3,0.2-4.5,0.1-6.8,0.4c-1.7,0.2-3.2,0.6-4.5,2c-1.4,1.6-3.2,2.9-4.9,4.3
		c-0.1,0.1-1-0.4-1-0.6c0-1.2,0.1-2.5,0.2-4c-0.7,0.5-1.3,1-1.8,1.5c-0.1-0.1-0.2-0.1-0.3-0.2c0.2-0.5,0.4-1.1,0.7-1.5
		c2.3-3.5,4.6-6.9,6.9-10.4c1.4-2.2,2.7-4.5,4-6.8c0.2-0.4,0.3-1.1,0.1-1.6c-0.8-1.8-0.2-3.3,0.7-4.8c0.3-0.5,0.7-1.1,0.7-1.6
		c0-0.6-0.3-1.3-0.4-1.9c-0.6,0.2-1.4,0.2-1.8,0.6c-2,2.1-3.9,4.3-5.7,6.6c-1.3,1.8-2.2,3.9-3.4,5.7c-1.7,2.7-2.4,5.8-3.1,8.7
		c-1,4.2-1.2,8.6-1.8,12.9c-0.2,1.4-0.5,2.8-0.8,4.2c-0.3,1.2-1.3,1.5-2.3,1.9c-3.8,1.7-7.5,3.5-11.2,5.2c-0.3,0.2-0.7,0.3-0.9,0.4
		c-4.4-8.1-7.5-16.5-7.8-25.8c-0.1-2.2-0.3-4.5-1.1-6.5c-0.8-1.9-1-3.6-0.7-5.7c0.5-4.8-0.6-9.4-1.7-14c-1-4.2-1-8.4-0.2-12.6
		c1.1-5.7,2-11.4,3.5-16.9c0.7-2.6,1.8-5.3,3.8-7.4c0.5-0.5,0.7-1.5,0.7-2.3c0-1.4-0.4-2.8-0.4-4.2c0-0.7,0.1-1.8,0.3-2.2
		c1.2-2.7-0.4-5.7,1.2-8.2c0.1-0.1,0.1-0.3,0.1-0.5c0-1.8,0-1.8,1.4-2.9c-0.4-1.4-0.5-2.6,0.6-3.8c0.4-0.5,1.1-1,1.1-1.6
		c0.1-1.9,1.4-2.8,2.7-3.7c0.7-0.4,1.6-0.6,2.4-1.2c-0.5-0.1-1-0.1-1.4-0.2c0-0.1,0-0.2,0-0.2c1.1-0.2,2.2-0.4,3.6-0.7
		c-0.5-0.2-0.7-0.4-1.1-0.5c0.3-0.2,0.5-0.4,0.7-0.6c1.5-1.1,3.1-1.6,4.8-0.9c0.7-0.9-1.9-2.5,0.8-2.8c-0.1-0.4-0.2-0.7-0.3-1.2
		c1.4,0.4,2.6,0.8,4.2,1.3c-0.3-0.7-0.5-1.2-0.8-1.9c1.6,0.8,3,1,4.4-0.5c0.4,0.8,0.7,1.5,1.1,2.4c0.2-0.6,0.3-1.1,0.4-1.3
		c0.9,0,1.7,0,2.5,0c0.8,0,1.5,0.1,2.3,0.2c0.6,0,1.2,0.2,1.7,0.1c1.2-0.2,2.3-0.4,3.2,0.7c0.1,0.1,0.3,0.2,0.4,0.2
		c1.8-0.1,3.5-0.1,5.2-0.5c1.6-0.3,2.7,0.5,2.8,2.6c1.8-1.2,3.5-1.2,5.6-0.3c3,1.2,6.1,2.1,9,3.4c2.6,1.1,5.4,1.3,7.9,2.3
		c2.6,1.1,5.7,1.7,7.3,4.7c0.8,1.6,2.3,2.8,3.1,4.4c1.4,2.9,2.6,5.8,2,9.1c0,0.1,0,0.3,0,0.3c-1.6,1.3-1,3.1-1.2,4.8
		c-0.2,2.2-0.9,4.3-0.8,6.5c0.1,1.4,1.1,2.7,1.8,4.1c0.1,0.2,0.5,0.2,0.7,0.2c1.2-0.1,2.1,0.2,2.3,1.5c0.3,1.3-0.4,3.2-1.4,3.6
		c-1.6,0.7-2.9,1.8-5,1.5c-1.7-0.3-3.5,0.6-5.3,1c-4,0.8-7.9,2.1-11.4,4.3C167,100,166.4,99.3,165.9,98.7 M243.7,271.3l-0.8-1
		l0.3-0.3c0.3,0.3,0.6,0.6,0.9,0.8C244,271,243.9,271.2,243.7,271.3 M260.6,274.5c-3-0.4-6.1-0.9-9.1-1.5c-0.6-0.1-0.9-1.3-1.4-2
		c0.2-0.1,0.3-0.2,0.5-0.3c3.3,0.8,6.7,1.5,10,2.3c0.4,0.1,0.6,0.6,0.9,0.9C261.3,274.2,261,274.6,260.6,274.5 M265.2,262.9
		c-0.7,3-1.5,6.1-5,7.1c-0.7,0.2-1.5,0.3-2.2,0.1c-5.2-1.2-10.2-3.1-14.7-6.2c-0.5-0.4-1.1-1.1-1.1-1.7c0-2.9-1.7-5.2-3-7.6
		c-1.6-3-3-6.1-4.8-9c-1.6-2.6-3.6-5-5.4-7.4c-1.5-2.1-3-4.2-4.5-6.3c-0.3-0.4-0.6-0.9-0.9-1.4c-1.6-2.6-3.3-5.2-4.9-7.8
		c-1.8-3-4.3-4.9-7.7-6.2c-7.4-2.9-15.2-5.3-21.9-9.7c-2.7-1.8-5.2-3.8-7.7-6c-1.2-1-2.1-2.4-2.8-3.8c-1.3-2.5-2.6-5-4.5-7
		c-0.4-0.4-0.9-1.2-0.8-1.7c0.2-0.8,0.6-1.9,1.2-2.3c0.5-0.3,1.7,0,2.3,0.4c0.9,0.6,1.6,1.5,2.4,2.2c0.1,0,0.2-0.1,0.2-0.1
		c-0.1,0-0.4-0.9,0,0c-0.4-0.9-0.8-1.7-1.3-2.8c1.6-0.1,2.8,0.4,3.8,1.2c0.9,0.7,1.8,1.5,2.5,2.4c1.6,2.2,3.8,3.6,6.1,4.9
		c6.4,3.5,13.2,5.7,20.3,7.1c3.8,0.7,7.4,0.1,10.6-2.5c1.3-1.1,1.5-1.7,0.4-3c-1.1-1.3-2.2-2.5-3.5-3.5c-6.1-5.1-12.4-10-18.5-15.2
		c-2.7-2.3-5.1-5-7.4-7.8c-1.2-1.5-1.9-3.5-2.5-5.3c-0.9-3,1.6-4.9,4.6-4.8c5.8,0.1,9.5,4,13.7,6.9c5.7,3.9,11.3,8,16.9,12
		c0.8,0.6,1.1,1.1,1.2,2.1c0.1,1,0.7,2.2,1.5,2.9c1.6,1.4,2.2,2.9,1.2,4.8c-0.9,1.7-2,3.3-3.2,4.7c-1.6,1.9-1.7,2.1,0,3.7
		c1.5,1.3,2.9,2.7,4.3,4.1c0.3,0.3,0.7,0.6,0.8,1c0.7,2.2,2.5,2.8,4.4,3.2c4.6,1.1,9.2,2.4,11.6,6.7c1.2,2.2,3.4,4.1,3.1,7.1
		c0,0.3,0.2,0.8,0.4,1c1.1,1.1,2.3,2.2,3.5,3.2c1.5,1.3,1.3,3-0.4,4c-0.6,0.3-1,0.8-1.5,1.2c-4,3.5,11.6,21.2,10.8,25.9
		c-0.3,2,0.7,3.5,1.6,5.2C265.5,260,265.5,261.6,265.2,262.9 M259.2,184.7c0.8,1.6,0.6,4.4-1.2,6.2c-0.3-1.3-0.7-2.3-0.7-3.3
		c0-3.9,0-7.7,0.1-11.6c0-1,0.5-1.9,0.7-2.9c0.2,0,0.3,0,0.5,0c0.1,0.4,0.4,0.7,0.3,1.1c-0.1,2.4-0.3,4.8-0.4,7.2
		C258.6,182.5,258.7,183.7,259.2,184.7 M268.3,140.1c-1.2,1.6-2.3,3.2-3.7,4.6c-0.8,0.8-1.4,1.5-0.9,2.7c0.8,1.8,1.5,3.6,2.2,5.4
		c0.3,0.7,0.6,1.4,0.5,2.1c-0.3,2.8-0.7,5.6-1.1,8.5c-0.3,1.8-0.9,3.5-0.3,5.4c0.5,1.6-0.2,2.6-2,3.1c-0.1-0.4-0.1-0.8-0.1-1.1
		c0-0.3-0.1-0.6-0.2-1.2c-0.9,0.4-1.7,0.7-2.5,1.1c-1,0.5-1.7,0.3-1.5-0.9c0.6-3.1-0.7-5.8-1.8-8.6c-0.2-0.6-0.7-1.1-1.1-1.6
		c-3-3.3-6.1-6.5-9-9.8c-0.7-0.7-1.4-1.6-0.6-3c0.6,0.5,1.2,0.9,1.6,1.5c1.8,2.1,3.5,4.2,5.2,6.4c0.3,0.3,0.6,0.7,0.9,1
		c0.7,0.7,1.3,0.5,1.6-0.4c0.3-0.9,0.6-1.9,0.9-2.8c0.4-1.5,0.7-2.9,2-4.1c0.6-0.6,0.9-1.8,0.9-2.7c0-3.1,0-6.2-0.4-9.2
		c-0.5-4.1-2.9-7.2-5.7-10.1c-2.3-2.4-4.8-4.6-7.1-6.9c-0.8-0.8-1.9-1.6-1.2-2.9c0.8-1.5,3.3-3,4.6-2.5c1.9,0.8,3.9,1.8,5.5,3.2
		c0.9,0.8,1.7,1.4,2.8,1.7c0.1,0,0.1,0,0.2,0.1c2.6,0.2,3.5,2.1,4.3,4.2c0.5,1.6,1.4,3.1,2,4.6c1.2,3,2.4,6.1,3.6,9.2
		c0.3,0.7,0.4,1.4,0.6,2.1C268.3,139.2,268.5,139.8,268.3,140.1 M270.5,167.4c1.7,3.3,0,6-0.8,8.7
		C269.1,173.2,269,170.4,270.5,167.4 M270.4,344c-0.5,2.3-1.5,7.2,0.8,8.2C266.8,357.4,266,344.1,270.4,344 M271.1,356.2
		c0.9,0.9,1.7,1.8,2.6,2.7C270.3,362.2,269.9,358.9,271.1,356.2 M280.7,224.5c-0.9-4.4-1.5-9-2.9-13.3c-1.3-4.2-3.5-8.2-5.6-12.3
		c-0.1,0.9-0.2,1.8-0.3,2.7c-0.2,0-0.3,0-0.5,0c-0.9-5-1.8-10.1-1.5-15.2c0.1-0.1,0.3-0.1,0.4-0.2c1.1,2.6,2.2,5.3,3.3,7.9
		c0.2-0.1,0.5-0.2,0.7-0.3c-0.6-2.6-1.2-5.2-1.9-8.1c0.4,0.5,0.7,0.9,0.9,1.3c1.4,2.3,2.7,4.6,4,6.9c0.3,0.6,0.3,1.5,0.4,2.2
		c0.8,5,1.7,10,2.3,15c0.5,4.4,0.7,8.8,1.1,13.2C281.1,224.5,280.9,224.5,280.7,224.5 M286.7,261.3c0-1.4,0-2.8,0.1-4.1
		c0.4-3.4-1-6.5-1.8-9.7c-0.4-1.5-0.5-3.1-0.3-4.6c0.3-3.5-1.2-6.5-2.4-9.6c-0.4-1.2-0.6-2.6-0.6-3.9c6,10.5,6.3,21.9,5.8,33.5
		c-0.2,0-0.3,0.1-0.5,0.1C286.9,262.4,286.7,261.9,286.7,261.3 M300.1,251.7c1,6.6,0.5,13-2.9,19c-0.9,1.6-1.6,3.5-2.1,5.3
		c-0.8,3.5-1.3,7.2-2.2,10.6c-0.7,2.7-0.2,5.3,0.1,7.8c0.5,3.6,0,6.9-1.8,10c-0.2,0.3-0.2,0.6-0.4,0.9c-2.7,4-2.5,8.4-1.9,12.9
		c0.3,1.9,0.1,3.8-0.9,5.5c-0.1-3.7-0.2-7.3-0.3-11c-0.2-8.3-0.7-16.5-0.5-24.8c0.2-7.8,1.2-15.6,1.7-23.3c0.1-1.6-0.1-3.2-0.1-4.7
		c0-3-0.1-6.1-0.1-9.1c0.1-4.8-0.8-9.4-2.4-13.9c-1-2.8-2.1-5.6-3-8.4c-0.4-1.2-0.6-2.5-0.6-3.7c-0.1-2.4,0-4.8,0-7.3
		c0.4,0.2,0.8,0.5,1.6,1.1c-0.3-0.8-0.5-1.3-0.5-1.3c0.7-1.2,1.4-2.1,1.9-3.1c1.1-1.9,2.6-3,4.8-3.6c1.6-0.5,3.1-1.1,4.8-0.4
		c1.1,0.4,2,1.1,2.1,2.3c0.2,2.5,0.3,4.9,0.5,7.4c0,0.4-0.1,0.9-0.1,1.3c1.1,7.4,0.5,14.9,1.1,22.4
		C299.1,246.4,299.7,249,300.1,251.7 M302.9,216.6c-0.1,0.5-0.3,1.1-0.4,1.6c-0.2-0.1-0.7-0.2-0.7-0.2c0-0.5,0.1-1.1,0.2-1.6
		C302.3,216.5,302.6,216.5,302.9,216.6 M300.9,216.6c-0.8-1-0.7-2.5,0.4-3.9C302.2,214.3,302.1,215.6,300.9,216.6 M303,229.2
		c-0.5-2.8-0.9-5.6-1.4-8.4C303.3,221.3,304.1,226.1,303,229.2"/>
	<path class="st3" d="M130.5,167.3c-1.6-1.4-3.7-1.2-5.3-0.7c-2.7,0.8-5.2,2-7.7,3.3c-5.8,2.8-11.6,5.8-17.4,8.6
		c-9.3,4.4-19,7.8-29.3,9.3c-1.7,0.2-3.3,0.5-5-0.3c-1.4-0.6-2.7-0.4-3.9,0.8c-1.2,1.2-2.6,2.2-3.8,3.4c-0.9,0.8-1.7,0.6-2.5-0.2
		c-1.3-1.3-2.6-2.7-3.8-4.1c-1.2-1.4-1.3-2.7-0.3-4.2c1.6-2.6,3-5.2,3.6-8.2c0.4-2.1,1-4.2,1.3-6.3c0.2-1.1-0.1-2.3,0-3.5
		c0-0.6,0.2-1.3,0.6-1.6c1.7-1.5,2.9-3.7,5.7-3.2c0.5,0.1,1-0.3,1.6-0.5c2.9-1.2,4.4-3.8,6.6-5.8c2.3-2.1,4.3-4.4,6.5-6.5
		c1.7-1.6,2.4-3.6,2.2-5.8c-0.2-1.6-1.2-3.1-1.9-4.8c-1,0.4-2.1,0.7-2.9,1.3c-4.5,3.1-9.1,6.1-13.4,9.6c-3.1,2.5-5.5,5.7-8.5,8.2
		c-1.5,1.3-2.1,2.6-2.6,4.3c-0.4,1.6-1.1,3.2-1.7,4.8c-0.1,0.3-0.4,0.6-0.9,1.2c-0.1-0.9-0.2-1.4-0.2-2c0.1-2.1,0.2-4.3,0.2-6.4
		c-0.1-4,0-8-0.5-12c-0.5-4.1,1.1-7.4,3.3-10.6c2.4-3.6,5.2-7.1,6.5-11.4c0.5-1.7,0-2.6-1.8-2.4c-1.5,0.2-2.7,0.8-3.7,2
		c-3.4,3.9-6.7,7.9-10.2,11.7c-3.3,3.7-4.9,7.9-4.5,12.8c0.1,1.5,0.1,3.1-0.1,4.6c-0.2,2.7-0.7,5.3-0.9,8c-0.3,3.4,0,7-0.9,10.3
		c-2.3,9-4.8,17.9-8.4,26.5c-4.2,10.2-7.9,20.5-11.8,30.8c-0.6,1.7-0.9,3.5-1.3,5.3c-0.4,1.6-0.7,3.3-1.3,4.9
		c-0.7,1.7-1.7,3.3-2.6,5c-1,1.8-1.9,3.6-1.3,5.8c0.2,0.6-0.1,1.3-0.1,2c-0.1,3.3-0.7,6.7-0.2,9.9c1.5,9.9,1.3,19.9,0.3,29.8
		c-0.5,5.4-1.1,10.7-1.5,16.1c-0.5,7.4-0.6,14.7-1.3,22.1c-1,9.7-2.4,19.3-3.6,29c-0.2,1.9-0.3,3.9-0.5,6l0,1.4c5,0,34.4,0,37.5-0.3
		c0-0.2-0.1-2.5-0.2-2.8c-2.3-25.4,9.3-53.5-1-77.9c-0.9-2.1-1.8-4.1-2.8-6.5c-1.8,2.1-3.4,4-5.1,6c-1.6-1.1-1.4-2.7-1-4.2
		c0.7-2.6,1.5-5.2,2.3-7.7c0.9-2.9,2.7-5.2,5.3-6.9c1.7-1,3.2-2.2,4.8-3.4c0.4-0.3,0.5-0.9,0.9-1.3c1-1.2,1.9-2.5,3-3.6
		c0.9-0.9,2-1.5,2.9-2.3c0.4-0.4,0.7-1.3,0.5-1.7c-0.3-0.5-1.1-1-1.7-1c-1.1,0-2.2,0.4-3.2,0.5c-0.5,0.1-1-0.1-1.5-0.2
		c0.2-0.5,0.2-1.2,0.5-1.6c0.8-0.8,1.8-1.4,2.7-2c2.6-1.9,3.7-4.8,5.3-7.4c0.9-1.6,1.9-3.4,3.2-4.6c1.3-1.1,2.2-2.3,2.7-3.8
		c0.2-0.5,0.5-1.1,0.9-1.5c1.9-1.7,3.8-3.3,5.7-5c0.3-0.2,0.7-0.3,1-0.5c2.1-1.2,4.4-2.2,6.4-3.6c0.6-0.4,1-2.1,0.6-2.9
		c-0.6-1.3-1.6-2.6-2.7-3.5c-1.3-1-2.8-2.7-4.5-1.7c-2.2,1.3-4.1,3-6,4.7c-0.9,0.8-1.6,1.1-2.8,0.5c-0.7-0.4-1.6-0.4-2.5-0.5
		c-0.6-0.1-1.2-0.2-1.8-0.3c0.2-0.7,0.1-1.4,0.5-2c1.3-1.9,2.8-3.7,5.4-3.9c-0.3-1.7,0.7-2.5,2-3.1c0.5-0.2,0.9-0.4,1.3-0.6
		c3.8-1.8,7.6-3.6,11.5-5.2c3.1-1.3,6.2-2.4,9.3-3.6c0.4-0.2,0.8-0.6,1.2-0.9c1.7-1.6,3.6-2.7,6-2.6c0.5,0,1.1-0.1,1.6-0.2
		c1.3-0.3,1.5-0.9,0.7-2c-0.3-0.4-0.6-0.8-1-1.4c2-0.6,3.5-1.5,4.3-3.3c0.3-0.8,1.2-0.9,2.2-0.6c0.7,0.2,1.6,0,2.4-0.2
		c0.5-0.1,0.9-0.5,1.4-0.4c2.3,0.2,4.2-0.8,6-1.9c1.1-0.7,1.8-2,2.9-2.6c1.7-1,2.7-2.4,3.2-4.2c0.3-1.1,0.3-2.5,2.1-2.3
		c0.2,0,0.4-0.5,0.6-0.7c0.6-0.6,1.2-1.1,1.8-1.7c0.6-0.6,1.3-1.2,1.9-1.8c1.3-1.4,2.6-2.8,4-4.1c1-0.9,2.2-1.5,3.3-2.2l0.3,0.4
		c-1,0.9-2.1,1.7-3.1,2.6c-1.3,1.3-1.2,2.6,0.1,3.9c0.8,0.8,3.6,0.8,4.3-0.1c1.2-1.5,2.3-3,3.5-4.5
		C131.4,168.5,131.2,167.9,130.5,167.3"/>
	<path class="st1" d="M160.1,243.3c1.4,0.5,2.1,3,1.5,4.7c-0.5,1.3-1.1,2.6-1.4,4c-0.2,0.8,0.2,1.7,0.2,2.6c0,2.7,0.5,5.4-1.6,7.8
		c-1.1,1.3-1.6,3.1-2.3,4.7c-0.5,1.2-0.8,2.5-1.2,3.7c0.2,0.1,0.4,0.2,0.6,0.3c0.8-1.3,1.5-2.6,2.3-4c1.1,0.8,0.9,1.5,0.5,2.3
		c-0.5,0.9-1,2,0.5,2.6c0.6-0.7,1.2-1.5,1.9-2.4c0.8,1.2,0,1.9-0.6,2.6c-0.8,1-1.8,1.9-0.3,3.2c0.8,0.8-0.7,3.3-2.1,3.9
		c0.1,1,0.3,2-1.1,2.3c-0.2,0-0.3,0.3-0.4,0.5c-1,3-3.1,5.1-5.2,7.3c-2.4,2.5-3.9,5.6-5.2,8.8c-0.1,0.3-0.2,0.7-0.4,0.9
		c-2.6,2.1-2.1,5.1-2.4,7.9c-0.1,1.6,0,3.3-0.1,4.9c0,0.4-0.3,0.9-0.6,1.3c-0.4,0.5-1,0.9-1.4,1.4c-1,1.3-2.4,1.4-3.3,0
		c-0.5-0.8-0.7-1.7-1.1-2.5c-0.5-1.3-1-2.7-1.7-3.9c-0.6-1-3.4-0.1-4,1.3c-0.4,0.9-0.6,2-0.5,3c0.3,4.3,0.2,8.6-0.3,12.8
		c-0.3,2.5-0.1,5.1-1.4,7.5c-0.5,1-0.4,2.2-0.5,3.4c-0.3,2.6-1.7,4.8-3.1,7c-0.4,0.7-0.7,1.5-1.1,2.2c-0.5,0.9-1,1.1-2.2,0.5
		c-3.6-1.8-4-5-4.5-8.4c-0.8-5.4-1.5-10.8-2.5-16.2c-0.9-4.6-2.2-9.1-3.3-13.6c-0.1-0.3-0.4-0.6-0.8-1.3c-0.1,0.8-0.1,1.1-0.1,1.5
		c-0.1,1.1-0.2,2.2-0.3,3.3c0,0.5-0.2,1-0.1,1.5c0.1,1.5-0.3,2.1-1.8,2c-1.2-0.1-1.7,0.2-1.5,1.5c0,0.4-0.3,0.8-0.4,1.2
		c-0.1,1-0.6,2.2-0.1,2.8c1.3,1.8,0.4,3.6,0.6,5.4c0.2,2.1,0.4,4.1,0.6,6.2c0.3,2.6,0.5,5.1,0.8,7.7c0.5,3,1,6,1.6,9
		c0.4,1.9,0.7,3.8,1.5,5.5c1.1,2.1,0.9,3.9-0.2,5.9c-1-0.4-2-0.8-2.9-1.2c-2-1-3.9-2.1-6.2-2.3c-0.5-0.1-1.2-0.8-1.5-1.4
		c-1.6-2.9-3.2-5.9-4.7-8.9c-4.3-9-7.3-18.4-9-28.2c-0.1-0.8-0.2-1.6-0.2-2.5c0-4.2-1.3-8.1-3.2-11.8c-1.7-3.3-3.8-6.4-5.6-9.7
		c-0.9-1.6-2.5-2.8-2.3-4.9c0-0.3-0.5-0.8-0.8-0.9c-0.3-0.1-0.8,0.3-0.9,0.6c-0.7,1.1-1.4,0.9-2.3,0.2c-2.9-2.3-4.2-5.4-5-8.9
		c-0.7-3.1-1.3-6.2-2-9.4c-0.2-0.9-0.6-1.7-0.9-2.6c-0.3,0.2-0.4,0.3-0.4,0.3c0,4.6-0.1,9.2,0.2,13.8c0.3,4.9,2.2,9.5,4.1,14.1
		c0.4,1,1.1,2,1.9,2.9c2.4,2.8,3.6,6.1,5,9.4c1.9,4.4,2.3,8.9,2.2,13.6c-0.1,2.4,0,4.8,0,7.2c0,0.6-0.1,1.2-0.2,1.9
		c-0.1,0-0.3,0.1-0.4,0.1c-0.3-0.6-0.8-1.1-1-1.7c-0.5-1.2-0.8-2.5-1.2-3.8c-0.4-1.3-1.1-2.4-2.2-3.3c-1-0.9-1.6-2.5-2.1-3.8
		c-0.7-2-1.4-4.1-1.8-6.2c-1.7-9.1-2.8,2.7-2.7,5.8c0.1,1.2,0.4,2.3,0.6,3.5c0.2,1.1,0.3,2.3,0.8,3.3c0.8,1.8,1.8,3.6,2.7,5.4
		c0.2,0.5,0.2,1.1,0.3,2c-0.6-0.2-1-0.3-1.3-0.5c-3-2.2-6.3-3.8-9.9-4.9c-1.1-0.3-1.5-0.9-1.6-2c-1-9.2-2.1-18.5-3.2-27.7
		c-0.9-7.3-2.1-14.5-2.9-21.8c-0.5-4.4-0.5-8.9,0.7-13.2c0.2-0.7,0.6-1.4,1-2c1.8-2.6,3.6-5.2,5.5-7.8c2.2-3,4.3-6.1,7.2-8.7
		c2.5-2.3,4.5-5.2,6.7-7.9c1.6-1.9,3.1-3.8,3.8-6.3c0.2-0.5,0.9-1,1.4-1.4c2-1.5,4-2.9,6-4.3c0.4-0.3,1-0.5,1.5-0.6
		c6.6-2,13.1-4,19.7-6c1.2-0.4,1.6-0.2,2.1,0.9c4.3,8.7,8.9,17.2,12.9,26c3.4,7.2,7.9,13.6,13.1,19.5c3.2,3.6,6.9,6.8,10.5,10
		c1.3,1.2,2.4,1.1,3.7-0.1c1.8-1.7,3.6-3.4,5.2-5.3c0.5-0.5,0.5-1.6,0.4-2.4c-0.2-1.3-0.4-2.6-2-3.1c-0.2,0-0.2-1.1,0-1.6
		c0.2-0.6,0.7-1,1.2-1.8c-1.7,0-1.7-0.6-1.9-1.9c-0.4-2.8,1.2-4.7,1.9-7c0.1-0.4,0.2-0.9,0.1-1.2c-0.5-1.1,0.2-1.9,1-2.4
		c0.5-0.3,1.3-0.2,1.7-0.3c0.8-0.5,1.5-0.9,2.1-1.3c0.1-0.1,0.2-0.2,0.3-0.4c0.8-1.4,1.5-2.9,2.5-4.1c0.8-1,2.1-1.8,3.3-2.4
		C161.7,240.2,160.9,241.8,160.1,243.3"/>
	<path class="st1" d="M133.2,152.3c-0.7,0.5-1.3,1-1.8,1.5c-0.1-0.1-0.2-0.1-0.3-0.2c0.2-0.5,0.4-1.1,0.7-1.5
		c2.3-3.5,4.6-6.9,6.9-10.4c1.4-2.2,2.7-4.5,4-6.8c0.2-0.4,0.3-1.1,0.1-1.6c-0.8-1.8-0.2-3.3,0.7-4.8c0.3-0.5,0.7-1.1,0.7-1.6
		c0.1-0.6-0.3-1.3-0.4-1.9c-0.6,0.2-1.4,0.2-1.8,0.6c-2,2.1-3.9,4.3-5.7,6.6c-1.3,1.8-2.2,3.9-3.4,5.7c-1.7,2.7-2.4,5.8-3.1,8.7
		c-1,4.2-1.2,8.6-1.8,12.9c-0.2,1.4-0.5,2.8-0.8,4.2c-0.3,1.2-1.3,1.5-2.3,1.9c-3.8,1.7-7.5,3.5-11.2,5.2c-0.3,0.2-0.7,0.3-0.9,0.4
		c-4.4-8.1-7.5-16.5-7.8-25.8c-0.1-2.2-0.3-4.5-1.1-6.5c-0.8-1.9-1-3.6-0.7-5.7c0.5-4.8-0.6-9.4-1.7-14c-1-4.2-1-8.4-0.2-12.6
		c1.1-5.7,2-11.4,3.5-16.9c0.7-2.6,1.8-5.3,3.8-7.4c0.5-0.5,0.7-1.5,0.7-2.3c0-1.4-0.4-2.8-0.4-4.2c0-0.7,0.1-1.8,0.3-2.2
		c1.2-2.7-0.4-5.7,1.2-8.2c0.1-0.1,0.1-0.3,0.1-0.5c0-1.8,0-1.8,1.4-2.9c-0.4-1.4-0.5-2.6,0.6-3.8c0.4-0.5,1.1-1,1.1-1.6
		c0.1-1.9,1.4-2.8,2.7-3.7c0.7-0.4,1.6-0.6,2.4-1.2c-0.5-0.1-1-0.1-1.4-0.2c0-0.1,0-0.2,0-0.2c1.1-0.2,2.2-0.4,3.6-0.7
		c-0.5-0.2-0.7-0.4-1.1-0.5c0.3-0.2,0.5-0.4,0.7-0.6c1.5-1.1,3.1-1.6,4.9-0.9c0.7-0.9-1.9-2.5,0.8-2.8c-0.1-0.4-0.2-0.7-0.3-1.2
		c1.4,0.4,2.6,0.8,4.2,1.3c-0.3-0.7-0.5-1.2-0.8-1.9c1.6,0.8,3,1.1,4.4-0.5c0.4,0.8,0.7,1.5,1.1,2.4c0.2-0.6,0.3-1.1,0.4-1.3
		c0.9,0,1.7,0,2.5,0c0.8,0,1.5,0.1,2.3,0.2c0.6,0,1.2,0.2,1.7,0.1c1.2-0.2,2.3-0.4,3.2,0.7c0.1,0.1,0.3,0.2,0.4,0.2
		c1.8-0.1,3.5-0.1,5.2-0.5c1.6-0.3,2.7,0.5,2.8,2.6c1.8-1.2,3.5-1.2,5.6-0.3c3,1.2,6.1,2.1,9,3.4c2.6,1.1,5.4,1.3,7.9,2.3
		c2.6,1.1,5.7,1.7,7.3,4.7c0.8,1.6,2.3,2.8,3.1,4.4c1.4,2.9,2.6,5.8,2,9.1c0,0.1,0,0.3,0,0.3c-1.6,1.3-1,3.1-1.2,4.8
		c-0.2,2.2-0.9,4.3-0.8,6.5c0.1,1.4,1.1,2.7,1.8,4.1c0.1,0.2,0.5,0.2,0.7,0.2c1.2-0.1,2.1,0.2,2.3,1.5c0.3,1.3-0.4,3.2-1.4,3.6
		c-1.6,0.7-2.9,1.8-5,1.5c-1.7-0.3-3.5,0.6-5.3,1c-4,0.8-7.9,2.1-11.4,4.3c-1,0.6-1.5-0.1-2.1-0.7c-0.5-0.5-1-1.1-1.7-1.8
		c0.8,2.4-0.6,3.9-1.7,5.7c-0.6,0.9,0.1,2.6,0.2,3.9c0,0.3,0.1,0.8,0,0.9c-1.3,1.2-0.7,2.7-0.6,4.1c0.1,2.5,0.3,4.9,0.5,7.4
		c0.1,0.8,0.2,1.6,0.2,2.4c0,0.5,0.1,1.3-0.2,1.6c-1.2,1-0.6,2.2-0.5,3.3c0.1,2.1,0.5,4.3,0.2,6.4c-0.3,2.4-2.1,4.1-3.9,5.5
		c-0.6,0.4-1.1,0.9-1.7,1.3c-1.1,0.9-1.9,1.9-1.4,3.4l-0.5-0.2c-0.3,0.8-1,1.7-0.9,2.4c0.3,1.4,1.4,1.7,2.8,1.5
		c1.1-0.2,2.4,0.1,3.5,0.5c1.3,0.4,2.1,2.7,1.6,3.9c-0.1,0.2-0.4,0.4-0.6,0.5c-1.7,0.2-3.4,0.4-4.9,0.6c0-1.5,0-2.6,0-3.7
		c0-0.2-0.4-0.5-0.7-0.6c-1.9-0.5-3.1,0.1-4.1,1.8c-0.2,0.3-0.6,0.6-1,0.7c-2.3,0.2-4.5,0.1-6.8,0.4c-1.7,0.2-3.2,0.6-4.5,2
		c-1.4,1.6-3.2,2.9-4.9,4.3c-0.1,0.1-1-0.4-1-0.6C133,155.1,133.1,153.9,133.2,152.3 M133.7,97.3c-1.2,1.5-2.6,2-4.2,1.7
		c-2.5-0.3-4.8,0.4-6.9,1.4c-1.8,0.8-3.7,1.8-4.5,3.8c-0.2,0.6-0.3,1.5,0,2c0.1,0.3,1.2,0.1,1.8,0.2c0.2,0,0.4-0.1,0.6-0.1
		c1.8,0,3.7,0,5.5-0.1c2.5,0,4.9,0,6,2.9c0.1,0.3,0.5,0.6,0.8,0.8c1,0.8,0.8,1.3-0.2,1.8c-1.6,0.8-3.3,1.5-5.1,2.3
		c2.5,0.4,4.8,0.7,7.1,1c1,0.1,2.2,0.7,2.8,0.3c1.9-1.3,4-1.5,6.2-1.7c1.9-0.2,3.3-1.8,3.4-3.6c-0.5-0.3-1-0.6-1.4-0.9
		c0.7-0.4,1.4-0.8,2-1.2c-0.4-0.6-0.9-1.2-1.5-2c0.6-0.8,1.2-1.5,1.7-2.2c-0.5-0.1-1.1-0.3-1.9-0.6c1-0.4,1.8-0.6,2.5-1
		c1.8-0.9,2.2-3.9,0.7-5.1c-1.2-1-2.6-1.9-3.9-2.8c-0.3-0.2-0.7-0.3-1.1-0.3c-4.2-1-8.3-2-12.5-2.8c-1.3-0.3-2.6,0-3.9,0
		c-0.3,0-0.7-0.2-1-0.3c-0.2-0.1-0.4-0.4-0.6-0.4c-1.2,0-2.5,0.2-3.7,0.2c-2.6,0-4,1-4.8,3.4c0.9-0.2,1.9-0.2,2.7-0.7
		c1.4-0.8,2.6-0.4,3.9,0.1c2.7,1,5.4,2,8.1,3.1C132.6,96.6,133.1,96.9,133.7,97.3 M144.3,134.2c2.2,1.1,4.3,2,6.2,2.9
		C149.9,134.9,147.8,133.8,144.3,134.2"/>
	<path class="st1" d="M179.7,188.5c-0.4-0.9-0.8-1.7-1.3-2.8c1.6-0.1,2.7,0.4,3.8,1.2c0.9,0.7,1.8,1.5,2.5,2.4
		c1.6,2.2,3.8,3.6,6.1,4.9c6.4,3.5,13.2,5.7,20.3,7.1c3.8,0.7,7.4,0.1,10.6-2.5c1.3-1.1,1.5-1.7,0.4-3c-1.1-1.3-2.2-2.5-3.5-3.5
		c-6.1-5.1-12.4-10-18.5-15.2c-2.7-2.3-5.1-5-7.4-7.8c-1.2-1.5-1.9-3.5-2.5-5.3c-0.9-3,1.6-4.9,4.6-4.8c5.8,0.1,9.5,4,13.7,6.9
		c5.7,3.9,11.3,8,16.9,12c0.8,0.6,1.1,1.1,1.2,2.1c0.1,1,0.7,2.2,1.5,2.9c1.6,1.4,2.2,2.9,1.2,4.8c-0.9,1.7-2,3.3-3.2,4.7
		c-1.6,1.9-1.7,2.1,0,3.7c1.5,1.3,2.9,2.7,4.3,4.1c0.3,0.3,0.7,0.6,0.8,1c0.7,2.2,2.5,2.8,4.4,3.2c4.6,1.1,9.2,2.4,11.6,6.7
		c1.2,2.2,3.4,4.1,3.1,7.1c0,0.3,0.2,0.8,0.4,1c1.1,1.1,2.3,2.2,3.5,3.2c1.5,1.3,1.3,3-0.4,4c-0.6,0.3-1,0.8-1.5,1.2
		c-4,3.5,11.6,21.2,10.8,25.9c-0.3,2,0.7,3.5,1.6,5.2c0.6,1.1,0.6,2.7,0.3,4c-0.7,3-1.5,6.1-5,7.1c-0.7,0.2-1.5,0.3-2.2,0.1
		c-5.3-1.2-10.2-3.1-14.7-6.2c-0.5-0.4-1.1-1.1-1.1-1.7c0-2.9-1.7-5.2-3-7.6c-1.6-3-3-6.1-4.8-9c-1.6-2.6-3.6-5-5.4-7.4
		c-1.5-2.1-3-4.2-4.5-6.3c-0.3-0.4-0.6-0.9-0.9-1.4c-1.6-2.6-3.3-5.2-4.9-7.8c-1.8-3-4.3-4.9-7.7-6.2c-7.4-2.9-15.2-5.3-21.9-9.7
		c-2.7-1.8-5.2-3.8-7.7-6c-1.2-1-2.1-2.4-2.8-3.8c-1.3-2.5-2.6-5-4.5-7c-0.4-0.4-0.9-1.2-0.8-1.7c0.2-0.8,0.6-1.9,1.2-2.3
		c0.5-0.3,1.7,0,2.3,0.4c0.9,0.6,1.6,1.4,2.4,2.2C179.6,188.6,179.7,188.5,179.7,188.5C179.3,187.6,179.7,188.5,179.7,188.5
		 M232.1,221.9c0.6,2.5,1,2.5,3.1,1.4c2.2-1.2,3.2-2.2,2.1-4.9c-0.6-1.5-1.3-2.4-2.8-2.8c-1.4-0.3-2.2,0.5-1.6,1.9
		c0.6,1.4,0.3,2-1.1,2.4c-1.4,0.4-2.2,1.5-2.6,2.8c0.1,0.1,0.2,0.3,0.3,0.4C230.5,222.7,231.2,222.4,232.1,221.9 M238.7,211.4
		c0.9-0.7,1.6-1.2,2.3-1.7c-0.4-0.3-0.9-1.1-1.2-1c-0.8,0.3-1.6,1-2.3,1.5C237.8,210.5,238.1,210.8,238.7,211.4"/>
	<path class="st1" d="M269.3,326.3c-3.4-4.7-7.7,2.6-3.1-7.2c1.7-3.6-2.5-7.8-2.1-12.1c0.7-8.4,0.5-15.1-0.3-23.5
		c-0.2-1.7-0.2-3.4-0.4-5.1c-0.1-1.4-1-2.1-2.4-2.3c-3.1-0.5-6.3-1.1-9.4-1.6c-0.4-0.1-1.2,0.3-1.4,0.6c-0.5,1.2-1.4,1.2-2.4,0.9
		c-0.7-0.2-1.4-0.4-2.1-0.4c-1.6,0.1-2.5-0.8-3.2-2.1c-0.2-0.4-0.6-0.8-1-1.4c0.5,0.6-0.2,0.6,0,0c-0.2,0.6-0.4,0.9-0.5,1.2
		c-0.8,5.2-1.7,10.3-2.3,15.5c-1.3,10.2-2.5,20.4-3.6,30.7c-0.3,2.5-0.2,5-0.3,7.5c0,0.2-0.1,0.5-0.3,0.7c-0.3,0.7-0.9,1.4-1,2.2
		c-2,10.9-3.9,21.8-5.9,32.7c-0.1,0.4,0,2.4,0,2.9c3.3,0,32.3-0.6,32.4,0c0.1-0.1,0.2-2,0.2-2.1c1-1.5,2-3.1,2.9-4.8
		c0.3-0.6,0.6-13.5,0.2-15c-0.3-1.1,3.3-1.6,4.2-3.1C269.8,336.8,265.2,329.4,269.3,326.3"/>
	<path class="st1" d="M138.9,172.3c0.7,1,1.3,2.1,2.1,3c0.7,0.8,1.8,1.2,2.6,1.9c2.3,2,4.9,3.3,8.1,3.7c1,0.1,2.2,1.4,2.6,2.4
		c0.7,1.6,2,1.5,3.3,1.9c1.2,0.4,2.8,0.8,3.4,1.8c0.6,1,0.4,2.6,0.2,3.9c-0.2,1.3-0.6,2.5-1.1,3.7c-0.4,0.7-1.1,1.3-1.8,1.8
		c-0.3,0.2-1,0.2-1.2,0.1c-1.7-2.1-3.6-1-5.4-0.5c-1.6,0.5-3.2,1-4.7,1.7c-0.5,0.3-0.9,1.1-1.1,1.8c-0.1,0.3,0.1,0.8,0.3,1.1
		c0.4,0.6,0.9,1.1,1.4,1.7c-0.7,0.5-1.1,1-1.5,1.1c-1.7,0.5-1.9,1.9-2,3.2c-0.3,3.5-0.4,7-0.7,10.5c0,0.4,0,0.9-0.2,1.3
		c-0.8,1.7-1.1,3.5-0.8,5.4c0.4,2-1.2,3.3-2.3,4.3c-4.1,3.7-4.6,8.2-4.1,13.2c0.1,1.1,0.1,2.3,0.2,3.5c0.1,0.7,0.1,1.5,0.4,2.1
		c0.7,1.4,0.3,2.8-0.1,4.1c-0.4,1.1-0.8,1.1-2,0.5c-5-2.4-7.5-7.3-11.1-11c-6.3-6.6-10.9-14.4-16-22c-1.1-1.6-1-1.7,0.8-2.7
		c1.6-0.9,3.3-1.8,4.9-2.7c2.9-1.7,5.5-3.6,7.4-6.4c1.1-1.6,2.6-2.9,4-4.4c1.8-1.8,1.4-3.9-0.7-5.4c-4.2-2.9-7.6-0.8-11,1.4
		c-0.8,0.5-1.6,1.2-2.3,1.8c-2,1.6-4.2,2.6-6.7,3.3c-6.2,1.9-12.5,2.9-18.8,4.2c-1.9,0.4-3.5-0.2-4.8-1.5c-1.2-1.1-1-2,0.4-2.6
		c5.4-2.2,10.7-4.6,16.2-6.5c3.5-1.2,6.6-3.1,10-4.3c0.2-0.1,0.3-0.1,0.4-0.3c4-4.3,9.7-6,14.2-9.5c3-2.3,5.9-4.6,8.7-7.1
		c1-0.9,1.7-2.1,2.4-3.3c1-1.9,0.5-3.7-0.9-5.2c-1.3-1.5-0.9-3.2-0.6-4.8c0.1-0.5,1.1-1.1,1.7-1.1c0.4,0,1.2,0.7,1.3,1.3
		c0.7,2.5,1.2,5,1.7,7.3C136.8,171.2,139.4,169.3,138.9,172.3C138.9,172.3,138.9,172.3,138.9,172.3"/>
	<path class="st1" d="M102.3,57.6c0.1,0.5,0.2,1,0.3,1.7c-0.2,0.1-0.5,0.3-0.9,0.6c-0.2-0.5-0.4-0.9-0.5-1.2c-0.6,0.5-1.2,1.1-2,1.7
		c0.3,0.7,0.6,1.4,0.9,2.1c0.2-0.1,0.5-0.3,0.7-0.4c-0.5-0.1-1-0.2-1.4-0.3c-0.5,0.5-1,0.9-1.6,1.4l0.3,0c-0.4,0.9-0.9,1.8-1.2,2.4
		c-0.7-0.1-1.2-0.3-1.7-0.4c1.5,2.3,1.4,2.8-0.7,4.3c0.9,0.6,1.5,1,0.1,1.8c-0.6,0.3-1.7,1.1-1,2.3c0,0.1-0.1,0.2-0.1,0.3
		c-0.5,0.8-1.2,1.5-1.6,2.4c-0.3,0.8-0.3,1.8-0.4,2.9c0.3,0.2,0.8,0.6,1.3,0.9c-0.9,0.5-1.9,1.2-3,1.9c0.5,0.4,0.7,0.7,1.1,1
		c-0.5,0.7-1,1.5-1.5,2.4c0.2,0.1,0.5,0.3,0.8,0.5c-0.7,0.8-1.3,1.6-2.1,2.5c0.7,0.4,1.3,0.7,1.8,1c-0.8,0.7-1.7,1.3-2.2,2.1
		c-0.5,0.7-0.5,1.6-0.7,2.5v2.3c-0.6-0.2-0.9-0.3-1.2-0.4c0.1,0.3,0,0.7,0.2,1c0.5,0.8,1.7,1.4,0,2.7c-0.3-0.7-0.9-1.4-0.8-2
		c1.1-12,3.5-23.7,6.9-35.2c2.1-7.1,4.7-14.1,8.2-20.7c3.6-6.8,9.1-11.8,15.2-16.5c5.3-4.1,10.2-8.7,15.2-13.2c0.9-0.8,1.3-2,2-3
		c2.5-4.1,6.2-6.4,10.8-7.4c1-0.2,1.7,0.1,2.7,0.7c2,1.2,4.2,2,6.3,3c0.5,0.2,1,0.4,1.4,0.7c1.1,0.7,2.4,1.3,3.3,2.3
		c0.9,1,2.2,0.8,3.2,1.4c1.1,0.6,2.3,1,3.3,1.7c0.8,0.5,1.3,1.3,2.1,2.1c0.1-0.4,0.2-0.8,0.2-1.1c1.9,0.4,3.7,0.9,5.6,1.2
		c1.6,0.2,1.8,1.2,2,2.5c0.3,3,0.7,6.1,1,9.1c0.1,1-0.2,1.9-0.3,2.9c-1.2-0.4-1.9,0.2-1.9,1.4c0,0.6,0.2,1.3,0.1,1.9
		c-0.1,0.4-0.4,0.8-0.7,1.2c-0.2-0.1-0.3-0.1-0.5-0.2c0.1-0.9,0.3-1.7,0.4-2.6c0.1-2,0.6-3.9,0-6c-0.7-2.7-0.7-5.6-1-8.4
		c0-0.4-0.4-0.8-0.6-1.2c-0.2,0.4-0.6,0.8-0.6,1.2c-0.1,0.8-0.1,1.6,0,2.4c0.2,1.9,0.5,3.8,0.7,5.7c0.1,1.1,0,2.2,0,3.3
		c-0.2,0-0.3,0-0.5,0c-0.2-0.6-0.4-1.1-0.6-2c-1.3,1.9,0.5,4-1.3,5.5c0.2-5.3-0.9-10.4-1.3-15.6c-0.3,0-0.6,0-0.9,0
		c-0.1,1.9-0.3,3.8-0.1,5.6c0.2,1.9,0.8,3.7,0.2,5.6c-0.3-0.6-0.6-1.1-1.1-2v3.3c0.1,0,0.2,0,0.3,0c0.2-0.5,0.5-0.9,0.7-1.4
		c0.1,0.8,0.1,1.6,0.2,2.6c-0.6-0.2-0.9-0.3-1.3-0.5c-0.1,0.7-0.3,1.3-0.4,1.9c-0.1,0-0.2,0-0.3,0c-0.4-3.1-0.8-6.2-1.1-9.3
		c-0.3-3.1,0.1-6.3-1.3-9.2c-0.2,0-0.4,0.1-0.6,0.1c0.3,6.1,0.6,12.2,0.9,18.3c-0.2,0-0.5,0-0.7,0.1c-0.1-1.8-0.3-3.5-0.4-5.3
		c-0.1,0-0.3,0-0.4,0v5.2c-0.2,0-0.3,0-0.5,0c-1.4-6-0.7-12.3-2.3-18.3c-0.2,0-0.3,0-0.5,0.1c0,1.4-0.1,2.8,0,4.1
		c0.2,2.7,0.7,5.4,0.7,8.1c0,1.4,0.7,3.3-1.1,4.5c-0.4,0.3-0.4,1.4-0.6,2.1c-1.1-3.6-1.5-7.3-1.6-11c0-2-0.5-4-0.7-6
		c0-0.4,0.1-0.8,0-1.1c-0.1-0.3-0.4-0.5-0.7-0.8c0,3.9,0,7.6,0,11.2c0,1.4,0.2,2.7,0.3,4.1c0.1,1.4-0.2,2.7-1.5,3.7
		c-0.6-0.9-1.2-1.6-1.2-2.9c0-1.7-0.6-3.4-0.7-5.1c-0.1-2.3,0-4.7,0-7c0-1.2-0.2-2.3-0.3-3.5c-0.1,0-0.3-0.1-0.4-0.2
		c-0.2,0.6-0.4,1.1-0.5,1.7c-0.1,2.7-0.2,5.3-0.1,8c0,1.8,0.3,3.6,0.5,5.4c0.1,0.9,0,1.8,0,2.8c-0.3,0-0.5-0.1-0.8-0.1v1.8
		c-2.3-2.2-3-4.7-2.9-7.6c-0.2,0.2-0.6,0.5-0.6,0.7c-0.1,0.9-0.1,1.8,0,2.6c0.4,1.7,0.3,3.2-1.2,4.4c-0.6-0.7-1.2-1.5-1.9-2.4
		c0.7-0.9,0.1-1.7-1.4-2.4c0.2,1.4,0.3,2.5,0.4,3.7c-0.1,0.1-0.2,0.1-0.3,0.2c-0.3-0.5-0.6-0.9-0.8-1.4c-0.1,0-0.3,0.1-0.4,0.1
		c0.3,1.1,0.6,2.2,0.8,3.3c-0.2,0.1-0.3,0.1-0.5,0.2c-0.5-0.7-0.8-1.7-1.5-2.2c-1.4-1-0.7-2.3-0.9-3.4c0-0.3-0.4-0.5-0.9-1.2
		c-0.4,2.8,0.4,5,1,7.4c-0.4-0.5-0.7-0.8-1.1-1.2c-0.3,0.4-0.4,0.8-0.6,1.1c-0.2,0-0.3-0.1-0.5,0c-1.2,0.3-0.4-2-1.8-1.4
		c-0.2-0.9-0.5-1.8-0.5-2.6c0-3.4,0.2-6.8,0.3-10.3c0-0.1-0.2-0.3-0.5-0.4c-0.3,4.9-1.1,9.9-0.3,14.6c-0.4,0.2-1,0.4-1,0.6
		c0.1,0.4,0.3,0.8,0.6,1.4c-1.6-0.4-3.1-1.9-3.1-3.1c0-0.9,0.1-1.9,0.1-2.8c0-2.8,0-5.6-0.2-8.5c-0.1,0.8-0.2,1.6-0.3,2.4
		c-0.1,2.2-0.2,4.5-0.2,6.7c0,1.4-0.1,2.9,0.4,4.2c0.6,1.4,0.7,2.5-0.7,3.4c-1.2-1.6-3.4-2.8-2.8-5.6c-0.2,0-0.4,0.1-0.5,0.1
		c-0.1,0.5-0.4,0.9-0.3,1.4c0.2,1.2,0.5,2.4,0.9,3.5c0.7,1.8,0.6,2.1-1.4,2.8c0-0.8,0.2-1.9-1.2-0.6c0.1-0.5,0.2-0.8,0.3-1.2
		c-0.6,0.5-1.1,0.9-1.5,1.2c0.3,0.7,1,1.4,0.9,1.9c-0.2,0.6-1,1-1.5,1c-0.5-0.5-1-1.3-1.7-1.4c-1.1-0.2-1.6,0.4-1.1,1.6l0,0
		c-0.4-0.3-0.7-0.6-1.1-0.9c-0.2,0.6-0.5,1.3-0.7,1.9c-0.7-0.4-1.4-0.8-2.3-1.4c0.4,1.2,0.8,2.4,1.2,3.6c-0.5,0.4-1,0.9-1.2,1.1
		c-0.9-0.2-1.5-0.3-2.3-0.5c0.4,2.1-0.6,3-2.3,2.5c-0.4-1-0.8-1.9-1.2-2.9c-0.2,0.1-0.3,0.1-0.5,0.2c0.5,0.9,0.1,2.3,1.7,2.6
		c0,0.6,0.1,1.1,0.1,1.3c-0.5,0.6-0.9,1.1-1.3,1.5c-0.5-0.2-1-0.4-1.6-0.5c-0.1,0-0.3,0.7-0.6,1.2c-0.3-0.1-0.7-0.2-1.2-0.3
		c0.2,0.7,0.3,1.2,0.5,1.8l0,0c-0.5,0.2-1,0.4-1.6,0.6c0.4,0.7,0.8,1.3,1.3,2.2C103.9,56.7,103.1,57.1,102.3,57.6
		c0.6-1.4-0.8-1.1-1.4-1.5C101,56.9,100.8,58,102.3,57.6 M121.3,33.3c-1.2,1.3-1.3,1.9-0.2,2.8C121.2,35.1,121.3,34.2,121.3,33.3
		c0.1-0.8,0.3-1.6,0.4-2.4c-0.2,0-0.4,0-0.6,0C121.2,31.7,121.3,32.5,121.3,33.3 M144.8,14.7c-0.5,2.8-1.1,5.5,0,8.3
		C144.7,20.2,146.1,17.5,144.8,14.7 M136.6,16.8c-0.9,1-1.1,6.8,0,8V16.8z M140.7,20.7c-0.2,0-0.3,0-0.5,0v5.4c0.2,0,0.3,0,0.5,0
		V20.7z M124.4,27.5c0.3,0,0.5,0,0.8,0v-6.7c-0.1,0-0.1,0-0.2,0C124.8,23,124.6,25.3,124.4,27.5 M121.7,23.8c-0.1,0-0.2,0-0.3,0v5.8
		c0.1,0,0.2,0,0.3,0V23.8z M140.1,19.6c0.2,0,0.4,0,0.7,0v-3.3c-0.2,0-0.3,0-0.5,0C140.3,17.5,140.2,18.5,140.1,19.6 M144,30.1
		c-0.2-1.1-0.3-2.2-0.5-3.6C142.5,28,142.5,28.7,144,30.1 M151.9,25.1c-0.1,0-0.3,0-0.4,0.1c0.1,1,0.3,2.1,0.4,3.1
		c0.2,0,0.4-0.1,0.6-0.1C152.3,27.1,152.1,26.1,151.9,25.1 M105.2,47.8c-0.5,1.6-0.3,2.3,0.8,2.4C105.7,49.4,105.5,48.6,105.2,47.8
		 M124.5,30.9c0.2,0,0.4,0,0.6,0.1v-2.4l-0.3,0C124.6,29.3,124.5,30.1,124.5,30.9 M88.3,85.2c1.5-1.3-0.4-1.2-0.1-1.9
		c-0.2,0.1-0.4,0.1-0.6,0.2C87.8,84,88,84.6,88.3,85.2 M118,26.9c0.2,0,0.3,0,0.5,0c0-0.5,0.1-1,0.1-1.5l-0.5,0
		C118,25.9,118,26.4,118,26.9 M117,39.2c0.2,0,0.3,0,0.5-0.1c0-0.6-0.1-1.2-0.1-1.8c-0.1,0-0.2,0-0.3,0V39.2z"/>
	<path class="st1" d="M288,323.8c-0.1-3.7-0.2-7.3-0.3-11c-0.2-8.3-0.7-16.5-0.5-24.8c0.2-7.8,1.2-15.5,1.7-23.3
		c0.1-1.6-0.1-3.2-0.1-4.7c0-3-0.1-6.1-0.1-9.1c0.1-4.8-0.8-9.4-2.4-13.9c-1-2.8-2.1-5.6-3-8.4c-0.4-1.2-0.6-2.4-0.6-3.7
		c-0.1-2.4,0-4.8,0-7.3c0.4,0.2,0.8,0.5,1.6,1.1c-0.3-0.8-0.5-1.3-0.5-1.3c0.7-1.2,1.4-2.1,1.9-3.1c1.1-1.9,2.6-3,4.8-3.6
		c1.6-0.5,3.1-1.1,4.8-0.4c1.1,0.4,2,1.1,2.1,2.3c0.2,2.5,0.3,4.9,0.5,7.4c0,0.4-0.1,0.9-0.1,1.3c1.1,7.4,0.5,14.9,1.1,22.3
		c0.2,2.7,0.9,5.3,1.2,8c1,6.6,0.5,13-2.9,19c-0.9,1.6-1.6,3.5-2.1,5.3c-0.8,3.5-1.3,7.2-2.2,10.6c-0.7,2.7-0.2,5.3,0.1,7.8
		c0.5,3.6,0,6.9-1.8,10c-0.2,0.3-0.2,0.6-0.4,0.9c-2.7,4-2.5,8.4-1.9,12.9C289.2,320.2,289.1,322.1,288,323.8"/>
	<path class="st3" d="M159.3,317.7c-0.7-1.8-1.3-3.7-2.1-5.5c-0.2-0.4-1.1-0.8-1.5-0.7c-3.4,1.2-6.7,2.5-10,3.8
		c-0.9,0.3-1.2,0.8-0.3,1.5c1,0.7,2,1.4,3.1,2.1c-1.6,0.4-3.3-1.6-4.5-0.1c-1.5-0.6-2.8-1.1-4.6-1.8c0.2,1.1,0.2,1.7,0.4,2.3
		c1.7,4.7,0.4,9.4-0.2,14.1c-0.2,1.5-0.7,3-0.7,4.5c0.1,2-0.6,3.5-2.4,4.5c-3,1.9-5.3,13-8.6,5.1c2.9,6.8,0.7,2,0.1,0.4
		c-0.1-0.1-0.2-0.4-0.1-0.4c-3.7,0.3-0.4,5.8-0.5,6.3c-0.4,2.1-1,4.3-1.5,6.4c-0.2,0.7-0.7,4.3-0.8,5c1.4,1.3,12.4-0.1,12.4,0
		c0.1-0.2,0.3-2.3,0.4-2.5c0.4-4.5,2.3-7.7,4.1-11.7c1.6-3.7,2.8-8.2,5-11.5c0.6-0.9,1.8-1.3,2.6-2.4c1.3-1.9,2.5-3.8,3.7-5.8
		c1.2-2.1,2.4-4.3,3.7-6.4c0.9-1.5,2.7-2.7,3.1-4.6C160.3,319.4,159.6,318.5,159.3,317.7"/>
	<path class="st1" d="M6.5,294.3c-1.4-11-2.8-22-4.1-33.1c-0.3-2.4,0.2-4.8,0.2-7.2c0.1-7,0.2-14,0.4-20.9c0.1-3.2,0.5-6.5,1-9.7
		c0.2-1.2,0.9-2.3,1.6-3.3c0.9-1.3,1.8-2.5,1.4-4.3c-0.4-1.5-0.1-3.1-0.3-4.6c-0.2-1.7,0.4-3,1.9-3.7c3.4-1.5,5.9-4.1,8.6-6.5
		c2.3-2,5.3-3.2,8-4.8c0.1,0.1,0.2,0.2,0.3,0.3c-0.2,0.6-0.5,1.2-0.7,1.8c-3.6,9.5-7.3,19-10.8,28.6c-0.9,2.5-1.2,5.2-1.9,7.8
		c-0.5,1.8-1.2,3.5-2,5.2c-0.7,1.6-1.8,3-2.3,4.5c-0.5,1.3-0.5,2.8-0.7,4.3c-0.2,1.3-0.3,2.6-0.3,3.9c0,3.1-0.4,6.2,0.1,9.2
		c1.4,9.9,1.1,19.9,0.1,29.8c-0.1,0.9-0.2,1.7-0.3,2.6C6.7,294.3,6.6,294.3,6.5,294.3"/>
	<path class="st1" d="M232.5,137.3c0.3-0.9,0.4-1.4,0.6-2.2c2.3,1.2,4.7,2.2,6.2,4.2c0.6,0.8,0.6,2.2,0.6,3.3c0,1-0.5,1.9-0.8,2.9
		c-0.7,2,0,2.7,2.3,2.9c2.6,0.3,4.1,1.5,4.7,4c0.3,1.1,1,2,1.4,3.1c0.3,0.6,0.5,1.2,0.7,1.8c0.7,1.9,0.9,4,2.5,5.5
		c0.7,0.6,1,1.5,1.5,2.3c0.3,0.6,0.6,1.2,1,1.6c1.3,1.1,1.3,2.4,0.4,3.5c-2,2.5-2.5,5.3-2.8,8.3c-0.1,0.6-0.2,1.2-0.3,1.8
		c-0.5,2-2.9,2.7-4.6,1.5c-0.9-0.7-2-1-2.9-1.6c-0.4-0.3-0.9-0.7-1-1.1c-0.2-0.7-0.2-1.6,0-2.3c0.7-2.4,0.5-4.7-0.2-7.1
		c-0.4-1.4-0.2-3-1.1-4.3c-2.6-3.9-4.9-7.9-7.9-11.6c-3.5-4.3-7.4-8.3-11.2-12.3c-2.2-2.3-2.4-5-1.8-7.8c0.6-2.7,3.8-4.2,6-2.5
		c1.8,1.4,3.3,3.2,4.9,4.8C231.4,136.3,231.9,136.7,232.5,137.3"/>
	<path class="st1" d="M263,171.8c-0.1-0.4-0.1-0.8-0.1-1.1c0-0.3-0.1-0.6-0.2-1.2c-0.9,0.4-1.7,0.7-2.5,1.1c-1,0.5-1.7,0.3-1.5-0.9
		c0.6-3.1-0.7-5.8-1.8-8.6c-0.2-0.6-0.7-1.1-1.1-1.6c-3-3.3-6.1-6.5-9-9.8c-0.7-0.7-1.4-1.6-0.6-3c0.6,0.5,1.2,0.9,1.6,1.5
		c1.8,2.1,3.5,4.2,5.2,6.4c0.3,0.3,0.6,0.7,0.9,1c0.7,0.7,1.3,0.5,1.6-0.4c0.3-0.9,0.6-1.9,0.9-2.8c0.4-1.5,0.7-2.9,2-4.1
		c0.6-0.6,0.9-1.8,0.9-2.7c0-3.1,0-6.2-0.4-9.2c-0.5-4.1-2.9-7.2-5.7-10.1c-2.3-2.4-4.8-4.6-7.1-6.9c-0.8-0.8-1.9-1.6-1.2-2.9
		c0.8-1.5,3.3-3,4.6-2.5c1.9,0.8,3.9,1.8,5.5,3.2c0.9,0.8,1.7,1.4,2.8,1.7c0.1,0,0.1,0,0.2,0.1c2.6,0.2,3.5,2.1,4.3,4.2
		c0.5,1.6,1.4,3.1,2,4.6c1.2,3,2.4,6.1,3.6,9.2c0.3,0.7,0.4,1.4,0.6,2.1c0.1,0.4,0.2,1,0,1.2c-1.2,1.6-2.3,3.2-3.7,4.6
		c-0.8,0.8-1.4,1.5-0.9,2.7c0.8,1.8,1.5,3.6,2.2,5.4c0.3,0.7,0.6,1.4,0.5,2.1c-0.3,2.8-0.7,5.6-1.1,8.5c-0.3,1.8-0.9,3.5-0.3,5.4
		C265.6,170.2,264.8,171.3,263,171.8"/>
	<path class="st1" d="M209,53.2c-0.2-2.1-0.4-3.7-0.5-5.6c-0.9,0.7-1.5,1.1-2.3,1.6c0.3-1.1,0.6-2.1,0.9-3.1c-0.1,0-0.2-0.1-0.3-0.1
		c-0.3,0.3-0.5,0.6-0.7,0.8c-0.3-0.7-0.6-1.5-1.1-2.5c-0.8,1-1.3,1.6-1.8,2.2c-0.1-0.1-0.2-0.1-0.3-0.2c0.3-1,0.7-1.9,1-2.9
		c-0.1-0.1-0.3-0.1-0.4-0.2c-0.4,0.8-0.9,1.5-1.3,2.3l-0.7-0.2c1.9-2.1,1-4.1,0.3-6.3c-1.1,2-0.6,4.6-3.4,5.8c0.6-1,1-1.7,1.4-2.4
		c-0.2-0.1-0.3-0.2-0.5-0.3c-0.7,0.9-1.5,1.8-2.2,2.7c0.8-2.4,3.1-4.4,1.6-7.4c-0.7,1.1-1.3,2.1-2,3.3c-0.1-0.4-0.2-0.6-0.2-0.7
		c0.8-1.3,0.2-2.8-0.4-3.7c-1.1-1.8-0.8-3.7-1.1-5.6c-0.4-1.9-0.5-3.8-0.8-5.6c3.1,1.4,2.8,4.4,2.8,7.2c0,0.3-0.5,0.7-0.8,1.1
		c0.6,0.3,1.4,0.6,2.6,1.2c-0.4-2.6-0.8-4.7-1.1-6.8c1.8,0.3,2.2,0.7,2.3,2.5c0.1,1.9,0.3,3.7,0.5,5.5c0.1,0.7,0.4,1.4,0.6,2.1
		c0.2,0,0.5-0.1,0.7-0.1c-0.3-2.7-0.6-5.4-0.9-8.4c0.5,0.2,1.3,0.3,1.4,0.6c0.7,2,2.6,2.9,3.7,4.4c0.5,0.7,1.6,1.1,2.2,1.8
		c1,1.1,1.6,2.4,2.6,3.5c1.2,1.4,2.6,2.7,3.9,4c0.3,0.3,0.6,0.7,0.8,1.1c0.6,1.5,1.2,3.1,1.8,4.6c0,0.1,0.1,0.2,0.1,0.3
		c3.3,2.3,2.5,6.2,3.6,9.3c1.4,3.6,2.3,7.4,3.5,11.1c0.1,0.5,0.3,1,0.3,1.5c0.4,4.7,0.7,9.4,1,14.1c0,0.6-0.1,1.1-0.2,1.8
		c-0.6-0.3-1.1-0.5-1.6-0.8c0.2-0.4,0.5-0.9,0.6-1.4c0.1-0.4-0.3-0.8-0.4-1.2c-0.1-0.5-0.3-1-0.3-1.5c0-0.7,0.4-1.5,0.1-2
		c-0.3-0.5-1.2-0.8-1.9-1.2c1-1.3,0.9-2.4,0-3.8c-0.4-0.6-0.1-1.6-0.1-2.6c-0.5,0.2-0.8,0.3-1.1,0.4c-0.1-0.1-0.2-0.2-0.1-0.2
		c0.4-1.2-0.2-3-0.8-4.2c-0.6-1-0.7-2.3-1.1-3.6c-0.2,0.1-0.5,0.2-1,0.4c0-0.5,0-0.9-0.1-1.4c-0.3,0-0.6,0-0.5,0
		c-0.1-1-0.1-1.9-0.2-2.8c-0.6,0.5-1.2,1-2.1,1.6c0.5-0.8,0.9-1.5,1.2-2.1c-0.1-0.1-0.2-0.2-0.3-0.2c-0.3,0.2-0.7,0.5-1.1,0.8
		c0.3-1.2,0.5-2.2,0.8-3.2c-0.1,0-0.3-0.1-0.4-0.1c-0.6,0.5-1.2,0.9-1.9,1.5c0.5-1.4,0.9-2.4,1.2-3.5c-0.1-0.1-0.2-0.1-0.3-0.2
		c-0.2,0.2-0.4,0.5-0.9,1c-0.1-1.2-0.1-2-0.2-2.8l-0.3-0.1l-0.6,1.4l-0.4,0c-0.1-0.7-0.1-1.5-0.2-2.4c-0.5,0.7-0.9,1.2-1.3,1.7
		c-0.1,0-0.2-0.1-0.3-0.1c0.3-0.7,0.7-1.4,0.9-2.1c0.1-0.7-0.1-1.4-0.1-2.4C210.3,51.6,209.7,52.3,209,53.2 M204,39.9
		c0.2,0,0.4,0,0.5,0c0.6-1.3,0.4-2.6,0-3.9c-0.2,0-0.5,0-0.7,0C203.9,37.3,204,38.6,204,39.9 M209.4,43.7c0.2,0,0.3,0,0.5,0V41
		c-0.1,0-0.2,0-0.3,0C209.5,41.9,209.4,42.8,209.4,43.7 M212.5,45.9c-0.2,0-0.4,0-0.6,0l0.3,3.1c0.2,0,0.3,0,0.5,0
		C212.6,48,212.6,46.9,212.5,45.9 M204.1,35.4c0.2-0.1,0.5-0.2,0.7-0.3c-0.2-0.6-0.4-1.3-0.6-1.9c-0.2,0.1-0.4,0.1-0.6,0.2
		C203.7,34.1,203.9,34.7,204.1,35.4"/>
	<path class="st1" d="M254.3,150.6c-0.3-3.1-4.1-5.4-1.7-9c-3.2-0.1-3.2-3-4.2-5c-1.4-2.6-2.4-5.3-4.5-7.6c-1.9-2-3.5-4.3-5.2-6.5
		c-1.3-1.8-2.7-3.6-3.8-5.6c-1.1-1.9-1.9-4.1-2.8-6.1c-0.4-0.8-0.7-1.6-1-2.4c6.7,4.6,11,11.5,15.7,17.8c0.1-0.1,0.3-0.1,0.4-0.2
		c-0.4-0.8-0.8-1.6-1.1-2.4c-0.2-0.7-0.4-1.4-0.5-2c0.6,0.2,1.3,0.2,1.7,0.5c3.4,2.5,5.9,5.8,8.3,9.3c1.6,2.3,2,4.8,2,7.4
		c0,2,0.2,3.9,0.3,5.9c0,1.4-0.2,2.6-1.6,3.5C255.5,148.7,255,149.8,254.3,150.6"/>
	<path class="st1" d="M155.5,158.5c0.8-1.7,1.5-2.9,3.3-2.8c1.7,0.1,3.1,1.6,3.7,3.9c0.6,2.5-0.1,3.5-2.6,3.3
		c-1.5-0.1-3,0.4-4.5-0.6c-0.9-0.6-2.6,0.3-3.9,0.3c-1.2,0-2.5,0.2-3.1-1.3c0-0.1-0.4-0.2-0.5-0.2c-1.9,0.3-3.2-0.4-3.9-1.8
		c-0.9-0.1-1.8,0.2-2.2-0.2c-0.9-0.7-1.3-3.3-0.6-3.8c0.6-0.4,1.7-0.6,2.3-0.4c1,0.3,1.5,0.2,2.1-0.6c0.8-1.1,1.8-1.6,3-0.4
		c0.3,0.3,1.1,0.2,1.7,0.1c3-0.2,3.6,0.1,4.8,3C155.1,157.6,155.2,157.9,155.5,158.5"/>
	<path class="st1" d="M74.7,155.9c-0.2,1.3-0.6,2.6-0.5,4c0.1,2.5,0.4,4.9,0.6,7.4c0,0.5-0.1,1.2-0.4,1.6c-1.6,1.8-3.3,3.3-4.8,5.1
		c-1.8,2.2-3.4,4.6-5.1,6.9C62.1,172.4,65.5,160.6,74.7,155.9"/>
	<path class="st1" d="M146.2,163.3c1,0.1,2-0.2,2.6,0.2c2.5,1.5,5.2,1,7.8,1.3c0.7,0.1,1.4,0.6,2.1,0.9c0,0.2-0.1,0.3-0.1,0.5
		c0.3-0.3,0.6-0.8,1-0.8c0.8-0.1,1.8,0,2.5,0.3c0.3,0.1,0.4,1.2,0.2,1.8c-0.4,1.2-0.9,2.4-1.6,3.4c-0.9,1.2-1.8,1-2.2-0.5
		c-0.2-0.6-0.2-1.2-0.4-2c-0.3,0.4-0.5,0.5-0.5,0.7c-0.5,1.4-0.9,2.5-3,2c-1.8-0.5-3.9,0-5.9,0c-0.7,0-1.4-0.5-2.1-0.7
		c-2.2-0.5-3.8-1.7-5.3-3.4c-1.1-1.3-2-2.4-1-3.9c0.3-0.5,1.1-1.1,1.7-1.1C143.4,161.9,145.4,161.4,146.2,163.3"/>
	<path class="st1" d="M280.7,224.5c-0.9-4.4-1.5-9-2.9-13.3c-1.3-4.2-3.5-8.2-5.6-12.3c-0.1,0.9-0.2,1.8-0.3,2.7c-0.2,0-0.3,0-0.5,0
		c-0.9-5-1.8-10.1-1.5-15.2c0.1-0.1,0.3-0.1,0.4-0.2c1.1,2.6,2.2,5.3,3.3,7.9c0.2-0.1,0.5-0.2,0.7-0.3c-0.6-2.6-1.2-5.2-1.9-8.1
		c0.4,0.5,0.7,0.9,0.9,1.3c1.4,2.3,2.7,4.6,4,6.9c0.3,0.6,0.3,1.5,0.4,2.2c0.8,5,1.7,10,2.3,15c0.5,4.4,0.7,8.8,1.1,13.2
		C281.1,224.5,280.9,224.5,280.7,224.5"/>
	<path class="st1" d="M94.6,209.2c1.4,0.3,2.9,0.6,4.3,0.9c0.9,0.2,1.2,0.7,0.9,1.6c-0.2,0.9-0.2,2-1.5,2.1c-2.1,0.2-4.2,0.7-6,1.7
		c-0.3,0.2-0.8,0.2-1.1,0.2c-1.3-0.3-2.2,0.2-2.8,1.2c-0.8,1.2-1.9,1.4-3.2,1.2c-0.5-0.1-1.1-0.1-1.6,0.2c-2,0.9-3.6-0.3-5.3-1
		c-0.9-0.4-0.3-2,0.8-2.9c3.3-2.9,7.5-3.5,11.5-4.3c1.3-0.3,2.6-0.3,3.9-0.5C94.6,209.4,94.6,209.3,94.6,209.2"/>
	<path class="st1" d="M64.7,183.6c3.1,0,5.9-1.7,9,0c2.9-1.2,5.9-2.5,9.2-3.8c0,0.5,0.3,1.4-0.1,1.9c-0.6,1-0.9,1.7,1,2.3
		c-1.1,0.4-1.6,0.7-2.2,0.8c-3.8,0.8-7.6,1.6-11.4,2.4C67.1,187.7,66.3,187.2,64.7,183.6"/>
	<path class="st1" d="M191.9,38.1c-0.3,0.5-0.6,1-0.9,1.5c-0.3,0.6-0.6,1.1-0.9,1.7c-0.3-0.2-0.6-0.5-0.8-0.7
		c0.6-1.1,1.2-2.3,1.9-3.3c0.9-1.2,1.2-2.5,0.6-4.1c-1.9,0.7-1.9,2.8-3.2,3.8c0.5-1.5,1-3.1,1.5-4.6c-2-0.7-2.4-1.8-2.3-4.1
		c0.1-1.5-0.4-3.1-0.6-4.6c-0.2-1.3-0.5-2.7-0.8-4.2c1.7,0.5,2.8,1.1,2.9,2.7c0.2,2.1,0.2,4.3,0.5,6.4c0.2,1.2,0.7,2.4,1.1,3.7
		c0.6-0.5,1-0.9,1.7-1.5v-2.1c-0.4,0.3-0.6,0.6-1.1,1c-0.1-1.7-0.2-3-0.3-4.4c0.1,0,0.2,0,0.3,0c-0.5-1.3-1-2.7-1.5-4.1
		c1.5-0.4,2.2,0.1,2.5,1.3c0.5,2.3,0.8,4.5,1.2,6.8c0.2,1.3,0.2,2.6,0.6,3.8c0.6,2,0,3.4-1.4,4.7l0,0c0.2-0.9,0.4-1.8,0.6-2.7
		c-0.1,0-0.3-0.1-0.4-0.1C192.7,36.3,192.3,37.2,191.9,38.1L191.9,38.1z M188.8,25.2c-0.2,0-0.4,0-0.5,0.1c0.1,1,0.3,2.1,0.4,3.1
		l0.4,0L188.8,25.2z"/>
	<path class="st1" d="M156.9,328.4v1.7c0.4-0.6,0.7-1.3,1.1-1.9c2.1,1.7-2.3,7.9-2.8,10c-1.5,1.2-2.3,3.6-3.5,5.2
		c-1.5,2-3.5,2.9-5.7,3.9c1.1-3.4,2.6-6.7,4.6-9.7c1.1-1.5,2.9-2.7,3.7-4.4c0.6-1.1-0.5-3.5,1.3-2
		C155.8,330.9,157,328.8,156.9,328.4C156.9,328.9,156.9,328.5,156.9,328.4"/>
	<path class="st1" d="M287,263c-0.1-0.5-0.2-1.1-0.2-1.6c0-1.4,0-2.8,0.1-4.1c0.4-3.4-1-6.5-1.8-9.7c-0.4-1.5-0.5-3.1-0.3-4.6
		c0.3-3.5-1.2-6.5-2.4-9.6c-0.4-1.2-0.6-2.6-0.6-3.9c6,10.5,6.3,21.9,5.8,33.5C287.3,262.9,287.1,262.9,287,263"/>
	<path class="st1" d="M284.6,203.3c-0.2,1.2-0.4,2.3-0.6,3.6c-1.2-0.5-2-0.9-3.1-1.4c-0.1-1.2-0.2-2.8-0.3-4.6
		c0.3,0.1,0.7,0.3,1.1,0.3c1.1,0,2.4,0.1,3.3-0.3c1.7-0.9,2.7-0.1,3.9,0.8c1.1,0.8,1.8,3,1.4,4c-0.3,0.8-2.3,1.6-3.3,1.2
		c-1-0.4-2.2-0.7-1.5-2.3c0.1-0.3-0.3-0.9-0.5-1.4C284.8,203.2,284.7,203.2,284.6,203.3"/>
	<path class="st1" d="M182.1,30.3c-0.2-0.6-0.4-1.3-0.5-1.9c-0.2,0-0.3,0-0.5,0c-0.1,1.1-0.2,2.1-0.2,3.4c0.5-0.2,0.8-0.4,1.4-0.6
		c-0.4,1-0.6,1.9-1,2.6c-0.2,0.3-0.8,0.4-1.1,0.6c-0.5,0.5-0.9,1-1.7,1.6c0.2-0.9,0.3-1.9,0.6-2.7c0.7-1.9,1.6-3.7,1.1-5.9
		c-0.4-1.8-0.8-3.6-1.1-5.4c-0.3-1.9-0.4-3.8-0.7-5.7c2.3,0,2.7,0.5,2.9,2.4c0.3,3.4-0.3,7,1.8,10.2c0.2,0.3-0.3,1.1-0.5,1.6
		C182.5,30.4,182.3,30.3,182.1,30.3"/>
	<path class="st1" d="M176.9,31.3c-0.2,0.3-0.4,0.6-0.6,1c-0.3,0.7-0.5,1.4-0.8,2.1l-0.6-0.2c0.2-1.2,0.4-2.3,0.7-3.5
		c0.8-2.8,0-5.5-0.3-8.3c-0.3-2.6-0.7-5.2-1-7.8c2.4,0.5,3.6,2.1,3.4,4.3c-0.2,2.4-0.1,4.7,0.7,7.1c0.7,2,0,4.1-1.2,6.1
		C177.1,31.8,177,31.5,176.9,31.3c1-1.2,1.1-2.6,0.8-4.1C177,28.5,176.3,29.8,176.9,31.3"/>
	<path class="st1" d="M182.4,17.1c2.4,0.4,3.3,3,3.3,5.1c0.1,2.6,0.1,5.1,1.1,7.5c0.2,0.5,0.2,1.1,0,1.6c-0.6,1.5-1.2,3.1-2.1,4.5
		c-0.4,0.7-1.5,0.9-2.3,1.3l-0.5-0.5c0.7-1.4,1.6-2.8,2.1-4.3c0.3-1,0.3-2.2,0.2-3.3c-0.2-2-0.7-3.9-1.1-5.9
		C182.9,21.2,182.7,19.1,182.4,17.1 M184.9,33.5c0.7-0.9,1.8-1.8,0.5-3.1C185.2,31.5,185,32.5,184.9,33.5 M184.5,23.8l0.2,0
		l-0.3-2.2l-0.4,0.1L184.5,23.8z"/>
	<path class="st1" d="M156.2,343c0.9,2.3-1.2,7-2.3,9.2c-1.6,3.1-4.5,5.8-6.5,8.6c1-4,2.5-7.6,4.1-11.4c0.9-2.1,1.5-1.8,3.2-2.8
		C155.6,346.1,155.6,343.7,156.2,343"/>
	<path class="st1" d="M176.8,111.3c0.2-0.3,0.4-0.5,0.6-0.7c1.2-1.9,3.7-2,5.2-0.3c0.4,0.5,1.2,0.6,1.9,0.9c1.4,0.5,1.4,0.4,1.8,1.8
		C182.8,115,180.3,114.6,176.8,111.3"/>
	<path class="st1" d="M258,190.9c-0.3-1.3-0.7-2.3-0.7-3.3c0-3.9,0-7.7,0.1-11.6c0-1,0.5-1.9,0.7-2.9c0.2,0,0.3,0,0.5,0
		c0.1,0.4,0.4,0.7,0.3,1.1c-0.1,2.4-0.3,4.8-0.4,7.2c0,1.1,0.1,2.3,0.6,3.3C260,186.3,259.8,189.1,258,190.9"/>
	<path class="st1" d="M85.9,105.2c0.1,0.8,0.2,1.6,0.2,2.5c0,1,0.2,2.2-0.2,3.1c-0.7,1.5,0,2.2,1.1,2.9c-1.2,0.7-1.4,1.5-0.6,2.6
		c0.2,0.2,0.1,0.7,0.1,1.1c0,0.8-0.1,1.7,0.2,2.6l-2.1,7.7c-0.2,0-0.5-0.1-0.7-0.1c0.1-1.1,0-2.5,0.5-3.4c1.7-3,0.9-6.1,0.8-9.2
		c-0.1-2.8-0.1-5.7-0.2-8.5C84.9,105.5,85.3,105.3,85.9,105.2L85.9,105.2z"/>
	<path class="st1" d="M250.7,270.7c3.3,0.8,6.7,1.5,10,2.3c0.4,0.1,0.6,0.6,0.9,0.9c-0.4,0.2-0.7,0.6-1.1,0.6
		c-3-0.4-6.1-0.9-9.1-1.5c-0.6-0.1-0.9-1.3-1.4-2C250.4,271,250.6,270.8,250.7,270.7"/>
	<path class="st1" d="M271.3,352.2c-4.4,5.2-5.3-8.1-0.8-8.2C269.9,346.3,268.9,351.2,271.3,352.2
		C270.8,352.8,268.9,351.2,271.3,352.2"/>
	<path class="st1" d="M77.5,159.2c-0.2-0.9-0.4-1.9-0.7-2.8c-0.6-1.6,0.8-3.6,2.6-3.5c0.6,4.9-0.2,6.8-3.7,8.3
		c0.8-1.5-1.1-2.9,0.6-4.5c0.2,1.1,0.4,1.8,0.5,2.6C77.1,159.3,77.3,159.3,77.5,159.2"/>
	<path class="st1" d="M237.8,111.3c-0.4-0.8-0.8-1.5-1.3-2.3c0.1-0.1,0.3-0.2,0.4-0.3c2.6,1.8,5.3,3.6,8.1,5.6
		c-0.8,0.9-1.3,1.5-1.6,1.9c-1.4-1-2.5-1.9-3.7-2.7C239.7,112.3,239.3,111.8,237.8,111.3"/>
	<path class="st1" d="M269.6,176.1c-0.5-2.9-0.7-5.7,0.8-8.7C272.2,170.7,270.5,173.3,269.6,176.1"/>
	<path class="st1" d="M155,356.8c0.9-2.4,2.2-5.1,4.6-6.3C161.1,352.5,156.8,356.5,155,356.8C156.3,353.5,155.3,356.8,155,356.8"/>
	<path class="st1" d="M273.7,358.9c-3.3,3.3-3.8,0-2.6-2.7C272,357.1,272.8,358,273.7,358.9C272.9,359.6,272.6,357.8,273.7,358.9"/>
	<path class="st1" d="M101.4,123c0.4,2.7,0.7,5.2,1.1,7.7c-0.2,0-0.4,0.1-0.7,0.1C100.6,128.4,99.4,126.1,101.4,123"/>
	<path class="st1" d="M164,165.3c1.1,1.2,1.9,2.4,1.3,4.1c-0.2,0.4-0.7,0.8-1,1.1c-0.3-0.4-0.9-0.7-0.9-1.1c-0.1-1.4,0-2.7,0-4.1
		C163.6,165.3,163.8,165.3,164,165.3"/>
	<path class="st1" d="M156.9,328.4c-0.6-2.2,2.3-5.2,3.7-7.2C160.6,323.7,159.4,327.6,156.9,328.4
		C156.9,328.5,158.2,328,156.9,328.4"/>
	<path class="st1" d="M303,229.2c-0.5-2.8-0.9-5.6-1.4-8.4C303.3,221.3,304.1,226.1,303,229.2"/>
	<path class="st1" d="M184.3,100.4c1.7-0.3,3.4-1.6,5.2-0.2c0.2,0.2,0.7,0,1,0c0.5,0,1-0.1,1.8-0.2
		C191.1,101.3,187.6,101.5,184.3,100.4"/>
	<path class="st1" d="M154.1,363.9c-0.1-2.5,2.5-2.8,3.6-4.6C157.2,362.9,156.4,363.9,154.1,363.9"/>
	<path class="st1" d="M91.7,134.4c-1.5,0.8-2.9,1.6-4.4,2.3c-0.4,0.2-1-0.3-1.5-0.5c0.2-0.4,0.4-1,0.7-1.1c1.7-0.5,3.4-0.8,5.1-1.2
		C91.6,134,91.7,134.2,91.7,134.4"/>
	<path class="st1" d="M148.9,313.6c0.2-2.5,2.3-2.7,3.6-3.8C153.1,311.8,152.5,312.5,148.9,313.6"/>
	<path class="st1" d="M248.1,144.3c-0.4-1.4-0.8-2.8-1.1-4.2c-0.1-0.3,0.4-0.6,0.6-1c0.3,0.2,0.7,0.4,0.8,0.6
		c0.3,1.4,0.5,2.9,0.7,4.3C248.7,144.2,248.4,144.2,248.1,144.3"/>
	<path class="st1" d="M236.2,182.6c1.1,1.8,1,3.1,0,3.5c-0.4,0.2-1.1,0-1.6-0.1c0.1-0.5,0-1,0.2-1.4
		C235,184,235.6,183.4,236.2,182.6"/>
	<path class="st1" d="M86,105.2c-0.8-0.4-1.2-0.8-1-1.8c0.1-1.1,0-2.1,0-3.5c0.6,0.4,0.9,0.7,1.2,0.9c0.3,0.2,0.6,0.5,1.1,0.9
		c-0.5,0.3-1,0.6-1.5,0.9c0.3,0.7,0.6,1.4,1,2.4C86.6,105,86.3,105.1,86,105.2C85.9,105.2,86,105.2,86,105.2"/>
	<path class="st1" d="M185.6,39.3c1-2.2,2-4.3,3-6.5C188.9,34.9,187.3,38.4,185.6,39.3"/>
	<path class="st1" d="M162.7,159.1c0.6-0.6,1.1-1.1,1.6-1.6c0.3,0.3,0.8,0.7,0.7,0.9c-0.3,0.8-0.9,1.6-1.3,2.4
		C163.4,160.3,163.2,159.9,162.7,159.1"/>
	<path class="st1" d="M301.3,212.7c0.9,1.6,0.8,2.9-0.4,3.9C300,215.6,300.2,214.1,301.3,212.7"/>
	<path class="st1" d="M145,350.2v1.4c0.5,0,0.5-1.1,0.6-1.4c0.5,1.7-0.6,3.6-1.8,4.7C143.9,353.3,143.8,351.4,145,350.2
		C145,350.7,144.2,351,145,350.2"/>
	<path class="st1" d="M138.9,172.3C138.9,172.3,138.9,172.3,138.9,172.3c0.3-0.6,0.5-1,0.9-1.8c1.1,1,2,1.8,3,2.7
		c-0.1,0.1-0.2,0.2-0.3,0.3L138.9,172.3z"/>
	<path class="st1" d="M250.7,145.4c0.4,1.2,0.7,2.2,1.2,3.6C249.5,147.7,249.2,146.7,250.7,145.4"/>
	<path class="st1" d="M235.6,130.6c-0.6-0.2-1.2-0.3-1.7-0.5c-0.4-0.8-0.8-1.6-1.2-2.4C234.2,127.5,235.3,128.6,235.6,130.6
		L235.6,130.6z"/>
	<path class="st1" d="M275,184.5c-0.5-1.7-1.1-3.5-1.6-5.2c0.2-0.1,0.3-0.1,0.5-0.2c0.6,1.7,1.1,3.4,1.7,5.2
		C275.4,184.3,275.2,184.4,275,184.5"/>
	<path class="st1" d="M146,349.1c0.9-0.6,1.8-1.2,2.7-1.8c0.6,0.6-0.2,1.8-0.4,2.6C147.5,349.6,146.8,349.3,146,349.1
		C147.1,348.3,147,349.4,146,349.1"/>
	<path class="st1" d="M148.6,351.9c0.8-1.8,1.7-3.5,2.5-5.3C152.1,347.2,149.3,352.3,148.6,351.9C149.4,350.2,148.7,352,148.6,351.9
		"/>
	<path class="st1" d="M177.7,107.9c-0.4-0.4-1.1-0.7-1.2-1.2c-0.1-0.4,0.4-1,0.7-1.5c0.2,0,0.4,0.1,0.6,0.1c0.1,0.8,0.2,1.5,0.3,2.3
		C178,107.7,177.8,107.8,177.7,107.9"/>
	<path class="st1" d="M156.4,339.6c-0.9,1.2-1.8,2.4-2.6,3.6c-0.8-0.6,1.6-3.3,2.1-4.1C156.1,339.3,156.3,339.4,156.4,339.6
		C155.6,340.8,156.3,339.4,156.4,339.6"/>
	<path class="st1" d="M193.3,42.3c0.6-0.9,1.2-1.8,1.8-2.6c0.2,0.1,0.3,0.2,0.5,0.3l-1.6,2.8C193.8,42.6,193.6,42.5,193.3,42.3"/>
	<path class="st1" d="M245.8,136.7c-0.4-0.9-0.7-1.8-1.1-2.7c0.2-0.1,0.4-0.2,0.6-0.3c0.4,0.9,0.8,1.8,1.2,2.7
		C246.3,136.5,246,136.6,245.8,136.7"/>
	<path class="st1" d="M155.2,338.2c0.5-0.7,1-1.9,1.8-2.1C157,337,156.6,339.5,155.2,338.2"/>
	<path class="st1" d="M296.6,203.3c0.3,0.5,0.6,1,0.9,1.5c-0.3,0.1-0.7,0.3-0.8,0.3c-0.3-0.5-0.5-1-0.8-1.5
		C296.1,203.5,296.3,203.4,296.6,203.3"/>
	<path class="st1" d="M302.9,216.6c-0.1,0.5-0.3,1.1-0.4,1.6c-0.2-0.1-0.7-0.2-0.7-0.2c0-0.5,0.1-1.1,0.2-1.6
		C302.3,216.5,302.6,216.5,302.9,216.6"/>
	<path class="st1" d="M235.6,130.6c1.5,0.2,1.3,1.3,1.6,2.2l-0.5,0.3C236.3,132.2,236,131.4,235.6,130.6
		C235.6,130.6,235.6,130.6,235.6,130.6"/>
	<path class="st1" d="M192.9,38.1c-0.2,0.8-0.5,1.5-0.7,2.3l-0.5-0.1c0.1-0.7,0.2-1.4,0.2-2.2l0,0C192.3,38.2,192.6,38.2,192.9,38.1
		L192.9,38.1z"/>
	<path class="st1" d="M156.2,343c-0.3,0-0.5-0.2-0.6-0.6C156.7,341.6,157.9,340.9,156.2,343"/>
	<path class="st1" d="M179.4,106.3c0.2-0.4,0.4-0.9,0.7-1.3c0.3,0.2,0.5,0.5,0.8,0.7c-0.3,0.3-0.6,0.6-1,1
		C179.7,106.5,179.5,106.4,179.4,106.3"/>
	<path class="st1" d="M228.8,103.9c0.3,0.6,0.6,1.3,0.9,1.9c-0.2,0.1-0.4,0.2-0.6,0.3c-0.3-0.6-0.6-1.3-0.9-1.9
		C228.3,104.1,228.5,104,228.8,103.9"/>
	<path class="st4" d="M102.3,57.6c-1.5,0.5-1.3-0.7-1.4-1.5C101.4,56.5,102.9,56.1,102.3,57.6L102.3,57.6"/>
	<path class="st1" d="M239.6,135.1l1.6,0.6c-0.1,0.2-0.4,0.6-0.4,0.6c-0.5-0.2-0.9-0.5-1.4-0.8L239.6,135.1z"/>
	<path class="st1" d="M225.6,91.7v-2.8c0.1,0,0.1,0,0.2,0v2.9C225.7,91.7,225.6,91.7,225.6,91.7"/>
	<path class="st4" d="M237.8,111.3c1.4,0.5,1.9,1,1.8,2.1C239.1,112.7,238.5,112,237.8,111.3"/>
	<path class="st1" d="M146.2,357.7c-0.3,1-0.7,2.1-1,3.1C144.5,360.6,145.5,357.5,146.2,357.7C145.9,358.7,146.1,357.7,146.2,357.7"
		/>
	<path class="st1" d="M240.2,114.8c0.5,0.5,1,1.1,1.6,1.6c-0.1,0.1-0.2,0.2-0.2,0.2L240,115C240,114.9,240.1,114.9,240.2,114.8"/>
	<path class="st1" d="M105,53.4c0.4-0.3,0.8-0.6,1.3-0.9c0.1,0.1,0.2,0.2,0.3,0.2c-0.4,0.5-0.9,1-1.6,1.8
		C105.1,53.9,105.1,53.6,105,53.4C105.1,53.3,105,53.4,105,53.4"/>
	<path class="st1" d="M173.7,29.1c0.1,0.6,0.1,1.1,0.2,1.7c-0.2,0-0.4,0.1-0.5,0.1c-0.1-0.6-0.2-1.1-0.2-1.7
		C173.3,29.2,173.5,29.2,173.7,29.1"/>
	<path class="st1" d="M152.1,358.9c-1.4,2-1.7,1.7-0.4-0.3C151.8,358.7,152,358.8,152.1,358.9C151.7,359.5,152,358.8,152.1,358.9"/>
	<line class="st4" x1="160.2" y1="243.3" x2="160.1" y2="243.3"/>
	<path class="st1" d="M298.2,209.3c-0.1,0.3-0.1,0.7-0.2,1c-0.1,0-0.3,0-0.4-0.1c0-0.3,0.1-0.7,0.1-1
		C297.8,209.2,298,209.3,298.2,209.3"/>
	<path class="st1" d="M117.7,42.1c0.3,0.4,0.7,0.8,1.1,1.3c-0.6-0.1-1.1-0.3-1.6-0.4C117.4,42.7,117.5,42.4,117.7,42.1
		C117.7,42,117.7,42.1,117.7,42.1"/>
	<path class="st1" d="M151.6,345.8c0.2-0.4,0.4-0.8,0.6-1.1C153,345,152.5,346.2,151.6,345.8C151.8,345.4,151.8,345.9,151.6,345.8"
		/>
	<path class="st1" d="M243.3,270c0.3,0.3,0.6,0.6,0.9,0.8c-0.2,0.2-0.3,0.3-0.5,0.5l-0.8-1L243.3,270z"/>
	<path class="st4" d="M133.7,97.3c-0.6-0.4-1-0.7-1.5-0.9c-2.7-1.1-5.4-2.1-8.1-3.1c-1.3-0.5-2.5-0.8-3.9-0.1
		c-0.8,0.4-1.8,0.5-2.7,0.7c0.8-2.4,2.3-3.4,4.8-3.4c1.2,0,2.5-0.2,3.7-0.2c0.2,0,0.4,0.3,0.6,0.4c0.3,0.2,0.7,0.3,1,0.3
		c1.3,0,2.7-0.2,3.9,0c4.2,0.8,8.3,1.9,12.5,2.8c0.4,0.1,0.8,0.1,1.1,0.3c1.3,0.9,2.7,1.8,3.9,2.8c1.5,1.3,1.1,4.3-0.7,5.1
		c-0.7,0.4-1.5,0.6-2.5,1c0.8,0.3,1.5,0.5,1.9,0.6c-0.5,0.7-1.1,1.4-1.7,2.2c0.6,0.8,1.1,1.4,1.5,2c-0.7,0.4-1.4,0.8-2,1.2
		c0.5,0.3,0.9,0.6,1.4,0.9c-0.1,1.8-1.4,3.4-3.4,3.6c-2.2,0.2-4.3,0.4-6.2,1.7c-0.6,0.4-1.9-0.1-2.8-0.3c-2.3-0.3-4.6-0.6-7.1-1
		c1.8-0.8,3.4-1.6,5.1-2.3c1-0.5,1.3-1,0.2-1.8c-0.3-0.2-0.6-0.5-0.8-0.8c-1.1-2.8-3.5-2.9-6-2.9c-1.8,0-3.7,0-5.5,0.1
		c-0.2,0-0.4,0.1-0.6,0.1c-0.6,0-1.7,0.1-1.8-0.1c-0.3-0.5-0.2-1.4,0-2c0.8-2.1,2.7-3,4.5-3.8c2.2-0.9,4.4-1.7,6.9-1.4
		C131,99.3,132.4,98.8,133.7,97.3 M127.4,102.7c-0.8,0.7-1.3,1.1-2,1.7c1,0.4,1.7,0.7,2.7,1C127.8,104.4,127.7,103.8,127.4,102.7
		 M131.3,103.4c-0.4-0.3-0.6-0.6-0.9-0.6c-0.2,0-0.6,0.3-0.6,0.4c0,0.2,0.2,0.5,0.4,0.8C130.6,103.8,130.9,103.7,131.3,103.4"/>
	<path class="st4" d="M144.3,134.2c3.5-0.4,5.6,0.7,6.2,2.9C148.6,136.3,146.6,135.3,144.3,134.2"/>
	<path class="st4" d="M232.1,221.9c-0.9,0.4-1.6,0.8-2.4,1.2c-0.1-0.1-0.2-0.3-0.3-0.4c0.4-1.3,1.2-2.3,2.5-2.8
		c1.4-0.4,1.7-1,1.1-2.4c-0.6-1.3,0.1-2.2,1.6-1.9c1.5,0.3,2.1,1.2,2.8,2.8c1.1,2.7,0.1,3.8-2.1,4.9
		C233.1,224.4,232.7,224.4,232.1,221.9"/>
	<path class="st4" d="M238.7,211.4c-0.6-0.6-0.9-0.9-1.2-1.2c0.8-0.5,1.5-1.1,2.3-1.5c0.2-0.1,0.8,0.6,1.2,1
		C240.2,210.2,239.5,210.8,238.7,211.4"/>
	<path class="st4" d="M144.8,14.7c1.3,2.8-0.2,5.5,0,8.3C143.7,20.2,144.3,17.5,144.8,14.7"/>
	<path class="st4" d="M136.6,16.8v8C135.5,23.6,135.7,17.8,136.6,16.8"/>
	<path class="st4" d="M140.7,20.7v5.4c-0.2,0-0.3,0-0.5,0v-5.4C140.4,20.8,140.5,20.8,140.7,20.7"/>
	<path class="st4" d="M124.4,27.5c0.2-2.2,0.4-4.5,0.6-6.7c0.1,0,0.1,0,0.2,0v6.7C124.9,27.5,124.7,27.5,124.4,27.5"/>
	<path class="st4" d="M121.7,23.8v5.8c-0.1,0-0.2,0-0.3,0v-5.8C121.5,23.8,121.6,23.8,121.7,23.8"/>
	<path class="st4" d="M140.1,19.6c0.1-1.1,0.1-2.2,0.2-3.3c0.2,0,0.3,0,0.5,0v3.3C140.6,19.7,140.4,19.6,140.1,19.6"/>
	<path class="st4" d="M144,30.1c-1.4-1.4-1.5-2.1-0.5-3.6C143.6,27.9,143.8,29,144,30.1"/>
	<path class="st4" d="M165.6,26c-0.2,0.5-0.5,0.9-0.7,1.4c-0.1,0-0.2,0-0.3,0v-3.3C165,24.9,165.3,25.5,165.6,26
		C165.6,26.1,165.6,26,165.6,26"/>
	<path class="st4" d="M151.9,25.1c0.2,1,0.4,2.1,0.6,3.1c-0.2,0-0.4,0.1-0.6,0.1c-0.1-1-0.3-2.1-0.4-3.1
		C151.6,25.1,151.7,25.1,151.9,25.1"/>
	<path class="st4" d="M109.1,48.3c-1.6-0.3-1.2-1.7-1.7-2.6c0.2-0.1,0.3-0.1,0.5-0.2C108.3,46.4,108.7,47.4,109.1,48.3
		C109.1,48.4,109.1,48.3,109.1,48.3"/>
	<path class="st4" d="M105.2,47.8c0.2,0.7,0.5,1.6,0.8,2.4C104.9,50.2,104.7,49.5,105.2,47.8"/>
	<path class="st4" d="M121.3,33.3c-0.1,0.9-0.1,1.9-0.2,2.8C120.1,35.2,120.1,34.6,121.3,33.3L121.3,33.3z"/>
	<path class="st4" d="M124.5,30.9c0.1-0.8,0.2-1.6,0.3-2.4l0.3,0v2.4C124.8,30.9,124.6,30.9,124.5,30.9"/>
	<path class="st4" d="M88.3,85.2c-0.3-0.7-0.5-1.2-0.7-1.7c0.2-0.1,0.4-0.1,0.6-0.2C87.9,84,89.8,83.9,88.3,85.2"/>
	<path class="st4" d="M118,26.9c0-0.5,0.1-1,0.1-1.5l0.5,0c0,0.5-0.1,1-0.1,1.5C118.3,26.9,118.1,26.9,118,26.9"/>
	<path class="st4" d="M121.3,33.3c-0.1-0.8-0.1-1.6-0.2-2.4c0.2,0,0.4,0,0.6,0C121.6,31.7,121.5,32.5,121.3,33.3
		C121.3,33.3,121.3,33.3,121.3,33.3"/>
	<path class="st4" d="M117,39.2v-1.9c0.1,0,0.2,0,0.3,0c0,0.6,0.1,1.2,0.1,1.8C117.3,39.1,117.1,39.2,117,39.2"/>
	<path class="st4" d="M204,39.9c-0.1-1.3-0.1-2.6-0.2-3.9c0.2,0,0.5,0,0.7,0c0.4,1.3,0.6,2.6,0,3.9C204.4,39.8,204.2,39.8,204,39.9"
		/>
	<path class="st4" d="M209.4,43.7c0.1-0.9,0.1-1.8,0.2-2.7c0.1,0,0.2,0,0.3,0v2.7C209.7,43.7,209.5,43.7,209.4,43.7"/>
	<path class="st4" d="M212.5,45.9c0.1,1,0.1,2.1,0.2,3.1c-0.2,0-0.3,0-0.5,0l-0.3-3.1C212.1,45.9,212.3,45.9,212.5,45.9"/>
	<path class="st4" d="M204.1,35.4c-0.2-0.7-0.4-1.3-0.6-2c0.2-0.1,0.4-0.1,0.6-0.2c0.2,0.6,0.4,1.3,0.6,1.9
		C204.5,35.2,204.3,35.3,204.1,35.4"/>
	<path class="st4" d="M188.8,25.2l0.3,3.2l-0.4,0c-0.1-1-0.3-2.1-0.4-3.1C188.4,25.2,188.6,25.2,188.8,25.2"/>
	<path class="st4" d="M192.9,38.2c-0.3,0-0.7,0-1,0c0.4-0.9,0.8-1.9,1.2-2.8c0.1,0,0.3,0.1,0.4,0.1
		C193.4,36.4,193.1,37.3,192.9,38.2"/>
	<path class="st4" d="M176.9,31.3c-0.5-1.5,0.2-2.8,0.8-4.1C178,28.7,177.9,30.1,176.9,31.3C176.8,31.3,176.9,31.3,176.9,31.3"/>
	<path class="st4" d="M184.9,33.6c0.2-1,0.3-2.1,0.5-3.1C186.7,31.8,185.6,32.6,184.9,33.6"/>
	<polygon class="st4" points="184.5,23.8 184,21.6 184.4,21.5 184.8,23.7 	"/>
	<path class="st1" d="M127.4,102.7c0.3,1.1,0.4,1.7,0.7,2.7c-1-0.4-1.6-0.6-2.7-1C126.1,103.7,126.6,103.3,127.4,102.7"/>
	<path class="st1" d="M131.3,103.4c-0.5,0.3-0.8,0.4-1.1,0.6c-0.1-0.3-0.4-0.5-0.4-0.8c0-0.2,0.4-0.4,0.6-0.4
		C130.7,102.8,131,103.1,131.3,103.4"/>
</g>
</svg>
