<?xml version="1.0" encoding="utf-8"?>
<!-- Generator: Adobe Illustrator 19.0.0, SVG Export Plug-In . SVG Version: 6.00 Build 0)  -->
<svg version="1.1" id="Layer_1" xmlns="http://www.w3.org/2000/svg" xmlns:xlink="http://www.w3.org/1999/xlink" x="0px" y="0px"
	 viewBox="-300 392.9 10.9 9.1" style="enable-background:new -300 392.9 10.9 9.1;" xml:space="preserve">
<circle fill="#FFFFFF" class="st0" cx="-294.4" cy="397.4" r="3.6"/>
<path class="st0" d="M-292.9,393.6l1.3,0.5c0.8,0.3,1.4,0.8,1.8,1.5s0.7,1.4,0.7,2.3c0,1.1-0.4,2.1-1.2,2.9s-1.8,1.2-2.9,1.2
	c-0.5,0-1-0.1-1.6-0.3l-1.3-0.5c-0.8-0.3-1.4-0.8-1.8-1.5s-0.7-1.4-0.7-2.3c0-1.1,0.4-2.1,1.2-2.9s1.8-1.2,2.9-1.2
	C-293.9,393.3-293.4,393.4-292.9,393.6z M-298,397.4c0,1,0.3,1.8,1,2.5c0.7,0.7,1.5,1,2.5,1c1,0,1.8-0.3,2.5-1c0.7-0.7,1-1.5,1-2.5
	c0-1-0.3-1.8-1-2.5s-1.5-1-2.5-1c-1,0-1.8,0.3-2.5,1C-297.6,395.6-298,396.5-298,397.4z"/>
</svg>
