<?xml version="1.0" standalone="no"?>
<!DOCTYPE svg PUBLIC "-//W3C//DTD SVG 20010904//EN"
 "http://www.w3.org/TR/2001/REC-SVG-20010904/DTD/svg10.dtd">
<svg version="1.0" xmlns="http://www.w3.org/2000/svg"
 width="700.000000pt" height="700.000000pt" viewBox="0 0 700.000000 700.000000"
 preserveAspectRatio="xMidYMid meet">
<metadata>
Created by potrace 1.11, written by Peter Selinger 2001-2013
</metadata>
<g transform="translate(0.000000,700.000000) scale(0.100000,-0.100000)"
fill="#000000" stroke="none">
<path d="M3324 6990 c-1696 -85 -3085 -1378 -3294 -3065 -28 -231 -28 -619 0
-850 188 -1518 1342 -2741 2845 -3014 398 -72 852 -72 1250 0 1503 273 2657
1496 2845 3014 39 317 27 730 -31 1050 -271 1491 -1476 2639 -2979 2840 -58 8
-159 17 -225 20 -66 3 -151 7 -190 9 -38 2 -138 0 -221 -4z m136 -2535 l0
-445 -415 0 -415 0 0 -1415 0 -1415 -460 0 -460 0 0 1415 0 1415 -420 0 -420
0 0 445 0 445 1295 0 1295 0 0 -445z m2750 0 l0 -445 -415 0 -415 0 -2 -1412
-3 -1413 -462 -3 -463 -2 0 1415 0 1415 -415 0 -415 0 0 445 0 445 1295 0
1295 0 0 -445z"/>
</g>
</svg>
