<?xml version="1.0" encoding="utf-8"?>
<!-- Generator: Adobe Illustrator 19.0.0, SVG Export Plug-In . SVG Version: 6.00 Build 0)  -->
<svg version="1.1" id="Layer_1" xmlns="http://www.w3.org/2000/svg" xmlns:xlink="http://www.w3.org/1999/xlink" x="0px" y="0px"
	 viewBox="0 0 318.7 377" style="enable-background:new 0 0 318.7 377;" xml:space="preserve">
<style type="text/css">
	.st0{fill:none;stroke:#EBEBEF;stroke-width:2;}
	.st1{fill:#EBEBEF;clip-path:url(#SVGID_2_);fill-rule:evenodd;clip-rule:evenodd;}
</style>
<line class="st0" x1="0" y1="377" x2="267" y2="377"/>
<g>
	<defs>
		<rect id="SVGID_1_" x="99.6" width="207.6" height="377"/>
	</defs>
	<clipPath id="SVGID_2_">
		<use xlink:href="#SVGID_1_"  style="overflow:visible;"/>
	</clipPath>
	<path class="st1" d="M226.6,9.8c-0.2,0.6-0.6,1-1.5,1C224.9,9.7,225.8,9.8,226.6,9.8"/>
	<path class="st1" d="M142.6,45.9c-0.1-0.8,2.6-0.7,1.5,0.5C144.2,46.2,142.6,45.9,142.6,45.9"/>
	<path class="st1" d="M150.9,67.9c2.7-0.4,0.1,5.8,1,7.3c-1.4,1.6-1.2-4.3-1-4.4c-0.6-0.6-0.6-1.7-0.5-2.9c0.4,0.1,0.5,0.5,1,0.5
		C151.4,68,151.2,67.9,150.9,67.9"/>
	<path class="st1" d="M152.3,75.2c0.8-1.4,0.4,2.5,0.5,3.4C152,80.1,152.4,76.1,152.3,75.2"/>
	<path class="st1" d="M200.7,79.6c3.3,1.9,1.5,8.1-2.4,6.3C200.4,85.2,201.1,83,200.7,79.6"/>
	<path class="st1" d="M197.7,83c-2,1.4-5.5-0.7-6.3,1C189.3,80.6,198,78.1,197.7,83"/>
	<path class="st1" d="M187.5,82.6c-1.3,1.2-2.6,2.3-5.4,2C180.3,81.3,186.1,79.9,187.5,82.6"/>
	<path class="st1" d="M249,87.9c0.6,0.8,1.9,1.5,1,2.4c-0.4-0.3-0.8-0.5-1.5-0.5C248.9,89.4,249.1,88.8,249,87.9"/>
	<path class="st1" d="M165,158.2C163.9,159.8,163.1,156.5,165,158.2"/>
	<path class="st1" d="M197.7,177.8c3.6-0.6,11.6,2.7,7.8,6.8C202.8,182.5,202.2,178.3,197.7,177.8"/>
	<path class="st1" d="M164.5,177.8C163.5,179.3,161.4,177.2,164.5,177.8"/>
	<path class="st1" d="M185,179.7c-3.1,1.8-8,0.3-12.7,0C176.1,179,182.4,178.7,185,179.7"/>
	<path class="st1" d="M136.2,244.2c1.4-1.5,3,0.9,4.9,0.5C138.9,246,138.6,244.3,136.2,244.2"/>
	<path class="st1" d="M122.1,251c4.1-0.3,8.8,2.2,14.2,0.5c0.5,1.1,1.5,1.8,2.9,2C133.5,256.4,125.9,253.2,122.1,251"/>
	<path class="st1" d="M112.8,254c0.6,0.2,1,0.6,1,1.5C112.7,255.7,112.8,254.7,112.8,254"/>
	<path class="st1" d="M140.1,378c0.8-6.5,0.4-14.3,0.5-21.5c-4.3-7.3-8.4-17.3-10.3-25.4c-1.6-2.2-4.5-10.1-4.9-13.2
		c-2.3-1.6-2.2-8.7-3.9-9.3c-0.9-4.5-2.7-8-3.4-12.7c-0.3-1-2.3-0.3-2.4-1.5c1.5-0.5,3.2-0.7,3.9-2c1.2,2.1,4.1,1.8,5.9,2
		c4.2,0.4,8.6-0.7,13.7,0.5c2.5-1.4,6-1,8.3-1.5c0.6,1.4,2.2,0.8,2.9,2.9c9.2,4.1,25.7-2.9,36.6,2c5.8-0.4,9.6,1.1,14.2,2
		c1.6,1,2.7,2.5,4.4,3.4c0-0.8-0.1-1.7,1-1.5c0.5,0.9-1.5,1.6,0,2c1.8-2.2,2.2,1,5.4,0.5c0,2.6,1.3,0.1,1.5,1c0,1.4,2.8,1.2,1.5,2.4
		c-0.4,0.1-2.5-1.1-3.4-1c0.4,2.5,2.8,1.9,3.9,2.4c0.5,0.2,1.8,1.8,2.4,2c0.5,0.1,0.9-0.9,1.5-0.5c-0.6-0.4,1,2.4,1.5,2.4
		c0.8-1,1,0.2,2,0.5c2.9,0.7,1.5,0.2,2.9,1.5c2.7,1.4,3.8,1.4,5.4,2.9c1.5,1.1,3.7,0.3,5.4,2.9c2.5-0.4,6.6,1,7.3,2
		c3.6-0.2,10.2,3.1,11.2,0.5c0.4,1.1,1.5,1.5,2.4,2c1.8-0.9-0.4-0.9,0.5-1.5c2,0.6-0.1,1,0,2.4c2.6-2.9,3.2,0,4.9-2.4
		c-1,0.3-0.2-1.2-1.5-1.5c0,0-2.9,2.4-2.9-0.5c1.6,0.7,2.5,1.2,2.4,0c1.8-0.5,1.4,1.2,2.9,1c-0.5-1.5-0.2-1.8,0.5-0.5
		c0.9-1.2,0.8-0.7,2,0c-1.6,1.6-2.2-0.3-1,2.4c2.7,0.1-1-1.5,0.5-1.5c2.1,1.2,1.9-1.3,3.4,0.5c0,1.6-4,0.3-1.5,1.5
		c-0.6,2.7,3.7,1.4,3.4,0c0.9,0.9,0.2,3.4,2.4,2.9c0.4-2.2-2.3-1.3-1.5-3.9c1.4,0.6,1.6,4.3,3.4,2.9c0.3-1.3-2.2-2.3-1-2.9
		c0.9,2,2.6,1.7,2.4,3.9c2.1,0,2.2,0.7,3.9,2c0.1-2,0.3-0.1,1,0c1.2-0.7,0.3-1,1-1.5c-0.7,2.5,5.3,3.3,6.8,3.4
		c1.1,1.7,0.1,2.5,2.4,2.9c1.3-2-1.6-2.2,1-2.9c-0.9,0.7,2,4.2,0.5,2.4c0.2-0.6,0.5-1.1,1-1.5c0.2,2.9,2.3-0.4,2.9,0.5
		c1.4-0.6,3,0,4.4-1.5c0.2-1-0.4-1,1-3.4c2-0.5,0.7-4.2,2.9-4.4c-0.3,0.9-0.5,1.5,0,2c0.5-12.7-1.1-25.5-2.4-38.1
		c-1.2-11.5-4.9-22.4-8.8-32.7c-1.9-4.9-3.9-9.8-4.9-15.6c-3.1-18.5-4.5-44.2-14.6-54.2c-13.6-8.8-34-10.9-46.4-21
		c-6.1-5.3-4.5-19.5-3.4-29.3c0.9,7.3-1.6,16.4,0.5,23.9c3.4,6.1,10.2,8.7,15.6,12.7c13.3,2.5,23.8,7.8,34.2,13.2
		c5.9,4.6,7.5,12.5,9.3,21.5c1,4.9,2.5,10.1,3.4,15.1c2,10.6,2,21.5,5.9,31.7c3.8,10.2,7.4,18.2,8.8,28.3c1.5,11,3.3,22.2,3.9,33.7
		c0.6,11.7-1.6,23.6-9.3,25.9c-5.2,1.6-8.2-1.1-12.7-2.9c-8.7-3.5-20.3-5.4-29.3-7.3c1.8,17.8,8.5,30.5,12.2,46.4h-1
		c-3.4-14.4-8.8-26.7-11.7-41.5c-1.1,2.4-0.3,4.9-2.4,5.4c-0.7-0.2,0.1-0.4,0-1c-3.2,0.7-4-0.1-7.3-0.5c-0.2-2.2-1.9-0.1-2-2.4
		c-3.8-1.2-7.4-0.7-9.3-2c-2.9,1.6-5.3,3.8-8.8,4.9c-0.7,0.2,0.2,0.6,0,1.5c-1.8-0.3-2.1,0.8-3.9,0.5c-0.1,1.1,1.7,0.2,2.4,0.5
		c0.1,1.1-1.7,0.2-2.4,0.5c-0.8,0.7,0.6,1-1.5,0.5c-5.5,3.5-14.8,7.7-19,12.7h-2c-0.8,0.7-1.7,1.2-2,2.4c-2,0.5-3.7,1.2-5.4,2.4
		c-0.7,0.5-0.3,1.3-1,2c-0.7,0.8-2.7,0.8-2.9,1c-0.5,0.4-0.4,1.8-1,2c-0.8,0.1-0.8-0.5-1.5-0.5c-0.1,2.8-5.3,3.1-5.4,4.4
		c-2.1,0.8-2.7,1.1-5.9,1.5c-1.7-0.1-2.8-0.8-4.9-0.5c-1.2-1.6-3.3-2.2-4.9-3.4c-11,4.9-17.6-4-22-10.3c-2.4,4.8,0.1,14.4-1.5,20
		H140.1z M148.9,300.8c-4.5-3-19.7-7.9-24.4-0.5c1.8,1,0.8,2.9,1,3.4c0-0.3,0.1-0.6,0.5-0.5c-0.4,2.1,0.8,3.2,2,4.9
		c0.4,7.1,6.4,10.6,4.4,15.1c3.4,2.6,3.4,13.7,7.3,15.6c-0.4,1.1,0.2,1.3,0.5,2.4c0.8,0.1,4.6,8.5,5.9,9.8c-0.7,0.1-0.6,1.1-1,1.5
		c1.4,1.2,3.4,1.8,2.9,4.9c3,1,4,3.8,6.8,4.9c1.7-1.2,3-0.5,4.4-2.4c-1.1-0.7-1.8,1.3-2,0c1.8,0.1,1.3-3.1,2.4-1
		c-0.1-1.4,0.1-1.7,1-1c0.3-0.7-0.6-2.5,0.5-2.4c0.7,0.2,0.9,0.7,2,0.5c1.7-1.6,1.5-5,3.9-5.9c-0.2-1.1-0.6-2-1-2.9
		c1.9,1.2,1.3-1.1,2.9-1.5c0.8,2.3,2.9,0.7,4.4,0c-1.1-0.2-0.5-2.7,0.5-2.4c0.5,0.9-1.5,1.6,0,2c-0.1-1.5,1.4,1.2,1.5-0.5
		c-1.1-0.4-0.8-2.1-1.5-2.9c2.1,1.8,1.2,0.3,2.4-1c0.1,0.5,0.5,0.8,1,1c0.8-1.6,2.5-2.4,3.4-3.9c0.2,1-1.1,3.1,0,2
		c0.7-2.6,3.7-1.1,3.4-3.9c1.2,1.3,2-0.1,2.4-1h1c0,1.3-0.8,1,0,2c1.7-0.3,1.7-2.2,2.9-2.9c0.1,0.6-0.1,1.4,0.5,1.5
		c-0.1-2,1.3-1.3,2.4-1c0-1.6-0.9-2.1,0.5-2.9c1.1,1.5,2-1.2,2.9-1.5c0.2,0.8-0.7,1.3,0,1.5c1.8-1.2-0.3-3.3,2-3.9
		c-0.6,0.6-0.6,1.8,0.5,2c1.1-1.8,3-2.9,3.9-4.9c0.2,1.5-1.1,1.9,0,2.9c1.9,0.3,2.5-3.2,1-1c0.4-0.9,0.2-2.4,1-2.9
		c1.8,0,1.5-2.2,4.4,0c0.5-1.8-1-1.6-1.5-2.4c1.4-0.1,1.7,0.9,2.4,1.5c1.2-0.6-1-1.8,0.5-2.4c0.1,0.4,1.6,1.5,1.5,0.5
		c-0.3,0-0.6-0.4,0-0.5c1,0.8,1.1,2.5,3.4,2c0.2-0.8-0.7-1.3,0-1.5c0.3,0.7,0.8,1.2,1.5,1.5c-0.9-2.3-0.2-3.2-2-4.4
		c-1.2,0.6,0.5,2.4-0.5,2.4c-0.9-1.5-0.9-2.6-0.5-3.9c-1-0.1-1,0.7-1.5,1c-1-1-1-0.5,0-1.5h-1c0-0.3-0.4-0.6-0.5,0
		c1-0.1-0.1,1.4-0.5,1.5c0.5-2.1-8.2-3.8-11.7-1c-1.2-0.9-1.2,0.3-1.5-1c-2.1,0.1-0.7,1-3.9,1c0.3,1.6-1,0.8-1.5,0.5
		c-0.1,1,0.7,1,1,1.5c-1.2,0.6-1.5-1.9-2-0.5c0.8-0.3,0.8,2.3,0,2c-1.1-1.4-5.6-0.3-6.3,0.5c-1-1.2-3.2-0.6-3.9-0.5
		c0.5,0.1,0.8,0.5,1,1c-2.4-0.3-4.1-1.2-6.3-0.5c2.4,0.2-1.1,0.5,0.5,1.5c-1.2-0.9-1.7,0.5-2.4-1c0.1,1-0.7,1-1,1.5
		c0.6,0.1,1.4-0.1,1.5,0.5c-1.5,0.4-1.4-0.8-2.9-0.5c-0.4,1.6,1.3,1,1.5,2c-2-1-2.1-0.8-2.4,0.5c-0.8,0-0.3-1.4-1-1.5
		c-0.7,1.6,0.2,2.1-0.5,2.9c-1.2-1.2-2.4,0.5-3.4,1c-0.2-1.1-1-1.6-1.5-2.4c-1.6,1.4,3,2.3,1,3.9c-0.6-1.5-2-2.2-2.9-3.4
		c-0.1,0.6-0.1,1.2-1,1c0.1-1.8-3.3-2.5-2.4-3.4c0.3,0,0.6-0.4,0-0.5c-0.7,0.1-0.8,0.8-1.5,1c0.4-2.3-1.6,0.3-1.5-1
		c0.7-0.5,1-1.3,1.5-2c-1.3,0.1-2.1-0.2-2-1.5c0.7,0.1,0.8,0.8,1.5,1c-0.3-1.9-2.5-1.7-2.9-3.4c0.6,0.1,1,0.8,1-0.5
		c-2.5,0.4,0.3-2.4-2.4-1.5c-0.3-3.8-2.6-7.8-2.4-10.7c-0.4,0.7-0.8-1.4-1.5-1C149.4,302.2,147,301.5,148.9,300.8 M218.3,319.4
		c-0.7,0.1-0.6-2.8-1.5-1C217.5,318.3,217.8,320.9,218.3,319.4 M212.4,324.3c-0.8,0-0.4-1.2-1.5-1
		C210.5,324.3,212.5,325.2,212.4,324.3 M206.5,325.7C208.7,328.8,204.8,323.3,206.5,325.7 M304.2,330.6h1v-1h-1V330.6z"/>
	<path class="st1" d="M115.7,293.5c1.1,0-0.2,1.3-1,1c-0.6-1.9-1.6-4.6-0.5-6.8c-2.6-0.6-4.4-4.2-2.9-7.3c-3.5-1.9-3.2-10.7,0-12.7
		c-4.4-3.5-0.5-8.2,1-11.2c1.3,2.5-5.5,6.5-1,9.3c0.6-0.8,1.6-1.3,1.5-2.9c6.6,1,13.3-0.3,19,2c-0.8,1-3.7,1.4-4.9,0.5
		c-5,0.6-8.1,3-14.2,2.4c-3.8,0.9-4.3,7.8-1,9.3c5.6-1,11.6-0.8,17.6,0c-4.3,1.4-13.4-1.2-17.1,1.5c-0.4,2.4-0.8,4.6,0.5,6.3
		c3.3,1.3,12.8-0.3,18.1,1.5c-4,1.4-12.1,2.8-16.1,1C114.6,289.9,114.2,293.5,115.7,293.5"/>
	<path class="st1" d="M111.8,254.9c1.5,0.6-0.5,1.7,0,2.9c-3-13.8-9.8-31.1-11.2-47.4c-1-10.7,1.6-18.2,5.9-25.9
		c3.6-3.9,8.6-6.3,12.7-9.8c18.4-3.2,31.9-11.4,45.9-19c3.5-2.2,6-5.4,8.8-8.3c0.5-1-0.4-3.3-0.5-5.4c-0.2-4.1,0.4-9.2,0.5-2.4
		c0.4,2.3,0.9,5.6,0.5,7.3c-7.7,12.5-24.3,16.1-36.6,23.9c-11.1,1.8-20.5,5.2-27.8,10.7c-4.3,4.6-6.8,11.1-8.8,18.1
		c-0.7,15.4,4.1,32.4,6.8,39.6c1.2,0.1,0.1,1.7,0,2c0.3,0.8,0.5,0,0.5-0.5c1.4,0.3,0,1.9,0,2c0.2,0.8,0.7-0.4,1,0.5
		c0.2,0.8-0.7,1.6-0.5,2c-0.4-0.6,2.3,0.5,0.5,2c0.3,0.8,0.5,0,0.5-0.5c1.1,0.1,0.3,2.1,0,2.4c0.3,0.8,0.5,0,0.5-0.5
		c1.2,0.7-0.1,1.9,0,2.4c0.2,1.1,1.3-0.5,0.5,0.5c-0.6,2.2,2.1,2.3,0.5,3.9C111.6,256.2,111.8,255.5,111.8,254.9"/>
	<path class="st1" d="M168.4,154.8c0.6-1.3,2-1.9,2.9-2.9c0.8,0.8,0.9,2.4,2,2.9C172.3,155.3,170.6,155.4,168.4,154.8"/>
	<path class="st1" d="M191.4,5.4c-1.6,1-2.8,2.4-4.4,3.4c1.1,2.6,3.6-0.7,3.4,2c1.2-0.2,2.7-2.7,3.4-0.5c2-1.6,4.4-2.7,4.4-6.3
		c0.8-0.7,2.5-0.4,2.9-1.5c1.1,1.4,2.1,0.6,3.9,0c-0.4,0.4-0.5,1.1-0.5,2c2.3,1.5,2.1-2.4,4.4-1c-0.3,0.7-0.7,1.2-1,2
		c0.8-0.4,4.4-3.3,3.4-1c2.9-1.2,5.7-4.4,9.3-3.4c-2.3,1.8,1.9,0.5,3.4,0.5c-0.3,0.8-3.5,1.5-0.5,1.5c-0.5,1.3-1.4,2.2-2.9,2.4
		c-0.1,0.6,0.1,0.9,0.5,1c-2.2,1.7-7.6,7.6-2.4,9.3c1.8-1,1.7-3.8,2.9-5.4c0.9,1,1.8,0.2,2.9,0c0.6,2.1-1.6,1.3-2,2.4
		c0.7,0.3,1.7-0.3,3.4-0.5c-0.9,1.4-2.4,2.1-3.4,3.4c1.6-0.2,2.1-1.5,2.9-2.4c0.8,0.7-0.6,2.5,0.5,3.9c2.6-0.8,2.6-2.2,3.4-3.9
		c1.6,0.4,0.4,1.1,0,2c0.7,0,1.4,0.1,1.5-0.5c1.3,0.4-1,1.2-1.5,1.5c-1.1,6.1,4.1,13.2,5.4,18.1c0.3,1.1,1.6-0.9,2-1.5
		c0-1.5-0.2-2.7-1-3.4c1.9-1.6,0.5,4.3,3.4,3.4c1.2-0.5-0.3-3.6,2-2.9c1.2,1.1-0.5,1.1-1,2c0.6,0.9,3-0.5,4.9,0
		c1.1,0.8-3.2,0.4-2.9,2c-0.7-0.2,0-0.9,0.5-1c-0.4-1-1.7,1.2-2.4,1.5c2.1-0.5,0.9,4.5,3.9,3.4c0,1.6-1.6,1.7-1.5,3.4
		c-1.8-1.3-2.2,1-3.4,0c0,1.5-0.6,2.3-1,3.4c0.7,0.8,1-0.6,0.5,1.5c0.2,0.7,0.9,0,1-0.5c0.3,1,2.3,2.9,2.9,2c0.7,0.4,0.7,1.6,1,2.4
		c-1.2-1.3-1.4-0.6-2.4,0.5c0.1,0.6,0.5,0.3,0.5,0c0.7,0.2,0,0.4,0,1c0.1,0.6,0.9,0.4,1.5,0.5c1.5-0.6-1.6,0.9-2.4,1
		c1.5,1.5,3.4-0.8,4.9-1c-0.5,1.4-2.3,3.2-3.9,2c-1.5,1.6,2.6,1,1.5,2c-0.1,0-1,0-1,0c0.1,3.6,7.1,2.4,9.3,0c2,1.3-1.8,4.1-2.4,5.9
		h-2.9c0,0.5,0.6,0.4,1,0.5c-0.1,0.5-1,0.3-1,1c0.7,1,2.2,1.1,3.4,1.5c-0.7,1.7,1,3.4,3.4,3.4c0.9,0.4-3.2,1.4-2.9,0
		c-0.5,1.1-0.6,3.1,1,3.9c-0.2,0.7-0.9,0-1-0.5c-0.4,0.1-0.5,0.5-1,0.5c-0.1,2.9,3.8,1.7,6.3,2c0.2,1.1-5.3,0.1-3.9,2.9
		c-1-0.8-2-1.6-3.4-2c0.8,2.8,4.3,5.3,2.4,9.3c-1.1,0.1-0.2-1.7-0.5-2.4c-1.5,2.4-2.2,3.6-2.4,6.3c-0.5,0-0.4-0.6-0.5-1
		c-1.8,2.3,1,5.6,0,7.3c-1-0.1-1.3-1-2-1.5c-1.7,1,2.2,1.8,0.5,2.9c-0.5-0.4,0-1.6-1,0c0.7,1.6,1.2-1,2.4-0.5
		c0.1,0.8-0.5,0.8-0.5,1.5c1.3,0.3,0.9-1,1.5-1.5c1.5,1.6,2.3,0.9,2.4,3.9c-2-0.1-1.9,0.6-3.4,0c0.1-1.1-0.1-1.8-1-2
		c-0.6,0.1-0.6,1.5,0,1.5c-1.8,1.1-3.2-2.3-3.9-3.9c-1,0.1-1,1.3-1.5,2c-0.9,1.8,0.4-3.4-0.5-0.5c-1.8-1.5,1.7-1.9,1-3.9
		c-1.4,1.9-2.4,4.1-3.4,6.3c1-0.3,1.3-1.3,1.5-2.4c0.5,3.2-4.5,5.2-5.9,8.3c1,1.3,3.1-0.5,3.4-1.5c0.5,2.2-1.9,5.1-2.9,8.8
		c-0.7,2.7-0.5,5.8-1.5,7.8c0.3-0.7-2.7,3.6-2.4,3.4c-0.1,0.1-1.2-0.7-1.5,0c0.9,1-0.1,2.7-0.5,3.9c-1.4-0.7,1.3-2.6,0-3.4
		c-1.8-0.3-1.2,1.7-2,2.4c-1.1,0.1-0.2-1.7-0.5-2.4c-2,5.7-1.8,10.9-2.4,17.1c-0.1,1.3-1,2.7-1,3.9c0,0.8,0.7,1.1,0.5,2
		c0,0.2-1.4,1.3-1.5,2c-0.1,1.5,0.1,3.2-0.5,6.3c-0.2,0.8-2.6,3.3-0.5,3.4c-0.1,0.6-1,0.5-1,0c-1.9,1,1.5,1.6,0,2.4
		c2.9,0.6,1.5-3.1,3.9-2.9c0.2,1.7,1.1,2.8,1,4.9c-4.3,3.8-3.7,12.6-6.3,18.1h-2c1.3-7.3-0.2-18.1,2-24.4c-0.3-0.9-0.3-2-1-2.4
		c-0.5,2.1-1.1,2.8-4.9,3.9c-0.4-2.6-1.6-4.4,1-5.4c0.3-4.7,0.6-11.6-3.9-12.7c1.7-2.3,1.3-5.1,1-7.3c-0.1-1-1.8-0.5-2-1.5
		c-3.6,0.9-4.9-0.9-8.8-1c-3.8,2.5-7.6,0.2-11.7,1c-5-2.4-11.3-3.7-14.7-7.8c-1.3,0.6,0,2.5,0,3.4c-1.6,1-0.7-2.8-1.5-1
		c-0.3-0.5-0.5-1.5-1-2.9c-1.5,0.7,0.9,2.2-0.5,2.9c-1.9-2.7-5.2-3.9-6.3-7.3c-0.6,1.2-1.8-0.5-2,0.5c0.1-0.9-0.7-2.6-1-4.4
		c-0.8,0.2-0.4,1.5-2,1c0.1-1.4-0.9-5.8-1.5-3.4c-1.6-2.1,1.1-5.4-1-6.8c-1.6,0.6-2,2.8-3.4,1c1.4-0.1,0.8-0.9-0.5-2
		c-2.4,3.3-6.6,6.9-4.9,12.7c-2.1-1.1-0.3-5.2-2-4.4c0.8-1.3,1.3-2.9,1.5-4.9c-0.9,0.1-1.1,0.8-1,2c-1.3,0.1,0.7-4.3,1-5.9
		c0.6,0.1,0.4,0.9,0.5,1.5c0.5-0.7,0.6-3.7-0.5-3.4c0.4-0.9,1.7-0.9,2.4-1.5c0.2-5.4-0.8-11.7,1.5-15.1c1.6,2.1,1.7,5.8,2.9,8.3
		c0.8-2.3-2.3-4.9-1.5-8.8c0-0.5-0.6-0.4-1-0.5c1.7-3.3,2.5-7.6,3.4-11.7c0.4,0.1,0.5,0.5,1,0.5c0.3-1.6-0.3-2.3-0.5-3.4
		c-0.7-0.2-2.3-1.7-2.9-3.4c-1.4-0.1-2.7,2.5-2.9,2c-1.1,0,2.3,3-1,2.4c2,1.1,1.3,3.5,2,4.9c-1.3,1.3-4.3,0.1-5.9,0
		c1-1.1,2.9-1.3,4.9-1.5c-0.1-2.1-3.2-1.4-3.4-3.4c0.8-0.1,0.8,0.5,1.5,0.5c0.2-1.5-1.3-1.8-1.5-0.5c-2.2-3.6-3-3-5.9-5.4
		c-2.1,1.2-4,2.5-4.9,4.9c-0.9-2.2,2.4-4.4,3.9-5.9c-0.8-1-2.3-1.3-3.9-1.5c4.4-1.3,6-0.3,10.7-1c0.5,0,0.4-0.6,0.5-1
		c0.6,0.2,0.8,0.9,1.5,1c1-0.1,0.5-1.8,1.5-2c-0.4-0.9-1.1-1.5-2-2c-0.1-1.2,0.8-1.5,1-2.4c-0.4,0.3-0.8,0.5-1.5,0.5
		c0.3-0.5,1.1-1.8-0.5-1.5c0.5-0.7,1.3-1,2-1.5c-1.2-0.8-1.7-2.3-2.4-3.4c-0.2-0.6,2.4-0.2,2,1c-1.6-0.9-0.4,0.1,0,1
		c1-0.5-0.5-2.2,0.5-3.4c-1.7,0.9-2.3-0.6-2.9-2h2c0-1-1.3-0.6-1-2c1.5,2.3,1.5-1.6,3.4,0c0.9-2.2,1.9-7.5-1-9.3
		c-1.1-1.2,0.9,0.8,1.5,1c1.1-0.1-0.6-1.2,0-2.4c0.9,0.4,1.1,1.5,1,2.9c1.3-1.5-0.1-5.3,0-5.9c0.4-0.9,1.1-1.9,2-1
		c-0.8-2.4,1.2-5,1.5-7.8c0.8,1.8-0.6,5.6-0.5,8.3c2-0.2,0.2-4,1.5-4.9c0.4,2.7,1.1,5,2,5.9c0.3,0.3,0.6,0.7,0.5,1.5
		c1.7-0.7,1.5-3.4,2.4-4.9c2.9,0.6,2.5-2.1,3.9-2.9c-1.2-1.8-3.1-2.8-5.9-2.9c0.1-0.6,0.9-0.4,1.5-0.5c-1.8-1.1-2.3-0.5-4.4-1
		c-1.6-0.6,1.3-0.6,2-0.5c-0.1-0.9-1.7-0.3-2-1c1.3-1,3.7,1.2,6.3,0.5c-2.1-1.4-1.5-2.6-2.4-4.9c1.2,0.4,2.2-0.7,0.5-0.5
		c0.5-1.5,1.6,0.2,2,0.5c-0.4,0.7-0.7-0.1-2,0.5c0.9,1.2,2.3,1.9,2.9,3.4c1.2-0.6-1.3-1.6-1-2.9c1.7,0.7,2.2,4.7,4.9,2.9
		c-1.3-0.9-1.4-3.2-2.9-3.9c1.4-0.8,3,4,4.4,3.4c1.1,0.1,0.2-1.7,0.5-2.4c2.2,1.5,1.9-0.7,2.9-2c2-2.4,5.5-4.1,7.8-5.9
		c2.4,0-1.6,3.5,0,2.4c1.4,1-1.4,1.8-1,3.4c3.1-0.4,4.5-4.9,6.8-4.4c-0.9-3.3,3.6-5.1,5.4-7.3c1.2,1.6-2.4,2.5-2.4,4.4
		C189.3,7.5,189.7,4.6,191.4,5.4 M148.4,68.9c-1.1-1-3.4-3.4-4.9-2.4C145.3,66.8,146.3,70.4,148.4,68.9 M228,17.6
		C229.2,20.1,229.3,15.9,228,17.6 M176.3,52.3c0.7,0.1,0.6,1.1,1,1.5c-6.1-1.2-11.9,4.3-14.2,8.8c0.2,3.8-1.1,6.1-1,9.8
		c-2.3,4.5-3.4,10.3-2.9,16.6c1,13.7,6.3,32.5,17.6,35.2c0.9,0.2,1.6-0.6,2.9-0.5c0.9,0.1,2.2,1,2.9,1c4.1,0.1,8.5-1.5,13.2-1
		c2.7-0.7,3.9-1.3,6.3-1.5c1.1-1.8,5.1-2.8,4.4-4.9c3-0.1,4.1-3.6,5.9-3.4c-0.5-0.2,0.6-2.1,0.5-2.4c0.3,0.7,1,0.9,2,1
		c0.4-1.6,0.4-1-0.5-2c2.7-0.5,2-3.7,3.4-4.4c-0.1,0.9,0.5,1.1,1.5,1c-0.6-1.6-0.7-1-1-2.4c1.3-0.1,0.4,1.9,2,1.5
		c-2-5.2,5.4-7,3.9-11.7c1.5,0.2,1.4-1.2,2-2c-0.5-2.6-0.5-7.4,0.5-10.7c-1.6-10-3.5-14.5-5.9-23c-1.4-1.2-2.9-2.3-3.4-4.4
		c-3.8,0.3-2.5-1.5-5.4-2c0.4-0.1,1,0,1-0.5c-4.9-1.1-8.2,0.8-12.7,0c1.3-1.3-1.6-1.2-1.5-2.9c3.2-2,8.3-0.5,10.7-1.5
		c-3.1-3.9-10.3-1.9-15.1,0.5c-0.8-0.7-1.7-1.2-2-2.4c1.8-1.4,1-1.3,2-2.4c-1-1.8-3.8,0.9-5.4,1.5c-2.5,0.4-3.5,2.3-6.3,2.4
		c-0.8,1-1.6,1.9-3.4,2c-0.3,1.9-0.6,2.7,0.5,4.4C178.6,52.1,177.2,51.6,176.3,52.3 M168.9,44.5c-1.4,3.9,2.2-2,1-0.5
		C169.4,44,169.3,44.4,168.9,44.5 M175.3,45.9c0,0.3,0.4,0.6,0.5,0c-1.6-0.2,1.9-1.5,0-2C175.3,45.5,172.6,47.8,175.3,45.9
		 M180.7,44.9c-2.6,0.3-3.6,2.3-5.4,3.4C177.6,47.7,179.2,46.4,180.7,44.9 M167,47.4c0.1-0.6,0.9-1.1,0-1.5
		C166.9,46.5,166.1,47,167,47.4 M155.3,56.7C154,60.6,156.7,53.4,155.3,56.7 M246.6,60.1c1.7-0.3,2.9-0.1,3.9-2
		C249.3,58.9,247.2,58.8,246.6,60.1 M150.9,61.6c0.3-1.3-0.2-1.8-1.5-1.5C149.1,61.4,150.4,61,150.9,61.6 M145,64.5
		c2.1-0.1,2,1.6,3.9,0.5c0,0.5-0.4,0.6-0.5,1c1.9,0.4,0.9-2.6-0.5-2C148.2,66.5,145.9,62.3,145,64.5 M245.1,69.9
		c0.3,0.4,2.7,1.1,2.9,0c-0.9-0.4-1.4-1.2-2.4-1.5C245.6,69.1,245.4,69.5,245.1,69.9 M248.5,82.6c0.2-1.2-2.5-3.5-1.5-2.4
		C247.2,81.2,247.6,82.2,248.5,82.6 M247.1,83c0.6,0,0.4,0.9,1,1c0.2-0.7,0.6-0.8,0-1.5C247.7,82.7,247.1,82.6,247.1,83 M246.1,87.9
		c0.1-2-0.1-3.8-1-4.9C244.6,84.4,243.9,87.9,246.1,87.9 M236.8,94.8c-0.1-0.9,1.2-4,0-2.9C237.3,93.1,235.3,94.2,236.8,94.8
		 M225.1,103.6c1.1,2.9-1.5,1.6-0.5,4.4c-1.8-0.5-0.2,2.4-2.4,1.5c-0.2,4.3-5.7,8.2-7.3,10.7c8.4-4.2,15.6-12.1,15.1-23.4
		c-0.2,0.9-0.5-0.2-1-0.5C227.4,99.4,227.2,101.2,225.1,103.6 M148.4,106.5c-0.1,0.6-0.9,1.1,0,1.5c0.2-1.8,3.2-3.3,2-4.9
		c-0.8,0.8-1.1,2.2-2,2.9c0-0.3-0.4-0.6-0.5,0C148.2,106,148.5,106.1,148.4,106.5 M159.7,105C160.8,107.5,160.9,103.3,159.7,105
		 M231.4,107.5c-0.1-1,2.1-2.1,1-2.4C232.4,105.9,229.9,106.7,231.4,107.5 M160.1,108.9c0.7,0.2,0.9,0.7,2,0.5
		c0.4-0.6,0.6-1.3,0.5-2.4C161.4,107.2,160.1,107.4,160.1,108.9"/>
	<path class="st1" d="M158.2,10.8c0.9,0.1,0.3,1.6,1.5,1.5C159.5,13.3,158,11.7,158.2,10.8"/>
	<path class="st1" d="M212.9,59.6c1.2,1.9,4.2,2,3.9,5.4h-16.1c-0.3-3.4,1.7-4.5,2.9-6.3c5-1.6,8.3,1.2,10.3,0.5
		c0.4,0.9,1.1,1.5,2,2C215.2,62.1,214.1,59.5,212.9,59.6 M206.5,64c2.9,0.1,5.3-0.3,6.3-2c-1.5-0.6-2-2.3-4.4-2
		C208.7,62.3,207.2,62.7,206.5,64 M206,62.5v-1C205.1,59.9,203.7,63,206,62.5 M203.1,64.5c0-0.8-0.4-1.3-1-1.5
		C202.2,63.8,202.1,64.7,203.1,64.5"/>
	<path class="st1" d="M180.2,63.5c-0.9,0.5-3.2-1.3-4.4-1c-1.5,0.6-1,3.2-2.4,3.9c1.8,0.8,6.9,0.8,6.8-2c1.1,0.1,1,1.2,1,2.4
		c-5.2,0.6-11.9,2-15.1,2.9c-2.2-4.6,3.2-11.9,10.7-8.8c0.4,0.1,0.5-0.2,0.5-0.5C177.3,61.3,178.9,62.6,180.2,63.5 M171.9,64
		c-0.1,1.3,0.7,1.6,2,1.5C174.3,63.8,173.1,63.9,171.9,64"/>
	<path class="st1" d="M146.5,76.7c-1,1.1-2.7-0.5-3.9,1C141.5,76.5,145.5,74.6,146.5,76.7"/>
	<path class="st1" d="M148.9,79.1c0,0.4,1.9,0.4,2,0c0.5,2.1-0.9,2.4,0,5.4c-2.4,1.1-11.9,5.3-10.7-0.5c0.7,0.2,0.4,1.2,0.5,2
		c3.2,0.3,4.8-1,6.8-2c-0.1-1.1-2.1-0.2-2.9-0.5c-1.7-1.3,3.9,0.6,2.9-1.5c1.4,0.4,1.5,0.4,2.9,0c-2.1-0.6-7.2-1.2-10.7-2
		c0.1-0.4,0.5-0.5,0.5-1c0.4,0.1,0.5-0.2,0.5-0.5c0.7,0.2-0.1,0.4,0,1c2.3-1.1,5.4-0.2,7.3,0.5c0.8-0.5,0.2-3.3-0.5-2.4
		c-1.6-2.2,4,1,2-1c0.5-1.4,1.6,0.6,1.5,1.5C150.1,78.4,149.6,78.9,148.9,79.1"/>
	<path class="st1" d="M251,87.4c0.9-1.2,0.1,0.8,0,1.5c-1.4-0.1-0.9-2-1-3.4h1.5c0.4,1.5-1.7,0.6-1,2.4
		C250.9,88,250.9,87.7,251,87.4"/>
	<path class="st1" d="M194.8,102.6c1.8-1.5-2.7-0.9-3.9-1c-0.1-1.3-0.1-2.5,1-1.5c-0.1-1.5-4.1-0.8-3.4,1.5
		c-3.5,0.2-5.6-0.5-6.8,2.4c-1.4-0.3-2.5-0.7-3.9-1c1.2-8.9,9.9-8.5,16.6-8.8c4.2,0.9,7.8,2.3,10.3,4.9c-0.1,2.2-2.2,5-3.9,3.9
		c-2.7,3-9.4,4.6-14.6,3.4c2.8-3.2,5.7-0.8,9.3-2.9C195,103.1,193.8,101.4,194.8,102.6 M188,100.6c1.2-1.2-1.6-1.3-1.5-0.5
		C186.5,100.1,188.2,100.4,188,100.6"/>
	<path class="st1" d="M156.7,112.8c0.8-1.8,0.8,1.1,1.5,1C157.7,115.3,157.4,112.7,156.7,112.8"/>
	<path class="st1" d="M172.4,151.4c0.4-1,1.8,1.1,2.4,1.5C174.1,154.2,173.3,151.5,172.4,151.4"/>
	<path class="st1" d="M148.4,175.3c-0.9-0.4,0.3-0.5,1-0.5c3.8,0.9,8,1.5,11.7,2.4c1.8-0.2,0.7,0.9-0.5,0.5c-1.8-0.6-3.9-1-6.3-1
		C152.7,176,150.7,175.5,148.4,175.3"/>
	<path class="st1" d="M279.3,291.6c4,2,11.5,1,11.2,5.9c-4.3-1-13.9-4.8-21-3.9c-2.4-1-6.2-1.3-9.3-1.5c-2.2-0.1-5.2,1.1-6.3-1
		c-0.4,0.2-0.9,0.4-1,1c-1.1-1.8-5.8,0.4-6.8-1.5c-0.8-0.2-0.9,0.4-1,1c-1.9-3.3-6.7-0.6-8.8-3.4c-1,0-0.6,1.3-2,1
		c0.4-1.3-2.1-1.1-2-1c-0.1-0.1,0.1-0.9,0-1c-0.7-0.2-3.3,0-3.4,1c-1-0.3-1-0.8-0.5-1.5c-0.8-1-1.1,2.1-2.9,0.5
		c0.4-0.9,0.9-0.1,1.5,0c-0.6-1.7-3.3-1.2-3.9-2.9c-1,0.1,0.7,1.3-0.5,2c-0.7-0.2,0-0.4,0-1c-4.9-1.4-18.6-9.9-25.4-9.3
		c0.5-1.9-1.5-1.5-5.4-3.4c-2.6-1.3-3.6-2.9-6.8-3.4c-3.6-0.5-7.5-0.8-10.3-2.4c1.8-0.7-5.1-1.7-4.9-5.4c-0.7,1.2-1.5-0.9-2,0.5
		c0-0.8-1.5-3.1-3.4-2c-2.9-9.3-13.2-11.2-22.5-14.2c-0.9-0.3,0.5-0.8,0.5,0c1.9,0.4,1.7-1.2,2.9-1.5c-1-8.5,0.2-19.2,2.4-26.9h2.4
		c1.1,1.2,1.1,3.5,1,5.9c1.9-0.7,0.6-4.6,1-6.8c2.6,2.3,0,8.8-1,10.7c0.4,7.2,0.6,14.7,2.4,20.5c6.1,5,11.7,10.4,20.5,12.7
		c2.5-1.2,5.8-2.7,9.3-1.5c2,2.7,3.4,8.2,7.3,7.3c-1,1,0.2,1,0.5,2c3.5-2.3,5.5,0.6,8.8-3.4c1.1,2.3,4.6-0.3,5.4,2
		c-1.7,1.8-2.7,3.4-2,4.9c-1,0.5-1,0.5-0.5-0.5c-1.7,0.5-1.5,3-2,3.4c14.6,7.1,33.1,12.8,50.8,15.1c6.4-6.9,4.8-16.7,7.3-25.4
		c3.9-6.7,5.4-18,6.8-27.8c0.9-5.8-0.6-15.8,1-21c0.8,1.2,0.7,3.2,1,4.9c1.4-0.8,0.5-4.1,1.5-5.4c-0.1-1,0-5.6,0.5-2.9v2.9
		c-0.1,3.3-0.1,4.7-0.5,6.8c-0.2,0.8,0.4,0.9,1,1c-0.3,0.7-0.7,1.2-1,2c1.7,12.6-3.9,23.3-4.9,34.7c-0.8,9.5,2.5,17.5,5.9,25.9
		c0.7,0.1,0.9,0.7,2,1.5c0.4,2.5-0.3,3.8,1.5,5.4c3,0.3,4.4-1.1,5.9-2.4C281.2,290,278.7,290.3,279.3,291.6 M261.2,266.2
		c0.7-0.3,2.5,0.6,2.4-0.5c-1.2-1.3-0.1-4.8-2-5.4C261.5,262.2,262.2,265,261.2,266.2 M267.1,286.2c-1.4-1.1-0.2-2-0.5-4.4
		c-1.7-2.5-2.6-5.8-4.4-8.3h-1.5c-2.5,3.2-3.8,7.6-4.4,12.7c0,1.8-0.4,4,1,4.4c1.9,0.3,1.2-2,2.4-2.4c0.2,1.1-0.1,1.9-0.5,2.4
		c3,0.1,7.5,1.3,10.3,0c-1.2-0.9-3.2-1-3.9-2.4C266.9,288.3,266.9,287.1,267.1,286.2"/>
	<path class="st1" d="M253.4,254c7.4,1.7,3.3,11.9-1.5,12.2c-0.6-1.7-4.1-3.8-2.9-8.8C250.6,256.3,251.2,254.4,253.4,254"/>
	<path class="st1" d="M158.7,325.3c0.1-0.8,2.3,0.2,2,1.5C159.6,326.6,159.7,325.4,158.7,325.3"/>
	<path class="st1" d="M250,317.9C248.8,316.6,251.4,315.1,250,317.9"/>
	<path class="st1" d="M251.5,318.9c0.4-1.1,1.7,0.8,2.4,1C253.1,321.4,252.4,318.9,251.5,318.9"/>
	<path class="st1" d="M255.4,321.8c0.3-1.4,0.8,0.7,1.5,0.5C256.4,323.9,255.9,321.8,255.4,321.8"/>
	<path class="st1" d="M160.1,327.7c0.5-1.5,1.3,0.6,2,0.5C162,329.3,160.8,327.6,160.1,327.7"/>
</g>
</svg>
