<?xml version="1.0" encoding="utf-8"?>
<!-- Generator: Adobe Illustrator 19.0.0, SVG Export Plug-In . SVG Version: 6.00 Build 0)  -->
<svg version="1.1" id="Layer_1" xmlns="http://www.w3.org/2000/svg" xmlns:xlink="http://www.w3.org/1999/xlink" x="0px" y="0px"
	 viewBox="0 0 318 378" style="enable-background:new 0 0 318 378;" xml:space="preserve">
<style type="text/css">
	.st0{fill:none;stroke:#EBEBEF;stroke-width:2;}
	.st1{fill:#EBEBEF;clip-path:url(#SVGID_2_);}
	.st2{clip-path:url(#SVGID_2_);fill:none;stroke:#EBEBEF;stroke-width:0.494;}
</style>
<line class="st0" x1="0" y1="378" x2="292.3" y2="378"/>
<g>
	<defs>
		<rect id="SVGID_1_" x="30.7" width="262.6" height="378"/>
	</defs>
	<clipPath id="SVGID_2_">
		<use xlink:href="#SVGID_1_"  style="overflow:visible;"/>
	</clipPath>
	<path class="st1" d="M230.1,165.7C230.1,165.7,230.1,165.7,230.1,165.7c-0.2,1.6,1.5,1.2,1,3c-1,0-0.6,1.3-2,1
		c-3.9-1.2-3.2-7.8-5.9-8.9h1.5c-2.2-1.5-5.2-5-6.4-5.9c3.5,3.6,3.6,8.3,5.9,11.8c1.6,2.5,6.5,3.8,5.9,8.4c-6-1.5-10.2-4.5-15.3-4.9
		c1.5,0.6,3.1,1.2,3.9,2.5c-0.6,0.2-1.1,0.5-1.5,1c5,0.7,4.4,6.7,3.9,10.9c-1.4-0.4-2-1.6-3.9-1.5c-1.6,0.6-2.6,1.7-4.4,2
		c-13.6-4.1-32.5-0.7-38,9.4c9-2.6,18.5,2.5,26.2,3c0-4.1-5.8-5-3.9-9.4c3.1,2.3,8,2.9,10.9,5.4c-1.2,1.4-2.7-0.1-3.8,1.2
		c0.7-1.2-1-2.1-1.7-1.2c0.9,0.9,1,2.6,1.5,3.9c-0.6,0.2-1.1,0.5-1.5,1c1,1.6,0,3.2,0.5,4.9c2,6.6,9.6,12.4,12.3,18.8
		c0.6,1.4-0.1,3.4,0.5,4.9c2.6,7,9,11.3,12.8,16.8c1.2,1.7,1.9,3.8,3,5.4c2.4,3.7,4.9,6.5,6.9,10.4c0.7,1.3,2.1,3.1,1.8,4.7
		c0-0.1-0.1-0.1-0.3-0.2c-0.4,2.5,1.5,2.3,1.5,4.4c3.8,1.9,7.3,5,12.8,4.4c5-0.5,8.1-3.5,9.9-7.4c2.2-15.5-3.6-28.3-4.4-40.5
		c-0.6-8.2,1.1-17.1-1.5-24.7c-1.1-3.3-4.4-5.7-5.4-9.9c-0.7-2.9,0.9-5.4-2-7.4c-0.1,0.9-0.3,1.6-1,2c-3.2-4.1-2.6-11.9-4.9-16.8
		c-1.5,1.4,1.3,5.2-0.5,6.9c-2.5-3.6-4.7-7.5-9.4-8.9c-2.8-5.9-6.5-15.4-4.9-21.2c1.2-0.1,1.5,0.8,2.5,1c0.7-3.7,0.2-11.6,1-16.8
		c-2.4,0.4-2.1,3.5-3.5,4.9c-2.8,0.5-3.4-2-4.4-2c0-2.3-0.9-2.8,0.5-3c-2.4-4-1.9-9-1-11.8c4.5,2.7,3.2,9.4,5.9,14.3
		c0.5-5.9,3.1-9.6,1.5-17.8c-2,0.2-2.9-0.7-3-2.5c0.8-1.3,2.8-1.5,3.9-2.5c0.4-4.9,0.2-10.7,2.5-14.8c-3-8.4-10.1-12.2-13.8-18.8
		c-1.8-0.6-2.6,0.2-3.9-0.5c0.2,0.7,2.4,3.3,0,3.5c-1.2-1.1,0.1-4.7-1.5-5.4c0.7,20.9-10.6,35.3-14.3,55.8c1.6,3.5,3.9,6.3,6.4,8.9
		c-1.2,1.8-0.4,6,0.5,7.4c1.1-0.7,3.1,0.3,3.9,2.5c1.3-1.3-0.4-5.6,1-6.9c0.9,0,1.5-0.1,2-0.5c1,3.9,3.7,6.1,6.4,8.4
		c1.7,3.5,2.8,9.9,6.4,9.9c-1.3,4,4.8,4.2,4.9,8.4C232.1,169,230.2,165.8,230.1,165.7 M293.3,253.6V378h-99.2
		c-1.8-12.6-2.8-21.6-2.5-38c-0.2-1.3-0.7-2.3-1.5-3c0.8-1.1,0.8-6.3,1-9.4c0.6-13.4,2.7-28.7,0.5-39.5c-2.8-13.5-2.5-30.9-4.9-44.9
		c-0.9-5.2-3.4-8.5-4.9-14.8c-1.2-5-3.8-10.2-4.4-14.3c-0.7-5,2.5-11.8-3-12.8c-1.5,1.4,1.6,2.3,1.5,3.9c-1.2,0.1-1.5-0.8-2.5-1
		c-0.7-1-0.2,1.3-1,2c-0.6,0.5-2.7-0.3-2.5-0.5c-1.8,1.5-1,3.6-2.5,7.4c-1.1,2.8-3.4,5.4-3.9,7.9c-0.9,4-0.4,8.4-1.5,11.4
		c-0.3,0.9-1.2,4.4-1.5,7.4c-1,0,0.9-1.9-1-2c-0.7,1.8-2,4.2-1,6.9c0.5-2.3,1.9-0.5,2.5-1c1.1,0.5-0.9,2-2.5,1.5
		c3.7,1.3,0.1,6.8,1,9.6c0,0.3,0.1,0.6,0.3,0.7c0.2,1.2-0.3,2.9-0.3,4.5c-0.1,5.5,2,3.8,1.5-1c1.1,3.2,2.1,3.9,1,7.4
		c1-1,0.5-1,1.5,0c0.5,1.7-1.5,0.8-2.5,1c0.2,0.9,1.4,0.9,1,2.5c0.2,0.6,2.2,1.7,2.5,0.5c1,4.4,1.9,4.6,1,9.9c0.4,1.1,2.2,0.8,3,1.5
		c-1.2,1.6-1.5-0.5-3,1.5c2.8,9.5,2.8,15.3,6.4,24.2c1.3-8,1.6-16.4,1-22.7c1.8-1-0.5-4.1-1-6.4c-1.6-8.2-2-17.9,1.5-25.7
		c-0.3-1.4-0.7-2.6-1-3.9c0.7-2.1,3.5-4.7,2.5-6.9c0.5-1.5,1.3,0.6,2,0.5v-4.9c-1.2,0.3,0.1,3-1,3.5c-3.1-4-0.8-5.7-3.5-9.4
		c1.8-2.2,1.5-3.8,2.4-6.6c0.1,0.7,1.7,1.4,1.2,0.3c2.7,4.7,1.9,19.4,1.4,25.5c-1.4,17.5,0.8,35,4.9,48.9c-1.5,4-0.2,14.7,1.5,19.2
		c-3,4.5,0.4,7,0,13.8c1.6,8.4,4,20.8,3,30.6c-0.6-0.1-0.4-0.9-0.5-1.5c-1.3,1.2-1.6,3.4-2.5,4.9c1.9,0,2-2,3-3
		c-0.2,3.9-1.1,7.7-2.5,10.4c0.3,1.6-1,0.8-1.5,0.5c0.6,1.5,0.4,1.9-0.5,3c0.1-1.8-1.2-3.3-1-4.4c-1.8,0-4.1,1.6-3.9,4.9H30.7v-9.9
		c1.6-0.4,1.9,0.4,2.5,1c0.5-6.1-0.3-15.3,0.3-22.9v0c0.1-2,0.4-4,0.7-5.7c-0.2,0.4-0.6,1.7-1,3.2l-1.3-10.2c0.2-4.6,0.7-9,1.3-13.2
		c2.2-8.7,9-27.7,9.9-36c1.4-0.5,0.1-2.5,2-1.5c-1.2-3.3,3.1-9.3,2.5-11.4c-0.8-2.7,2-12,3-16.3c4.7-21.9,10-53.5,24.2-65.6
		c1.7,0.1,1.4,2.2,2.5,3c1.2,0.2-0.3-2.2,1.5-1.5c-0.1,0.9,0.5,1,0.5,0.5c1.7,6.4-0.6,11.6,0,18.3c0.3,3,2,4.9,3,8.9
		c1,4.4,2,11.9,2.5,16.8c0.6,6.7-2.1,8.1-2.5,12.8c1-0.2,1.8-0.1,2-1.3c0.7,11.2,10.6,19.1,11.3,29c7.3,2,10.9-4.3,15.8-1.5
		c3.8-3.3,2.5-8.9,3.5-14.8c1.1-6.8,3.4-13.2,7.4-19.7c2.5-4.1,3.4-12.8,4.9-16.8c1.9-4.7,5.8-10.3,3.5-18.3
		c11.7-6.3,17.8-18.1,30.6-23.2c-1.6,3.5-5.4,4.9-6.4,8.9c3.3-0.5,6.9-4.9,10.4-6.9c5.7-0.8,7,2.8,11.4,3.5c0.6-0.6-1.5-2.7-3-3
		c3.3-1.7,6.4,2.8,4.4,6.4c4.9-8.3-8.8-12.7-14.8-12.3c-2.1,0.1-4,1.6-5.4,2c-2.2,0.5-4.6,0-6.4,0.5c-12.8,3.2-17.7,14.8-29.1,18.3
		c-0.6-6.4-2.7-15.2-10.4-11.4c-0.8-4-1.8-7.8-6.9-7.4c-0.1-3.6,1.5-4.3,1.1-6.6c0.5,0.1,1.2,0,1.9-0.3c-0.2-0.7-0.6,0.2-1.5,0
		c3.2-1.3,2.4-5.7,6.4-7.9c-0.3-2.5-1.2-2.5,0-4.4c1.1-0.5,2.2,1.4,2-2c1.5-0.2,2,1.2,2.5-0.5c1.1,0.1,0.2,2.1,0.5,3
		c1.3-4.2,5.9-6.9,6.4-10.4c1.4,2.6-0.8,4.9,0.5,7.4c2.8-2.4,3.3-9.7,6.4-8.9c1-0.7-1.5-2.1-2.5-2.5c2.2-1.3,4.4-2.5,4.9-5.4
		c1.4,0.5-0.7,1.3,0.5,2c1.7-2.3,0.1-6.1-1.5-7.9c2.5-0.6,4.7,4.7,7.9,3.5c-1.1,1.1,0,2.5,0.5,3.5c2.7-2.1,3.3-4.1,3.9-7.4
		c2.2,2.3,3.9,2.2,6.4,4.4c3.3-1.2,4.2-4.9,3.5-8.9c3,5.2,10.8,5,18,4.6h0c2.8-0.1,5.5-0.3,8.2-1.3c0,0,0,0,0,0
		c2.9,0.4,6.1-3.7,8.8-0.3c-0.9,3-3.2,3.8-5.4,4.4c-3.1,0.9-3.5,4.5-4.9,5.4c-5.2,3.4-12.7,2.3-16.3-1c-0.7-0.6-1.3-3.4-2.5-4.4
		c-1.6-1.5-2.6-1.3-5.4-1.5c-0.6,0.9,0.4,4.1-1,5.4c1.5,2,3.8,2.9,3.5,5.4c4-2.1,8.2,0.8,10.9,3c2.6-0.9,7.1,0.2,8.4-2
		c10.7,2.7,12.6-10.8,21.7-12.8c5.2-8.7,6.8-22.6,10.4-32.1c0.3-0.8,1.6-3.9,2.5-3.5c-1.2-9.2-0.1-22.7-6.4-28.1
		c-9.2,5.9-14.9-5.4-24.7-1.5c-2.7-2.7-7.9-1.9-9.9,1c-1-2.9-6.9-4.5-7.4,0c-1.6-0.5-2-2.3-3.5-3c-5.3-1-9.1,2.5-12.8,2.5
		c-3.2,0-7.4-2.9-10.4,0c1.2,0,1,1.1-1,1.5c0.4,4.9-4.1,8.6-4.9,13.8c-1.9,11.9,4,22.7,7.4,30.6c0,4.2,2,6.6,3,9.9
		c-2.5-1.1-1.3-2.9-2.5-5.4c-1.4,0-2.1,1.9-3.5,0.5c-1-2,0.6-3.4,2-4.4c-3-7.3-4.5-16.3-10.4-20.7c-4.4,10.9-7.6,23-14.8,31.1
		c-5.1,2-9.2,5.8-11.4,9.4c-4.9,1.7-6.9,6.2-9.4,10.4c1.5-0.9,5-2.6,4.4-3.9c0.2-1.2,1.9,0,1.5,1c1.1-1.7,3.2-2.4,4.9-3.5
		c-0.9,4.6-3,8.9-3.9,15.3c-1.5-1.4,0.1-3.2-1.5-4.9c-3.2,6.4-3.8,16.2-4.9,23.2c-1.6-0.9-1.5-3.4-2-5.4c3.5-2.7,1.4-8,3.5-11.8
		c-1.3,2-2.1,4.5-3.5,6.4c0.3-3.3-0.4-11.1,0.5-14.8c-0.2-0.7-0.9,0-1,0.5c0.1-2.1,5-8.7,3.9-10.4c2.8-11,8.3-23.6,14.8-32.6
		c0-0.7,0.1-1.4-0.5-1.5c10.5-20.5,22.5-48.3,39.5-63.2c-1.5,5.6-6.3,9.9-9.4,16.3c-2.2,4.4-5.5,7.9-7.4,12.3c1.1,0.8,1.2-2.7,3-0.5
		c1.6-1.3,0.7-5.2,3.9-4.9c0.2,3.1-1.9,4-2.5,6.4c3.1-2.2,3.1-6.4,5.6-8.2c-0.3,0.6-0.5,1.2-0.7,1.8c0.3-0.7,0.7-1.2,1-2
		c-0.1,0.1-0.2,0.1-0.3,0.2c3.6-8,12.5-11.4,20-14c1.6,0.4,1.6,2.4,3.5,2.5c3.9-0.6,4.7-4.1,8.9-4.4c-2.2-1.8,7.6-2.1,9.9-5.4
		c-2.2-2.6-7-2.5-7.4-6.9c1.4-0.5,3.5-0.4,4.9-1c0.2,1.1-0.7,0.9-1.5,1c2.3,0.6,4.2,2.9,6.4,1c-1.3-3-7.4-2-10.4-2.5
		c-0.2-1.6,2.4-0.2,2-2c-1.1-1.7-4.9-0.4-4.9-2c0.5-0.6,2.3-1.7,1.5-2c2,0.6,0.5,1.6,3.4,2.9c1.9-0.5-0.6-2.4,2-2
		c-0.3-1-2.5-0.1-2-2c-1.4,0.4,1.2,2-1.5,1.5c-0.8-1.3,1.9-2.1-1.5-1.5c3.8-2.3,9.5,0.1,10.9,1.5c1.1-3.1-4.6-3.2-5.9-5.4
		c-0.4-1.5,1.7-0.6,1-2.5c0.7,0.3,1.2,0.8,1.5,1.5c1.1-0.5-1.4-1.5-1-3c1.7,0.2,2.5,0,3,0.5c-0.1-0.6-0.7-2.8-1.5-3.5
		c4-0.4,7-0.7,10.9,1c-0.9-2-3.7-2.6-5.4-4.9c-0.4,3.1-2.4-2.5-4.4-1.5c0.2-1.9,0.3-1.9,1.5-3.5c8.5,0.5,12.6,6.9,16.8,10.4
		c-1.3,2.2,3.7,5.8,1.5,8.4c0.6,0.6,2.4,1.9,0.5,1c1.4,1.6,1.4,0.3,2.5,1.5c-1.3,2.9,2.4,5.1,2.5,7.9c-1.2,1.6-2.3,1-3.9,1.5
		c2.2,1.1,2.3,4.3,4.4,5.4c0.6,0.2-1.5-3.7-1.5-3c-1.4-1.8,1.8-0.4,1.5,1c0.6-0.1,0.4-0.9,0.5-1.5c1.5,0.8,0.9,3.7,3,3.9
		c0-0.8-0.4-1.3-1-1.5c0.6-0.9,4.1,2.2,2.5,3.5c0.4,0.7,0.7-0.1,2,0.5c0.7,6.7,5.9,11.4,10.3,16.8c0.5,0.7,1,1.3,1.5,1.9
		c-0.5-0.7-1-1.3-1.5-1.9c-8.6-12-9.5-31.6-19.2-43c-5.8-6.8-21.2-17.7-35-16.8c-7.2,0.5-15.7,1.6-22.2,3.9
		c-21.4,7.7-27.9,24.8-33.6,50.8c0,0-0.4,1.1-0.5,1.5c-2.7,6.6-9.1,12.8-10.4,21.7c-0.6,4.2,1.4,8.4-2.5,12.3
		c0.7,6.5-3.1,11.8-4.9,17.8c-2.7,9.2-3.7,19.2-5.4,28.6c-1.2,6.3-5.1,9.9-5.4,17.8c0.8-1.2,2.3-8.3,2-5.9c-0.1,4.4-2.4,10.1,0,13.8
		c0.8,0.2,0.9-0.4,1-1c1.8,1.9-1.3,1.2-1,2.5c-1.1-0.9-1.6-2.5-1.8-4.4c0.1-1.2,0-2.6-0.2-4c0,1.4,0.1,2.8,0.2,4
		c-0.3,6.1-3.2,9.9-4.2,16.2c-8.2,3-11.3,11.1-14.8,18.8c-1,0.9-1-0.4-2,0.5c-4.5,10.3-7.1,22.5-11.8,32.6
		c-6.4,32.4-15.9,61.8-22.7,93.8v-4.9c7.3-30.2,15.5-59.6,22.2-90.3c2.5-5.3,4.9-11.4,6.9-17.3c1.7-4.8,2.6-9.8,4.4-14.3
		c0.9-0.4,1.4-1.2,2.5-1.5c2.2-8.8,7.7-14.3,14.8-18.3c-0.5-4.6,3.3-8.1,3.5-12.8c0.1-2.6-1.2-5-1-7.4c0.6-6.3,4.1-11.1,6.4-16.3
		c-0.7-18,9.1-29.8,9.9-47.9c1.1-1.2,1.9-2.7,3-3.9c-0.2-13.7,4.5-22.1,10.4-30.6c2.4-11.9,5.7-22.9,10.4-32.6
		c3.9-3.6,6.6-8.5,10.4-12.3C145.1,6.3,159.5,0,178.3,2.4c11.4,1.5,20.4,10.7,27.6,15.3c4.5,7.8,10.1,16.4,12.8,26.2
		c0.7,2.5,0.5,5.4,1.5,7.9c3.3,8.1,9.2,14.1,13.8,20.2c0,5.3,4.7,11,4.4,13.3c-4.2-7.6-5.1-15.4-11.8-20.2c1.5,2,2.7,4.2,4.4,5.9
		c-1.3,6,6.5,9.1,5.9,14.3c-2.9,0.7-5.9-6.9-9.9-8.4c2-1.2-3.1-2.3-0.5-2.5c-3.3-2.4-5-6.5-8.4-8.9c4.8,9.6,10.7,15.1,16.3,23.7
		c1.5,0.7,1.9-0.2,3,0.5c0.4,3.8,3.1,5.4,3.9,8.9c1-0.9-0.8-3.2-1-4.4c-0.4-2.2,0.8-3.4,0.5-0.5c4.6,7.9,6.5,18.7,6.9,31.1
		c0.4,10.4-0.9,22.2,1.8,29.1c-0.9-1.1-2-2.2-2.3-4c-1.9,0.4-2.4,2.2-3,3.9c-0.7-0.9-1.6-1.7-2.5-2.5c0.4,3.1,1.9,7,4.4,6.4
		c-2,7.2,2,11,3.5,17.3c1.2-2.3-1.1-5.4-0.5-8.9c3,0.6,5.3,1.9,7.4,3.5c-0.6-4.2-2.5-7.1-3.9-10.4c2.5,2.2,3,6.5,4.9,9.4
		c10.2,4.6,17,12.3,18.3,26.6c0.5,5.7,4.3,10.5,5.4,16.3c0.8,3.9,0,8.3,0.5,12.3c0.4,3.7,2.3,6.9,3,10.4c0.8,4,0.1,8,2,11.4
		C288.6,248.9,292.7,250.2,293.3,253.6 M273.5,191.4c0.2-0.9,0.5,0.2,1,0.5c-1.6-4.4-2.4-12.1-6.2-12.8c-0.1,0-0.2,0-0.2,0
		c0.1,0,0.2,0,0.2,0c1.2,0.3,1.6,2.8,0.7,2c-0.2-0.2-0.3-0.4-0.5-0.6c0.2,0.3,0.3,0.5,0.5,0.6C271.3,184.2,273,188.2,273.5,191.4
		 M258.2,290.6c1.7-2.1,0.3-8.7-4.4-6.9c-2,3.7,0.3,6.8,3.5,7.4C257.2,290.2,257.6,290.1,258.2,290.6 M242.4,278.8
		c9.6,4.9,24-0.6,26.2-7.4C264.3,278.1,251.6,281.6,242.4,278.8 M205.9,289.2c-1.7,0.1-1.6-1.7-3-2c-0.1,4.9,2.1,3.9,0.5,4.4
		c-0.3,1.3,1,1,1.5,1.5C205.8,291.3,204.5,290.3,205.9,289.2 M203.5,284.7c0.8-2.6,0.4-4.9-0.5-6.9
		C203,280.4,202.8,284.3,203.5,284.7 M201,224.5c-2-0.2-1.5,2.1-3,2.5c-1.6-0.6-3.3-1-5.4-1c0.7,6.2,2.6,12,3.5,18.3
		c0.7,5-0.7,11.1,3,13.3C197.6,251.3,194.4,231.2,201,224.5 M200,269.4c-0.3-1.8,0.6-4.9-0.5-5.9c-0.1,0.9-1.6,0.3-1.5,1.5
		C199.7,266.5,198.7,268.2,200,269.4 M179.3,367.6c3.1,0.4,3.8-1.1,3-3.5c-2.9,0.3-1.7,1.8-5.4,1c0,1.5-2.1,3.4,0.5,3.5
		c0.2-1.2-0.9-1.1-0.5-2.5C178.2,365.5,179.1,365.9,179.3,367.6 M159.5,274.9c-0.3-1.8-0.3-4,0.5-5.9c-1.6-4.2-1-16.7-3-21.7
		c1.7,1.6,1.1-2.9-1-2c-0.6,2.2,0.8,5.5-1,6.4c0.6,2.4,1.8,6.6-1,9.4c0.8,0.8,3,6.3,1,3.9c0.9,2.4,0.6,3,2,4.9
		c-0.4-1.6,0.8-1.5,1.5-2c-0.2,1.4-1.3,2-2,3C158.7,272.5,157.8,272.3,159.5,274.9 M147.2,212.7c10.1-4.7,13.7-15.9,19.7-24.7
		c-7.4,0.8-10.4,6-15.3,9.4c0.9-1.8,2.8-2.5,3.9-3.9c-6.8,0.9-8.5,6.9-14.3,8.9c-0.2,0.8,0.7,1.3,0,1.5c-3,1.3-7.7,1.6-9.9,4.9
		c2.9-0.3,4.3,1,5.9,2c-1.2,1.3-1.1,3.6-0.5,4.4c3.4-1.4,7.9-4,8.9-4.9c0.3,1.8,2.3-1.1,2.5,0.5c-1.5,1.7-4.4,2.5-4.4,4.4
		c2-1.2,1.8-1.5,3-0.5C147.6,213.7,147.6,214.3,147.2,212.7 M150.6,374.1c2,0.3,4.9,2.3,6.4,1.5
		C154.8,375.5,153.1,372.3,150.6,374.1 M149.2,362.7c1.7,0.7,3.4-1.1,2-2c-0.7,1.8-0.1-1.5-1-1c-1.2,1.4-3.3,3.3-4.9,1.5
		c6.7-0.5,4.8-5.5,3-10.4c-2.6,0.3-4.4-2.8-6.4-1.5c1.5,0.5-0.6,1.3-0.5,2c1.2,1.2,3.4,1.6,4.4,3c0,0.9,0.1,1.5,0.5,2
		c-1.3-1.8-3.6,0-5.9,0c-1,3.4,1.1,7.3,4.4,7.9c1.7-0.9,3.2-2.1,4.9-3C149.7,361.9,149.4,362.3,149.2,362.7 M143.7,330.6
		c0.9-5.1,1.2-8.7,1-12.8c-4-3.1,0.6-8.8-3-12.3c0.4,4.6-1.1,10.8,1.5,15.8c-0.7-0.6-1.2-0.5-1.5,0.5
		C143.1,324,141.9,328.9,143.7,330.6 M144.7,348.9c0-1.3-0.8-1,0-2c-0.8-0.2-1.3,0.7-1.5,0c0.9-3,1.5-10.1,0.5-13.3
		c0.2,1.4-1.8,0.5-2,1.5c0.9,0.9,0.6,3,1.5,3.9c-2.8,0.1,0.4,5.7-2,7.4C142.8,346.9,142.6,349,144.7,348.9 M144.7,289.7
		c-1.7-0.3,0.2-4.4-1.5-5.9c-1.7,2.8-1.5,7.9,0,14.8c0.1-2.7,0.4-4.4,1.5-7.9C142.7,290.6,144.6,290.3,144.7,289.7 M135.3,153.4
		c0.8-4,4.4-7.7,4.9-10.4c-2.1,4.2-6.9,5.6-8.4,10.4H135.3z M129.4,160.4c0.6-1.6,2.1-4.8,1.5-5.9c-0.5,1.5-3.7,2.8-3,3.9
		C129.4,156.8,128,159.8,129.4,160.4 M127.9,76.5c2.2,0.5,1.8-4.1,1-4.9c-3.3,7.9-9.3,15.7-10.9,23.7c2.8-4.8,4.5-12.1,8.4-14.3
		c0.1-1-0.7-1-1-1.5c2.8,0,1.3-4.3,3-5.4C128.8,75.4,127.7,75.3,127.9,76.5 M110.7,279.8c0.2-1.2,0.8-1.9,0.5-3.5
		c-2.3-0.6-5.8-0.9-6.9,1c-3.8,0.4-9-2.2-10.9-0.5c2.1,0.1,3,1.5,1,2c3.2,1.2,8,0.9,9.9,3.5c0.6-1.4-2.4-1.8-1-2.5
		c0.7,0,1.1-0.2,1.5-0.5c-0.8,2.7,2,3.5,1,4.9C109.3,284.7,106.9,279.2,110.7,279.8 M99.3,145.5c-1,0.1-1-0.7-1.5-1
		c-1.8,4.6-5.6,12-1,4.4c0.2,0.8-0.7,1.3,0,1.5C97.5,148.7,98.7,147.4,99.3,145.5 M94.9,147.5c-1.4-0.4-1.3,0.7-2.5,0.5
		c0.2,3.2-0.1,4.8-2.5,4.4c0.4,2.4,1.5,1.8,2.5,3C93,152.5,94.8,150.9,94.9,147.5"/>
	<path class="st1" d="M274.5,191.9c-0.5-0.3-0.7-1.4-1-0.5c-0.5-3.2-2.2-7.3-4.5-10.3c0.8,0.8,0.5-1.7-0.7-2
		C272.1,179.9,273,187.5,274.5,191.9"/>
	<path class="st1" d="M249.7,154c0.7,0.8,1.4,1.7,1.7,2.9C250.7,156.1,250.1,155.1,249.7,154"/>
	<path class="st1" d="M240.3,264.3c0,0.2-0.1,0.5-0.3,0.7C239.9,264.7,240.2,264.4,240.3,264.3"/>
	<path class="st1" d="M212.3,195.9c2.4,1.3,4.4,5.4,3.5,8.4C213,202.9,210.6,198.9,212.3,195.9"/>
	<path class="st1" d="M212.3,193.9c-1.2,0.1-1.5-0.8-2.5-1c-0.4-1.7,0.5-2.1,1-3C211.5,191.1,211.9,192.6,212.3,193.9"/>
	<path class="st1" d="M204.1,194.6c-0.1,0.1-0.1,0.2-0.2,0.3C204,194.8,204.1,194.7,204.1,194.6"/>
	<path class="st1" d="M201.5,95.2c0.6,2.1-0.2,3.5-2,4.4c0.4,0.5,0.9,0.8,1.5,1c-2.1,1.6-3.7,3.4-6.4,5.4h-7.4
		c-2.7-3.9-7.9-0.3-11.4-3c0-2.5-0.2-5.2,1-6.4c3.3-1.1,12.6,0.1,18.8-1.5c0.4,0.9,1.4,1.3,1,3C198.7,97.7,199.2,95.5,201.5,95.2"/>
	<path class="st1" d="M196.5,82.9c2,2.6,7.1,2.1,8.4,5.4c-10.9,1.5-19.6,5.1-30.1,6.9c0-4.8,5.4-4.8,9.9-6.4
		C189.3,87.1,191.9,83.4,196.5,82.9"/>
	<path class="st1" d="M181.2,121.9c0.4,0.5,0.6,1.1,0.7,1.9c-2.2,2.9-5.7,4.1-8.4,6.3h0c-3.2-0.1-7.6-0.2-7.6-3.8
		c2,1.3,4.2,2.3,6.4,3.5C175.3,127.1,179.4,125.6,181.2,121.9"/>
	<path class="st1" d="M179.3,114c2.1,0,3.1,3.2,2,4.9C180.2,117.8,177.8,116,179.3,114"/>
	<path class="st1" d="M174.8,224.5c0,0.1-0.1,0.2-0.1,0.4C174.7,224.7,174.7,224.6,174.8,224.5"/>
	<path class="st1" d="M172.4,211.2c5.1,1.9,2.1,10,2,11.4c-1-1.9-1.2-4.7-3-5.9C172.7,215.8,172.4,213.3,172.4,211.2"/>
	<path class="st1" d="M163.5,97.2c0.2,1.6,1.4,2.2,1,4.4c-4.7,2.2-6.8,7-14.8,5.9c-2.9-3-7.4-2.1-6.4-4.9c-0.6-0.1-0.9,0.1-1,0.5
		c-0.5-1.6-0.8-3.7-3-5.9c2.2-1.6,2.8,2.8,5.4,2.5c0.5-0.3,0.8-1.4,1-0.5c1.5-0.4-1.1-0.7-0.5-2C152.9,98.5,156,96.2,163.5,97.2"/>
	<path class="st1" d="M152.6,89.3c5.1,1.6,11.6,2,10.9,6.9c-8.1-2.6-19.3-3.7-26.7-5.4C140.5,84.2,145.8,87.1,152.6,89.3"/>
	<path class="st1" d="M160,255.6c-0.1,0-0.1,0-0.1,0c0-0.1,0-0.1,0-0.2C159.9,255.5,160,255.5,160,255.6"/>
	<path class="st1" d="M159.5,254.6c0.1,0.2,0.2,0.5,0.3,0.8c-0.1-0.2-0.2-0.3-0.3-0.5C159.6,254.8,159.6,254.7,159.5,254.6"/>
	<path class="st1" d="M157.1,41.4c-0.8,2.2-4,2-5.4,3.5c0-1.6,1.1-2.2-0.5-4.4c0.5,0,0.4-0.6,0.5-1
		C154.4,39.1,155.2,40.8,157.1,41.4"/>
	<path class="st1" d="M145.2,49.8c1.1,1.4,2.9-0.1,4.9,0c-1.9,1.8-4.3,2.9-7.4,3.5C143.5,52.1,145.2,51.7,145.2,49.8"/>
	<path class="st1" d="M111.2,87.8c-1.2,3.7-1.1,8.2-3.5,11.4c1.2,4.5-2.9,6.4-1.5,8.4c-1.5,4.4-6.1,5.7-7.9,9.9
		C100.5,106.8,105.1,96.7,111.2,87.8"/>
	<path class="st1" d="M105.7,173.2c0,0.1,0.1,0.2,0.1,0.3c-0.1,0-0.2,0-0.3-0.1C105.5,173.3,105.6,173.3,105.7,173.2"/>
	<path class="st1" d="M105.5,173.4c-0.8,0.8-1.2,2.1-1.7,3.2c-1.1-4.2-5.8-4.7-4.9-10.9c0.6,0.2,1,0.6,1,1.5
		c1.9-1.4-0.8-2.1,1.5-3.5C102.7,167,102.8,172.6,105.5,173.4"/>
	<path class="st1" d="M103.8,185.5c3.7,4-0.6,9.4-2,12.8C100.4,194,103.4,189.8,103.8,185.5"/>
	<path class="st1" d="M84,245.2c0.1,0.7,0.1,1.2,0,1.6C84,246.3,84,245.8,84,245.2"/>
	<path class="st1" d="M34.2,340.5c-0.4,1.7-0.6,3.6-0.7,5.7l-0.3-2.5C33.6,342.2,34,340.9,34.2,340.5"/>
	<path class="st1" d="M33.5,346.2L33.5,346.2l-1.4,1.4c0-0.2,0.1-0.4,0.1-0.6c0.2-0.8,0.6-2.1,0.9-3.3L33.5,346.2z"/>
	<path class="st1" d="M32.1,347.5l1.4-1.4c-0.5,7.6,0.2,16.8-0.3,22.9c-0.6-0.6-0.9-1.4-2.5-1l1-20.2
		C32.1,350.7,31.9,349.1,32.1,347.5"/>
	<path class="st1" d="M31.9,333.4l1.3,10.2c-0.4,1.2-0.7,2.4-0.9,3.3c-0.1,0.2-0.1,0.4-0.1,0.6l-0.4,0.4
		C31.6,342.9,31.6,338.1,31.9,333.4"/>
	<path class="st1" d="M31.7,347.9l0.4-0.4C31.9,349.1,32.1,350.7,31.7,347.9"/>
	<path class="st1" d="M30.7,324.2l1.1,9.2c-0.2,4.6-0.3,9.5-0.2,14.5l-1,20.2v-34.5V324.2z"/>
	<polyline class="st2" points="30.7,324.2 31.9,333.4 33.1,343.7 33.4,346.2 33.4,346.2 32.1,347.5 31.7,347.9 30.7,368.1 	"/>
</g>
</svg>
