<?xml version="1.0" encoding="utf-8"?>
<!-- Generator: Adobe Illustrator 19.0.0, SVG Export Plug-In . SVG Version: 6.00 Build 0)  -->
<svg version="1.1" id="Layer_1" xmlns="http://www.w3.org/2000/svg" xmlns:xlink="http://www.w3.org/1999/xlink" x="0px" y="0px"
	 viewBox="0 0 320 378.9" style="enable-background:new 0 0 320 378.9;" xml:space="preserve">
<style type="text/css">
	.st0{fill:none;stroke:#EBEBEF;stroke-width:2;}
	.st1{fill:#EBEBEF;clip-path:url(#SVGID_2_);fill-rule:evenodd;clip-rule:evenodd;}
	.st2{fill:#EBEBEF;clip-path:url(#SVGID_2_);}
</style>
<line class="st0" x1="0" y1="378" x2="234" y2="378"/>
<g>
	<defs>
		<rect id="SVGID_1_" x="52.5" width="219" height="378"/>
	</defs>
	<clipPath id="SVGID_2_">
		<use xlink:href="#SVGID_1_"  style="overflow:visible;"/>
	</clipPath>
	<path class="st1" d="M185.5,117.7c1.5-0.2,1.1,1.5,2.9,1C188.1,119.5,184.5,119.7,185.5,117.7"/>
	<path class="st1" d="M170.7,143.5c2,0.7,1.2,4.9,1.9,5.7c-0.4,1.4-1.5-0.3-2.4,0C172.6,148.2,169.9,146.6,170.7,143.5"/>
	<path class="st1" d="M169.7,169.4c1.2,0.9-0.7,2.8-2.4,2.4c-0.3-1-1.2-1.4-1-2.9C166.6,170,169.2,171.3,169.7,169.4"/>
	<path class="st1" d="M163.5,232.5c0.7,0.8,1.9,2.3,1,3.3C163.1,235.8,163.6,233.9,163.5,232.5"/>
	<path class="st1" d="M163.5,237.8c1.3,1,2.9,1.9,2.9,4.3C164.9,241.2,162.9,240.8,163.5,237.8"/>
	<path class="st2" d="M141,188.8c0-0.1,0-0.2,0-0.3C141,188.6,141,188.7,141,188.8 M141,188.8c-0.3,8.8-0.2,17.7-0.9,25.1
		c-0.5,5.1-2.3,10.1-2.9,15.3c-1.7,15-0.4,30.1-5.3,43.5c2.9,3.2,8.9,3.2,14.8,3.4c0.3-1-0.8-3.3,1-2.9c-0.5,3.3,2.2,3.4,1,6.2
		c2.9,2.3,6.9,3.7,11,4.8c2.2-6.3,3.3-13.6,6.2-19.1c0.2,6.7,3.9,11.7,2.4,18.7c3.7,0.1,8.5,0.1,12.4,0c-4.5-9.8-7.4-20.9-10.5-30.6
		c5.4,6.8,7.3,17,12.9,23.4c0.3,2.1,0.4,4.4,1.4,5.7c0.6-1.9-1.5-3.6,0-4.8c2.9,3.5,3.2,6.6,5.3,9.1c22.8,2,40.9-4.6,50.2-17.7
		c1.1-16.8-9.6-26.2-11-39.2c-0.8-7.1,0.1-12-6.7-12.9c-0.5,1-0.1,2.3-1.9,2.9c-10.1,2.2-22.9,1-33.5,0.5c-0.8,0-0.3,1.3-1,1.4
		c-1.4-4.5-6.1-1.1-9.1-1.4c-4.5-0.5-9.5-4.9-14.4-1.9c-1.8-0.9-2.3-3.1-4.3-3.8c-0.4,1.2,1.4,2.6,0,3.3c0.5-3.1-2-0.7-2.9-1.9
		c-0.2-1.5,1.1-2-0.5-2.4c0.1,1.1-0.1,1.8-1,1.9c0.6-0.6,0.6-1.8,0-2.4c-5.5-1.1-11-2.6-13.4-4.3c1,0.3,0.5-7.2,2.9-9.6
		c-3.4-2.6,1.6-5.2,0-7.2c0.2,2-1.3,0.1-1.4-0.5C144.2,191.5,141.2,190.2,141,188.8 M269.2,304.8c2.7,7,2.5,15.6,1.9,23
		c-3.5,2.4-8.9,13.6-14.4,12.4c-3.1-0.7-2.2-3.7-2.9-4.8c-1.4,0.6-3.8,0.6-5.3,0c0.2-2.9-2.5-4.9-1.9-6.7c1.3-3.1,3.9-3.1,3.4-7.2
		c0.6-1.4,2.6-1.6,3.8-2.4c-0.5-6.2,0-12.5-4.8-15.3c-2.4-6-3.5-13.4-6.2-19.1c-1.8,7,3.1,13.8,1.9,20.6c-0.1,0.8-1.4,2-1.4,2.9
		c-0.1,3.6,1.8,7.4,1,11c-0.7,3.2-4.1,5.1-6.7,7.2c-11.3-2.2-25-0.9-38.3-0.5c0,5.5,1.6,9,2.4,10.5c1,1.9,0.3,4.1,0.5,4.3
		c1.6,2,0.5-4.4,1.4,0c0.2,1.1-2,1.8,0,1.9c1.1,2.5,5.4,9.2,10,12.4c2-0.7,0.2,1.5,2.9,0.5c0.5,1.9-1.5,2.8,0,3.3
		c0.8-1.7,1.1-0.3,0.5,1c2.1-1.4,3.1,0.8,6.2-1.9c1.2,0.6-1.2,2,1,1.9c0-3.2,1.7-0.8,2.9-1c2.1-3.1,4.6-8.4,4.3-10
		c2.3-1.4,2.7-2.5,4.8-4.3c-0.8,1-1.1,1.8-0.5,2.4c3.6-3.7,5.5-15.7,7.2-24.4c-2.5,19-5.8,37.3-9.1,55.5h-70.3
		c2.1-8.6-2.8-13.2-3.3-20.6c-1.7-1.9-3.1-4.2-4.8-6.2c-3.2-6.9-4.7-15.2-7-22.8c0.2,0.6,0.5,1.2,0.8,1.8c0.1-3.2-1.6-6-0.5-8.6
		c-1-0.6-2.2-3.5-3.3-2.4c0.9,1.8,1.4,4,2,6.1c-0.7-2.1-1.5-4.2-2.5-6.1c-0.9-1.8-2.8-2.9-3.3-4.8c-0.4-1.5,0.2-3.3,0-4.8
		c-0.9-6.2-3.9-12.6-3.8-19.1c0.1-4.8,2.1-8.9,0-13.9c-12.3,0.8-3-17-2.4-23.4c0.2-2-0.6-4.1-0.5-6.2c0.4-13.4,4.3-27.9,4.3-37.3
		c-3.8,2.9-4.8,8.1-7.7,12c-3.6,4.8-8.7,8.2-11.5,13.4c-1.7,3.1-2.2,4.7-3.8,7.2c-3.5,5.4-5.4,10.5-12,12c-1.9-2.5-5.9-0.1-10-2.4
		c-1.8,0.4-2,2.5-4.8,1.9c-1.6-1.2-0.5-5.2-2.4-6.2c-6.8-1-18.5,0-26.8-1c-2.7-0.3-7.1-1.1-7.7-3.8c9.3-1,22.6-0.6,34-1
		c3.1-6.2,9.6-8.7,13.9-13.9c9.1-10.8,12.5-25.6,19.7-38.3c-0.7,1.6-1.3,3.3-2,4.9c-3.9,9.8-6.8,16.5-10,24.4
		c1.8-1.1,1.8-3.9,3.8-4.8c-1-1.5,0.1-5.2,1.9-3.8c0.9-1.4,0.7-4.1,2.9-4.3c0.3-2.1-1.3-2.7,1-1.9c0-1.1-0.8-1.4-0.5-2.9
		c3,0.3,3.8-10.1,7-9.2c0.1,0,0.1,0.1,0.2,0.1c-0.1,0-0.1-0.1-0.2-0.1c-0.4-0.3-0.2-1.2-0.3-1.8c1.5-0.8,3.3-0.3,2.4-1.4
		c-0.3-0.2-3.2-1.9-2.9-4.3c5.4-5,5.8-11.7,5.7-17.7c-2.4,2.7-1.2,6.2-1.9,9.6c-0.5,2.5-2.5,3.8-3.8,6.2c-0.7,1.2-1.3,2.6-2,4.1
		c-0.5-4.3,2.7-5.5,3.9-8.9c2.2-6.2-1.2-8.8-1-13.9c0.2-4.9,4.1-9.5,5.3-14.4c0.9-3.9,0.1-8,1-12c1.1-5.2,3.4-10.1,4.3-15.3
		c1-5.7,1.7-11,3.3-16.3c3.1-2.3,6-4.8,9.6-6.7c-1.8-2.9,0.9-0.5,0-3.4c2.2-0.5,4.2-1.2,5.3-2.9c-0.4-4.8-4.3-4.5-1.4-8.6
		c-1.4-1.2-2,0.7-2.4,0c-1-3.6,3.3-7,0-7.2c3.1-2.2,2.2-5.1,2.9-9.1c1.1-6,5.8-11.9,7.7-18.2c0.6-2.1,0.3-4.5,1-6.7
		c0.5-1.6,1.7-3.3,1.9-4.8c0.3-2.2-0.4-4.5,0-6.7c0.8-4.9,4.3-9.4,6.7-13.4c0.5-1.7-2.5-0.4-1-1.9c4.3-5.4,9.1-10.4,17.2-12
		c0.9-0.5-1-3.8,1-4.3c3,5.2,11.8-1.8,16.7,2.4c2.7-0.7,3.4-3.1,6.7-1.9c0.8,1.6-2.5,2.6,0,2.9c5.3,2.6,10.9,5.7,14.4,10.5
		c3.4,4.7,7.2,12.2,8.6,18.7c0.8,3.5-0.1,6.9,1,10c0.5,1.5,1.9,2.7,2.4,4.3c3.4,10.4,1.6,23.6,3.3,34.9c0.9,5.7,5.4,9.7,3.4,15.3
		c-0.4-1.1-0.3-2.6-1.4-2.9c-1.4,6.9-0.4,11.9,1.4,17.2c2.6,2.2,7.5,3.8,8.6,7.2c1.2,3.7,0.1,10.3,0.5,15.3c0.6,7.9-1,15.3-1,23.9
		c0,17.3,1.2,36.1,0.5,50.7c-0.4,2.3,2,1.8,1.9,3.8c-0.6,1.8-1,3.8-1.9,5.3c2.5,2.6,1.4,6.3,1.9,10c0.8,5.6,3.9,11.2,2.4,16.7
		c4.5,6.8,4,16,5.3,24.4c0.5,3.1,4,5.3,4.8,8.1c0.8,3.1-0.5,5.5-0.5,8.6c0.1,6.4,3,11.5,5.3,16.7C271,304,268.7,303,269.2,304.8
		 M268.3,315.8c0.6-3.8,0.4-8.3-1.4-11c-3.5,0.2-7.8-0.5-10.5,0.5c2.2,5,0.5,11.3,4.8,9.1c0.7-2.7,0.5-6.2,2.4-7.7
		C266.1,308.8,265.5,313.9,268.3,315.8 M261.6,316.8c0.5-1.8-2.3-1.9-2.4-0.5C259.7,316.7,260.5,316.9,261.6,316.8 M222.3,309.1
		c3.5,4.7,10.8,10.5,17.2,9.1c-9.8-2.9-16.1-11.4-23.4-15.3C216.9,305.4,219.6,307.7,222.3,309.1 M229,110.1
		c1.5,0.3,1.4-0.8,2.9-0.5c-0.1-2.1-1.2-3.2-2.4-4.3C228.9,107.7,229.6,108.4,229,110.1 M224.3,290.4c-0.7-1.5,4.7,0.3,2.9-1.9
		c-1.5,1.7-4.3-0.3-5.7,0.5C221.1,290.7,222.8,290.5,224.3,290.4 M197.5,90.4c11.3-6.8,20.6-18,19.6-35.4
		c-2.2,3.8-17.6-1.3-12.9-1.4c-0.1-0.6-2.1-3.4-2.9-2.4c0.6-1.5-2-3.3-1-6.7c2.9-0.8,4.3-3.1,8.1-2.9c-0.3-1.8-1.8-2.4-2.9-3.3
		c-11.2,1.7-15.8,14.1-17.2,27.3c2.8,0.7,6.5,0.5,8.6,1.9c-2.2,2.9-6.4,3.8-8.6,6.7c4.2,1.1,9.8,2.1,13.4,2.4
		c-2.9,2-10.3-0.8-14.4,1c0,4.5,6.8,2.2,8.6,4.8c-2.5,2.4-8.2,1.7-11.5,3.3c-1.3-1.7-1.4-4.7-2.9-6.2c-4.8,0.5-6.9-4.6-10-7.2
		c1.2,4.7,4.4,7.4,7.2,10.5c1.5,3.7,3,7.5,7.7,8.1c1.2,0.2-1.2-2.2,0.5-2.4C190,90.4,191.8,90,197.5,90.4 M209.4,125.4
		c-0.1-1.6-0.2-3.3-1-4.3C208.5,122.8,208.2,124.8,209.4,125.4 M207,138.3c-0.2-1.1-0.5-2.1-1.4-2.4
		C204.7,136.8,205.1,138.8,207,138.3 M206.1,140.2c-2.5,0.1-2.5-0.9-1.9-2.9c-4.7-0.6-4.8-5.7-6.7-9.1c-1.5-0.4-0.9,1.3-2.4,1
		c-1.2-2.6,1.6-6-1-7.7c1.4-0.4,2.8-0.8,3.3-1.9c-1.5-0.7-2.9,1.2-3.3,0c1.3-3.3,1.9-7.3,2.4-11.5c-5.8-0.7-6.7,2.3-10.5,1.4
		c1,1.6,2.3,4,0,5.3c1.4-1.7-2.6-2.6,0-4.3c-3.5,0.5-0.3,5.4-2.9,6.2c3.7,1.5-2.8,7.8,1,9.6c-0.7-0.3-2.5,0.6-2.4-0.5
		c0.1-2.5,0.9-4.2,1-6.7c-0.7-0.3-2.5,0.6-2.4-0.5c1.3-3,3.3-5.3,4.3-8.6c-2.2,0.2-3.5-0.4-3.8-1.9c-7.2,0.6-10.3,8.2-16.7,11
		c0.2-0.6-0.1-3-0.5-1.4c0,1.5,0.9,3.7-1,4.3c0-2.2,0.3-4.7-1-5.7c-0.4,2.7-2.6,0.6-4.3,1.9c2.1,4.4,12.9,15.1,10,20.1
		c-2-1.5-8.3-10.3-9.6-11c-0.3-2.4,1-3.5,0-5.3c-1.5,0.5-1.1,0-2.9,0c0.1,1.1-0.1,1.8-1,1.9c-0.5-1.7-2.1-2.4-3.3-3.4
		c-1.6,9.6-5.7,18.5-4.3,28.7c1.5,10.9,10.8,17.3,16.7,23.4c0.9-1.1-0.5-2.3,1-3.3c1,1.9,1.1,4.7,3.8,4.8c0.8,0,0.3-1.3,1-1.4
		c0.4,2.3,2.5,0.5,2.9,1c-0.1,1.2-0.1,2.3,1,2.4c0.9-1.1-0.5-2.7,0-4.8c3-0.2,4.1,0.7,5.7-0.5c-0.1-3.3-3.8-3.1-3.3-5.7
		c3.6,0.1,4.5,4.2,9.1,3.3c1.9-0.3,7.2-5.3,9.1-7.2C198.6,155.8,204,146.1,206.1,140.2 M196,105.7c3.1-4.7,5-9.2,6.7-14.4
		c-7.2,3.5-15,7.4-15.3,15.3c2.5-0.7,5.4-1,7.2-2.4C194.5,105.4,195,105.8,196,105.7 M189.3,354.1c0.5-6.1-0.8-10.4-2.9-13.9
		C187.2,345,186.1,351.7,189.3,354.1 M186,332.1c-0.2-3.9,2.4-4.9,2.9-8.1c-1-0.4-2.8-2.6-3.8-1.4C186.4,324.6,184.6,330,186,332.1
		 M188.8,54.1c-4.4-2.4-8.4,1.1-12.9,1.4c-1.5,6.4,2.6,11,5.3,14.8C185.3,66.5,186.5,58.1,188.8,54.1 M185.5,80.4
		c0.4-1.8-1-1.9-1.9-2.4C183.6,79.4,184.7,79.8,185.5,80.4 M178.3,93.8c0.6-2.1-0.4-3.6-1.9-4.8c-0.3,1,0.8,3.3-1,2.9
		C175.8,94.1,176.8,93.3,178.3,93.8 M158.7,115.3c0.3-1.8,1.6-5.1,0.5-6.7c-0.7,2.7-2.8,3.9-3.3,6.7
		C157.6,115.4,157.2,115.8,158.7,115.3 M153.4,115.8c0.9,0.1,1.1-0.5,1.9-0.5c-0.6-1.9,1.3-3.5-0.5-3.8
		C155.3,113.8,152.8,113.2,153.4,115.8 M153,98.6c-1.4,0.1-1.7-0.9-2.4-1.4c0.1,1.1-1.4,0.5-1.4,1.4C150.7,98,152.1,100,153,98.6
		 M140,278c0.6,1.7,2.3,4.7,3.8,3.8C142.2,281,141.5,279.1,140,278 M139.6,185.7c0.9-2.4,0.3-4.3-1.4-5.3
		C138.1,182.7,138.1,184.9,139.6,185.7 M131.4,159.8c-0.1,3.4-0.3,9.5,1.9,9.1c-1.8-2.1-0.1-6.6-1-9.1c-0.1,0.4,0,0.9-0.5,1
		C131.8,160.4,131.9,159.8,131.4,159.8 M99.9,243.5c-1.9-0.2-2.5,3.2-1.4,4.3C99.2,246.7,99.5,245.1,99.9,243.5 M96,238.3
		c-1.4-2.6,1.4-6.4,0-5.3c-3.5,3.2-10.9,9.1-8.1,13.9C89.1,242.6,92.1,239.9,96,238.3 M94.6,247.9c0.6-0.9,2.5-3.4,0-3.3
		C94.6,245.4,93.3,247.3,94.6,247.9 M84.1,245.5c-2.2,0.3-5.7-0.6-7.2,0.5C79.1,245.6,82.6,246.6,84.1,245.5 M70.2,245.5
		c3.3-0.4-3.1-0.4-4.3-0.5c-2.6-0.2-13.3-1.8-7.7-0.5C62.1,245.4,65.8,246,70.2,245.5"/>
	<path class="st2" d="M208.5,121.1c0.7,1,0.8,2.7,1,4.3C208.2,124.8,208.5,122.8,208.5,121.1"/>
	<path class="st2" d="M205.6,135.9c0.9,0.3,1.3,1.3,1.4,2.4C205.1,138.8,204.7,136.8,205.6,135.9"/>
	<path class="st2" d="M150.6,97.1c0.7,0.5,1,1.6,2.4,1.4c-0.9,1.5-2.3-0.6-3.8,0C149.2,97.7,150.7,98.2,150.6,97.1"/>
	<path class="st2" d="M148.7,321.5c-1.1,2.6,0.6,5.5,0.5,8.6c-0.3-0.6-0.6-1.2-0.8-1.8c-0.3-1-0.6-2.1-1-3.1c-0.6-2.1-1.1-4.3-2-6.1
		C146.5,318,147.6,321,148.7,321.5"/>
	<path class="st2" d="M147.3,325.3c0.4,1,0.7,2.1,1,3.1C148,327.4,147.6,326.3,147.3,325.3"/>
	<path class="st2" d="M121.3,186.4c0,0.2,0.1,0.4,0.1,0.6c-0.5,0.8-0.9,1.5-1.4,2.3C120.4,188.4,120.9,187.4,121.3,186.4"/>
	<path class="st1" d="M169.2,169.9c-2,0.4-2-1.1-1.9-2.9C169,166.9,169.5,168,169.2,169.9"/>
	<path class="st1" d="M161.1,231.6v-2.4c2.4,3.9,1.4,6.2,1.9,10.5c0.5,4.4-1.5-7.7-1.4-6.7c0-0.2-0.5-0.8,0.5-1
		C162,231.6,161.5,231.7,161.1,231.6"/>
	<path class="st1" d="M167.3,247.4c-1.8,0.4-1.7-2.1-1-2.9C167.6,244.6,167.3,246.1,167.3,247.4"/>
	<path class="st1" d="M168.3,245.9c0.9,0.1-0.6,1.6,0,2.9c-1.5,0-3.1,0.3-2.9-1.4C166.7,248.6,168,247.2,168.3,245.9"/>
</g>
</svg>
