<?xml version="1.0" encoding="utf-8"?>
<!-- Generator: Adobe Illustrator 19.0.0, SVG Export Plug-In . SVG Version: 6.00 Build 0)  -->
<svg version="1.1" id="Layer_1" xmlns="http://www.w3.org/2000/svg" xmlns:xlink="http://www.w3.org/1999/xlink" x="0px" y="0px"
	 viewBox="0 0 320 378" style="enable-background:new 0 0 320 378;" xml:space="preserve">
<style type="text/css">
	.st0{fill:none;stroke:#EBEBEF;stroke-width:2;}
	.st1{fill:#EBEBEF;clip-path:url(#SVGID_2_);}
	.st2{clip-path:url(#SVGID_2_);fill:#EBEBEF;}
	.st3{clip-path:url(#SVGID_2_);fill:none;stroke:#EBEBEF;stroke-width:0.553;}
</style>
<line class="st0" x1="0" y1="377" x2="210" y2="377"/>
<g>
	<defs>
		<rect id="SVGID_1_" x="42.4" y="0" width="239.2" height="378"/>
	</defs>
	<clipPath id="SVGID_2_">
		<use xlink:href="#SVGID_1_"  style="overflow:visible;"/>
	</clipPath>
	<path class="st1" d="M111.4,271.6c0.2,0.2,0.5,0.3,0.6,0.3c-1.4,0.4-0.1,1.6,0.6,0.6c-0.6,1.8-2.6,2.2-3.3,3.9
		c1.6,0.6,2-2.7,2.8-1.1c-0.9,0.1-2,2.7-0.6,3.3c1.7-1.8,2.2-0.5,2.8,1.1c0.4-1.4,1.7-1.9,3.1-2.3c1.5-0.4,3-0.8,3.5-2.2
		c-6-10.2-4.7-29.3,2.2-38.1c-4.9,0-7.9,1-11.1-1.1c-1.2,1.3-2.3,3.4-1.1,5.5c-3.9,1.8-8.3,8.1-4.4,12.7c-3.4,4.2,1.5,8,3.3,10.5
		C108.2,267.1,110.1,270.6,111.4,271.6 M274.5,296.2c0.8-4.8,0.8-8,0.6-13.3c-0.7-0.1,0.1,0.1,0-0.6c0-0.1,0-0.9,0.1-2.1
		c0.2-1.7,0.2-4.2,0-7.2c0-7.5,0-18.4-0.1-28.1v-0.1c0-7.2,0-14.4,0.2-21.6c0.2-6.9,1.1-13.8,0-20.7c0-0.1-0.1-0.2-0.1-0.2
		c0.3-4.6,1.3-10.3,0-14.4c-2-0.3-4.8,2.8-6.8,4.6c-5.2,3.3-10.6,6.4-16.4,8.7c0,0,0,0,0,0c-1.7,0.6-3.4,1.1-5,1.7
		c-0.2,0.1-0.5,0.1-0.7,0.2c-0.1,0-0.1,0.1-0.2,0.1c-2.5,0.9-4.9,2-6.8,3.5c-3.5,16.9,3,35,2.2,50.8v-1.7c-3.1,3.3-4.4,8.5-6.1,13.3
		c8,11,0.2,28.8-5.5,36.5c0.4,0.1,0.6,0.5,0.6,1.1c6.6,6,21.6,8.8,31.5,11.1C272,311.6,274.9,301.4,274.5,296.2 M264,142
		c17.6,8.5,13.4,50.2,12.2,77.9c-1,21.7-0.4,45.6,0,61.3c0.5,19.5-1.8,31.3-14.4,37.6c-12.1-3.6-25.2-6.1-37.6-9.4
		c-6.6,16.9,6.3,30.5,1.7,47c-3.7-0.2-8.2,0.5-11.1-0.6c-2.8,5.8-4.7,14.4-3.9,22.1H42.4c2.1-29.5,18.2-49.5,29.8-71.3
		c-1.8-1.9-0.9-6.5-1.1-9.9c1.8,0.3,2.6-0.4,3.9-0.6c1.1-7,7.6-13,14.4-16c3.4-5.8,11.7-11.4,16-18.2c-5.6,1-8.4,7.9-14.4,9.4
		c-15.2,3.8-24.5-3.7-24.3-17.1c0.2-15.6,4.9-36.1,9.4-46.4c0,1.3-0.9,1.6-0.6,3.3c5.8,3.1,18.8,8.1,27.6,7.2
		c1.8-0.2,5.6-0.2,5.5-3.3c-6.3,0.4-16.3,0.1-24.3-2.8c-3.8-1.3-10.6-4.7-6.6-8.3c-0.6,2.7,2.6,1.5,2.8,3.3
		c7.3,1.6,21.2,7.8,28.2,2.2c-11.6-0.8-24.3-3.3-30.4-7.7c0.7-0.4,1-1.2,1.1-2.2c3.5,1.8,8.9,3.3,14.4,4.4
		c4.5,0.9,13.4,3.8,15.5-0.6c-3.3-1.7-10.1-1.4-16-2.8c-5-1.2-13.1-2.3-11.1-7.2c7.5,2.4,20.3,7.3,27.6,4.4
		c-3.3-2.4-9.1-2.6-14.4-3.9c-4.6-1.1-12.1-1.5-11.1-6.6c8,2.4,17.8,5,25.9,5.9c0,1-0.2,2.1-0.4,3.1l-0.3,0.8
		c0.1-0.3,0.2-0.5,0.3-0.8l1-3c0.2,0,0.4,0.1,0.6,0.1c3-3.3,5-7.5,6.6-12.2c-0.9-0.5-1.9-0.9-2.9-1.4l0.6-1.8
		c-0.3,0.5-0.6,1.1-1,1.6c-7.1-3.3-17-7.1-26-7.2v-2.8c8.9-2.2,14.7,5.5,19.9,1.7c-5.1-3-14.1-2.1-18.8-5.5c0.9-2.6,3.7-3.3,5-5.5
		c-1-0.2-3.3,0.8-2.8-1.1c1.5-1.8,5.4-1.2,7.2-2.8c-2.1-0.6-4.8-1.3-3.3-3.9c2-1.3,3.9,1.4,5.5,2.2c6.8,0.1,12.3,7.2,16.6,6.1
		c-2.3-3.9-16.2-10.2-21.6-11.1c0.6-1.8,3-1.7,5.5-1.7c0.8-2.6-4.1,0.4-3.3-2.2c0.8-2.9,4.8-1.1,7.2-0.6c5.4,1.3,11.2,4.6,13.8,3.9
		c-3.5,0,0.2-0.7,0-2.2c-5.1-2.6-11.5-4-17.1-6.1c1.4-2.4-0.9-3.3-0.6-6.1c8.8-2.4,17.9,4.1,24.3,7.7c11.2-2.7,20.2-3.1,30.9-3.9
		c1.3-1.1-0.2-4.9,1.1-6.1c-1.4-0.2-3-0.3-3.9-1.1c-0.8-6.6,4.6-7.2,5-12.7c-2.1,0.8-7.8,1.8-9.4,6.1c-2-4.5-6.4-1.2-9.9-4.4
		c-3.2,0.8-4.2,3.9-7.2,5c1.4-3.9,4-3.4,4.4-8.8c-6.2,3.3-4.6,11.9-8.3,18.2c-5.1-5.4-15.8-9-23.2-7.2c4.1-8.3,18.1,0.6,23.2,1.1
		c-2.3-6.7-16.7-8.3-22.7-6.1c1.1-8.2,18.2-1.2,22.7-1.1c-3.3-6.8-16.4-5.3-21.6-3.3c0.2-4,2.2-6.3,2.2-10.5c5.9-3.5,15.1-2.8,21,0
		c6.5-2.5,11.7-9.3,10.5-14.9c5.3,2.6,8.2,11.4,16,11.6c6.3,0.2,12.7-6.6,18.8-6.1c-0.2,2.2-5.9,1.8-4.4,3.9
		c10.1-6.4,22.3-13.9,19.9-29.8c-0.5-3.3-4-6.8-7.2-11.6c-4.5-6.8-8.6-14-17.7-12.7c0.9,4.9-8.8,4.7-10.5,7.2
		c-3.2-0.7-4.9-2.9-7.7-3.9c-0.3,1.6,2.3,3.2,1.1,3.9c-2.1-1.5-2.8-7.1-6.6-5c2,1.8,3.7,10.8-1.1,11.1c-1.5-0.7,1.7-1.1,1.1-2.8
		c-5.1,0.2-6.9,3.7-8.3,7.7c-2.6-2.9-2.4-8.3,1.1-10.5c0.4-2.3-2.6-1-2.2-3.3c6.3-3.6,3.6-5.3-1.1-5c1.5-0.5,2.7-1.5,2.2-2.2
		c-1.1,0.1-4.7,1.8-4.4,0c-0.1,0.4-0.5,0.6-1.1,0.6v1.7c0.3,0.2,0.6,0.3,1,0.3c-0.3,0.1-0.7,0.1-1,0.2c-1.7,9.6,3.6,15,5,20.4
		c1.6,6.6,1.1,13.1,5,18.2c-2.2-1.6-9.2-1-10.5-1.7c-7.8,5.5-13.7,12.8-18.2,21.6c1.2-10.4,10.8-12.4,13.8-21
		c0.5-8,0.8-9.4,2.8-15.5c-5.5-6.5,1.4-15.9,0.6-21c-0.5-3.1-4-3-4.4-6.6c2.6-3.8-1.1-10.4,2.2-14.9c2-2.8,5-2.2,7.7-4.4
		c1.4-3.6,1.9-8.1,6.6-8.3v-5c3.1,0,2.3-3.8,5.5-4.4c3.3-0.7,5.5,2.3,9.4,2.8c0.3-1-1.6-2.3,0-2.8c6.5,2.7,15.5,2.1,16-5.5
		c2.6,4.8,11.8,0.6,14.4,6.6c2-0.1,2.5-1.6,4.4-1.7c0.8,5.3,7.6,4.6,9.9,8.3c-0.5,2.4-4.6,1.3-5,3.9c4.3,2.4,9.5-5.4,12.2,0.6
		c-1.8-2.3-5.8-1.8-6.1,1.7c2.2,0.9,5.9,0.4,7.2,2.2c0.6-1.4-1.7-2.6,0-3.3c0.1,4.5,3,6.2,5.5,8.3c1.7,0.1,2.2-3.9,3.3-1.1
		c-2.6,0.2,0.3,3.8-2.8,5.5c0.1-0.7,1-1.3,0-1.7c-1.3,4.6,2.2,2.1,1.7,5c0.1-0.4,3,1,3.3,2.2c-0.3-0.3-2.6-1.3-2.8,0
		c0.7,3.4,3.9,3.2,5.5,3.3c-0.7,0-0.8,0.7-1.7,0.6c1.8,1.9,3.8-1.5,5.5-1.7c-2.8,2.3,2,1.1,2.2,3.3c0.5,1.6,0.6,3.4,1.1,5
		c-3.7,5.3-2.6,10.5,2.6,12.9c-0.7,0-1.3,0.4-1.5,1.4c1,2.5,3.5,3.5,5.5,5c-2.1-0.5-2.3,2.2-3.9,0.6c1.2,1.9,0.7,5.6,1.7,7.7
		c2-1.3,5.8-1.2,6.1-2.8c2.7,0.6,4.3,2.3,5,5c-4.3-0.3,0.6,3.1-1.7,5.5c-2.1,0.7-6.4,2-8.8,0.6c2-1,5-0.9,5-3.9
		c-4.8,1.1-8.6,3.1-9.9,7.7c2.4,0.3,9.4-1,8.3,4.4c-2-1.9-8.8-2.8-9.9,0.6c5.1,2.8,8.6,7.2,10.5,13.3c5.5,1.4,11.6,12.3,3.9,15.5
		c3.8-4,0.5-13.2-3.9-12.2c6.2,9.3-6.1,16.9-12.2,21c3,5.3,6.2,6.4,11.6,6.6c1.8,0.1,4.3,1.3,6.6,1.7
		C250.8,138.6,258.9,139.6,264,142 M237.5,75.2c-2.6,0-6.1,2-5.5,3.3C233.2,76.8,236.6,77.2,237.5,75.2 M235.2,103.9
		c0-0.7,1-0.5,1.1-1.1c-2-2.1-3.3-0.9-2.2-3.3c-0.7-0.1-1.3-0.2-1.1-1.1h-2.8C230.7,101.4,234,101.6,235.2,103.9 M231.9,65.8
		c0.3-1.7-1.4-1.6-2.2-2.2C228.6,65.2,230.4,67,231.9,65.8 M231.9,96.7c-1.3-0.4-1.5-1.8-2.8-2.2c-0.6,0.7-0.6,2-0.6,3.3
		C230.1,97.8,231.9,98.1,231.9,96.7 M230.3,123.8c0-1-0.4-1.4-1.1-1.7c0.3,1.7-1.5,1.5-1.7,2.8c0.7,0,0.5,1,1.1,1.1
		C230.6,124.9,227.4,124.6,230.3,123.8 M226.4,127.7c0.8-3,2.3-5.4,3.3-9.4C228.1,120.6,225.1,124.3,226.4,127.7 M227,47.5
		c0.5-2.2,0.4-2.7-1.1-3.9c-1.6,0.3-2.9,2.1-3.9,0c0.1,2.3,3.2,4.5,4.4,3.9c-0.3,0-0.6-0.4,0-0.6C226.4,47.3,226.5,47.6,227,47.5
		 M227,58.6c0.3-2.6-3.3-0.8-1.7-3.3h-2.2c-0.1,1,0.6,1.2,0.6,2.2C225.6,57,226,58.1,227,58.6 M226.4,270.2
		c-1.4-0.5-0.6-3.1-2.8-2.8c4,14.4-6.2,26-8.8,35.4C222.6,295.9,226,284.6,226.4,270.2 M208.2,301.2c7.3-5,17.9-27.3,11.1-35.9
		c-0.7,0.1-1.6-0.1-1.7,0.6C221.7,278.8,211.7,290.5,208.2,301.2 M210.4,289c3.9-8.5,9.3-24.9,1.1-25.4c3.5,11.9-4.2,21.9-7.2,30.9
		c-0.1,1.3-4.9,2.8-2.2,3.3C204.9,298.7,208.5,293.2,210.4,289 M206.5,278.5c2.5-6.2,6.5-15.1-0.6-17.1c1,9.2-1.6,15.3-3.3,23.2
		c-1.1,5.1-7,6-6.1,9.9C204.2,292.4,203.1,287.1,206.5,278.5 M203.2,358.7c0,0.3,0.4,0.6,0.6,0c-1.2-0.3,0.7-0.9-0.6-1.7
		c-1.4-0.1-1.7,0.9-2.2,1.7C202.5,358.6,202.1,359.6,203.2,358.7 M201.5,364.2c-1.8-0.8,1.1-1.4,0.6-2.8c-2.3,0-1.3-1.3-0.6-2.2
		c-4.9,0.1-9.7,1.3-13.8,2.2c-0.1-0.1-0.1-0.1-0.3-0.1c-4.9,1.3-9.9-0.6-14.2-2.8c-4.5-2.2-8.6-5.1-13.1-7.3c-2.2-1.1-4.6-1.8-7-2.6
		c-3.1-1-6.1-2-9.2-2.9c-3.2-0.9-6.4-1.8-9.6-2.4c-12.3-5.4-26.3-11.9-38.3-15.6c8.5,8.4,17.4,16.4,27.8,22.9c0,0.1,0,0.2,0.1,0.3
		c17.6,11.2,38,19.2,58.9,21c4.6,1.2,8.4-0.9,12.7-0.6c-0.1-1.6,1.7-3.6,1.7-5C198.7,367.5,199.7,364.5,201.5,364.2 M202.6,140.9
		c-3.7-4.5,2.9-10-1.7-12.7c-6.5,2-14,3-20.4,5c0.4,13.2-16.6,11.6-15.5,29.3c-1.7-1.1-2.4,2.4-4.4,0c-0.4,9.2,2.9,14.7,6.1,20.4
		C180,170.3,191.1,155.3,202.6,140.9 M201.5,279.6c-2.8-7.6,7-17.3-1.7-21c-0.3,6.1,1,11.7,0,16.6c-1.3,6.7-9.1,10.1-9.9,16.6
		C195.6,289.5,197.7,283.7,201.5,279.6 M193.2,277.4c4.1-7,8.3-13.4,2.2-19.3c3.9,11.8-8,19.9-9.4,28.2
		C189.8,287,191.2,280.9,193.2,277.4 M192.1,109.4c-0.6-3.4,1.4-6.8,0.6-7.2c-1.8,0.5-6.1,4.4-8.8,3.9c-1.8,2.2,1.8,4.6,1.1,5.5
		c-1.8-2.4-5.1-3.4-5-7.7c-8.5,0.4-7.7,8.6-5.5,13.3C182.8,117.4,188.4,111.9,192.1,109.4 M189.4,275.2c3.2-1.2,5.2-7,2.8-10.5
		C191.2,268.2,188.7,270.1,189.4,275.2 M189.4,268c0.3-4.4,3.7-9.7,0.6-12.7C189.4,258.9,188.6,265.1,189.4,268 M184.4,259.2
		c1.8-2.4,3.1-5.4,3.3-9.4c-1.1-0.8-2.2-1.5-3.9-1.7C184,252.4,184.1,256.3,184.4,259.2 M175.6,287.9c7.2-1.3,11.4-8.5,11.1-15.5
		C184,278.4,176.9,282.5,175.6,287.9 M183.3,270.8c2.1-1.4,3.6-6.4,2.8-8.8C184.2,263.6,181.8,267.7,183.3,270.8 M181.6,271.9
		c0.4-1.4,1.2-5.4,0-6.6C181.1,267.1,179.6,270.7,181.6,271.9 M171.1,271.9c3.4-6.3,10.6-13.2,8.3-21.6
		C174.8,255.3,171.1,264.1,171.1,271.9 M177.2,248.7c-0.4-2.3,2.6-1,2.2-3.3c-1.2-0.3-1.6-1.4-3.3-1.1
		C176.9,245.3,176.1,247.9,177.2,248.7 M171.1,279.1c5.4-0.9,8.9-6.6,7.7-12.2C176.4,271.1,172.3,273.6,171.1,279.1 M166.2,268
		c2.6-7.3,9.9-12.9,9.4-23.2c-2.1,0.6-1.6-1.4-3.3-1.1c-1.5,11.7-8,21-9.4,30.9C167.1,274.3,165.3,270.3,166.2,268 M166.7,279.6
		c-0.3-1.5,0.7-4.4-0.6-5c-0.4,2.3-2.1,3.4-2.8,5.5C165.1,279.4,165.3,280.6,166.7,279.6 M158.4,277.4c2.3-12.6,8.2-24.6,11.6-34.3
		c-6.7,0.1-7.7,9.4-9.4,15.5C159.1,264.4,154.7,273.7,158.4,277.4 M165.1,49.2c-1.2-1.2-3-0.2-3.3,1.1
		C163.2,50.3,165,50.6,165.1,49.2 M162.9,241.5c-1.6,0.5-1.4-0.8-2.8-0.6c-5.5,5.7-9.1,18.6-6.6,28.7
		C156.8,260.5,158,249.2,162.9,241.5 M156.8,238.2h-3.3c-6.6,6.5-7,19.2-8.3,30.9c1.2,0.5,2.5,0.9,3.3,1.7
		C147.8,256.9,152.5,245.4,156.8,238.2 M151.2,275.8h2.8c-0.1-1.5-1.8-1.6-2.2-2.8C152,274.3,150.8,274.2,151.2,275.8 M151.2,238.7
		c-14-1.8-15.6,28.7-6.6,35.4C141.5,261.9,141.6,244.1,151.2,238.7 M146.8,47c1.2,1.8,2.4,5.2,3.9,3.3c-2.9-5.7-4.9-12.5-12.2-13.8
		C139.1,41.8,144.4,43.4,146.8,47 M145.2,237.6c-9.7-1-12,12-12.2,21.6c-0.1,5.5,0.6,13.5,5.5,14.4
		C134.7,261.9,135.3,242.1,145.2,237.6 M135.8,41.4c2.3-0.4,2.9,3.7,4.4,2.2C138.8,43.2,137.3,40,135.8,41.4 M136.3,238.7
		c0.3-0.9,4.9-0.2,2.8-1.7c-1.3,0.4-4.4-0.2-6.1,1.1c-5,6.5-8.3,33.6,0,35.4C128.4,264.1,130,245.4,136.3,238.7 M133.6,116.6
		c2-0.2,3-3.3,0.6-3.9C134.1,115.1,134.9,115.3,133.6,116.6 M125.8,147.6c-0.7-3.4-5.2-5.4-8.3-6.6c-4.2-1.8-8.7-2.7-11.6-5
		c-0.8,0.8-2.5,0.8-2.2,2.8C111.9,140.5,119.5,145.6,125.8,147.6 M121.4,156.9v-2.8c-0.8,0.1-2-0.2-2.2,0.6c1.7,0.4-0.5,1.2,0,2.2
		H121.4z M116.4,174.6c2.5-2.9-3-4.9-4.4-3.9C114.4,171.1,114.6,173.7,116.4,174.6 M103.2,148.1c2.4,1.6,8.7,4.8,9.4,4.4
		c-1.9-1.4-1.2-2.7-2.8-5C107.8,147.9,104.3,146.8,103.2,148.1 M117.5,168c-1.3-7-12-4.6-15.5-9.4c1.4,0.9,5.9,1,6.6-0.6
		c-5.4,0.1-10.3-1.1-12.2,3.3C105.1,162,109.9,166.4,117.5,168 M108.7,239.3c0-3.5,1.3-7.4,0-10.5c-11.8,5.3-31.7,2.8-36.5-7.2
		c-2.1,14.2-10.9,42.9,5,48.1c3.4,0.3,8.3-2.8,12.7-3.3C96.6,257.8,102.1,248,108.7,239.3 M91.6,164.7c3.4,2.2,11.4,2.6,14.9,2.8
		C101.9,166,95,160.8,91.6,164.7"/>
	<path class="st1" d="M231.2,59.9c0.8,0,1.8,0.4,2.4,0.9C232.7,60.6,231.9,60.3,231.2,59.9"/>
	<path class="st2" d="M185.1,362.3c1.1,3.3-1.6,6-2.2,9.1c-17.6-1.5-34.9-7.5-50.4-16.1c1.6,0.8,3.3,1.5,5,2.3
		c-0.7-4.5-1-9.4-2.1-13.4c3.2,0.7,6.3,1.5,9.4,2.5c3.1,0.9,6.1,1.9,9.2,2.9c2.6,0.9,5.1,1.7,7.5,3c4.5,2.4,8.7,5.2,13.3,7.4
		C178,361.4,181.5,362.5,185.1,362.3"/>
	<path class="st1" d="M148.5,87.3c1.6-8.6,12.3-10.9,21-10.5c-2,3.8-13.2,1.1-12.7,5.5C153.9,80.6,151.6,86,148.5,87.3"/>
	<path class="st1" d="M160.6,84c0.7,2.4,0.2,2.5-0.6,4.4c-2.8,0.4-4.3-0.5-6.6-0.6C155.2,85.9,156.9,84,160.6,84"/>
	<path class="st1" d="M157.3,68c-0.7,1.5-3.4,1-5.5,1.1C151.6,65.3,156.1,66.3,157.3,68"/>
	<path class="st1" d="M149,69.1c1.7,1.8,6.5,2.9,5,6.1c-2.7-0.4-3-3.3-5-4.4c-1.1,0.7,1.3,1.1,0,2.8c-2.1,0.2-2-1.7-3.3-2.2
		C146.8,70.5,148.5,70.4,149,69.1"/>
	<path class="st1" d="M127.5,91.7c1.9-3,4.1-2.4,7.7-3.3C132.9,89.8,130.3,90.9,127.5,91.7"/>
	<path class="st1" d="M128.6,136.5c0.1,1.7-0.2,3.1-1.1,3.9c-1.4,1.2-1.5-2.2-2.8-2.8c-7.1-2.3-13.6-5.2-21-7.2
		C112.7,127.6,122,133.3,128.6,136.5"/>
	<path class="st1" d="M113.8,276.4c0.8,0.9,2.2,1,3.5,1c-1.4,0.4-2.8,0.8-3.1,2.3c-0.6-1.6-1.1-2.9-2.8-1.1
		c-1.4-0.6-0.3-3.2,0.6-3.3c-0.7-1.5-1.1,1.7-2.8,1.1c0.7-1.7,2.7-2.1,3.3-3.9c-0.7,1.1-1.9-0.1-0.6-0.6c-0.2,0-0.4-0.1-0.6-0.3
		c0.6,0,1.1,0.1,1.6,0.2C113.1,273.3,112.8,275.2,113.8,276.4"/>
	<path class="st1" d="M115.7,178l-0.6,1.8c-0.1-0.1-0.2-0.1-0.4-0.2C115.1,179.1,115.5,178.6,115.7,178"/>
	<path class="st1" d="M118.1,181.3c-1.6,4.6-3.6,8.9-6.6,12.2c-0.2,0-0.4,0-0.6-0.1l1.2-3.7c0.3-0.4,0.6-1,0.6-1.7v0l2.6-8.1
		C116.2,180.3,117.2,180.8,118.1,181.3"/>
	<path class="st1" d="M115.2,179.8l-2.6,8.1c-0.6-0.2-1.3-0.4-1.9-0.5c0.1-0.4,0.2-0.8,0.3-1.1c0.2-0.5,0.4-1,0.6-1.5
		c1,0.2,1.8-0.4,2.7-2.9c-0.3-0.1-0.5-0.1-0.8-0.2c0.5-0.7,0.9-1.3,1.3-2C114.9,179.7,115,179.8,115.2,179.8"/>
	<path class="st1" d="M113.5,181.6c0.2,0.1,0.5,0.1,0.8,0.2c-0.9,2.5-1.6,3.2-2.7,2.9C112.1,183.7,112.8,182.7,113.5,181.6"/>
	<path class="st1" d="M113.5,181.6c-0.7,1.1-1.4,2.1-1.9,3.1c-0.9-0.2-2.1-1.1-4-1.8c-4.7-2-14.8-3.4-18.8-4.4
		c-1.6-0.8,0.2-2.7,0.6-3.3C98.3,176.4,105.3,179.6,113.5,181.6"/>
	<path class="st1" d="M112.6,187.9L112.6,187.9l-0.6,1.7c-0.4,0.5-0.8,1-1.1,1.6c-0.2-0.1-0.4-0.1-0.6-0.2c0-1.3,0.1-2.5,0.3-3.7
		C111.3,187.5,111.9,187.7,112.6,187.9"/>
	<path class="st1" d="M112.6,187.9c0,0.8-0.2,1.3-0.6,1.7L112.6,187.9z"/>
	<path class="st1" d="M112,189.6l-1.2,3.7c-0.2,0-0.4,0-0.5-0.1c0-0.7,0-1.5,0.1-2.2c0.2,0.1,0.4,0.1,0.6,0.2
		C111.2,190.6,111.6,190.2,112,189.6"/>
	<path class="st1" d="M110.8,193.3l-1,3c0.3-1,0.4-2,0.4-3.1C110.5,193.3,110.6,193.3,110.8,193.3"/>
	<path class="st1" d="M109.8,259.2c-0.9-1.8,2,2.7,0.6,3.3c-1.8,0.5-0.8-1.8-2.2-1.7C107.9,259.5,110.7,261.1,109.8,259.2"/>
	<path class="st1" d="M110.6,187.3c-0.2,1.2-0.3,2.4-0.3,3.7c-7.6-2.4-15.5-4.6-23.8-6.5c-0.5,0.4-0.8,1-1.1,1.7
		c-1.7-1.7,4.7-10,1.7-5C95,183.3,103,185.2,110.6,187.3"/>
	<path class="st1" d="M109.6,197.2l0.3-0.8C109.8,196.6,109.7,196.9,109.6,197.2"/>
	<path class="st3" d="M111,271.6c0.1,0,0.3,0,0.4,0c0.6,0,1.1,0.1,1.6,0.2c0,1.5-0.2,3.3,0.8,4.5c0.8,0.9,2.2,1,3.5,1
		c0.5,0,1.1,0,1.6,0"/>
</g>
</svg>
