<?xml version="1.0" encoding="utf-8"?>
<!-- Generator: Adobe Illustrator 19.0.0, SVG Export Plug-In . SVG Version: 6.00 Build 0)  -->
<svg version="1.1" id="Layer_1" xmlns="http://www.w3.org/2000/svg" xmlns:xlink="http://www.w3.org/1999/xlink" x="0px" y="0px"
	 viewBox="0 0 320 378.9" style="enable-background:new 0 0 320 378.9;" xml:space="preserve">
<style type="text/css">
	.st0{fill:none;stroke:#EBEBEF;stroke-width:2;}
	.st1{fill:#EBEBEF;clip-path:url(#SVGID_2_);}
</style>
<line class="st0" x1="0" y1="378" x2="292.3" y2="378"/>
<g>
	<defs>
		<rect id="SVGID_1_" x="85" width="207.9" height="378"/>
	</defs>
	<clipPath id="SVGID_2_">
		<use xlink:href="#SVGID_1_"  style="overflow:visible;"/>
	</clipPath>
	<path class="st1" d="M293,376v2h-6.7c0.7-1.4,0.9-3.3,0.8-5.5C289.9,372.7,291.2,374.6,293,376"/>
	<path class="st1" d="M261.3,244.5c-1.6,1.7-3.8,2.8-4.8,5.1c2.3-0.7,1,2.1,2,2.8c0.8-2.1,3.9-1.9,3.6-5.1c-1.7-0.5-2,2.4-2.8,1.6
		C259.6,247.7,261,245,261.3,244.5 M213.7,236.7c0.1-0.3,0.1-0.5-0.3-0.5C213.5,236.3,213.6,236.5,213.7,236.7 M212.5,237.2
		c-0.6,2.2-0.2,5.5,0.4,6.9c-0.4-2.5,1.2-5.9,0.7-7.4C213.4,237.3,212.4,238,212.5,237.2 M146.7,61.1c2.4,0,1,3.8,2.9,4.4
		c0,0.9-2.6,1.1-1.2,2c5.8-1.8,9.3,2,13.5,3.2c1.1-2-0.5-4.4-2.4-4.8c3.7-1.5,5.2,1.6,7.9,2.4c0.6-1.2,0.1-2.4-0.4-3.6
		c-2.5-0.6-5.8,1.1-6.7-0.4c-1.4,1.6-6,2.2-7.9,2c4-1.7,8-3.6,11.9-4.4c-0.2-0.5-1.5-0.1-1.6-0.8c-2.6-7.3-10.4-12.8-15.8-18.6
		c-2.4,1.2-5.2-1.2-6.7,0.4c5.8-0.5,9.7,3,10.7,5.9c-2.4-1.3-2.7-1.7-4-0.8c-1.4-1.9-3.2-3.4-5.9-4c-0.4,1.7-3.7,0.5-4,2.4
		c0.9,0.8,4.1-1.1,4.8-0.4c-1.4,1.4-5.2,0.3-5.5,2.8c4.4-1.2,10.2,1.5,12.3,5.1c-0.9,0.2-1.3-1.1-1.2,0.4c3.3,0.1,7.8,1.8,11.9,2.4
		c-6,0-12.5,0.3-15-3.2c1.2-0.3,1.4,0.4,2.4,0.4c-2-2.4-5.8-3-8.3-4.8c0,1.6-1.9,1.3-2.4,2.4c3.3,0.2,4.9-0.3,6.7,1.2
		c-0.3,0.7-4.8-0.8-4,0c0.6,0.5,1.6,0.5,2,1.2c-1.7,1.2-0.5,1.4-0.4,3.6c-2.3,0.4-0.5,0-2-0.4c0.4,3,4.7-1.3,5.9,0
		c-1.8,1.8-6.2,0.8-6.7,2.8c0.2,0,0.5,0.1,0.4,0.4c0.4,0,0.5,0.3,0.8,0.4c3.4-3.9,11.2-1.9,17-2.8c-1.1,1.1-1.4,1.5-1.2,2.4
		C153,59.5,150.2,61.1,146.7,61.1 M156.1,32.6c-2.8-0.3-6-0.6-9.7-1.6c1.5-1,5.2-1.1,7.1-0.4c-0.1-2.6-4.7-3-5.9-1.2
		c1,0.4,1.9-1.2,2.4,0c-1.7,1.3-6.9-0.4-6.3,2.4c0.6-0.5,1-1.1,2-1.2c-0.1,0.6-0.5,0.7,0,1.2c-1.5,0.3-3.1,0.6-3.6,2
		c2-0.6,6-1.4,7.5-1.2c-2,2.6-6.9-0.1-8.3,3.2c1.6-0.7,3.7-0.7,4.8-0.4c-0.7,1.3-4-0.1-4,2c6.1,2.2,12.6,3.1,19,3.2v-2
		c-3.4-0.8-9.1-1.5-9.5-4c1.2,1.1,3.3,1.2,4.8,2c-0.1-1.6-1.6-1.8-2.4-2.8c1.4-0.1,2.6,2.1,3.2,0.4
		C155.6,33.7,154.8,32.6,156.1,32.6 M131,53.4c0.4-0.2,0.8-0.6,1.2-1C131.9,52.7,131.5,53,131,53.4 M131,53.4c-2.9,1.8-6,0.3-5.5,5
		C126.6,56.4,129.2,54.7,131,53.4 M119.5,378h-0.4h-1.2h-11.5c1.2-14.1-4.2-21.1-11.9-27.3c-3.6-8.9-4.8-20.3-8.7-28.9
		c0.7-2,1.3-4.2,2.4-5.9c-0.2-5.9-3.2-11.2-2.4-17.4c0.7-5.9,4.5-13,6.3-18.6c0.8-2.4,1.2-5.6,1.6-7.1c0.3-1.2,0.6-1.8,0.4-2.8
		c0.4-0.9-0.3-2,1.2-2.4c-1-3.8,2.4-7.6,1.6-11.1c1.2-0.1,1.5-1.7,0.8-2.4c1.1-0.7,2.1-1.9,0.8-2.8c0.7-0.5,2.6-0.8,0.4-1.2
		c1-0.4,2.9-1.2,2-2.4c-2.5-0.3,0.1,1.2-0.8,1.2c-2.2-0.5-0.7-4.5-0.4-6.7c2.2-16,5.9-33.5,11.9-46.3c-2.9-1.9-6.2,1.8-9.1,2.4
		c-1.2,0.1,1,2-0.4,2.4c-1.8-0.6-6.2-1.6-5.9-5.5c0-2,1.4-0.2,2-1.6c-0.2-2.5-1.6-0.7-2-0.8c-1.3-2.6,4.4-1.5,2.4,0
		c2.4-0.7,4.1-2.1,5.1-3.6c-0.4-1.5-1.7-2-2.8-2.8c-2.2-8.3-4.6-16.6-5.5-26.9c-0.4-4.4-2.6-8.4-2.8-12.7c-0.1-3.2,1-6.3,1.2-9.5
		c0.2-3.8-1-7.8-0.8-11.5c0.2-5.2,2.3-10.1,2.4-15.1c0.1-5.7,0.4-12,2.8-17c1.3-2.7,4.4-4.9,3.6-8.3c2.3-9.4,5.3-19.6,9.1-28.1
		c1.2-2.6,1.9-6.1,3.6-7.1c0.3-2.6,2.1-3.7,2.4-6.3c0.9-0.6,1.6-1.3,2.4-2c6.7-11.9,16.8-20.4,26.1-29.7c1.7,0,3.6,0.1,4.4-0.8
		c-0.6-0.6-0.9-0.8-3.2,0c2.8-2.2,6.1-3.2,10.3-3.2c-1.2-1.1,2.3-0.4,2.8-2c-1.1-1.2-1.5-0.3-2.8,0c0.7-1,1.8-1.9,3.2-1.3
		c0.1,0,0.2,0.1,0.4,0.1c-0.1-0.1-0.2-0.1-0.4-0.1c-0.8-0.7,4.5-2.1,5.1-2.2C179.9,0,195.1,9,203.9,14c4.1,8,9.9,15.4,13.1,24.2
		c2.7,7.4,2.3,16.1,4.8,25c2.1,7.5,6.7,14.7,7.5,22.2c1.5,13.9-5.2,28.8-1.6,42.4c1.4,5.3,6,12.2,5.5,19c6,5.6,15.6,7.7,20.2,14.7
		c-0.3,1-1.1-0.7-2-0.4c3.7,2.2,7.8,3.2,11.5,4.8c11.1,4.8,18.4,16.3,26.1,25c-1.6,0.2-2.5-0.4-3.6-0.8c0.4,1.5,2.1,1.6,3.2,2.4
		c-0.1-0.7,0.4-0.9,0.4-1.6c1.4,0.4,2.5,1,4,1.2v131.1v0.4V376c-1.8-1.4-3.1-3.3-5.9-3.6c0.1,2.2-0.1,4.1-0.8,5.5H153.6
		c2.3-20.8,5.3-38.9,8.3-59.4c5.3-35.8,18.7-66.9,31.7-95.5c-1.5-3-2.2-10,1.2-11.5c-1.4-6.1,1-14.3,2.4-20.2
		c-1.5,2.7-3.9,1.5-7.1,2c-8.8,1.4-18.5,9.6-25.3,13.9c-1.1,4.2-3.5,8.2-5.1,13.1c-0.4,1.2-0.1,4.4-2,4c-1.9-0.2,0.7-0.6,0.8-0.8
		c0.8-1.3,0.6-4.9,1.6-6.3c-1.7,1.2-1.3,4.5-2.4,6.3c-0.9-0.9-1.4,0.3-2.8,0c0.5-4.3,5-4.6,4.4-9.9c-1,3.1-1.8,4.3-4,7.5
		c2.6-4.7,0.2-12.4,4.4-15.4c-1.8-5-3-12.4-2.8-18.2c-6,0.9-9,6.5-14.3,7.1c-7.1,10.6-14.2,25-20.2,37.6c-6,12.7-13,27.2-11.9,44
		c0.3,5.1,2.4,10,4,15.8c1.4,5.3,1.7,11.5,2.8,17c2.1,11.1,3.6,23,5.9,33.3c1.5,6.5,4.5,12.7,5.5,19c1,5.9,0.6,11.5,3.2,16.6h-9.9
		H119.5z M278.7,184.7c2,1,3.5,4.4,5.1,4.4C282.8,187.2,280.2,184.8,278.7,184.7 M282.3,207.3c-0.5,0-0.9-0.2-1.2-0.4
		c-0.7,3.2-4.5,3.1-5.1,6.3c1.4-0.4,2.8-0.9,3.6-2c-0.7-0.2-1.7,1.2-2,0c1-0.7,2.2-1.2,3.2-2c0,0.5-0.2,0.9-0.4,1.2
		C281.9,210.4,281.8,208.5,282.3,207.3 M280.3,215.2c-1,0.2-0.9-1.5-0.4-2.8c-1.3,0.4-2.3,1.1-2.4,2.8
		C278.7,215.6,280.2,216.6,280.3,215.2 M272.4,229.1c0.4-3,4.4-6.4,2-9.5c-0.8,2.6-2.9,4-5.1,5.1C270.5,225.9,271,228,272.4,229.1
		 M271.6,212.8c0.1-1.7,1.5-4.2,1.2-5.1C271.5,208.7,269.9,211.2,271.6,212.8 M270.8,217.2c0-1.6-1-1.1-2-0.8c0-0.5-0.1-0.9-0.8-0.8
		c-0.1,2.2,1.1,0.8,1.6,2C269.8,216.8,270.2,216.8,270.8,217.2 M270.4,235.8c1.6-2.3-0.4-2.9,0.4-5.5c-1.5-0.4-0.6,1.5-2,1.2
		c-0.2-0.6,0.5-2-0.4-2c-0.4,2.7-4.2,2.1-4.4,5.1C266.4,234.8,268.4,235.3,270.4,235.8 M267.2,199.8c0.2-1.2-0.6-1.6-0.8-2.4
		c-2.4,0.1-2.7,2.3-4.8,2.8c0.1,1,1.6,1.5,0,2c0-0.7-0.3-1-0.8-1.2c-1.4,0.9-2,2.5-4.4,2.4c-2.3,5.3-6.9,5.9-11.1,9.1
		c0.9,0.5,1.5-1,1.6,0c-1.5,0.6-1.4,2.8-2.8,3.6c-0.1-0.5-0.6-0.8-0.4-1.6c-5.1-0.2-8.1,3.8-8.3,7.1c0.7-1.5,0,1.5,0.8,1.2
		c1.6-0.9,2-3,3.2-4.4c0.4,2.5,0.4,4.1,0.4,5.9c1.7-1.3,2.7-5.1,5.5-4c0.6-1.4-1.1-2.5,0-3.2c2.5,2.7,0.8,7,0,11.5
		c-1.5,7.8-4.6,16.7-5.5,20.6c6.1-8.1,3.5-26,12.7-32.1c0,0.7,0.3,1.3,0.8,1.6c0.8-0.3-0.1-2.2,0.8-2.4c0.5,0.5,0.4,1.7,0.4,2.8
		c1.6-1.1,2.4-2.9,3.2-4v0.8c1.4-2.5,5.5-0.4,6.3-2.4c-2.4-0.9-4.8-0.9-7.9-3.2c2.1-1.6,3.7-3.7,7.1-4c-1.1-2.1,2.1-3.4,0.4-3.6
		c-2.1,1.5-4.9,4.4-6.7,4.8C260,204.7,262.7,201.4,267.2,199.8 M265.6,237c-1-0.9-3.4,1.7-2.8,2.4
		C263.3,238.1,264.8,237.9,265.6,237 M262.1,219.6c2-0.2,3.8-3.2,2-4.8C264.6,217.6,262,217.3,262.1,219.6 M256.1,256
		c1.9-0.8,1.9-3.6,0.8-4.8C257.1,253.2,256,254,256.1,256 M251.4,208.1c1.3-0.5,1.5-2.4,1.6-3.2c-0.1,1.1-1.5,0.9-2,1.6
		C251.6,206.6,251.3,207.5,251.4,208.1 M251.8,193.8c0.3-1.5-1.9-1.5-1.6,0H251.8z M245,303.1c0.9-0.1,1.8-0.3,1.6-1.6
		C245.6,301.6,245.1,302.1,245,303.1 M242.7,306.3c-1.2-1.4,0.1-1.4,0-3.6c-1.1-0.1-2.3,1.7-1.7,2.3c-1.3,0.2-3.1,3.3-2.7,2.8
		C239.4,307,240.8,307.2,242.7,306.3 M234.7,312.6c0.8-1.5,3.9-2.6,3.6-4c0,1.4-1.3-0.8-1.2,0.4
		C237.6,309.7,233.8,311.5,234.7,312.6 M237.5,255.6c-0.1-1-0.7-1.4-1.2-2c-0.2,1.9-2.7,3.6-2,5.1
		C235.4,257.8,235.6,255.8,237.5,255.6 M234.3,221.9c-0.6-2.6,1.1-4.9,0-6.7c-1.5,2-2.2,6.5-1.2,7.9
		C233.1,221.5,233.1,221.5,234.3,221.9 M234.3,279c-2,0.3-2.6-0.8-4.4-0.8c-0.8,0.1-0.4,1.5-1.2,1.6c-0.6-0.2-1-0.6-1.2-1.2
		c0.1-0.9,1.4-0.7,1.2-2c-0.9-0.1-1.5-0.6-2.8-0.4c1.1,3.2,0.6,7.9,0.4,10.3C227.5,281.9,232.3,280.4,234.3,279 M230.4,227.1
		c2.6-1.2,0.9-3.5,0.4-6.3C230.2,222.3,229.2,226.1,230.4,227.1 M226,224.7c0.9-1.4,1.6-5.9-0.4-7.1c-0.8,1.3-1.6,2.6-2,4.4
		C224.6,222.7,224.8,224.3,226,224.7 M219.7,269.1c-1.4,0.2-2.2-0.1-3.2-0.4v2C218,270.6,219.2,270.2,219.7,269.1 M216.1,275.8
		c0.9-0.6,2.1-4.6,0.8-4.8C215.7,271.4,215.2,274.6,216.1,275.8 M214.2,223.5c1-0.9,2.2,0.4,2.8-0.4c-0.8-0.2-1.3-0.8-2-1.2
		C214.7,222.5,214.4,222.9,214.2,223.5 M210.6,287.7c1-0.9,4.1-0.4,3.6-2c-3.1-1.2-3.3-10.2-4-13.9c-1.5,7.8-4.4,12.8-6.3,19.4
		c-0.9,0.8-0.4-0.1-1.2-0.4c-0.7,0.2,0,1.9-0.8,2c-1.5-0.3,0.3-2.2-1.2-2c0.3,1.5-0.7,1.7-0.4,3.2c3.4-2,4.7,2.7,7.5,1.2
		c-0.1-1.5-1.7-3.5-0.8-4.8c0.3,1.2,0.7,2.4,2,2.8c0.4-0.7,0.1-2,0.8-2.4c1,0.4,1.1,1.6,2.8,1.2
		C212.3,290.3,210.7,289.7,210.6,287.7 M208.2,222.7c3.2,0.1,4.3,0.3,5.9-0.8C212.3,221.8,208.4,220,208.2,222.7 M209.4,264.3
		c0.8,0.2,1,0.9,2,0.8C211.3,264.1,209.6,262.9,209.4,264.3 M210.2,249.3c1.4-1,1.3-3.1,0.8-4.4C210,245.6,210.2,247.5,210.2,249.3
		 M209.8,259.2c1-1-0.8-0.8-0.4-2.4c-1-0.2-0.9,0.7-2,0.4C207.4,258.7,209,258.5,209.8,259.2 M209.4,259.6c-1.4,0.1-1.5-1.2-2.8-1.2
		C206.1,260.3,208.9,261.2,209.4,259.6 M208.2,231.9c0.1-0.7,1.4-2.2,0.4-2.8C208.4,229.7,207.1,231.2,208.2,231.9 M207.4,262.7
		c-1.4-0.3,1.7-1.3,0.4-1.6c-0.4,0.8-2.7,2-3.2,0.4c0.2,0.2,1.9,0.9,2,0c-1.2,0.3-0.8-1.1-2-0.8c-0.2,0.6-0.6,1-0.8,1.6
		c0.3,0.1,0.8,0,0.8,0.4c-1.6-0.2-1.6,1.3-2.4,2c1-0.3,1.6-0.4,2.4,0.4c-0.5,0.6-2.2,0.6-2.8,0c0,0.7-2,1.3-0.8,2
		c1-0.5,3.2-1.3,4-0.8c0.2-1.3,1.5-1.4,1.6-2.8c-0.6-0.2-2,0.5-2-0.4C205.3,262,207.1,263.7,207.4,262.7 M203.9,219.2
		c0.5-1.3,0-2.6-0.8-2c1.1,1.6-4.1,0.1-4.8,1.2c0.5,0.6,1.5,0.6,2,1.2c-0.6,0.1-0.1,0.7,0.4,0.8c0.3-1.1-0.6-1-0.4-2
		C202.1,218.1,202.9,218.6,203.9,219.2 M203.5,262c1-1.4,0.1-6-0.4-5.9C203.5,258.2,202.2,261.5,203.5,262 M203.9,243.7
		c-0.4-5.6-0.3-11.1-0.4-15.8C201.8,231.1,201.7,241.5,203.9,243.7 M201.9,263.1c1.1-4.8-0.3-9.9-0.4-13.9c-0.9,0.9-0.4,3-1.2,4
		c-0.5-2.4-0.7-2.4,0.4-4.4c-3.3,0.9-0.1-3-2-2.8c-1.3,4,2.3,9.4-1.2,11.9c-1-6.7,0.1-16.4-2.8-22.6c-2.8,3.1-2.5,9.1-6.7,11.5
		c2.9-5.1,4.3-12.5,7.5-18.2c0.6,2.2-1.4,3.9-0.4,5.1c0.7-3.4,2.2-6,2.4-9.9c-1,0.1-1.2,0.7-2,0c-1.7,4.2-3,9.3-5.1,13.9
		c-0.4,0.9-1.7,1.2-2,2c-1.6,4-1.6,9.9-3.6,10.7c0,4.6-1.7,8.1,0.8,11.1c-2.6,4.5-3.1,11.2-3.2,18.2c1.9,0.5,1.4,1.9,3.2,4
		c2.4-0.7,3-3.4,4.8-4.8c-0.7-1.1-2.3,1.4-2.8,0.4c0.8-1.3,2.5-1.1,2.8-2c1-4.9,3.6-12.5,7.5-14.3c-0.9,2.6-3.9,5-3.6,7.5
		c0.3-0.6,1.3-0.6,2-0.8c0.5-1.2-1.2-2.2,0-2.8c2.2,1.6,3.4-0.8,4.8-2.4c-0.7-0.4-1.3,1.2-1.6,0c0.2-0.5,0.4-0.9,0.8-1.2
		c0.1,0.3,0,0.8,0.4,0.8c0.2-0.8-0.5-2.6,0.4-2.8C202.2,261.3,200.8,263.4,201.9,263.1 M201.1,269.1c2.3,0.5,1.7-2,3.2-2.4
		c-1.5,0.2-2.5,1-4.4,0.8c-1.8,1.5,1.1,4.5,2,2C201.6,269.4,201.1,269.5,201.1,269.1 M202.3,242.9c-0.7-0.7-1.2,0.5-1.6-0.8
		c0.8-3.4-0.3-10.5,0.4-14.3h-1.2c-0.8,5.1-0.6,12.5,0.8,16.6C201.1,244.3,202,244.2,202.3,242.9 M199.9,177.6
		c-0.1-1.9,1.1-3.4-0.8-4c-0.1,0.1-0.1,0.1-0.2,0.2c-0.1,0-0.2,0-0.3,0c-6.3,1.5-7.9-9.8-8.7-14c-0.1-0.3-0.3-0.4-0.5-0.4
		c0,0,0,0-0.1,0c-0.7,0.2-1.3,0.4-2,0.6c-0.1,0-0.3,0-0.5,0c-0.2,0.1-0.4,0.2-0.6,0.3c-8.7,3-19.5,9.3-28.2,8.5
		c13-4.7,27.4-10,37.5-16.7c1.6-0.5,2.5-1.3,3.1-2.4c0.3-0.2,0.5-0.6,0.6-1.1c-0.1,0-0.2,0-0.3,0.1c0.3-1,0.3-2.2,0.1-3.5
		c-0.5-5.1,1-10,0-15.1c-0.3-1.9-1.5-3.1-3.1-4c-3.7-2.2-3.5-5-2.7-8.8c0.8-3.7,1.8-7.4-0.8-10.2c0,0,0,0,0,0
		c-0.1-0.4-0.3-0.8-0.5-1.2c-0.7-0.4-4.5-3.7-7.9-4c-0.4,3.9-0.7,7.5,1.2,9.9c-1,2.8-3,4.7-4.4,7.1c-0.1-2.1,0.6-3.3,1.6-4.4
		c-0.8-1.3-0.8,1.1-1.2,0c0.4-1.3,1.4-3.1,1.2-4.8c0-0.4-2.5-7.2-2.8-7.5c-2.6-3.1-10.5,0.4-11.9,4c-1.2-2.9-7.2-5.1-8.3-1.6
		c-0.7-2.7-2.9-3.9-5.5-4.8c-0.9,0.8,1.1,3.4,0.4,4c-0.4,0-0.5,0.3-0.8,0.4c-0.5-1.6-1.8-2.4-3.6-2.8c-0.6,0.8-1.7,2.8-0.4,3.2
		c-1.8-0.3-0.4,0.6-1.2,0.8c-1.9-3.2-3.1-7.4-2.8-11.9c0.5,0.8,0.6,2,2,2c0.9,0.1,0.4-1.1,1.2-1.2c1.6,0.4,1.3,2.7,3.2,2.8
		c0.4-3.4,3.8-3.9,5.1-6.3c-3.1,0.7-6.6-0.2-7.1-3.2c3,0.4,4-1.2,7.1-0.8c-9.5-8.4-36.6-10.4-45.9-0.4c4.5-1,14.1-2.3,17.8,1.6v1.2
		c-4.2,1-12.5-0.4-16.2,1.6c-3.5,16.4,3.4,27.3,7.1,39.2c0.7,2.1,1,4.3,1.6,6.3c2.3,7.5,5.9,13.1,9.5,19c2.7,4.3,5,8.5,7.1,11.1
		c4.2,4.9,12,4.5,17,4.8c4.2,9.7,2.1,25.7,7.1,34.5c7.6-6.6,23.1-10.9,27.5-18.9c0.1-0.2,0.2-0.3,0.3-0.5h-0.1
		c0.3-1.2,0.1-2.6,0.6-3.8C193.1,180.4,196.6,179.1,199.9,177.6 M192,277c1.8-0.7,3.6-3.5,3.6-4.8C194.7,274.2,191.8,274,192,277
		 M191.6,274.2c1.1-0.4,4.1-1.1,3.2-2.4C194.3,273.3,191.6,272.4,191.6,274.2 M169,354.6c-1.3,1.4,0.5,4.4,1.6,2.4
		C169.5,356.7,170.2,354.7,169,354.6 M155.6,17.9c4.6-0.9,9.2,1.7,13,1.3c-1.5-2.1-5-2.1-6.7-2c0-0.5,0.7-0.4,0.8-0.8
		c-3.3-0.2-6.5-3.1-9.5-1.2c1.1,0,2.6,0.2,3.2-0.4C155.9,15.4,156.8,17.4,155.6,17.9c-0.1,0-0.3,0.1-0.4,0.1
		C155.3,18,155.5,17.9,155.6,17.9 M159.9,8.5c4.2-0.5,6.6,2.8,9.9,0.8c-0.8-2.7-6.6-4.4-9.1-2.8c0,1.4,1.3-0.8,1.2,0.4
		C161.1,7.3,160.2,7.6,159.9,8.5 M169,85.7c0-1.2-2.5-2.5-2.4-0.4C168,84.6,167.6,85.6,169,85.7 M167.4,98.8
		c-2.8,0.7-4.2-2.4-5.1-4.8c-2.3-0.3-2.5,1.5-4,2c0.4,1,0.6,2.2-0.4,2.8c-1.4-0.5-3.7-0.2-4.4-1.6c0,1.5,0.4,1.1,0,2.4
		C158.6,97.6,163.9,101.9,167.4,98.8 M162.7,86.9c1.4-0.6,1.8-1.4,3.6-0.8c-0.1-3.8-6.5-2-8.3,0c1-0.5,1.7,1.2,2,0
		c-1.9-0.2,1.3-1.1,2.4-0.8C162.4,85.8,162.8,86.1,162.7,86.9 M165.8,359.8c-1.5,0.8-1.5-0.8-2.4-1.6c-2.7-0.4-5.1-0.9-6.7-2.4
		c-1,1.5,0.4,3.4,1.2,4.4c1.4-0.5,4.3,0.9,6.3,1.2C164.9,361,165.5,360.5,165.8,359.8 M163.9,73.8c1.2-0.6,1.9-1.8,2.8-2.8
		c-2.5,0.3-4.2,1.4-5.9,2.4c-0.2,1.2,0.5,1.6,1.2,2c1.2-1,0-1.9,0.4-2.4C163.1,73,162.8,74.1,163.9,73.8 M157.9,12.8
		c3-0.3,5.2,0.5,6.7-0.8C162.7,10.8,158.2,8.5,157.9,12.8 M162.3,86.1c-0.5,0-0.5-0.5-1.2-0.4c-0.1,0.5-0.6,0.8-0.4,1.6
		C162,87.6,161.9,86.7,162.3,86.1 M159.9,20.3c-4.9,0.5-7.5-0.5-10.3,1.2C153.2,21.1,157.1,22.8,159.9,20.3 M157.1,71
		c-1-0.9-2.6,0-2.8,1.2C155.8,71.6,156.5,72.6,157.1,71 M156.7,12.4c-0.8-0.4-0.1-2.2-1.2-2.4C154.9,11.3,155.2,13.8,156.7,12.4
		 M155.5,9.3c-0.7,0.2-2.3-0.5-2.4,0.4c1.3,0.8-1.3,1-1.2,2C153.6,11.3,154.8,10.5,155.5,9.3 M155.1,16c-0.9,0.3-2.9-0.9-2,0
		c1.2,0.5-1.5,0.3-0.8,1.6h2.4C154.7,16.9,154.8,16.3,155.1,16 M152.8,43.3c-0.5-0.1-0.2-0.4,0-0.8c-0.7-0.3-1.5-0.7-2.4-0.8
		C150.2,43,151.9,44.4,152.8,43.3 M151.6,72.2c0.1-1.1,0-2.2-1.2-2C149.9,70.7,150,72.6,151.6,72.2 M150,81.7
		c0.8-0.9,0.1-2.5-0.8-2.8C149,80,148.6,81.2,150,81.7 M147.6,24.3c0.8-0.2,2.8,0.6,2.4-0.8C148.9,23.5,147.7,23.3,147.6,24.3
		 M150,68.3c-1,0.3-2.2-1.2-2.8,0c0.3,0.1,0.5,0.3,0.4,0.8C148.8,69.1,149.6,69,150,68.3 M157.9,29.5c-3-2.4-6.9-4.9-11.5-3.6
		c-0.3,2,1.5-0.9,1.6,0.4c-0.5,0.7-3.5,0.9-2.4,2C149.5,26,154.9,29,157.9,29.5 M146.8,80.6c1.3-1,0-1.5-0.4-2.8
		c-1.4-0.7-2,1.3-2.4,0.4c0.4-0.1,0.6-0.4,0.8-0.8c-2.6-2.1-4.9-6.8-10.3-4.8c0.6,1.3,2.2,0.1,2.8,0.8c-0.7,0.9,0.3,2.7,0.4,4
		c-0.9,1.2-3.9-0.3-4.4,0.4c3.7,0.2,10.5,2.9,12.7,0.8C146.8,79.4,146.4,80.3,146.8,80.6 M140.9,41.7c2.6-0.2,4.3,0.9,5.9-0.4
		C145.7,38.8,141.7,39.1,140.9,41.7 M144.4,26.3c-1.9-0.7-3.7,2.3-3.2,1.6C142.5,27.5,144,27.4,144.4,26.3 M143.3,29.9
		c-2.1-0.1-3.8,0.2-4.8,1.2C140.5,31.1,142.3,30.8,143.3,29.9 M140.1,33.4c1.1-0.7,1.8-0.1,2-1.2c-1.4-1-4.1,0.1-4.8,1.2
		C138.7,33.9,140.8,31.4,140.1,33.4 M141.7,39.4c-0.8-0.8-0.8,0.2-1.6,0.4c-0.1-0.3,0-0.8-0.4-0.8c0.4,0.7-1.2,1.3,0,1.6
		C139.9,39.7,141.5,40.3,141.7,39.4 M135.3,36.6c0.6,0,6.9-1.7,5.1-2.8C138.9,34.8,136,34.7,135.3,36.6 M140.1,37
		c-1.2-0.2,0.6-0.6,0.4-1.2c-1.3,1-3.6,0.9-4.4,2.4c1.3-0.3,2.6-0.5,3.6-1.2C139.7,37.2,140,37.4,140.1,37 M140.1,44.1
		c-1.2,0.3-1.4-0.4-2.4-0.4C137.2,45.8,139.5,44.5,140.1,44.1 M138.1,66.7c0-2.1-1-4.6-3.6-5.1c0,0.7-0.1,1.2-0.4,1.6
		c1.6,0.4,2.7-0.1,3.2,2c-0.4,1.2-0.6,2.6-1.6,3.2C137.3,68.5,137.1,67,138.1,66.7 M136.9,40.2c0.4-1.3,1.2-0.6,2-2
		c-1.4,0.6-4,0-4.8,1.2C135.7,39,136.5,38.7,136.9,40.2 M133.7,56c1.1-0.9,3.8-0.1,4-2C136.3,54.5,134.3,54.6,133.7,56 M135.7,43.7
		c1.6,0,2-1.2,2.4-2.4c-4.6,0.3-6.2,3.6-8.7,5.9c-1.6-0.8-4.4,3-2.8,4.4c1.5-2.6,5.6-2.6,8.3-4c-0.7-2.3,3.8-2.1-2.4-2
		c1.1-0.8,3.5-0.2,4-1.6C136.2,44,135.7,44.1,135.7,43.7 M133.7,49.7c0.1-0.8,1.8-0.1,1.6-1.2c-2.2,0.5-4.1,1.5-5.1,3.2
		c1.5-0.8,4.4-0.4,5.1-2C134.4,49.1,133.8,50.7,133.7,49.7 M132.6,72.6c1.2,0.1,1.5,3.2,2.8,2C134.3,74.3,133.9,71.3,132.6,72.6
		 M134.9,70.3c-0.3-0.1-0.5-0.3-0.4-0.8c-2.6,0.6-4.2,2.2-7.1,2.4c-0.4,1.2,0.6,1,0.8,1.6c-2.1-0.5-2.8,0.1-3.6,2.4
		c1.5-1.3,4,1.1,4.8-0.8c-1.2,0.4-0.7-0.9-0.8-1.6c3.5-0.9,3.4-0.6,0-1.6C131,71.6,132.8,70.7,134.9,70.3 M128.2,54.4
		c1.7-1.6,3.4-2.6,6.3-2C132.9,50.2,127.6,53.1,128.2,54.4 M133.4,54.4c-1.6,0-1,1-0.8,2c-1.4,0.3-2.6,0.8-3.2,2
		C132,57.8,133,56.3,133.4,54.4 M132.2,40.5c-1.5,0.6-0.8-1.1-2-0.8c-0.5,0.7-1.1,1.3-0.8,2.8C130.6,42.2,131.6,41.6,132.2,40.5
		 M131.4,59.2c-0.9,0-1.2,0.7-2.4,0.4c0,0.6-1.5,1.6-0.4,2c0.1-0.8,1.1-0.8,1.6-1.2c-0.1,0.5-0.7,0.9,0,1.2
		C131,60.3,130.7,60.5,131.4,59.2 M127.8,206.9c1.7-1.9,4.6-5.3,2.8-6.3c-1.4,5.5-7.3,7.1-5.9,14.3c-2.7-0.1-2,5.8-3.6,7.1v-2
		c-2.3,2.8-6.8,5.3-5.9,9.9c-5.7,4.5-6.7,13.6-10.7,19.8c-0.5,1.3,1.3,0.3,0.8,1.6c-0.2,1.2-2.4,2.3-1.2,3.6
		c6-8.8,10.8-18.7,17-27.3c-2.7,0.3-4.3-0.9-5.1-0.4c0.2-2.1,2.9-3.5,4.8-2.8c3.8-5.6,6.8-12,10.3-17.8
		C129.8,205.5,128.6,207.8,127.8,206.9 M122.7,79c2-0.6,7.2-0.2,7.1-1.6c-2.7,1.4-7.1-0.8-8.3,0.8c0.3,0.1,0.8,0,0.8,0.4
		c-0.8-0.1-0.8,0.5-1.2,0.8c0-0.5-0.7-0.4-0.8-0.8c1.4,0.4,0.7-1.7,0.4-2c1,0.1,1.2-0.6,1.6-1.2c-2.4,0.3-2.2,3.4-4,4.4
		c0.1-1.1-0.1-2-0.8-2.4c-0.3,1.3-2,1.1-2.4,2.4c2.6-0.8,0.7,0.6,1.2,1.2c1.2-0.1,0.6-0.3,1.6-1.2v0.8C119.4,80,121.8,80.3,122.7,79
		 M133.7,53.2c-3.2,0.2-6.2,3.8-7.5,5.5C128.8,57,131.4,55.3,133.7,53.2 M125.8,67.9c1.4-1.4,1.7-6-0.4-7.1
		C126.5,62.9,124.6,65.8,125.8,67.9 M121.9,348.7c-0.4-1.8-0.6-3.9-2.4-4.4c-1,1.2,0.7,1.9,0,2.4c-2.2-1.2-5-0.8-5.9-2.4
		c0.7,0,1.2-0.1,1.6-0.4c-0.2-2.2-3.9-4.5-3.2-2c-1.1-0.6-2.8-2.8-4-2c1.3,1.6,0.9,4.9,1.6,7.1c-1.1-1-0.9-0.6-1.6,0.4
		c-2.4-1.4-1.1-4.6-0.8-5.9c-1.3-0.1-0.8,1.5-2,1.6c0-1.1-0.7-0.8,0-1.6c-2-0.1-1.8,2.1-4,2c-0.4,1.5,1,1.1,0.8,2.4
		c-2.2-0.4-4.6,2.9-6.3,5.1c3.4,0,5.2,3.4,8.7,4.4c0.2-1.4-0.1-2.2-0.4-3.2c3.4,3.4,5.3,8.5,10.7,9.9c0.5-2.1-1.5-3.8-0.8-4.8
		c2,1.7,2.3,7.2,4.4,7.5c-0.9-1.6-2.1-2.9-2-5.5c0.8-0.5,2-0.6,2-2c-0.7-0.7-1.2,0.5-1.6-0.8c-0.4-3.1,0.8-4.1,1.6-5.1
		c-1.8,1.1-6.6-1.5-7.5,1.2c-1.8-2.7-6.7-1.9-7.9-0.8c0.2-3.8,5.4-1.7,7.1-3.2c2,1.7,7.8-1.4,10.7,0c-1.7-0.2-1.8,1.1-2.4,2
		C119.9,350.4,120.5,349.2,121.9,348.7 M118.7,344.7c0-1.7-1.2-2.2-0.8-4.4c-1.4,0.7-1.8-1.3-2.9-2.2c0.4,0.2,0.4-0.2,1.3-0.2
		c0-1.1,0.2-2.3-0.4-2.8c-1.3,0.6-1.6,2.1-2.8,2.8C115.6,339.7,116.5,342.8,118.7,344.7 M112.8,336.4c1.4,0.3,1-3.4,0-3.2
		c-0.4,0.5-1.1,0.7-0.8,2c0.7,0.2,1-0.6,1.2,0C113.1,335.7,112.6,335.8,112.8,336.4 M112.4,221.2c0.2-0.9,0.9-2.1-0.4-2.4
		C111.4,219.3,111.3,221.2,112.4,221.2 M108,193.4c-2.2-3.8-5.7-2.2-8.3,0.4c0.7,0.8,1.4,1.5,1.6,2.8
		C103.8,195.9,106.3,195.1,108,193.4 M102.5,259.6c-0.1-1.4,2.5-3.6,0.8-4C103.3,257,101.2,258.3,102.5,259.6 M99.3,306.3
		c-0.5-1.7,0.9-3.6,0-4.4C98.9,303.3,96.9,305.8,99.3,306.3 M98.1,302.4c1.3-3.6,0.5-6.9-0.4-9.9C97,295.5,96.3,300,98.1,302.4
		 M92.2,314.2c-0.3,0.8,3.3-5.3,2.4-5.1C93.5,310.6,92.6,312.2,92.2,314.2 M89,309.5c1.5-0.8,1-3.5,1.2-5.5c-2.1-0.4-2-5.1-4-4.4
		C88.8,303,89.1,305.2,89,309.5"/>
	<path class="st1" d="M289,190.7c0,0.7-0.5,0.8-0.4,1.6c-1.1-0.8-2.8-0.9-3.2-2.4C286.5,190.3,287.4,190.8,289,190.7"/>
	<path class="st1" d="M283.9,189.1c-1.7,0.1-3.2-3.4-5.1-4.4C280.2,184.8,282.8,187.2,283.9,189.1"/>
	<path class="st1" d="M260.5,201.7c1.2,0.8-0.7,1.9-1.6,2C258.7,202.4,260.1,202.5,260.5,201.7"/>
	<path class="st1" d="M250.2,193.8c-0.3-1.5,1.9-1.5,1.6,0H250.2z"/>
	<path class="st1" d="M243.5,216c1.4,1.2-1.2,1.9-0.8,3.6C241.4,218.4,243.4,217.2,243.5,216"/>
	<path class="st1" d="M241.1,305c0-0.2,0.3-0.3,0.4,0.1C241.4,305.1,241.2,305,241.1,305"/>
	<path class="st1" d="M241,305.1C241,305,241.1,305,241,305.1C241.1,305.1,241.1,305.1,241,305.1C241,305.1,241,305.1,241,305.1"/>
	<path class="st1" d="M208.6,286.1c0.6,1.1,0.8,2.6,0.8,4.4C208.1,290.2,207.8,287.3,208.6,286.1"/>
	<path class="st1" d="M199.9,254.8c1.7,1.3-2.3,4,0.8,4.4c-1.9,1.1-2.9,3.1-5.9,3.2C195.8,259.2,199.8,259,199.9,254.8"/>
	<path class="st1" d="M195.9,250.9c0.1,5.8-3.4,7.9-4,13.1c0.5,0.8,0.8-0.9,2,0c-0.5,1.6-1.6,0.7-2.4,2.4c1.6,6.8-4.2,10.7-5.5,14.7
		c-3.4-4.7,2.8-6.6,3.6-10.7c-1.8,0.8-3.5,1.8-5.1,2.8c-1-4.4,6.7-3.6,5.5-9.5c-1.4,0.3-3.8,3.1-5.5,4.4
		C187.4,262.9,192.6,256.8,195.9,250.9"/>
	<path class="st1" d="M195.1,245.3c1.4,0.7,0.2,3.4,0.8,4c-0.9,0.7-1.8,1-3.6,1.6C193.3,249.1,194.9,247.8,195.1,245.3"/>
	<path class="st1" d="M189.6,248.5c0.8,1.5-1.3,3.4-0.8,5.9C186.1,253.6,189.3,250.1,189.6,248.5"/>
	<path class="st1" d="M146.1,142c0.5-2,3.6-0.5,6.1-0.3h0c1.3,0.4,2.5,0.5,3.9,0.2c2.3,0,5.4,0.8,7.3,2.8
		c-8.8,0.8-20.2-3.5-32.5-0.8c1.5-3.3,12.1,0.3,13.5-2.8C144.7,141.7,146.1,141.2,146.1,142"/>
	<path class="st1" d="M158.3,16c1.3-0.2,1.4,0.7,2.8,0.4C161,17,157.8,17.3,158.3,16"/>
	<path class="st1" d="M160.3,226.7c1.6,2.5-4.5,0.7-4,3.6c-0.8,0.9,0.3-2,0.4-2.8c-2.7,3.6-2.6,10.1-5.9,13.1
		c-1.8-2.3,0.7-6.6,0.8-9.5c1.1-0.1-0.7,3.4-0.4,5.1c1.4-2.7,1.6-6.6,2.8-9.5c-0.3-1.4-2.3-1.1-2.4-2.8c0.5-1,1.9,0.4,2-0.4
		c0.6,0.4,0.9,1.1,0.4,1.6c1,1.1,5,0.9,4,2.8C159.1,227.9,160.5,228.1,160.3,226.7"/>
	<path class="st1" d="M154.7,150.7c1.1-1.8,0.8,1.1,2.4,0c-1.8,4.6-9.7,0.1-10.7,5.2c-0.8-0.7-0.3-0.7-1.6-0.4
		c0.2-2.4-0.9-0.9-1.2-3.6c-0.5,1.2-2.3-2.1-2.4,0c-0.5-3.3,4.5-0.9,7.1-1.2c2.4-0.2,4.2-1.5,5.5-2
		C154.1,149.2,154.4,149.5,154.7,150.7"/>
	<path class="st1" d="M150,127.7c1.8-1.2,4-2,3.6-5.5c-0.3-0.9-1-1.4-2.4-1.2c-0.3-1.9-1.6-2.9-1.2-5.5c8,2.4,9.6,22.4-3.2,19.8
		c-1.3-1.1-2.9-1.9-4-3.2c-0.5,1.1-0.9,2.3-2,2.8c-1-0.9-0.9-2.8-1.6-4c0.1-0.7,1.3-0.2,1.6-0.8c0.3-1.2-1.4-0.5-0.8-2
		c2.5-2.2,6.8-0.5,8.7-2.8C150,125.3,149.8,126.7,150,127.7"/>
	<path class="st1" d="M143.6,53.2c0.2,1.4-1.2,1.2-1.6,2C141.4,54.9,142.5,53.1,143.6,53.2"/>
	<path class="st1" d="M137.7,97.6c-1.1-0.4-1.8,1.8-3.2,0.8c-1.1,0.4,0.8,1,1.2,1.2c-1.9,1.2-5.4,0.7-6.3,2.8
		c-0.8-3.9-5.4-0.9-4.8,2.4c-1.2-2-0.9,1.2-2.4,1.2c0-1.7,0.3-3.7-1.2-4c-2.1,1.6-1.9,5.5-4,7.1c-1.9-3.1,3.6-11.7-1.2-14.3
		c0.5-1.6,2.1-2.2,2.4-4C127.2,90,135.8,88.7,137.7,97.6 M135.7,98c1-5.5-3.5-3.9-4-0.8C133.8,96.7,134.1,98,135.7,98 M122.7,94.4
		c0.6,2,3.4,4,5.5,3.2c-2.5-0.6-2.5-5.6-4.8-5.1C123.1,92.9,123.8,94.8,122.7,94.4"/>
	<path class="st1" d="M118.3,228.3c1,1.1-1,2.7-1.2,4C116,231,118,229.4,118.3,228.3"/>
	<path class="st1" d="M110,240.2c1.3-0.1,1.4,1.7,0.8,2.4C109.8,242.3,109.1,241,110,240.2"/>
	<path class="st1" d="M94.5,309.1c0.9-0.1-2.6,5.9-2.4,5.1C92.6,312.2,93.5,310.6,94.5,309.1"/>
	<path class="st1" d="M90.2,303.9c-0.2,2.1,0.3,4.8-1.2,5.5c0.1-4.2-0.2-6.5-2.8-9.9C88.2,298.9,88,303.6,90.2,303.9"/>
</g>
</svg>
