<?xml version="1.0" encoding="utf-8"?>
<!-- Generator: Adobe Illustrator 19.0.0, SVG Export Plug-In . SVG Version: 6.00 Build 0)  -->
<svg version="1.1" id="Layer_1" xmlns="http://www.w3.org/2000/svg" xmlns:xlink="http://www.w3.org/1999/xlink" x="0px" y="0px"
	 viewBox="0 0 320 380" style="enable-background:new 0 0 320 380;" xml:space="preserve">
<line class="st0" x1="-0.3" y1="378.6" x2="221.7" y2="378.6"/>
<style type="text/css">
	.st0{fill:none;stroke:#EBEBEF;stroke-width:2;}
	.st1{fill:#EBEBEF;clip-path:url(#SVGID_2_);fill-rule:evenodd;clip-rule:evenodd;}
</style>
<g>
	<defs>
		<rect id="SVGID_1_" x="63.5" y="1.6" width="196.5" height="378"/>
	</defs>
	<clipPath id="SVGID_2_">
		<use xlink:href="#SVGID_1_"  style="overflow:visible;"/>
	</clipPath>
	<path class="st1" d="M260,365.2c-1,2.2-1.5,4.9-2.9,6.7c-11.9,2.5-24.5,4.3-35.5,7.7H119.4v-0.5c-0.8-0.2-0.4-1.5-1.9-1
		c0.1,0.8-0.5,0.8-0.5,1.4H81c-3.7-1.9-5.8-0.4-10.1-2.4c-0.6-1.5-0.3-3.9-2.4-3.8c0.7-6.3-5.1-12.4-3.8-19.2c0.8-0.2,0.9,0.4,1,1
		c1.7-4.7,6.2-6.6,10.1-9.1c0.2-4.5-1.8-8.7-1.4-12.5c0.3-3,2.5-4.8,2.4-7.7c0-0.9-1-1.9-1-2.9c0.1-4.2,1.2-12.4-1.4-18.2
		c4.2-10.3,9.3-19.8,12.5-31.2c0.9,0.1,0.3,1.6,1,1.9c0.7-0.8,1-1.9,1.9-2.4c-1.5-1.4-0.6-5,1.4-5.8c-1-1.8,0.5-5.6,1.9-4.8
		c-0.5-1.8,1.4-3.5,1.4-3.4c-0.1-1.7,0.9-0.7,1.4-1.4c0.6-0.8,0-1.8,0.5-2.9c0.7-1.4,2.9-2.4,3.8-3.8c2-3,2.4-7.4,5.8-9.6
		c-2.8-6.5-8.5-10.7-9.1-20.2c-0.6-8.1-3.4-18.3-4.8-27.3c-1.9-12.2-4.9-33.9-5.8-48.5c-0.3-4.5-1.4-10.9,0.5-13.9
		c4.8-7.8,19.1-11.1,28.3-13.4c4.2-1.1,7-0.1,9.6-3.4c-2.7-5-5.3-10-9.1-13.9c-2-7.9-7-12.8-10.1-19.7c2.5-2.3,6-1.9,9.1-2.9
		c-2.8-7.1-2.6-17.9-3.8-24C113,41.5,115,25,124.7,16.4c6.7-6,17.6-12.3,28.3-13.9c3.5-0.5,7.5-0.9,12-0.5
		c8.5,0.7,14.4,5.7,21.1,9.1c4,2.1,6.7,3.2,7.7,9.1c6.5-0.3,6,6.5,6.7,12c-0.8-2.4-1.8-4.8-2.8-7.5l3.3,10.3
		c-1.1-0.8-2.7-1.2-4.3-0.4c0.8,2,3.5,2.1,5.2,3.3l0.5,1.7c-0.1-0.3-0.1-0.7-0.2-1c2.6,6.7,3.7,16.3-0.2,22.5
		c0.9,0.3,2.6-1.2,2.9,1.4c2.5-0.4,3.5-2.2,3.8-4.8c0.8,5.5-3.3,10.1-6.2,13.4c0.7,12.1-1.8,25.1-10.6,29.3
		c-0.2,1.1,0.1,1.8,0.5,2.4c4.3,1.3,6.7,5.3,5.8,8.2c3.6,2,7.9,3.3,11.5,5.3c-3.8,0-9.7-3-13-0.5c-1.8,2.6-4.7,4.2-7.2,6.2
		c1.8,6.3-0.5,14.6-0.5,21.1c0.1,10.4,5.3,20.3,5.8,30.2c-3.1-3.8-3-9.2-3.8-13.9c-0.8-4.6-2.5-9.5-2.9-14.4
		c-0.5-6.8,1.7-13.4,0.5-20.2c-0.1-0.4-0.9-1.6-1-1.2c0-0.7,0.7-0.3,1-1.7c0.1-0.9-1-3-1-2.9c0-3.9,1-9.7,1-14.9
		c-3.1-3.7-5.5-2.4-8.6-6.2c-4.6,0.6-3.5,4-6.7,5.8c-2-2-3.8-4.2-4.8-7.2c-3.6,0.1-3.5-0.5-6.7-0.5c5.7-6.8,20-11.7,20.6-24
		c0.1-3.1-2-6.9-2.4-11c-0.4-3.7,0.9-8,0.5-11c-0.7-5.1-5.1-9.1-7.2-11.5c-1.9-3.6-3.4-7.5-6.2-10.1c0.4-4.9-2.4-6.6-3.8-9.6
		c-11.6-7.4-22.6,2.4-30.2,8.6c-1.3,5.6-4,9.8-4.3,16.3c0.2,2,4.3,0.2,5.3,1.4c-0.9,2-4.4,1.3-5.8,2.9c-0.3,2.9,0.5,6.9-0.5,9.1
		c5.8,0.8,7-5.4,12.5-3.4c-6.2,5-13.5,6.2-13.9,15.8C125.8,79.5,135,96,145.8,98c3.4,0.6,6.5,0,10.1,0c-1.5,10,5.6,18.6,8.2,27.3
		c2.4,0.9,6-0.2,8.2,1c0.8,1.8-0.3,0.8-0.5,2.4c-1.4-1.1-0.5-1.9-3.8-2.4c-0.6,2.1,1,1.9,1.9,2.4c-1.1,0.9-3,1.1-4.8,1.4
		c-3.7,3.9-0.1,9,0,16.8c0.1,8-2.3,17.1,4.8,20.2c1.5,5.3,2.8,8.1,3.8,13.4c-1.1,2-3.5,2.6-4.3,4.8c1.4,1.3,2-2.1,4.3-1.4
		c-0.8,2.3-3.8,2.3-4.3,4.8c2.3-0.4,2.6-2.9,4.8-3.4c1,2.2-1.9,4-3.8,4.8c2.6,2.1-2,4.2-2.9,8.6c3.5,0.8,2.7-2.8,4.3-3.8
		c0.9-0.9-1.1,2.5-1.4,3.4c1,0.5,3.6,2.5,3.8,0.3c0,1.6,2.1,5.9,3.9,3.5c-0.4,1.6,1.3,3.8,1.9,5.8c1.8-2,6.2-5.5,3.8-8.6
		c1-1.1,1.4,2.8,3.4,1c-1.4,1.9,0.6,3.7,0.5,5.8c-1.5-0.4-0.8-3-1.9-3.8c-2.2,1.4-3.1,4-4.8,5.8c0.3,0.6,0.5,1.8,0.8,2.8
		c-0.2-0.5-0.5-0.9-0.8-1.3c-1.5-0.2-1.4,1.2-1.9,1.9c0.3-1.5,0.7-5.2-1.4-6.7c-1.1,0.1-0.9,1.5-1.5,2.1c0.7-1.5-1-8.7-3.2-4.1
		c-1.4-0.4,0.6-1.2,0-2.4c-0.1-0.9-1.6-0.3-1.9-1c-1.5-0.1-1.7,1.2-1.9,2.4c-1.4-0.4,0.6-1.2,0-2.4c-2.2,0-2.4,2.1-2.9,3.8
		c-1.4-0.3,0.5-1,0-1.9c-1.5,1.4-1.7,4.1-1.9,6.7c0.7-0.7,0.8-2.1,1-3.4c1.1,0.1,0.3,2.1,0,2.4c2.2,0.4,1.9-1.6,2.4-2.9
		c1.1-0.9-1.2,4,1.4,3.8c1,0.1,1.5-0.4,1.4-1.4c2.4,6.5,8.9,12,10.6,19.7c2.2-1.1,2.4-4.3,3.8-6.2c-1.6-5-0.2-3,1,0.5
		c-2.7,2.4-4.9,6.7-2.9,11c1.5,0.2,1.4-1.2,1.9-1.9c-1.8,2.9,0.5,7.4,1.4,11.5c-0.7-0.4-0.7-1.5-1-2.4c-1.7,0.7-1.9,2.9-2.9,4.3
		c-0.2-2.1,3.5-5.8,1-9.1c-2.6,1-4.8,8.9-1.9,9.6c1.2,0.4-0.9,2.1,0.5,2.9c4.2,1,2.7-3.7,5.3-4.3c0.3,1.3,0.7,2.5,1,3.8
		c3.5-0.6,4.6-4.4,2.9-7.7c-0.4,0.2-0.8,0.4-1,0.7c0.6-1.8,0.1-6-0.9-6.5c2.6-3.4,6.4-6.5,3.4-12c-0.5,0.2-0.9,0.5-1.2,1
		c0.6-1.6,0.8-5.2-0.7-7.2c-0.3,0.1-0.6,0.3-0.9,0.6c0.6-2.3-1.3-7.2-2-6.8c1.1-1.7,4.1-3.7,5.8-6.2c-0.6-1.2-0.2-3.3-1.9-3.4
		c8.1-3.3,19.4-5,26.9-0.5c-7.4,3.1-16.6,0.2-25,0c-0.8,0.9,0.4,2.4,0.5,3.8c1.1-0.2,2.1-0.5,2.4-1.4c1.5,0.7-0.8,1.7-1.4,1.9
		c5.5,1.6,18.2,6.9,21.1,1.9c1.4,0.3-0.5,1,0,1.9c4,1.3,8.2,2.8,10.1,7.2c3.4-1,6.8-2.7,8.6,0.5c-0.1-0.9,0.5-1,0.5-0.5
		c1.9-9.2-9.1-16.4-13.4-22.1c-5.7-7.4-9.1-20.5-24.9-17.8c7.3-15.3,9.4-35.7,16.3-51.3c-0.5-1.8,1.3-3-0.5-3.4
		c1.5-1.5,3.5,0.6,5.8,0c10.9,8.9,27.1,8.6,36,20.6c5.4,7.3,3,21.7,2.4,34.5c-0.7,14.3-1.2,30-1.9,44.6c-1.2,26-1.7,51.5-20.2,59.5
		c4.7,6,5.9,12.7,9.1,20.2c2.7,6.3,5,19.6,6.2,29.3c1.2,9.9,1,26.6,3.8,32.1C255,361.8,258.9,362.7,260,365.2 M227.4,286.5
		c1.4-0.4,1.6-4.5,1-5.3C228,283,227.8,284.9,227.4,286.5 M227.4,280.8c0.2-1.3,1.6-5.8,0-5.8C227.8,277,225.9,279.3,227.4,280.8
		 M225.9,293.2c1.6,0,2.6-5.1,1-5.3C226.6,289.7,226.4,291.6,225.9,293.2 M226.9,274.5c-0.7-2.2,2-5.4-0.5-6.2
		C227.2,270.8,224.7,273.6,226.9,274.5 M225.5,287c1.4-0.2,2.7-5,1-5.3C226.4,283.8,225.3,284.8,225.5,287 M226.4,296.1v-1.4
		c-1.6,0-2.2,3.5-1.4,4.3c0.1-0.4,0-0.9,0.5-1c0.1,0.4,0,0.9,0.5,1c0.3-1.6-0.3-2.2-0.5-3.4C225.9,295.6,226,296,226.4,296.1
		 M225,280.8c1.3-0.2,2.4-5,0.5-5.3C225.5,277.5,224.6,278.5,225,280.8 M225,267.8c1.6,0.5,1.1-3.6,0.5-3.8
		C225.8,265.8,224.9,266.3,225,267.8 M224.5,293.7c0.5-1.4,2.3-5.1,0.5-5.8C224.9,289.5,222.4,293.1,224.5,293.7 M225,274.5
		c-0.1-1.6,1.6-5.7,0-5.8C224.8,270.3,223,273.8,225,274.5 M224,287.5c0.2-1.7,2.4-4.9,0.5-5.8C224.2,283.3,222,286.5,224,287.5
		 M223.1,267.8c2.1,0,1.7-5,1-6.2C223.4,263.3,223.6,265.9,223.1,267.8 M223.1,300c-0.1-2.1,1.3-2.8,1-5.3c-1.9,0.2-2.2,4.5-1.9,5.3
		C222.2,299.4,222.6,299.7,223.1,300 M224,268.8h-1.4c0.4,1.8-2.2,4.8,0,5.3C223.8,273,223.1,270.1,224,268.8 M222.6,280.8
		c1.8,0.1,2.8-4.9,1-5.3C223.3,277.3,222.4,278.5,222.6,280.8 M223.5,301.4C221.6,306.7,224.4,305.3,223.5,301.4 M223.5,248.1
		c0-2.2,0.3-4.7-1-5.8C222.8,244.5,222,247.4,223.5,248.1 M223.5,254.4c-0.5-1.6,1.1-5.2-1-5.3C223.1,250.7,221.5,254.3,223.5,254.4
		 M223.1,262h-1.4c0.2,2.3-0.9,3.3-0.5,5.8C223.1,267.2,222.6,264.1,223.1,262 M221.6,287c0.9-1.1,1.1-3,1.4-4.8
		c-0.6,0-0.7-0.6-1.4-0.5C222.1,283.5,219.2,286.3,221.6,287 M222.1,261.1c1.9,0.3,2.2-5.5,0.5-5.8
		C223,257.8,221.9,258.8,222.1,261.1 M222.6,293.2c-0.5-1.7,2.5-4.2,0-4.8c-0.4,1.2-1.8,3.9-1,4.8c0-0.3,0.1-0.6,0.5-0.5
		C222.1,293,222.2,293.3,222.6,293.2 M222.6,275.5c-0.7,0-1.1-0.2-1.4-0.5c0.4,1.8-2.4,4.6,0,5.3C222.1,279.1,222,277,222.6,275.5
		 M222.6,301.4h-1c0-0.3-0.1-0.6-0.5-0.5c-0.1,1.3-1.8,3.6-1,4.3c0-0.3,0.1-0.6,0.5-0.5c0.6,0,0.4,0.8,1,1
		C221.6,303.9,222.1,302.7,222.6,301.4 M222.1,248.6c-0.5-1.6,1.1-5.2-1-5.3C221.6,244.9,220.1,248.6,222.1,248.6 M221.6,254.9
		c0.6-0.6,1.3-5.4-0.5-5.3C221.5,251.2,219.3,254.4,221.6,254.9 M220.7,299c0.1-1.6,1.2-2.3,1-4.3h-1.4c0.4,1.7-1.9,3.2-0.5,4.3
		C219.8,298.4,220.2,298.7,220.7,299 M221.6,242.4c0-1.3,0.3-2.8-1-2.9C220.7,240.8,220.4,242.3,221.6,242.4 M221.1,261.6
		c0-1.4,1.7-5.3-0.5-5.8C220.6,257.4,219.2,260.9,221.1,261.6 M221.1,262.5c-0.7,0-1.1-0.2-1.4-0.5c0.4,1.8-2.4,4.6,0,5.3
		C220.8,266.3,220.3,263.8,221.1,262.5 M220.7,274c-0.4-1.8,2.4-4.6,0-5.3C220.1,269.9,218.7,273.4,220.7,274 M218.8,293.2
		c2.1-0.3,2.2-2.6,2.4-4.8c-0.6,0-0.7-0.6-1.4-0.5C219.6,289.9,218,292,218.8,293.2 M220.2,310.5c0.8-3.4-0.3-2.5-1.4-3.4
		c0.3,1.5-0.8,1.4-0.5,2.9c0.7,0,1.1-0.2,1.4-0.5C219.8,309.9,219.7,310.5,220.2,310.5 M219.2,287c0.3-2,1.4-3.1,1.4-5.3
		c-0.6,0-0.7-0.6-1.4-0.5C219.7,283.3,217.8,285.5,219.2,287 M219.7,243.3c0.8-1.1,0.8-4.7-0.5-5.3
		C218.6,239,218.1,243.1,219.7,243.3 M219.7,249.6c0.4-0.8,1.4-5.3-0.5-5.3C218.4,245.4,218.4,249,219.7,249.6 M218.8,304.8
		c0.1-1.5,1.1-2.1,1-3.8c-0.7,0-1.1-0.2-1.4-0.5c-0.1,1.5-1.1,2.1-1,3.8C218,304.3,218.4,304.5,218.8,304.8 M218.8,261.6
		c0.5-1.5,1-3.2,1-5.3h-1.4C218.5,258.1,216.7,260.8,218.8,261.6 M218.8,255.3c2.1,0.6,2.1-5.3,0.5-5.3
		C218.3,251.1,218.9,253.6,218.8,255.3 M219.2,237.6c0.9-1.3,0.6-4.5-0.5-5.3C218,233.9,218.4,236.2,219.2,237.6 M218.8,231.8
		c0.4-0.9,0.4-4.7-1-5.3C217.8,228.6,217.6,230.9,218.8,231.8 M218.3,298.5c-0.1-1.7,0.9-2.3,1-3.8c-0.6,0-0.7-0.6-1.4-0.5
		c-0.4,1.3-1.1,2.4-1.4,3.8C217.3,297.9,217.4,298.6,218.3,298.5 M216.4,292.3c1.7,0.2,2.9-4.5,1.4-4.3
		C217.3,289.4,216.1,290.1,216.4,292.3 M217.8,317.2c0.6-1.9,1.7-4.4-0.5-5.3c-0.6,1.3-1.4,2.4-1.4,4.3
		C217.2,315.9,216.8,317.2,217.8,317.2 M217.8,238.5c-0.3-1.3,0.6-3.8-0.5-4.3C216.7,235,216.3,238.4,217.8,238.5 M217.8,255.3
		c-0.4-1.3,1-4.5-1-4.3C216.2,251.9,215.6,255.8,217.8,255.3 M217.3,322.5c1.7,0.4,1.1-3.2,0-2.9c0.5,0.9-1.4,1.6,0,1.9
		C218.1,320.4,217.3,321.7,217.3,322.5 M216.8,250.1c2,0.7,2.1-4.9,0.5-4.8C216.5,246.2,217,248.4,216.8,250.1 M216.8,244.3
		c2.5,0.2,1.4-4.1,0.5-4.8C216.5,240.4,217,242.7,216.8,244.3 M217.3,233.3c-0.3-1.3,0.6-3.8-0.5-4.3
		C216.2,230.4,216.4,232.1,217.3,233.3 M216.8,310.5c0.5-2.1,1.3-3.7-0.5-4.8c-0.4,1.5-1.4,2.4-1.4,4.3
		C215.7,310,216.4,310.1,216.8,310.5 M216.8,228c-0.3-1.3,0.6-3.8-0.5-4.3C215.8,224.9,215.4,227.3,216.8,228 M216.4,325.4
		c0,0.3,0.4,0.5,0.5,0c-0.3,0-0.6-0.1-0.5-0.5c0.3,0,0.5-0.4,0-0.5c-0.1,0.7-1.1,0.3-1.4,0c0,0.7-0.2,1.1-0.5,1.4
		c0.6-0.1,1.4,2,1.9,0.5C215.9,326.3,215.7,325.5,216.4,325.4 M215.9,304.3c0.8-1.9,1.7-4.4-0.5-4.8
		C215,301.2,213.5,303.6,215.9,304.3 M215.9,244.8c0-0.8,1.6-3.5-0.5-3.4C215.7,242.4,214.8,244.6,215.9,244.8 M215.4,322
		c0.5-1.1,0.8-2.4,1.4-3.4c-0.9-0.2-1.2-1-2.4-1c-0.1,1.7-1.4,2.1-1.4,3.8C213.5,321.9,214.3,322.2,215.4,322 M214.4,316.3
		c0.3-1.7,1.3-2.6,1.4-4.3c-0.7-0.3-1.2-0.7-1.9-1c-0.6,1.3-1.4,2.4-1.4,4.3C213.2,315.6,213.7,316,214.4,316.3 M214.9,305.7
		c-0.7,0-1.1-0.2-1.4-0.5c0.6,1.8-1.4,3.3,0,4.3C214.1,308.4,214.7,307.2,214.9,305.7 M212.5,327.3c0.4-1.4,1.5-2,1.4-3.8
		c-1.3,0.4-1-1-1.9-1c-0.6,1.3-1.3,2.6-1.9,3.8C211,326.5,211.3,327.4,212.5,327.3 M213,250.5C213,256.1,215.4,254.2,213,250.5
		 M212,221.7c0.4,1.9-1,5.5,1.4,5.3C213.3,225,213.5,222.6,212,221.7 M213.5,249.1c-0.7-1.2,0.3-4.1-1.4-4.3
		C212.2,246.5,211.9,248.8,213.5,249.1 M213,232.3c-0.5-2.3,1.4-4-1-4.3C212,229.8,212.1,231.5,213,232.3 M212.5,254.4
		c0.3-1.8-0.8-2.1-0.5-3.8C209.5,250.4,210.6,254.7,212.5,254.4 M212.5,215.5c0.1-1.8,0-3.5-1-4.3
		C211.6,212.9,211.3,215,212.5,215.5 M212,217.9c-0.4,6.2,1.8-1.3-0.5-1.9C211.5,216.8,211.7,217.5,212,217.9 M213.5,317.2
		c-0.7-0.3-1.2-0.7-1.9-1c-0.2,1.7-1.1,2.8-1,4.8C213.1,321.4,212.7,318.6,213.5,317.2 M211.6,246.2c-2.2-0.2-2.4,3-0.5,3.4
		C212.1,249.4,211.3,247.2,211.6,246.2 M211.6,328.3c-1.2,0.1-1.5-0.8-2.4-1c-0.6,0.6-1,3.8,0,4.3
		C210.5,331,210.7,329.3,211.6,328.3 M211.1,217.9c-0.4-1.2,0.9-4.1-1-3.8C210.4,215.3,210.3,217.1,211.1,217.9 M210.6,212.6v-2.9
		c-0.9-0.2-1.2-1-2.4-1C208.1,210.9,208.8,212.4,210.6,212.6 M204.8,218.4c0.9-1.4,2.5-2,1.9-4.8c-0.6-0.6-1.7-0.5-2.9-0.5
		C203.8,215.3,203.9,217.2,204.8,218.4 M206.3,244.3c0.1-1.6,1-3-0.5-3.8c-0.1,0.9-1.6,0.3-1.4,1.4c0.7,0.1,0.4,1.2,0.5,1.9
		C205.5,243.8,205.9,244,206.3,244.3 M204.8,239c0.5-1.1,0.8-2.4,1-3.8c-0.6,0-0.7-0.6-1.4-0.5C203.1,235.5,203,238.7,204.8,239
		 M204.8,211.7c1.5-1.7-0.3-4.2-1.9-4.3C203.1,209.3,202.5,211.9,204.8,211.7 M204.4,258.2c0.3-1.6-0.9-4.2-1.9-2.9
		c1.2,0.1,0.9,1.6,1,2.9c-1.2,0.6-2-1.4-2.4,0C201.9,259.3,203.4,259.3,204.4,258.2 M202.9,233.7c2-0.8,1.2-2.6,1-4.8
		c-1.4-0.4-1.2,0.7-2.4,0.5C201.7,231.1,201.6,233.1,202.9,233.7 M200.5,227c4,1.2,2-3.4,2.9-5.3c-1.4-1.3-2.3,0.9-3.4,1.4
		C200.5,223.5,200.5,225.1,200.5,227 M202.9,219.3v-5.8c-2.2-0.2-2.7,1.5-4.3,1.9c-0.1,2.3,0.6,3.8,1,5.8
		C201.1,221.1,201.7,219.9,202.9,219.3 M200.5,269.7c2.9,0.2,3.4-3.2,1.9-4.8c-1.3,0-2.8-0.3-2.9,1c1.5,0,3.2-0.3,2.9,1.4
		C203.1,269.4,200.2,267.9,200.5,269.7 M201,247.2c3.3,0,3.2-4,1.4-5.8c-0.6,1-1.4,1.8-2.4,2.4C200.4,244.9,200.5,246.3,201,247.2
		 M202.4,212.1c0-2.1-0.6-3.5-1-5.3c-2.4-0.2-3.3,1.1-4.8,1.9c-0.2,2.4,1.1,3.4,1,5.8C200.1,214.6,200.8,212.9,202.4,212.1
		 M200,242.4c1.5-1.9,2.8-2.4,1.9-5.8c-2.1-0.5-2.2,1-3.4,1.4C198.6,240,198.7,241.8,200,242.4 M200.5,277.4
		c0.9,2.5-1.3,1.9-1.4,3.4c3.9,0.1,2.2-6.7-1-4.3C199,276.7,200.1,276.7,200.5,277.4 M197.2,287c0.5,0.9,2.8,2.6,2.9,2.4
		C199.4,288.3,199.2,286.7,197.2,287 M197.6,237.1c3.3-0.5,4.3-4.9,1.9-7.2c-0.6,1.4-2.3,1.6-2.9,2.9
		C196.5,234.7,197.8,235.2,197.6,237.1 M199.6,247.2c-0.1-1.2-0.1-2.5-1.4-2.4c-0.1,0.7-0.8,0.8-1,1.4
		C198.4,246.1,198.6,247,199.6,247.2 M195.7,231.3c5.7,0.1,4.5-12-0.5-5.3C194.9,228.3,195.8,229.4,195.7,231.3 M198.6,243.3
		c-0.6-1.5-0.4-3.8-1.9-4.3c-1.5,1.6-5.6,5-1.4,6.7C196.2,246.6,197.3,243.6,198.6,243.3 M199.6,206.4c-1-1.7-2.2-3.3-4.8-3.4
		c0.3,1.6,0.8,3.1,1,4.8C197.8,208.2,197.9,206.4,199.6,206.4 M194.3,225.6c3.7-0.8,5.7-6.2,2.4-9.1
		C193.5,218.2,192.8,221.3,194.3,225.6 M196.7,238.5c0.2-2.1-0.3-3.5-1-4.8c-3,0.9-4.6,3.8-3.4,7.7
		C194.3,240.9,195.1,239.4,196.7,238.5 M195.7,110.9c1.6,3.6-1.3,6.6,1.9,1.9C196.9,112.3,196.5,111.5,195.7,110.9 M192.4,218.9
		c2.2-0.7,3.1-2.7,4.8-3.8C197.1,205.8,188.8,212.8,192.4,218.9 M190.9,236.6c3.1-1.7,5.4-4.8,3.4-9.1
		C191,229.1,189,232.3,190.9,236.6 M192.8,118.1c1.4,0.3,2.7-2,1.4-2.9C194.3,116.7,193,116.9,192.8,118.1 M190.4,212.6
		c3.9-1.5,5.9-5.3,3.4-9.6C190.1,204.3,187.6,208.6,190.4,212.6 M193.3,245.7c0.2-1.2-0.9-1-0.5-2.4c-1.5,0.3-2.5,1.1-2.4,2.9
		C191.6,246.3,192.8,246.3,193.3,245.7 M191.4,326.3c1.9,0,2.4-2.7,1-3.4C192.7,324.7,192,325.5,191.4,326.3 M191.9,60
		c0-0.5-0.4-0.6-0.5-1c-0.7-3.1,1.7-9.4-1.9-9.6C189.9,53.1,190.3,59.2,191.9,60 M189.5,116.7c1.6-1.4,6-4.6,1.4-6.7
		C189.8,111.5,189.2,113.6,189.5,116.7 M190,121.5c0.7-0.7,2.9-2.8,1-3.4C191.7,120,188.4,120.3,190,121.5 M188.5,337.9
		c4,0.9,2.4-6.8-0.5-4.3C191.7,333.3,190.1,336.9,188.5,337.9 M187.1,246.2c0.1-1.2,0.1-2.3-1-2.4c-0.2,0.9-1,1.2-1,2.4H187.1z
		 M179.4,239c1.6-2.8,4.5-7.6,1.4-11c-0.9,1.4-1.3,3.2-2.4,4.3c1.6-2.9,2.4-5.9,1-9.6c-2,0.3-1.7-3.5-2.9-5.3
		c-1.6-0.4-0.8,1.8-1.9,1.9c1.1-2.7-0.2-4.6-1-6.7c-1.7-0.7-0.3,1.6-1.4,1.4c1-4.5-2.8-4.9-5.3-6.7c-0.4,0.8-0.2,2.4-1,2.9
		c-0.4-1.7,0.9-2,0-2.9c-1.7,0.8-2.9,6.3-1,7.7c0.2-1.3,0.2-2.6,1-3.4c-0.2,2.7-0.8,4.3,1.4,5.3c0.1-0.6-0.1-1.4,0.5-1.4
		c-0.5,3,1.7,4.4,2.9,4.3c0.1,2-1,2.9-1.4,4.3c0.6-3.1,0.2-4.4-1.9-5.8c-0.3,0.8,0.6,2.8-0.5,2.9c0-2.1,0.3-4.5-1.4-4.8
		c-0.1,2.8-1.6,7.4,1,8.6c0.3-0.7-0.6-2.5,0.5-2.4c-0.6,5.8,2.7,4.6,2.9,9.6c1.9,0.8,0.2-2.1,1.4-1.9c-0.8,2.3,0.2,7.8,1.9,5.8
		c-0.9,1.9,0.3,4.1,1,5.8c0.2-0.6,0.5-1.1,1-1.4c-0.7,2.2-0.5,4.9,1,6.2c0.2-0.6,0.5-1.1,1-1.4c-0.1,1.2-0.9,1.5,0.5,1.9
		c3.4-0.3,3.1-4.1,1.4-6.2c-0.2,0.6-0.5,1.1-1,1.4c0.9-2.1,0.5-5.5-1-6.7c-0.1,0.9-0.3,1.6-1,1.9c0.9-2.1,0.5-5.5-1-6.7
		c-0.7,0.8-0.4,2.5-1.4,2.9c1.2-2.8,1-5.8-1-7.7c-0.7,0.3-0.1,1.8-1,1.9c1.6-2.6-1.3-4.7-0.5-6.2c1.2,2.6,2.6,3.5,3.4,7.2
		c0.9,0.1,1-0.6,1.4-1C175.1,232,178.5,235.3,179.4,239 M177.5,256.3c-0.7-0.3-2.5,0.6-2.4-0.5c-0.5-2,3.8-2.3,1.4-3.4
		C172.3,252.7,174.9,260.9,177.5,256.3 M176,273.1c-1.9-0.5-3.7,3.3-1.4,3.8C173.9,274.4,175.7,274.5,176,273.1 M175.1,247.7
		c0.2-1.5-0.9-1.7-0.5-3.4c-1.8-0.2-0.7,2.5-1.9,2.9c0.6-2.8,1.5-5.7-0.5-7.7c-0.7,3.1-2.3,5.7-1.4,9.1
		C172.8,247.9,172.8,248.1,175.1,247.7 M174.6,296.6c-0.9-4.2-6.2,1.9-2.4,2.9C171.3,297.3,172.2,295.3,174.6,296.6 M170.3,244.8
		c0.7-3.1,2.6-7.7,0-10.1C170,238,167.5,242.4,170.3,244.8 M168.9,240c0-3.2,2.3-7.3-0.5-9.1C168.3,234.2,166.4,238.1,168.9,240
		 M167.4,250.1c2.5-0.2,2.3-5,1-6.2C168,245.9,167.8,248,167.4,250.1 M165.5,200.2c1.7-0.7,2.7-4.6,2.9-5.3
		C167.2,196.4,166.4,198.4,165.5,200.2 M166.9,247.2c0.4-1.9,1.9-5.8,0-7.2C167.5,242.6,165.4,245.2,166.9,247.2 M166.9,235.7
		c0.5-2.1,2.2-7.1-0.5-8.2C166.8,230.1,165.8,233.9,166.9,235.7 M166,242.4c-0.2-1.8,1.4-4.3,0-5.8
		C166.6,238.9,164.8,241.1,166,242.4 M165.5,232.3c0.2-1.8,1.5-6.3-0.5-7.2C165.3,227.4,164.4,230.8,165.5,232.3 M164.1,221.7
		c0.6,2.6,0.5-2.7,0.5-3.8c-0.2-0.9,1.5-2.1-0.5-1.9V221.7z M157.8,375.3c0.4-2-2.2-4.4-2.9-2.4c0.6,0.7,1.4,1.2,1.4,2.4
		c-0.5,0-0.6,0.4-1,0.5c-1.2-0.1-2.7-2.1-3.4,0C152.9,377.9,156.7,376.9,157.8,375.3 M154.9,138.3c1-12.7-11.7-23.3-18.7-28.3
		c0-0.3-0.1-0.6-0.5-0.5c-1.6,3-2.6,1.8-4.3,5.3c-0.9-3.6-5-1.4-6.7-3.8c0.8,7.8,6.2,12.3,9.6,18.7c0.4,5.5,2.6,9.3,3.8,13.9
		c-1.7,2.1-2.8,8.8-1.4,11c4.2-1.4,9.6,2.8,15.4,2.9C151.7,150.1,154.5,144.3,154.9,138.3 M149.2,364.2c0,5.8,9.4-0.8,3.4-2.4
		c-0.2,1.5,0.7,1.9,1,2.9C151.6,366.7,150.4,363,149.2,364.2 M151.1,354.2c-0.1-1.8-0.7-3.2-2.4-3.4c-0.5,1.9,1.4,1.4,1,3.4
		c-0.5,0-0.6,0.4-1,0.5c-1.5,0.2-1.1-1.5-2.9-1C145.9,357.5,149.5,355.2,151.1,354.2 M148.7,248.1c0.1-1.9,0-3.5-0.5-4.8h-1.4
		C146,245.1,147,247.4,148.7,248.1 M146.8,241.9c0.8-1.7-0.2-5.1-2.9-4.8C143.9,239.6,143.9,242.2,146.8,241.9 M146.8,255.3
		c1-1.6,2.4-4.7-0.5-5.3c-0.1,0.7-1.1,0.5-1.4,1C145,253,145.9,254.2,146.8,255.3 M146.8,278.4c-0.2-2.1,0.7-2.4,0-3.8
		c-1.3-0.4-1,1-1.9,1C144.9,277,145.2,278.3,146.8,278.4 M146.3,248.6c0.2-2.1-1.4-2.5-1.4-4.3c-1.7-0.3-2.3,0.6-3.4,1
		c0.6,1.9,1.2,3.9,2.9,4.8C144.5,249.1,145.7,249.1,146.3,248.6 M147.3,342.7c-1.9,1.4-3.7-0.9-4.8,0c-0.3,1.3,1,1,1,1.9
		C145.1,344.3,147,344.3,147.3,342.7 M145.3,264c2.6-0.9,1.5-7.6-1.4-4.3C143.7,261.8,144.4,263,145.3,264 M145.8,331.6
		c-0.3-1.4-0.7-2.8-2.4-2.9C143.6,330.3,144.9,330.8,145.8,331.6 M143.4,274c2.7-1,2.3-3.6,1.4-6.2h-1.4
		C141.7,269.6,143,271.9,143.4,274 M144.9,257.3c0.5-3.9-2-6.7-4.3-3.8c0.1,2.3,1.2,3.6,1.9,5.3C144,258.9,143.7,257.4,144.9,257.3
		 M143.4,282.7c2.3-0.9,1.2-4.8-0.5-5.8C141.5,278.4,140.8,281.9,143.4,282.7 M142.9,321.5c0.2-1.9-0.2-3.3-1.9-3.4
		c-0.4,1.5,0.8,1.5,1,2.4c-0.7,0.1-0.8,0.8-1.4,1c-1.1,0.4-2.2-2.4-2.4,0C138.8,322.5,142.2,322.1,142.9,321.5 M141,268.3
		c3.3-0.9,3.3-5.6,0.5-7.2C138.9,262.7,139.8,265.8,141,268.3 M143.4,241.9c-0.9-1-1.5-2.3-1.9-3.8c-4.5-0.4-2.3,3.8-1.4,5.8
		C141.9,243.8,142.8,243,143.4,241.9 M139.1,252.5c2,0,2.9-1.3,3.4-2.9c-1.4-2.1-2.8-4.5-5.3-1.9
		C137.4,249.7,138.9,250.5,139.1,252.5 M141.5,311c0.2-1.8-1.8-3.9-3.4-2.4c0.8,0.4,1.5,1.1,1.9,1.9c-1.1,1.1-2.4-0.1-3.8,0
		C135.9,314,140.5,311.8,141.5,311 M140.1,278.4c3.1-0.8,2.9-6.3,0.5-7.7C138.2,272.6,138.6,275.7,140.1,278.4 M138.1,262.5
		c1.9-0.4,2.6-1.9,3.4-3.4c-0.8-1.3-1.5-2.7-1.9-4.3c-1.7,0.5-2.8,1.6-3.4,3.4C137,259.5,137.7,260.9,138.1,262.5 M132.9,221.7
		c4,0.2,4.5,6.4,8.2,5.3c-2.1-5.9-14.5-8-16.8-2.4c-2.7-0.6-3,3.7-4.3,2.9c0.8-1.4,3.2-3.8,3.4-4.3c-3.5,0.6-9,3.9-8.6,8.2
		c0.5-0.4,0.1-1.8,1.4-1.4c-3.1,3.2-4.4,7.2-7.2,9.6c0-0.5,0.7-0.7,0-1c-1.1,0.7-1.1,4.7-2.4,2.4c-0.7,0.7-2.5,4.4-3.6,6.7
		c-0.1,0-0.1,0-0.2,0c-1.3,3.1-0.8,2.1,0.2,0c1.9,0,1-2.7,2.2-3.4c0.1,0.4,0,0.9,0.5,1c0.8-3.4,3.8-4.5,5.3-7.2
		c0,0.7,0.2,1.1,0.5,1.4c-2-0.2-1.3,2.2-2.4,2.9c-0.1-0.4,0-0.9-0.5-1c-0.6,3.4-5.5,5.1-3.8,9.1c0.6-0.9,0.1-2.8,1-3.4
		c-0.1,2.4,2.3-2.5,2.9-1c-3.1,1.7-4,9.3-5.3,7.7c-0.1,1.8,0,3.5,1,4.3c0-1.7-0.1-3.8,1-1.9v-2.9c1.6,0.2,3.5,0.2,4.3-1.9
		c0.4,2.4,3.8,3.2,5.3,1.9c-0.3,2.5,2.2,2.7,2.9,2.9c-0.2,1.2-0.7,2.2-1.4,2.9c-0.2-1.2,0.9-1,0.5-2.4c-1-1.1-2.8-2.3-3.4,0
		c0.2-1.1-0.1-1.8-0.5-2.4c-2.4,0.9-1.6-0.8-3.8-1c-0.1,2.5-0.1,0.4-1.4,0.5c-2.2,1.9-1,3.4-0.5,6.2c1.8-0.9,2.5,1.6,3.4-1
		c0,2.7,3.3,4.2,4.8,3.8c-0.4,1.9,1.2,1.7,1.4,2.9c-1.6-2-2.1,0.1-2.9,1.4c0.4-1.8,1-4.3-1.4-4.3c-0.7,0.3-0.1,1.8-1,1.9
		c0.2-1.8,0.1-3.3-1.4-3.4c-0.1,0.7,0.2,1.8-0.5,1.9c-0.2-0.9,0.7-2.9-1-2.4c-1.3-0.2,0.4,2.6-1,2.4c-0.5-6.5-1.3,6.6,1.6,3.3
		c-0.3,0.6,0.3,1,0.3,2c0.9,0.1,1-0.6,1.4-1c-0.5,2.2,1.6,3.8,2.4,1.9c0.3,2.2-0.8,3.1-1.4,4.3c0.1-2.1,1-3.6-1.4-3.8
		c-0.4,0.8-0.2,2.4-1,2.9c-0.3-1.7,1.5-3.7-0.5-4.3c-0.8,0.3,0,2.3-1,2.4c-0.3-0.8,0.6-2.8-0.5-2.9c-0.8,2.3-0.4,4.8,0,7.2
		c1.5-0.6,2.3,3.4,3.8,1c-0.6,2.9,1.7,3.6,2.4,3.8c0.2,1.6-0.8,2-1.4,2.9c0.9-1.8,0.1-3.7-1.4-4.3c-0.7,0.3-0.1,1.8-1,1.9
		c0.4-1.8,0.7-3.2-1.4-3.4c-0.1,0.6,0.1,1.4-0.5,1.4c-0.2-0.9,0.7-2.9-1-2.4c-0.6,4.3-0.5,5.2,1,7.7c2-1.1,1.8,3.5,3.8,2.4
		c-0.5,1.8,1.2,1.4,1,2.9c2.1-1.3,0.8,1.1,2.4,1.4c0.5-1.4,1.4-2.4,2.9-2.9c0-1.8-1-2.6-1.9-3.4c-0.6,0.7-0.6,2-1.4,2.4
		c1-1.8,0.3-3.9-0.5-5.3c0.9,1,1.7,1.4,2.4,1.4c-0.5,2.1,1.6,1.6,1.4,3.4c0.9,0.1,1-0.6,1.4-1v1.9c2,0.4,2.3-0.9,3.8-1
		c0.4-1.5,0.1-2.4,0.5-2.9c0.7,0,1.1-0.2,1.4-0.5v1.9c2,0.1,2.6-1.3,4.8-1c-0.2-1.8-1.6-2.6-1.9-4.3c-2.1-0.2-1.3,2.6-2.9,2.9
		c0.1-1.9,1.6-2.2,1.4-4.3c-1-0.9-1-2.8-2.9-2.9c-0.7,0.8-0.4,2.5-1.4,2.9c0.1-1.6,1.2-2.3,1-4.3c-0.9-0.9-1.3-2.2-2.4-2.9
		c-0.7,0.8-0.4,2.5-1.4,2.9c0.3-1.3,0.7-2.5,1-3.8c-1.6-0.2-1-2.6-2.9-2.4c-0.3,0.9-0.2,2-1,2.4c0.3-1.3,0.2-3,1-3.8
		c1.8,0.6,1.5,3.3,3.4,3.8c0.2-0.6,0.5-1.1,1-1.4c-1.2,2.2,0.7,3.3,1.4,4.8c1.2,0.6,1.5-1.9,1.9-0.5c-1.2,1.9,0.9,4.1,2.4,4.8
		c1.1-0.5,0.8-2.4,1.9-2.9c0.3,2.1-1.6,2-1.4,3.8c1.1,1.5,1.2,3.9,3.4,4.3c0.2-2.3,2.2-3,1.9-5.8c3.2,0.4,4-5.3,1.9-8.2
		c-2.9,0-2.7,3.1-3.8,4.8c-0.6-0.1-1.4,0.1-1.4-0.5c4.6-1.7,4.2-11,0.1-10.1c0.5-0.2,0.3-1.2,0.3-1.9c4.8-1,4.1-6.9,1.4-9.6
		c-2.1,0-1.7,2.5-3.4,2.9c0.8-1.6,2.2-2.6,2.4-4.8c1.5,1.1,2.1-1.8,3.8-1.9c0.2-2.9-1.8-3.6-2.4-5.8c-2.2,0.8-3.8,2.3-4.8,4.3
		c0.1-1.5-1.4,1.2-1.4-0.5c2.1-1.4,4.2-2.8,5.3-5.3c-1.4-1-2-2.8-2.9-4.3c-1.4-0.6-1.8,2.3-2.4,1c1-0.1,1-1.2,1-2.4
		c0.8,0.9,1.4-0.2,2.4-0.5c-1.5,2.6,1.7,4.3,2.4,6.2c1.8-0.3,2.3-1.8,3.8-2.4c-0.3-3-1.2-5.5-2.9-7.2c-1.5,0.6-1.4,2.8-3.4,2.9
		c1.1-1.7,4.3-3.3,1.9-5.8c1.1,0.3,1.3,1.6,2.4,1.9c0.8-1.6,3.3-1.5,4.3-2.9c-0.9-2-2.5-3.3-3.8-4.8c-1.1,0.2-2,0.6-2.9,1
		C131.9,223,132.2,222.2,132.9,221.7 M139.6,300.9c0.5-2.1-1.3-4.4-2.9-2.9c1,0.4,1.7,1.2,1.4,2.9c-1.7,0.4-1.8-0.7-3.4-0.5
		C134.5,302.9,139,301.9,139.6,300.9 M136.7,237.1c5.3,0,3.4-5.2,1.9-8.2c-2.1-0.2-2.5,1.4-4.3,1.4
		C134.5,233.2,136.3,234.4,136.7,237.1 M137.2,272.6c3.8-0.9,2.8-5.4,1.4-8.2c-2,0.3-2,2.5-3.4,3.4
		C135.8,269.6,136.5,271.1,137.2,272.6 M136.2,290.8c2.8,0.4,2.3-1.6,1.9-3.4h-1.4c0,0.7,0.2,1.1,0.5,1.4
		C137.5,290.2,136.2,289.9,136.2,290.8 M137.7,281.7c2.6-1.4,1.8-5.8-1-6.7C135.2,277,133.5,281.2,137.7,281.7 M136.7,246.7
		c4.9-1.4,0.3-9.9-3.4-5.3C133.8,243.9,135.2,245.4,136.7,246.7 M137.7,263.5c-0.8-1.8-1-4.1-2.9-4.8c-1.3,0.8-1.7,2.4-2.9,3.4
		c0.7,2,1.4,4.1,2.9,5.3C135.8,266.1,136.6,264.6,137.7,263.5 M134.8,256.3c6.5-0.5,1.5-11.6-2.4-5.8
		C132.8,252.8,134.4,254,134.8,256.3 M135.3,280.8c-0.9-0.1-0.3-1.6-1.4-1.4c-0.4,1-1.5,1.4-1.4,2.9
		C133.8,282.2,134.8,281.8,135.3,280.8 M129.5,374.8c1.1-0.7,2.2-1.3,1.9-3.4c-1-1.6-1.8,1.9-2.4,0.5c-0.4-1.2,1.7-3.3-0.5-3.4
		C126.7,369.9,126.6,374.5,129.5,374.8 M129.5,359c-2.1-0.5-1.4,1.8-2.9,1.9c-0.3-1.8,1.3-2.8-1-2.9c-0.9,1.2-0.7,4.6,0.5,5.3
		C128.5,363,129.3,361.3,129.5,359 M123.7,352.3c2.2,0.3,3.1-0.7,2.9-2.9c-1.5-0.1-1.9,1.5-2.9,0.5c0.3-1.2,1.9-2.3,1-3.4
		C122.2,346.4,122.3,351.2,123.7,352.3 M123.7,341.7c0.6-0.9,2.6-3.4,0-3.4C123.7,339.2,122.5,341.1,123.7,341.7 M119.9,119.5
		c1.7,0.2,3.7-1.7,2.9-2.4C122.3,118.4,120.6,118.4,119.9,119.5 M121.8,107.1c-1.7-4.1-2.7-12.4-3.8-18.2c-0.7-3.6-0.4-10.5-5.3-7.7
		c1.6,0.6,3,4,2.4,5.3c-2.7-2.1-2.3-7.6-6.7-5.8C111.5,89.6,116.5,100.6,121.8,107.1 M113.2,291.3c0-1.8-1-2.6-1.9-3.4
		c-0.7,0.3-0.1,1.8-1,1.9c0.2-1.7-0.2-2.7-0.5-3.8c-2.3,1.6-0.7-2.1-2.9-1.9c-0.1,4.4-0.4-1.2-1,0c-0.3,2.7,0.8,4,0.5,6.7
		c1.7,0.7,0.3-1.6,1.4-1.4c0.1,1.4-0.3,3.1,0.5,3.8C109.7,292.3,111.5,291.9,113.2,291.3 M110.8,301.9c-0.5-1.2,1.7-2.9-0.5-2.9
		C110.5,300.5,109.1,301.4,110.8,301.9 M108.4,294.7c0.4-2.3-1.2-1.3-1.4-1.9c0-0.8-0.4-1.2-1-1.4c-0.2,1.6-1.2,4.8,0,6.2
		c0.2-0.6,0.6-1,1.4-1c0.4-1.5-1.7-0.6-1-2.4C107.1,294.3,107.4,294.9,108.4,294.7 M105.5,284.6c0.4-2.1-0.9-2.7-2.4-2.9
		C102.8,283.8,104.1,284.2,105.5,284.6 M105.5,281.7c0.4-2.3-1.1-2.7-2.4-3.4C102.7,280.7,104.2,281.1,105.5,281.7 M105,287
		c1.2-1.2-0.4-2-1.4-2.4C103.5,286,103.5,287.2,105,287 M105.5,278.8c0-1.8-1-2.6-1.9-3.4C103.2,277.7,104.1,278.5,105.5,278.8
		 M105.5,276c-0.2-1.4-0.8-2.4-1.9-2.9C104,274.3,104,275.9,105.5,276 M104.6,295.6c0.4-2-0.7-2.5-2.4-2.4
		C101.8,295.2,102.6,296,104.6,295.6 M104.1,267.3c-1.4-2.4,1.4-4.4-0.5-5.8c-0.1,1.2,0.4,3.8-1,2.4
		C102.8,265.4,102.9,266.9,104.1,267.3 M103.6,301.9c0.2-1.2-0.9-1-0.5-2.4c-1.1,0.2-1.8-0.1-2.4-0.5c0.2,1.1,0.6,2,1,2.9H103.6z
		 M103.1,305.2c-0.4-1.4,0.7-1.2,0.5-2.4h-1.4C102.1,304,102.4,304.8,103.1,305.2 M104.1,292.8c-0.1-2-1.1-3-2.9-3.4
		C100.7,292,102.6,292.1,104.1,292.8 M103.6,269.7c-0.2-1.4-0.3-2.9-1.4-3.4C102.1,268.1,102.5,269.2,103.6,269.7 M102.2,255.3
		c0.6-1.2,2.4-5.6,1-5.8c0.2,2.5-0.2,2.1-1.4,2.4C102,253,101.1,255.1,102.2,255.3 M103.1,289.4c0.6-2.5-0.9-2.9-2.4-3.4
		C100.1,288.6,101.6,289,103.1,289.4 M103.1,273.1c0.3-2.2-0.4-3.5-1.4-4.3C101,270.9,101.7,272,103.1,273.1 M103.1,260.6
		c-0.2-1.6,0.6-4.1-1-4.3C102.1,258.1,102.2,259.8,103.1,260.6 M102.6,276c0.9-1.7-0.3-2.9-1.4-3.8
		C99.9,273.6,101.4,275.5,102.6,276 M102.6,279.3c0.4-2.3-1.1-4.3-2.4-3.4C100,278.1,101,279,102.6,279.3 M102.6,282.7
		c0.6-2.7-1.2-3-2.4-3.8C99.8,281.3,100.8,282.4,102.6,282.7 M102.6,286c0.6-2.7-1.2-3-2.4-3.8v2.9C101.4,285,101.7,285.8,102.6,286
		 M102.6,263c-0.2-1.7-0.1-3.7-1.4-4.3C101.3,260.5,100.9,262.8,102.6,263 M102.2,298.5c0.3-2-0.2-3.4-2.4-2.9
		C99.7,297.5,100.5,298.4,102.2,298.5 M100.7,308.6c1.5,0.2,1.5-1,1.4-2.4c-0.8,0-1.5-0.1-1.9-0.5
		C99.9,307.2,101.1,307.1,100.7,308.6 M101.7,266.4c-0.1-1.8,0.3-4.1-1.4-4.3C100,264.2,100.7,265.4,101.7,266.4 M101.2,294.7
		c0.6-2.5-1.1-2.7-2.4-3.4C98.8,293.2,99,294.9,101.2,294.7 M101.2,258.2c-0.3-1.1,0.6-3.5-0.5-3.8
		C100.2,255.6,99.9,257.6,101.2,258.2 M101.7,305.2c-0.2-1.1-0.6-2-1-2.9c-0.8,0-1.5-0.1-1.9-0.5c0,1.1,0.8,1.4,0.5,2.9
		C100.4,304.6,101.1,304.8,101.7,305.2 M97.8,288.4c0.7,1.2,0.8,3.1,2.9,2.9C100.6,289.8,99.4,286.9,97.8,288.4 M100.2,273.1
		c-0.2-2.9,2.2-5.8-0.5-8.2c-1.8,1.5,1.2,4,0,4.8c0-0.8-0.4-1.2-1-1.4C97.8,270.2,98.5,272.6,100.2,273.1 M99.8,276.9
		c0.6-2.6-0.1-3.7-1.9-4.8C97.5,274.7,98.1,276.3,99.8,276.9 M96.9,277.4c-1.2-6.9,4-12.9,2.9-19.7c-1.1,0.7,0.3,6.1-1.4,3.4
		c-0.8,1.6-0.3,3.1,0,4.8c-0.6,0-0.4-0.8-1-1c-1,1.9-0.8,3,0,4.8c-0.6,0-0.7-0.6-1.4-0.5c-0.4,2.4-0.2,2.3,0.5,4.3
		C94.6,272,94.2,278.1,96.9,277.4 M99.8,287.5c0.6-2.7-1.2-3-2.4-3.8C97.7,285.4,97.6,287.6,99.8,287.5 M97.8,305.2
		c0,1.2,1.4,3.4,1.9,2.4C98.7,307.3,99.8,304.7,97.8,305.2 M99.3,280.3c0.1-0.6-0.1-1.4,0.5-1.4c-0.2-1.6-1.4-2.1-2.4-2.9
		C97.1,278.3,97.4,280.1,99.3,280.3 M99.3,284.1c0.1-2.1,0-3.9-1.9-3.8C97,282.6,98,283.4,99.3,284.1 M96.4,294.7
		c0.7,1.2,0.8,3.1,2.9,2.9C99.2,296,98.1,293,96.4,294.7 M98.3,304.3c0.1-2-0.8-3.1-2.4-3.4C96,302.7,96.4,304.3,98.3,304.3
		 M100.2,301.4c-0.1-1.8-0.5-3.4-2.4-3.4C97.6,300.1,98.4,301.3,100.2,301.4 M97.8,261.6c0.1-0.9,1.2-3.2,0-3.8
		C98.1,259,96.4,260.7,97.8,261.6 M98.3,293.7c-0.1-2-0.7-3.4-2.4-3.8C95.7,292.2,96.3,293.6,98.3,293.7 M97.4,289.9
		c0.4-2.4-0.5-3.7-1.9-4.3v3.4C96.7,288.6,96.4,289.9,97.4,289.9 M94.5,297.1c0.9,1.2,0.6,3.6,2.9,3.4
		C97.3,298.7,96.1,295.7,94.5,297.1 M96.9,285.6c0.1-2.1,0-3.9-1.9-3.8C94.8,283.8,94.9,285.6,96.9,285.6 M96.4,265.9
		c0.2-1,1.2-3.6,0-4.3C96.2,262.5,95.2,265.1,96.4,265.9 M96.4,281.7c0.4-2.3,0.4-3.3-1.4-4.3C94.9,279.4,94.8,281.4,96.4,281.7
		 M95.9,296.1c0-1.8,0.4-3.9-1.9-3.4C93.8,294.7,94.2,296.1,95.9,296.1 M95.4,270.2c0-1.4,1.4-3.8-0.5-4.3
		C94.6,267,93.7,269.9,95.4,270.2 M94.5,274.5c0.5-1.3,0.9-3.7-0.5-4.3C93.5,271.5,93.1,273.9,94.5,274.5 M95.4,291.8
		c-1.8-2.6,0.2-6.3-2.4-8.2C94.2,287,91.9,290.7,95.4,291.8 M94,278.8c1-1.2,0.4-4-1-4.3C93.2,276.1,92.4,278.7,94,278.8 M94,283.2
		c1.2-1.5-0.1-3.8-1.4-4.3C92.5,280.9,92.4,282.9,94,283.2 M93,271.2c0.5-0.5,1-3.4,0-3.8C93.3,268.6,91.6,270.3,93,271.2
		 M92.6,290.4c0.1-2,0.2-4-1.4-4.3C91.1,288,91.3,289.7,92.6,290.4 M92.6,276c0.2-3.7-0.7-4.9-1-7.2c-0.5,1.1-0.8,2.4-1,3.8
		C92.4,272.6,90.6,276.2,92.6,276 M92.1,285.6c0.6-3.1-0.8-4.3-1.9-5.8C90.9,281.6,90,285.1,92.1,285.6 M92.1,280.8
		c0.2-3.2-0.4-5.6-1.9-7.2C89.9,276.9,90.5,279.3,92.1,280.8"/>
	<path class="st1" d="M203.9,200.6c0.5,3.5-4.1,2.3-6.2,1.9v-3.4C200.1,199.3,203.2,198.7,203.9,200.6"/>
	<path class="st1" d="M202.4,39.5l-0.5-1.7c0,0,0.1,0.1,0.1,0.1c0.1,0.2,0.1,0.4,0.2,0.5c0,0,0,0,0,0
		C202.2,38.9,202.3,39.2,202.4,39.5"/>
	<path class="st1" d="M202.2,38.5c-0.1-0.2-0.1-0.4-0.2-0.5c0,0-0.1-0.1-0.1-0.1l-0.9-2.8c0,0,0,0,0.1,0c-0.2-0.9-0.4-1.9-0.5-2.9
		C201.1,34.2,201.7,36.2,202.2,38.5"/>
	<path class="st1" d="M200.9,35.1l0.9,2.8c-1.6-1.2-4.4-1.3-5.2-3.3C198.2,33.9,199.8,34.2,200.9,35.1"/>
	<path class="st1" d="M201,35.1C201,35.1,201,35.1,201,35.1l-3.4-10.4c1.1,2.7,2,5.1,2.8,7.5v0C200.6,33.2,200.7,34.2,201,35.1"/>
	<path class="st1" d="M190.9,189.1c3.4-1.3,7.7-3.5,12-2.4C199.5,188.1,195.4,188.8,190.9,189.1"/>
	<path class="st1" d="M190.9,221.7c0.1-0.2,0.1-0.3,0.2-0.5C191.1,221.5,191,221.6,190.9,221.7"/>
	<path class="st1" d="M190,191.5c0.8,4.6-5.1,4.5-7.7,4.3c-0.2-1.9-0.3-1.2-1-2.9C184,192.3,187.3,190.6,190,191.5"/>
	<path class="st1" d="M189.5,239.5c0.1-0.3,0.2-0.5,0.4-0.7C189.8,239.1,189.7,239.4,189.5,239.5"/>
	<path class="st1" d="M189.6,214.6c-0.1,0.4-0.3,0.7-0.6,0.9C189.1,215.2,189.3,214.9,189.6,214.6"/>
	<path class="st1" d="M187.1,119.5c-0.2,1.2,0.9,1,0.5,2.4c-1.4,0.4-1.2-0.7-2.4-0.5C185.2,120.2,185.9,119.6,187.1,119.5"/>
	<path class="st1" d="M186.6,123.9c0.1,1-1.7,0.2-2.4,0.5c0.1-0.4,0.5-0.5,0.5-1c-1.2,0.1-1.5,0.9-2.4,0c-0.4,0.1-0.5,0.5-1,0.5
		c0.3,2.1,1.2,2.4-1,3.4c0-0.8-0.8-2-2.4-2.4c0.9-1.1,2.8-0.6,3.4-2.9c2.4-0.7,2,2.1,3.4,0c0.4,0.3,0.9,0.6,1,0
		C187.5,122.1,185.3,123.4,186.6,123.9"/>
	<path class="st1" d="M186.1,208.8c1.3,1-1.1,2.4-1.4,3.4C183.7,211.4,186,210,186.1,208.8"/>
	<path class="st1" d="M183.7,212.6c0.9,2.6-2,2.9-3.2,5.3c0.5-1.2,2-4.3,1.3-6.9C182.2,212.3,182.8,213.2,183.7,212.6"/>
	<path class="st1" d="M181.7,210.6c0.1,0.1,0.1,0.3,0.1,0.4C181.8,210.9,181.7,210.7,181.7,210.6"/>
	<path class="st1" d="M180.5,218.2c0,0.1-0.1,0.1-0.1,0.2C180.4,218.3,180.4,218.3,180.5,218.2"/>
	<path class="st1" d="M172.7,193.4c0.1-3.6,4.3-5.6,6.7-5.3c-1.7,1.7-4.1,2.6-5.3,4.8c2-0.8,3.7-2.1,4.8-3.8c1.5,3-2.2,4.8-4.8,5.3
		C173.8,193.9,173.3,193.7,172.7,193.4"/>
	<path class="st1" d="M176,125.3c1-0.1,0.2,1.7,0.5,2.4c-1.4,0-1.4-1.5-2.4-1.9C174.3,124.1,175.9,127,176,125.3"/>
	<path class="st1" d="M175.6,206.9c0.2-0.1,0.3-0.1,0.4-0.3C175.9,206.8,175.7,206.9,175.6,206.9"/>
	<path class="st1" d="M174.1,198.2c0,0.1,0,0.2,0,0.3C174.1,198.4,174.1,198.3,174.1,198.2"/>
	<path class="st1" d="M163.1,32.2c0.8,0.1,5.1,1.2,3.4,1.9c-7.8-5.4-11.2,6-17.8,4.8C149.5,35,158.3,31.7,163.1,32.2"/>
	<path class="st1" d="M168.9,43.3c-2.2,6.1-12.4,4.3-18.2,6.7C154.2,45.5,162.6,43.4,168.9,43.3"/>
	<path class="st1" d="M163.1,74c-1.6,2.2-4.3,3.4-7.2,4.3c-4.2-2.2-8,3.2-12.5,3.8c1.1-1.3,0.6-1.9,1-4.3
		C150.1,75.7,155.1,71.1,163.1,74"/>
	<path class="st1" d="M149.7,56.7c2.5,1.5,8.4,5.2,4.3,8.6c0.2-1,1-4.9-1.4-6.2c-1.2-0.7-2.4,0.8-1.4-1.4c-0.4,0.4-0.7,0.9-1,1.4
		C149.5,58.5,149,57.3,149.7,56.7"/>
	<path class="st1" d="M145.8,64.4c0.5-3.2,7.4-2.1,5.3,1.4C148.9,66.5,147.5,65.3,145.8,64.4"/>
	<path class="st1" d="M147.7,45.2c0.8,2.9,2.6,4.8,3.8,7.2C149.1,50.9,144.3,48.3,147.7,45.2"/>
	<path class="st1" d="M144.4,66.3c0.1,1-1.7,0.2-2.4,0.5v-1.9C143.4,64.7,143.6,65.7,144.4,66.3"/>
	<path class="st1" d="M127.1,225.6c1.4-0.1,2.6-0.1,2.4,1.4c-0.4-0.3-0.8-0.5-1.4-0.5c-0.6,0.2-0.8,0.8-1.4,1
		c-0.2,0.2-0.3,0.3-0.4,0.3C126.3,227.7,127.5,226.5,127.1,225.6"/>
	<path class="st1" d="M128.1,267.3c-0.4,2-2,2.8-2.4,4.8C125.2,271.2,126.2,267.5,128.1,267.3"/>
	<path class="st1" d="M122.8,282.7c1.1,1.1-1.1-0.6-1-1.4c-1,0.1-1,1.3-1.4,1.9c-0.4,0.5,0.3-4.5-1.4-5.3c-0.9,0.3-1.3,1.3-1.4,2.4
		c-0.6,0.3,0.6-4.9-1.4-5.8c-1,0.3-1.3,1.3-1.4,2.4c-0.8,0.6,0.6-3.8-1-4.8c1,0.5,1.6,2.5,1.9,0c0.8,4.4,3.8,3.7,4.8,7.7
		c0.8,0,1.2-0.4,1.4-1C121.9,279.5,121.9,281.5,122.8,282.7"/>
	<path class="st1" d="M122.8,117.1c0.8,0.7-1.2,2.6-2.9,2.4C120.6,118.4,122.3,118.4,122.8,117.1"/>
	<path class="st1" d="M120.4,239.5c0.9,1-1.3,1.5-1.4,2.9c-0.4,0.6,1.1-3.5-1.9-3.4c-0.8,0.1-1.1,0.8-1,1.9
		c-1.7-1.4,0.7-2.6,0.5-4.2C116.9,238.8,119.2,239.7,120.4,239.5"/>
	<path class="st1" d="M119.9,248.6c1.5,0.9-0.7,2.1-0.5,3.4c-0.5-1.4,0.2-3.1-1.9-3.8c-0.8,0.7-1.2,1.7-1.4,2.9c-1-1,0.9-3.5-1-4.3
		c-1.5-0.2-1.4,1.2-1.9,1.9c-0.9,1.2-0.1-0.8,0-1.4c-0.1-0.9-1.6-0.3-1.9-1c-0.8,0.1-1.1,0.8-1,1.9c-1.7-1.4,0.8-2.7,0.5-4.3
		c1.1,3.1,4.6,2.7,7.2,2.9C117.6,248.1,119.3,249.8,119.9,248.6"/>
	<path class="st1" d="M118.5,258.2c-1.3-0.8,3.5,1.4,1.4,2.9C119.1,260.4,119.4,258.7,118.5,258.2"/>
	<path class="st1" d="M112.7,237.6c1.2-0.2,1,0.9,2.4,0.5C111.9,240,111,241.5,112.7,237.6"/>
	<path class="st1" d="M109.4,266.4c-0.1,0.2-0.2,0.3-0.3,0.4C109.1,266.7,109.2,266.5,109.4,266.4"/>
</g>
</svg>
