<?xml version="1.0" encoding="utf-8"?>
<!-- Generator: Adobe Illustrator 19.0.0, SVG Export Plug-In . SVG Version: 6.00 Build 0)  -->
<svg version="1.1" id="Layer_1" xmlns="http://www.w3.org/2000/svg" xmlns:xlink="http://www.w3.org/1999/xlink" x="0px" y="0px"
	 viewBox="0 0 324 399.6" style="enable-background:new 0 0 324 399.6;" xml:space="preserve">
<style type="text/css">
	.st0{fill:none;stroke:#EBEBEF;stroke-width:2;}
	.st1{fill:#EBEBEF;clip-path:url(#SVGID_2_);fill-rule:evenodd;clip-rule:evenodd;}
</style>
<line class="st0" x1="0" y1="378" x2="168" y2="378"/>
<g>
	<defs>
		<rect id="SVGID_1_" x="48" width="276" height="399.6"/>
	</defs>
	<clipPath id="SVGID_2_">
		<use xlink:href="#SVGID_1_"  style="overflow:visible;"/>
	</clipPath>
	<path class="st1" d="M297.5,10.1c1.1-0.1,1.4,0.6,1.3,1.7C297.7,11.9,297.4,11.2,297.5,10.1"/>
	<path class="st1" d="M300.9,11.8c0.2,0.9-0.3,1.1-0.4,1.7c-0.5-0.6-1.2-1-1.3-2.1C300,11.3,300.1,11.9,300.9,11.8"/>
	<path class="st1" d="M270.6,17.8c-0.3,1.3-2,0.2-2.1,0.9C267.4,17.2,269.2,17.6,270.6,17.8"/>
	<path class="st1" d="M251.4,19.5c0.9,0.4,1.5,1.1,3,0.9c-0.5,1.3-1.8,1.8-3,1.3C252.2,20.8,251.2,20.9,251.4,19.5"/>
	<path class="st1" d="M301.4,20.3c1.5-0.4,0.8,1.8,0.4,2.1C300.4,22.1,301.6,21.7,301.4,20.3"/>
	<path class="st1" d="M293.7,21.2c1.6-0.3,1,3.2-0.4,2.6C292.3,22.9,293.4,22.1,293.7,21.2"/>
	<path class="st1" d="M216,22.9c0.4,1.4-1.1,0.9-1.3,1.7c-0.5-0.2-0.9-0.5-0.9-1.3C214.3,23,215,22.8,216,22.9"/>
	<path class="st1" d="M296.2,22.9C296.2,26.7,293,23.5,296.2,22.9"/>
	<path class="st1" d="M223.2,24.6c0.3,1.7-1.6,1.2-3,1.3C220.8,24.3,221.5,24.2,223.2,24.6"/>
	<path class="st1" d="M213.4,25.9c-1.3-0.1-1.7,1.4-2.6,0.4V25C211.9,24.7,213.6,24.1,213.4,25.9"/>
	<path class="st1" d="M297.1,24.6c0.3,0.2,0.7,0.4,1.3,0.4c-0.2,0.8-1.7,0.3-1.3,1.7C296,26.1,296.5,25.4,297.1,24.6"/>
	<path class="st1" d="M291.6,25c0.6,0.3,0.8,0.9,0.9,1.7c0.4,0,0.3-0.5,0.4-0.9c0.5,0.1,0.4,0.8,0.4,1.3c0.8-0.2,0.3-1.7,1.7-1.3
		c1.1,1.1-0.5,1.6-0.9,2.6c-1-1-4.8-1.6-4.7,0.9c-1.4-0.7-2.7-0.2-2.6,1.7c-0.9-0.4-0.9-1.6-0.9-3c1.9-0.3,2.9-0.3,5.1-0.9
		C291,26.2,291.2,25.5,291.6,25"/>
	<path class="st1" d="M234.3,25.9c1.3,0.6,0.2,0.9,0.9,2.1c-0.4-0.3-1-0.5-1.7-0.4C233.2,26.4,234.3,26.7,234.3,25.9"/>
	<path class="st1" d="M215.1,27.2c-0.4,0.7-0.8,1.5-2.1,1.3v-1.3C214.1,27.1,214.3,26.4,215.1,27.2"/>
	<path class="st1" d="M228.8,27.2c1.4,0.9-0.7,1.8-0.9,2.6c0.1,1.9,2.6,1.3,2.6,3.4c-1.6,0-2.1,2.4-3.4,1.3
		c-0.1-1.3,1.7-0.8,2.1-1.7c-0.2-1.4-1.6-0.6-2.6-0.4c-0.6-0.9,1.2-2.6,0-4.3C227.4,27.8,228.4,27.8,228.8,27.2"/>
	<path class="st1" d="M295.4,27.6c0.3,0.2,0.7,0.4,1.3,0.4c-0.2,0.3-0.4,0.7-0.4,1.3h-2.1C294.2,28.4,295.3,28.5,295.4,27.6"/>
	<path class="st1" d="M299.7,28c0.4,1.4,0.2,0.9,1.7,1.3c-0.1,1.1-0.6,1.7-1.7,1.7c0.4-0.9,0.4-1.9-0.4-0.9
		C297.9,29.6,299.5,28.5,299.7,28"/>
	<path class="st1" d="M210.9,28.9c0.6,0.2,0.7,0.8,1.3,0.9c-0.3,1-1.4,1.1-1.7,2.1c-0.8,0-0.3-1.4-1.3-1.3
		C209.2,29.5,210.8,30,210.9,28.9"/>
	<path class="st1" d="M201.9,29.3c1.9,0.4-1,3.1-1.7,2.1C200,30,201.5,30.2,201.9,29.3"/>
	<path class="st1" d="M207,29.3c0.2,2.1-1.5,2.4-3,1.7C204.6,30,205.8,29.6,207,29.3"/>
	<path class="st1" d="M284.3,29.3c0.4,1.9-1.4,1.7-2.6,2.1C282.4,30.6,282.9,29.5,284.3,29.3"/>
	<path class="st1" d="M234.3,30.6c-0.4,0.9-1.9,0.7-1.7,2.1c0.4,1.2,1.1-0.6,1.7,0.4c0.9-0.1-0.6-1.1,0.4-1.7
		c0.9-0.1,0.2,1.5,0.4,2.1c-1.6,1.5-3.6,0-3.8-2.1C232.3,31.1,232.8,30.3,234.3,30.6"/>
	<path class="st1" d="M286,31c0.3,1.6-0.7,1.9-2.1,1.7C283.6,31.2,284.8,31.1,286,31"/>
	<path class="st1" d="M207.9,31.4c1.3,0,0.7,3.2-0.9,3C207.3,33.5,207.4,32.3,207.9,31.4"/>
	<path class="st1" d="M204,32.3c-0.2,1-0.4,2.2-1.7,2.1C201.1,33.3,202.9,31,204,32.3"/>
	<path class="st1" d="M212.1,32.3c0.1-0.5,0.8-0.4,1.3-0.4c0.1,1-0.1,1.6-0.4,2.1C211.8,34.3,213.3,32,212.1,32.3"/>
	<path class="st1" d="M205.7,37c-0.5,0.6-2,0.6-2.6,0c-0.3-1.9,1.4-1.7,1.7-3C206.2,34.9,205,35.6,205.7,37"/>
	<path class="st1" d="M283.9,34c1.1,0.5,0,2.3-1.3,1.7C282.2,34.3,283.7,34.8,283.9,34"/>
	<path class="st1" d="M293.3,34.9c-0.3,1-2.4,0.2-3.4,0.4C291,34,291.8,34.7,293.3,34.9"/>
	<path class="st1" d="M230.5,37.9c-0.3,1.4-1.5,2-3,2.1c-0.4-1.1-0.9-2.3-0.9-3.8C227.7,35.5,230,36.6,230.5,37.9 M227.5,38.7
		c1.1,0.1,1.8-0.2,2.1-0.9c-0.8-0.2-0.8-1.2-2.1-0.9V38.7z"/>
	<path class="st1" d="M290.3,36.1c0,1.1-1,2.1-1.7,1.3C288.4,36.3,289.2,36,290.3,36.1"/>
	<path class="st1" d="M238.6,36.6h2.1c-0.2,0.7,0.3,0.8,0.9,0.9c-0.1,1.2-1.8,0.8-2.1,1.7c-0.4-0.2-0.6-1.2-0.9-0.4
		C237.6,38.6,238.4,36.8,238.6,36.6"/>
	<path class="st1" d="M295.8,37.4c-0.7,0.9-1.1,2-2.6,2.1C293.6,38.4,294.4,37.6,295.8,37.4"/>
	<path class="st1" d="M219.8,38.3c0.3,2.3-4.1,2.3-3.8,0C217.8,38.3,218.4,37.5,219.8,38.3"/>
	<path class="st1" d="M244.6,39.1c0,1.5-2.1,2.3-3.4,1.3C241.5,39.1,242.9,39,244.6,39.1"/>
	<path class="st1" d="M289.8,39.1c-0.1,1.3-0.8,2.1-2.1,2.1C288.5,40.6,288.3,39.1,289.8,39.1"/>
	<path class="st1" d="M222.4,41.3c-0.2,2.6-3.6,0.8-4.3,0C218.7,40.5,222,39.7,222.4,41.3"/>
	<path class="st1" d="M242,42.1c0.3,1.2-0.9,0.9-0.9,1.7c-1.3,0-2-0.5-3-0.9C238.8,42,240.8,41.1,242,42.1"/>
	<path class="st1" d="M282.2,42.1c-0.3,0.4-0.5,1-0.4,1.7c-0.9,0.2-1.1-0.3-1.7-0.4C280.4,42.7,280.8,41.9,282.2,42.1"/>
	<path class="st1" d="M224.9,43.4v1.7c-2.4,0.7-2.4-1.1-3.8-1.3C222.2,42.6,223.5,42.5,224.9,43.4"/>
	<path class="st1" d="M277.9,43.4c1.1,0.1,0.1,1.4,0,1.7c-0.9,0.1-1.4-0.3-1.3-1.3C277.2,44.3,277.7,44.3,277.9,43.4"/>
	<path class="st1" d="M242.5,43.8c0.4,0.3,1,0.5,1.7,0.4c-0.1,0.5,0.1,0.8,0.4,0.9c-0.3,1.6-1.8,0.4-2.6,0
		C242.3,44.8,242.5,44.4,242.5,43.8"/>
	<path class="st1" d="M282.6,44.3c0.5,0.1,0.4,0.8,0.4,1.3c0.4,0.8,1.9,0.7,0.9,1.7c-0.4-0.2-0.6-1.2-0.9-0.4
		c0.1-1.1-3.1-1.8-0.4-1.7V44.3z"/>
	<path class="st1" d="M222.4,46c0.1,0.7-0.7,1.1,0,1.3c0.1,0.9-1.5,0.2-2.1,0.4c0-1.4-1-0.1-1.7-1.3C219.3,44.6,220.7,45.6,222.4,46
		"/>
	<path class="st1" d="M230.5,49.4c-0.8,2.1-2.4-0.1-3.8,0c0.4-0.3,0.3-1.2,0.9-1.3c-1.3-0.6-2.8-0.9-3.8-1.7
		C227.6,43,227.9,48.1,230.5,49.4"/>
	<path class="st1" d="M239.9,46.8c0.8,0,0.5,1.2,1.7,0.9c-0.1,1.3-2.1,0.7-3.4,0.9C238.2,47.4,239.9,47.9,239.9,46.8"/>
	<path class="st1" d="M224.5,48.1c0.4,0.5,0.6,1.1,0.4,2.1c-2.6,0-2.9-0.8-3.8-1.7C222,48.1,222.9,48.6,224.5,48.1"/>
	<path class="st1" d="M236.9,49.4c1.7-0.4,1.5,1,2.6,1.3c-0.2,0.3-0.4,0.7-0.4,1.3h-2.6C237.5,51.1,235.9,50.3,236.9,49.4"/>
	<path class="st1" d="M231.8,49.8c1.2,0.2,1.9,0.9,2.1,2.1c-1.4,0.8-5.4,0.3-4.3-1.3c0.4,0,0.3,0.5,0.4,0.9
		C230.5,50.8,231.5,50.7,231.8,49.8"/>
	<path class="st1" d="M268.1,49.8c0.4,0.3,1,0.5,1.7,0.4c-0.4,0.6-1.2,0.8-1.3,1.7h-2.6C266,50.6,267.8,50.9,268.1,49.8"/>
	<path class="st1" d="M268.5,53.6c0.4-0.8,1.6-0.7,1.7-1.7c0.5,1-1.3,2.6,2.1,2.1C271.9,56.9,269.2,54.4,268.5,53.6"/>
	<path class="st1" d="M236,52.4c0.6,0.3,0.1,1.6,0.9,1.7c-0.4,0.8-1.7,0.5-1.3,2.1c-0.5-1.3-1.5-2.2-3.4-2.1
		C232.4,52.4,234.6,52.8,236,52.4"/>
	<path class="st1" d="M249.3,52.8c0.3-1,2.4-0.2,2.1,0.9C250.1,54,250.1,53,249.3,52.8"/>
	<path class="st1" d="M289,54.1h-1.3c0.1-0.5-0.1-0.8-0.4-0.9c0.6-0.9,1,0.3,2.1-0.4C289.2,53.1,289,53.5,289,54.1"/>
	<path class="st1" d="M254,57.5v1.7c-0.5,0.5-1.5,0.5-2.6,0.4C252,58,252.5,58.5,254,57.5"/>
	<path class="st1" d="M278.7,59.2c1.6-0.4,0.8,1.4,1.7,1.7c-1.1,1.6-1.4-1.1-2.6-0.9C278,59.6,278.7,59.8,278.7,59.2"/>
	<path class="st1" d="M266.4,60.5c0.4-0.1,0.4,0.2,0.4,0.4c1.1,0.2,2.9,2.2,3.4,0.4c1.5,0-0.9,1.4,0.4,1.3c-0.4,0.6-1.1,0.9-2.1,0.9
		c0.5-1-1.1-0.9-2.6-1.7C266.2,61.4,266.4,61.1,266.4,60.5"/>
	<path class="st1" d="M265.9,62.6c1.1,0.7-0.4,2.4-1.7,2.1c0-0.4,0.5-0.3,0.9-0.4c0-0.4-0.5-0.3-0.9-0.4
		C264.5,62.3,265.6,64.2,265.9,62.6"/>
	<path class="st1" d="M244.6,64.7C246.3,62.3,247.4,67.2,244.6,64.7"/>
	<path class="st1" d="M247.6,65.6h1.7c-0.1,0.8,0.5,0.9,0.4,1.7C248.9,66,247.7,67.6,247.6,65.6"/>
	<path class="st1" d="M238.6,66.9c-0.1,1.8-2,1.1-3,0.4C235.7,65.3,237.6,67.2,238.6,66.9"/>
	<path class="st1" d="M242.5,66.5c0.8,0.2,0.8,1.2,2.1,0.9c-0.6,1.2-2.7,0.9-3.8,0.4C240.9,66.9,242.6,67.6,242.5,66.5"/>
	<path class="st1" d="M162.2,74.1c1.3,0.4-0.6,1.1,0,2.1c-0.7,0.1-0.7-0.4-1.3-0.4V75C161.6,75,162,74.7,162.2,74.1"/>
	<path class="st1" d="M144.7,84.4c0.7-0.1,0.7,0.4,1.3,0.4c0.3,1.6-1.6,0.9-1.7,2.1C143.3,86.6,144.6,85.1,144.7,84.4"/>
	<path class="st1" d="M138.3,89.1c-0.4,1.3,2.3,1.4,1.3,3c-0.1-1.5-2.2-0.9-2.1-2.6C137.9,89.6,138.2,89.4,138.3,89.1"/>
	<path class="st1" d="M156.2,102.7c-0.6,1.1-1.5,0.8-2.6,0.4C154,101.6,154.9,102.9,156.2,102.7"/>
	<path class="st1" d="M116.9,105.3c0.8,0.2,2.5-0.5,2.6,0.4C119.3,107.5,116.4,108.1,116.9,105.3"/>
	<path class="st1" d="M122.9,109.2c-0.5,0.6-1.5,0.8-2.6,0.9C120.7,108.3,122.1,108.9,122.9,109.2"/>
	<path class="st1" d="M227.5,111.3c1.8,5.9,0.1,8.4,0.9,14.5C227.1,121.5,227.4,114.7,227.5,111.3"/>
	<path class="st1" d="M324,126.7v3c-2.5-0.3-0.2-1.5-0.4-3H324z"/>
	<path class="st1" d="M324,130.9v1.7c-0.7,0-1.1,0.3-1.3,0.9c-1.5-0.8-0.2-2,0.4-3C323.6,130.5,323.7,130.8,324,130.9"/>
	<path class="st1" d="M321.9,133.9c1.1-0.1,1.3,0.7,1.7,1.3c-0.4,1.1-0.6,2.3-2.1,2.1C320.3,136.1,321.8,135.2,321.9,133.9"/>
	<path class="st1" d="M285.6,136c1.2,1.1,2.3,2.2,3,3.8c-3.6,1.2-7-0.4-7.7-3.4C282.6,136.9,284.2,136.9,285.6,136"/>
	<path class="st1" d="M274.9,137.8c2-0.9,5.5,0.5,5.5,3C277.9,140.4,277.2,138.3,274.9,137.8"/>
	<path class="st1" d="M321.4,137.8c1.2,0.3,2.4,0.7,2.1,2.6c-0.6,0.6-2.4,0.6-3,0C320.4,139,321.2,138.6,321.4,137.8"/>
	<path class="st1" d="M280.9,155.3c-10.5,2.8-16.6-4.3-20.1-8.5C267.2,148.6,276,151.4,280.9,155.3"/>
	<path class="st1" d="M256.5,147.6c1,1,1.9,2.1,2.1,3.8c-1.7,0.1-1.6-1.5-3.4-1.3C255.2,148.8,256.2,148.5,256.5,147.6"/>
	<path class="st1" d="M64,149.7c0.3,1.4-0.7,1.6-1.7,1.7C62.1,150.1,62.7,149.5,64,149.7"/>
	<path class="st1" d="M135.7,156.1c-0.6,1.3-1.7-0.6-3,0C132.8,154.7,135.5,155.1,135.7,156.1"/>
	<path class="st1" d="M242.9,159.5c2,5.8,7.6,8,8.1,15.4c-2-1.5-1.6,0.2-2.6,1.7c-1.2-0.8-1.4-2.6-1.7-4.3c0.6,0.3,0.8,0.9,0.9,1.7
		c0.5-1,1.4-2.4,2.1-0.9C248.9,167.1,242.7,166.6,242.9,159.5"/>
	<path class="st1" d="M180.1,161.2c2.2,0,0.3,1.6,0.9,3.4C179.8,163.7,180.7,163,180.1,161.2"/>
	<path class="st1" d="M96.9,163.4c0.6,1.1,0.8,2.6,0.9,4.3C96.8,166.9,96.8,165.1,96.9,163.4"/>
	<path class="st1" d="M186.5,165.9c1.5,2.4,2.5,5.2,3.8,7.7c-3.4-1.3-3.4-5.9-6.8-7.3C184.1,165.8,185.4,165.9,186.5,165.9"/>
	<path class="st1" d="M121.6,172.3c0,0.4-0.5,0.3-0.9,0.4c0.2,0.3,0.4,0.7,0.4,1.3c-2.6,0.5-0.3-1.3-3-0.9
		C118.7,171.5,120.3,172.3,121.6,172.3"/>
	<path class="st1" d="M177.6,172.3c1.2,0.9,0.6,2.5,0.4,3.4C177,175.4,177.8,173.4,177.6,172.3"/>
	<path class="st1" d="M194.2,182.2c-1.6-1.7-3.7-2.8-6-3.8C189.7,176.8,194.5,179.1,194.2,182.2"/>
	<path class="st1" d="M127.6,239.8c0.9-1.4,1.6,1,2.6,0.9c-0.6,0.5-0.5,1.8-1.7,1.7C128.1,241.6,128.3,240.2,127.6,239.8"/>
	<path class="st1" d="M272.8,394.3c-3.6,4.3-18.5,5.2-21.8,0C259.7,393.6,264.4,394,272.8,394.3"/>
	<path class="st1" d="M324,194.1c-24.1,8.5-49.3-0.3-64-13.7c0.1,4.8-5.2,7.5-2.1,11.5c3.4,4.4,8.1,6.7,9,13.7
		c1,7.8-1.8,13.1-7.3,17.5c1.2,25.6,0.7,48.2,2.6,70.4c0.9,10.7,4.2,21.4,4.7,32.4c-1.4,0.9-2.2,2.3-2.1,4.7
		c-0.1,1.2,1.4,0.8,0.9,2.6c-0.8-0.3-0.3-1.3-1.3-0.4c1.5,3.2,4.1,7.6,3.8,11.1c-1.1-2.8-2.6-7.3-4.3-8.1c2.3,3.9,5,9.8,5.5,17.5
		c0.2,2.3-0.4,4.8,0,7.3c0.3,2.2,1.6,3.6,1.7,5.5c0.4,4.6-2.7,10.4,0,14.5c-1.1,0.5-1.5-1.8-2.1-0.4c2.5,1.5,4.8,2.3,6,6.8
		c-5.2,3.8-18.5,1.7-25.2,0.4c-4-5.1-7-11.3-9.4-17.9c-7.9-1.7-3.7-15.3-7.7-20.9c-0.1,1.8,0.7,2.7,0.4,4.7
		c-6.3,3.7-1.2,16.3-3.8,23.5c-9.4,4.2-24,4.3-38.4,4.3c-8,0-21.3,1.7-22.6-3c-4.1-13.8,23.6-5.8,20.1-19.2c2.8-1.5,3.5-5.1,5.1-7.7
		c2.2,0.3,2.5-1.2,4.3-1.3c2.4-5.6,7-7.5,8.1-13.7c0.9-5.1-1.6-9.7-2.1-14.9c-0.6-5.6,1.2-11.8,0.4-17.1c-1.1-7.5-6.2-14.9-7.3-23.5
		c-0.4-3.3,0.1-6.6-0.4-9.8c-0.8-4.8-3.9-8.7-4.7-13.2c-1.6-8.7-2.3-20.3-1.3-27.3c-1.2-0.1-2.5-1-3.4-2.6c-2.5,0.5-3.8-1.7-6.4-2.6
		c-8.9-3-22.4,0.2-27.3-6.8c0.5-1.1,0.6-2.5,0.9-3.8c5.3-4.6,4.2-15.4,5.5-23.9c-4,0.9-4.9,6.2-6.8,10.2c-1.4,2.9-3.5,5.9-4.7,9
		c-5.3,13.5,0.8,32.1-8.1,41.4c-6.3,1.9-18.2-1.6-22.6-6.8c-1.5-0.3-2.8,1.4-4.3,1.7c-5.6,1.2-15.4-4.6-15.4-7.7
		c0-1.8,5.7-4.3,2.6-8.1c1.5-1.1,3.5-1.6,5.5-2.1c0.1-2.3,2.4-2.4,3.8-3.4c2.7-8.9,1.4-20.4,1.7-29c0.2-5.1-2.1-8-3.8-11.5
		c-11.6-2.4-21.6-10.2-32.9-9c-1-0.4-1.4-1.5-3-1.3c-2,0.4-1.5,3.4-3,4.3c-1.6-0.4-1.8-2.2-3.4-2.6c-2.3,1.8-3.6-0.4-5.5,1.7
		c-1.1-0.2-1.4-2.4-2.6-1.3c-1.5,0-0.1,3-2.1,2.6c-4.2-2.6-1.7-11.9-5.5-14.9c0.1-0.8,0.7,0.2,0.9-0.4c-0.6-0.9-1,0.5-1.3-0.4
		c-1-3.9,1.9-5.4,3.4-8.5c0.9-1.8,0.7-4.4,1.7-5.6c6.2-7.5,19.9,2.3,29,3c4.8-3.3,11.4-0.1,17.5-0.9c6-0.7,11.5-3.5,15.8-4.7
		c-13.7-6.1-25.1-20.6-29.9-34.2c-1-2.7-1.6-6.3-0.9-10.2C87,95.4,92.9,86.2,98.6,81c9.3-8.6,21.2-16,31.2-23.1
		c5.4-3.8,11.2-8.4,15.8-11.5c7-3.4,13.1-7.7,18.8-12.4c7.6-3.9,12.8-9.4,22.6-10.7c4.3-0.6,9.2-1.3,11.5-0.9
		c-2,0.7-7.8,0.6-5.1,3.4c-1.7,3.1-4.5,2.5-6.8,2.1c-0.7,1.9-1.1,2.3-2.6,3.8c1.8-0.7,0.1,2.2,1.3,2.1c0.3-0.3,0.7-2.9,0.9-0.9
		c1.9-0.1-0.8-1.9-0.9-1.7c0.4-0.4,2.3-0.2,3,0.4c-0.5,0.1-1,0.7-0.4,0.9c1.9-1-0.8-1.9,0-4.3c1.3,1.5,0.9,0.8,3,0.4
		c1.9,1.2-1.3,3.1,1.3,3.4c-0.4-1.8,2.1-0.3,2.6-2.6c-0.8-1.3-1.3,1.2-1.7,0c1.8-2.2,2.4,0.7,3.8,1.3c1.8,0.6,0.7-2.7,2.1-1.3
		c0,2.4-4.3,2.1-2.1,3.8c-0.7,0.5,1.9-2.2,3-0.9c1,1.7-2.5,1.1-0.9,2.1c0.3-0.6,1.1,0.2,2.1-0.4c0.2,3.1,2.7,1.5,3,4.7
		c-4.7-2.6-10.6-7.5-17.9-4.7c-3.3,4.8-6.3,13.4-8.5,18.8c-0.6,1.4-2,4.3-0.9,4.3c1.2,1,0.2-3.8,1.7-3.8c-0.4,2,1.8,1.4,2.6,2.1
		c-0.5,0.9-2.8,0-3,1.3c0.4,0.1,1.4,1.6,0.4,1.7c-1.1-0.4-2.1,0.6-3-0.4c0.5,1.4-1.7,2.3-0.4,3c12.6-4.4,27,4.3,37.6,8.5
		c3,1.4,6.4,4.4,11.1,6.8c5.9,3.1,15.3,3.4,12,11.5c0.3,1.4,2.1,1.4,2.1,3c-0.5,8.8-0.5,21.6,3,30.7c0-0.5,0.2-1.1,0.4-0.4
		c0.6,1.9-0.3,3.3-2.1,3.8c-3.8-4.1-1.9-9.7-2.1-14.9c-0.3-6.2,0.5-14.8-3.8-17.5c-1.4,2.3-4.6,2.8-7.3,3.8c-1.1-0.8-2-1.7-3-2.6
		c-4,8.8-2.3,22.2-1.7,33.7c0.2-0.6-0.5-2.2,0.4-2.1v9c1.7,0.7,0.1-1.8,1.3-1.7c1.8,7.4,3.4,16.9,6.4,21.8c-0.5,0.1-1.2-0.1-1.3,0.4
		c1.1,1,0.4,2.4,0.4,3.8c0.2,3.7,2.4,8.8-0.4,11.5c-3.4-2-3.2-7.6-6-10.2c-1.6,4.4-5.8,10.1-3.8,15.4c0-1.3,0.2-2.4,0.9-3
		c1.9,2.3,4.8,3.8,7.3,5.6c0.5-1.9-0.1-5,1.7-5.6c1.2,0.9,1.9,2.4,2.1,4.3c-1.7-0.5-1.6-0.1-3.4-0.4c-0.2,2.1,1.3,0.2,1.7,1.3
		c0,0.7-1.2,0.2-1.3,0.9c0.5,1.8,2.3,4.5,4.7,3c0.5-0.7-1.1-3.7-1.7-4.7c1.8-2.7,6.4,0.3,6.4,1.7c2.3-1.1,5.4,0.6,7.3,1.3
		c0.1-1.4-1-3.8-0.4-5.1c0.2,1.1,0.6,2,1.3,2.6c-0.9-2.2,0.8-2.4,1.7-3.8c0.2,1.6,1.3,2.4,1.3,4.3c-3.8,1.3-5,5.2-7.7,7.7
		c4.2-2.5,6.3-7.1,10.2-9.8c0.3,2,0.7,1.2,3,1.3c0.2-1.9,1.6-3-0.4-3.8c1.1-0.5,1.4-1.7,3-1.7c0,1.4-1.2,1.6-0.9,3.4
		c1.3,0.9,2.9,2.7,3.4,1.3c0.4-2-1.1,0.6-1.3-0.9c0.7-1.7,2-2.9,2.6-4.7c-2.4,0.4-3.6-0.4-4.7-1.3c-0.6,0.9-0.3,2.6-1.7,2.6
		c-1.3-0.5-0.6-2.5-1.7-2.1c0.8-1.5,3.1-1.4,3.4-3.4c-0.7-4-3.5-5.9-3-11.1c-0.8-1.2-3.4-0.6-4.3-1.7c0-0.6-0.2-0.9-0.4-1.3
		c0.7-1.9,7.5-2,8.1,0c-0.8,1.5,0.7,3.4-0.9,3.4c3.7,4.4,9.3,8.8,12.4,12.4c-0.1-0.8,0.4-1,1.3-0.9c-0.2-3.9-3.3-5-4.3-8.1
		c4.1-4.5,8.9,1.3,15.4,0.4c-0.4,2,0.7,0.4,0.9,1.3c3.8-1.1,4.3-5.4,6.4-8.1c1.9-2.5,5.3-4.4,5.5-8.1c-2.3,0-3.9,4.1-7.7,4.7
		c-4.4,0.7-8.6-1-9.8-5.1c3.7,0.3,8.5-0.2,12.4-0.9c-0.5,1.6-2.7,1.6-3.4,3c2.4-1,2.2,0.1,5.5-0.4c1.1-0.8,1.7-2.7,3.4-1.7
		c0.2-7.9-2.8-11.6-4.7-19.2c-4.9-20.3-9.2-47.8-28.6-51.2c-7.5-1.3-18.2,1.1-22.6-4.7c2.8,1.2,9.6,3.4,12.8,0.9
		c2.3,2.3,4.6,1.9,8.5,2.1c-2.9-1.5-6.2-2.6-9-4.3c2.4-1.1,3.1,1.1,4.7,1.7c-0.2-0.1,1.2-0.5,1.7-0.4c0.9,0.2,1.4,1.6,1.7,1.7
		c0.5,0.1,2.7-0.7,4.3-0.4c2.2,0.3,4.4,3,5.5,0.4c-0.8-0.6-2.4-0.5-3-1.3c4.4,1.1,9,0.5,11.5-0.9c-2.5-0.1-4.7,1-6-0.9
		c2.5-0.6,6,0.4,9-1.3c-3.6,1.1-6-0.6-8.1-2.1c0.8-0.2,1.1-0.9,2.1-0.9c-2.4,1.9,1.2,0.1,2.1,0.4c1.1,0.4,0.1,1.2,1.3,1.3
		c1.9,0.2,4.2,0.2,5.5-0.9c-4.4,0.9-7.1-1.8-9.8-3.8c3.8,1.5,8.4,3.8,12.4,1.7c-1-0.3-3.3,0.8-3-0.9c0.2-1.7,3.3,0.4,3.4-1.3
		c-1-0.9-2-1.7-3-2.6c1.3-0.1,3.1,0.3,3.8-0.4c-0.1,0.5-1.9,1.8,0,1.7c2.5,0.5,1.2-3,3-2.1c-0.3,0-1.3,1.4-0.4,1.3
		c1.4-1.2,1.3-1.9,0.4-3.4c1.3,0.2,1.1-1.1,2.1-1.3c0,0.7-0.1,1.5,0.9,1.3c1.5-4.1,3.3-5.6,3-9c-2,0.8-3.5,1.5-2.6,4.3
		c-1.1,0.1-2.3,0.7-4.3,1.3c0.6-0.6,1.3-1.3,1.7-2.1c-1.4-0.4-2.1,2.1-3,0.9c-0.1-1,1.2-0.5,1.3-1.3c-1.5,0.1-1.3,1.4-2.1,0
		c0.9-0.8,2.9-0.5,3-2.1c-0.7-1.2,1.1-1.5-0.9-2.1c1.3-1.6,4.2-3.7,6-3.4c0,0.6-1.8,1.4,0,1.3c0.6-1.1,0.8-2.7,2.1-3
		c0.1,0.5-0.1,1.2,0.4,1.3c2.3-2.7,4.4-5.6,6.8-8.1c-0.5-1.3-2.2,2-2.6,0.9c0.7-2.2,2.4-0.8,3-3c-0.1,1.1,1.7,0.3,1.3,1.7
		c-0.8,0.4-1.4-1.3-1.7,0c0,2.9-1,3.2-2.1,6.4c2.9-1.6,4.4-5.1,4.7-8.1c-0.9-0.5-1.7,0.2-0.9-1.3c-1.3-0.4-1.7,2.3-2.6,0.9
		c-0.4-1.6,1.4-0.8,1.7-1.7c-1.1-0.5-1.3,0.2-1.7-0.4c1.2-0.5,1.9-1.5,3-2.1c-1.6-0.6-2.3,0.6-3.8,1.7c0.9-2.4,1.3-3.1,2.1-5.1
		c0.1,1,0.4,1.8,1.3,2.1c0.5-0.4,0.1-1.6,1.3-1.3c0.4,1-1.5,1.8-0.4,2.1c0.9-0.9,2.2-1.5,3.4-2.1c1.2-4.8-0.4-4.4-2.6-5.1
		c-1.3-1.4-2.5-3.8-0.4-3c-1.5-1.3-1.1-1.1-2.6,0c-1.2-2.6-2.3-3.6-2.6-6.4c-1.2,0.4-1.1-0.6-2.1-0.4c0.2,1.1,3.5,1.4,1.7,3
		c-0.8-1.6-3.2-1.6-3.8-3.4c2.7,0.3,1.5-0.6,2.6-1.7c-1.4-0.4-0.6,1.4-1.7,1.3c-2.1-0.4-2.6-2.5-4.7-3c-1.9,0.4-3.4,1.1-4.7,2.1
		c2.4,0.7,5.3-0.2,8.1,0.9c-0.8,1-1.9,1.1-4.3,1.3c-0.2-1.2,1.6-0.4,1.7-1.3c-4,1.6-5.2-0.8-7.3,1.7c0.7,0,1.5-0.1,1.3,0.9
		c-2-0.6-0.3,0.1-1.7,0.9c1.5,1,4,1.1,4.3,3.4c-0.6,0-1.7-1.6-2.1-0.4c0.9,0.4,0.9,1.6,0.9,3c-1.3,0.1-1.5,1.3-3.4,0.9
		c-2-1.2,0.3-1.4-2.1-2.1c2-0.9,3.5,2.4,4.3,0c0.1-1.2-1-2-3.8-3.8c0.8-0.1,1-0.7,0.9-1.7c-2.1-0.4-3.1,0.3-3.8,1.3
		c0.9-0.9,0-1.8-0.9-0.9c-0.8,1.8,3.9,1.4,4.7,3c-2.1,0.3-1.3,1.6-2.6,2.1c-0.5,0-0.6-0.5-1.3-0.4c1.4-2.7-0.8-2.8-3.8-2.6
		c1.4-0.4,0.6,1.4,1.3,1.7c-2.3-0.1-2,2.3-3.4,3c-0.8-0.2-1.1-0.9-2.1-0.9c0.9,2.5-1.9,0-3,0.9c0.3-0.8,1.3-1,1.7-1.7
		c1,0.3,2.2,0.4,3,0.9c-1-2.1,1.4-1.1,2.1-2.6c-0.5,0-1-0.1-0.9-0.9c-1.8-0.4-2.5,2.6-3.4,1.7c0.5-0.2,0.9-0.6,0.9-1.3
		c-4.6,2.2-8.6,0.3-12,2.1c1.6,0.3,2.5-1.3,3,0.4c-1.1,0.4-3.1,2-3.8,1.3c0.5-0.1,1-0.7,0.4-0.9c-3,1.6-8.3,0.8-11.1,2.6
		c0.6-0.1,2.4,0.7,1.3,0.9c-1.5,1.2-2.4-1.9-4.3-0.4c-0.4,0.3,0.3,1.6-1.3,1.7c-1.1,0-0.6-1.7-1.7-1.7c-0.7,2.6-5.4-0.3-4.7,1.7
		c1.2-0.7-1.3,0.9-1.7,1.3c0.9,0.3,2.8-0.5,3,0.4c-0.4,1-2,0.9-3.4,0.9c0.7-0.6,0.5-1.9-0.9-1.7c-0.7,0.7,0.5,1.9-0.9,2.6
		c-1.1,0-2.5,0.2-2.6-0.9c0.6-0.1,0.4-1,0.4-1.7c2.3,0,3.9-0.4,4.3-1.3c-1.8,0.1-4.1,0.1-7.3-0.4c0.7,2.6-3,3.7-3.4,2.6
		c0.1,1.6,1.7,1.7,2.1,3c-0.9,0.4-1.3,1.3-2.6,1.3c1.4-1.3-1.1-0.3-1.3-1.3c0.8-0.7,0.5,0,1.7,0c-1.3-1.9-1.9-2.6-4.3-1.7
		c0.4-0.6,1.2-0.8,1.3-1.7c-2.4-0.2-2.2,2.3-4.7,2.1c-0.4-1.8,1.2-1.7,1.7-2.6c-4.4-0.1-8.2,2.6-11.1,1.7c0.5-0.2,1-0.5,1.3-0.9
		c-2.6-0.3-3.7,2.8-5.6,0.9c0.8-0.1,1.4-0.3,1.7-0.9c-2.6,0.8-5.4,1.4-6.8,3.4c0.6-0.6,0.6-1.6-0.4-1.7c-1.7,1-1.2,3-2.1,3.8
		c-0.1-3.2-2.8,2.1-3.4-1.3c1.5,0.2,2.2-0.4,2.6-1.3c-0.5-0.1-1.2,0.1-1.3-0.4c1.5-0.7,6.3-2.3,3.8-3c16.4,0,31.5-3,44-3.4
		c-0.3-0.6,2.8-3.4,4.3-1.3c-1.8,0.8-2.7-1.4-3.4,1.3c7.4-1.1,18.4-5.3,25.6-7.7c-0.5,0-1.1-0.2-0.4-0.4c7.3-6.8,18.3-9.9,30.7-11.5
		c8.1,4.1,11.1,13.3,12.4,24.3c4.8-2.2,7-7,12-9v9.4c-0.5-0.1-0.4-0.8-0.4-1.3c-0.8,0.2-1.8,0.2-1.7,1.3c0.9,0.8,1.4,2.1,2.1,3v98.2
		c-1.3,1.2-1.8,5.1-3,7.7c-0.9,0.1-1.3-0.1-1.3-0.9c-1.1,1.3-1.5,3.4-3.4,3.8c1.1-0.7,1.4,3.8-0.9,3.4c0.9,0.5,1.7,4.1-0.4,3.8
		c0.6,0.7,2.5,1.3,1.3,2.6c2.2-2.7-0.6-10,4.3-12.4c0.8,1.1,0.1,3.6-1.7,3.4c1.2,0.7,2.3,4-0.4,3.8c1.2,0.5,2.1,1.4,1.7,3.4
		c-1.4,0.3-1.3-0.8-2.1,0c0.6,0.7,2.1,0.5,2.6,1.3c-0.4,0.9-0.7,1.8-1.7,2.1c0.2,0.8,1.7,0.3,1.3,1.7c1.7-1.4-0.5-1.8,0.9-3.8
		c1.4-0.2,2,0.3,3,0.4V194.1z M321,22.9c1.3,0,1.6-1,2.1-1.7c-1.3-0.4-2.6-0.1-3-0.4c0-0.3-0.1-0.5-0.4-0.4
		C319.5,21.9,321,21.6,321,22.9 M314.2,135.2c1.1,2.4-1.1,1.4-1.7,2.6c1-0.1,1.6,0.1,1.7,0.9c-0.4,0-0.5,0.7,0,0.9
		c-0.1-2.2,3.1-5.3,2.1-5.6C315.9,134.7,315.5,135.4,314.2,135.2 M314.6,127.5c-0.9,3-1.7,6.3-4.7,7.3c2.2,0.4-1,1.8-0.9,3
		c1.7,0.3,1-1.8,2.6-1.7c0.4,2-1.7,1.4-1.3,3.4c1.4-0.6,1.9-2.1,2.6-3.4c-0.5-0.1-1.2,0.1-1.3-0.4
		C312.2,132.8,316,130.9,314.6,127.5 M313.8,132.6c2.3-0.1-1.3,2,0,2.1c0.3-1.2,2-1.1,1.7-3C314.5,131.7,313.9,131.9,313.8,132.6
		 M112.2,193.7c1.1,10.4-1.4,20.6,0,30.3c-0.9,0.1-0.8,1.2-1.7,1.3c0-0.5,0.6-0.7,0-0.9c-0.2,2.5-3.7,2.3-5.6,6
		c-1.5-0.1-2.4-1.7-3.4,0c0.6,1,0.1,6.2-2.6,7.3c0.1,1.7,0.3,3,1.7,2.6c0.2,1.2,0.1,1.2,0.9,2.1c2.1,2.3,8.7,4.5,12,3
		c2.7-1.2,3.2-5.7,5.5-7.7c-0.6-2.1-2.4-3-4.7-3.4c1.5-0.8,4.8-0.9,4.3-2.6c0.7,0,0.3,1.1,1.3,0.9c1.3-1,2.1-2.5,2.6-4.3
		c-0.3-0.7-2,0-2.1-0.9c0.1-2.9,1.3-2.6,2.6-3.8c0.5,7,4.2,6,3.8,13.2c-3.2,0.2-4,2.9-6.8,3.4c-0.1,2,1.2,2.5,2.1,3.4
		c-0.8,0.1-1.4,0.3-1.7,0.9c1.3,0.4-0.6,1.1,0,2.1c4.6,2.8,11,3.8,17.1,5.1c0.1-0.5-0.1-1.2,0.4-1.3c0.5,1.8,1.8,0,3,0
		c3.5-6.1,5-15.4,3-22.6c-0.3,0.6-0.9,0.8-1.7,0.9c0.4-1.4-1.1-0.9-1.3-1.7c2.7,0.2,1.8-1.3,3.8-1.3c-0.2-0.6,0.5-2.2-0.4-2.1
		c0.1,0.5-1.2,1.5-1.3,0.4c-0.2-1,1.9,0.2,1.3-1.3c-0.6,0-0.9,0.2-1.3,0.4c0.4-0.6,0.4-1.6,0.9-2.1c-1.4,0.8-1.4-1.9-2.1-0.4
		c-0.2,1.2,0.8,3.7,0.4,5.1c0.3-2.3-2.2-1.8-2.6-3.4c1.1-0.6,2-1.5,2.1-3c-3.9-0.9,0.6-5.3-3-6.8c0.3-0.5,2-1.7,0.9-2.1
		c-3.7,0-1.1-5-3.4-7.7h2.1c0.1-2.3-1.9-1.2-0.4-3c-1.7,1-1-0.7-2.6-0.9c-0.5,0-0.6,0.5-1.3,0.4c0,10.4,0,25.6,1.7,34.2
		c2,1.3,2.2,4.4,2.1,7.7c4.4,4.4-1.2,11.7-6,7.3c1.1,0,2.4,0.2,3-0.4c-0.1-2.5-2-2.2-1.7-4.3c0.2-1.5,3.4-2.3,2.6-3.4
		c-0.6,1-2.1-0.7-2.1-1.7c1.6-1.6-1.5-6.4,1.3-6.4c-1.4-0.3,0.2-2.5-1.7-3c-0.3,2.1-1.1,6.2-3,8.1c1.1-3,0.2-5.4,0.9-9h1.3
		c-0.5-1.7-0.3-1.3,0.4-1.7c-1.4-2.4-2,2.7-3,2.1c1,0.9,0.5,3.8-0.9,3.8c-0.5-1.4,1.3-2.6,0-3.4c-1.1,0.3-1.1,1.7-1.7,2.6
		c0.2-4.2-1.5-8.6,1.3-10.7c-1.6,0-1-2-0.9-2.6c0.8,0.1,1,0.7,0.9,1.7c3-0.3,2.5-6.6,0.4-7.7c-1,1.3-0.2,4.4-1.7,5.1
		c0.7-1.9-0.2-0.7-1.7-1.7c-0.4,1.9-0.8,3.7-2.1,4.7c-0.9-3.5,2.9-5.3,0.9-7.3c-0.6,2.4-4.7,4.2-6.4,6.8c1.3,0.1,1.3-1,2.6-0.9
		c-0.3,1.1,1.7,2,0.4,2.6c-0.1-0.3,0-0.8-0.4-0.9c0.1,2.4-3,4.3-3.4,6.4c1.3,0,1.5-1.1,2.6-1.3c-2,3.8-6.4,4.3-9.4,5.1
		c0.3,0.1,0.5,0.4,0.4,0.9c-1.3-0.3-1.6,0.4-2.6,0.4c0,1-1.7,3.5-0.9,5.1c-0.7,0.6-2.2,0.4-2.6,1.3c1.8,0.9,5.7,1.9,4.3,4.7
		c-2.6-0.6-3-1.2-5.1-2.6c1.3,0.2,1.7-0.5,2.1-1.3c-4.2,0.4-1.3-3.1-1.3-3c0,0-1.3,0-1.3,0c0.1-1.2,1.5-3.4-0.4-5.1
		c2.4-1.1,3.4-0.7,5.5-0.9c-1.7-0.9,1.4-4.7,3.4-3.4c-1-2.1,1.4-1.8,2.1-3c2-3.2,1.5-7.9,4.3-10.7c-1.5,0.7-2.4,1.1-3.4,1.3
		c1,0.3-0.2,2-0.9,2.1c1.1-3.9,1-3.2,2.6-5.6c-0.6,0-0.9,0.2-1.3,0.4c0.4-2.5,0.2-5.5,2.1-6.4c-0.5,1.6-0.6,2.4,0.9,2.6
		c-0.3,0.6-2.1,1.8-1.3,2.1c1.3-1.4,2.6-2.8,2.6-5.5c-0.8-0.1-1.4-0.3-1.7-0.9c1.2-0.1,1-1.6,1.7-2.1c0.4,1.2,1.6,1.7,2.6,1.3
		c-0.5-0.2,0.4-2.5,0-3.8c-1.6,0.9-1.6-0.9-3-1.3c0.2,1.2-1.6,0.4-1.7,1.3c0.5,0.2,1,0.5,1.3,0.9C115.5,198.9,115.2,195,112.2,193.7
		 M55.5,148.4c-1.3,0.4-1.4,7.8-3.4,6.4c-0.5,2.8-2.4,4.1-2.6,7.3c3.4,3.2,6.4-3.6,8.5-1.7c-2.1,5.4,0.4,10.5,2.1,14.5
		c1.8-1.1,1.7,1.1,3,1.7c0.7-1.3,0.4-3.6,2.6-3.4c1.1,1.6,1.3,4.1,3.4,4.7c-0.7-4.4,1.3-6.1,5.5-5.6c0.4,0.8,0.7,1.8,1.7,2.1
		c0.8-3.2-1.9-5.2-1.3-6.8c6.8,1.4,9.1,7.4,16.2,8.5c1.3,2.3,5,4.3,8.1,3.4c2.4,3.6,9.6,3.5,12,3.8c-1-0.1,2.1,1.8,2.6,0.4v1.3
		c4-0.1,5.9,0.3,7.3-2.6v2.1c1.7-0.3,1.5,0,2.6-0.4c0.1-1.5-1.3-1.6-1.3-3c0.9-0.2,0.6-2.5,1.7-1.3c-0.3-1.9-0.6-3.9-2.1-3.4
		c1.4,2.9-1.5,3.7-3,4.3c-1.1-1.6,0.5-3.6,2.1-3.8c0.1-1.1-0.7-1.3-0.9-2.1c2,0.5,1.2-1.7,2.1-2.1c-0.1,0.9,1.5,0.2,2.1,0.4
		c-0.3,0.4-1,1.6,0.4,1.3c0.6-0.6-0.6-3.5,0.9-4.3c0.1,0.8,0.7,1,1.7,0.9c0.4-1.7-2.4-0.2-2.1-1.7c1.3,0.2,3.9-0.3,5.1,1.3
		c-1.3-1.1-1.2,1.9-2.6,0c0.5,2.3-2.2,0-2.6,2.1c0.5,0.1,0.3,0.5,0,0.9c2.1-0.1,3,1,4.3,1.7c0-1.3,0.9-1.7,1.3-2.6
		c-0.5-0.1-1.2,0.1-1.3-0.4c2.7,0.1,1.3-5.9,3.8-3.4c0.7-3.6-1.5-3.5-2.6-4.3c0,2.3-1.9,2.6-0.4,3.8c-3.1,0-5.1-0.5-7.7,0.4
		c0.2-0.8-0.5-2.5,0.4-2.6c0.3,0.9,0.7,1.6,2.1,1.3c0.3-1.5-0.2-2.4-1.3-2.6c0.4,1.3-1,0.8-1.7,0.9c-0.2-1.1-2.2-2.5-0.4-3
		c-0.5,2,1.5,1.2,1.7,0.4c1.5,0.7,3.7,2.9,5.1,2.1c-2-2.3-0.2-5.3,0.4-6.8c-2.2,0.4-3.2,1.9-4.3,3.4c-0.7-0.8,0.2-2-0.4-2.6
		c-0.7,1.2-1.6,0.5-2.6,0c-0.6,0.3-0.1,1.6-0.9,1.7c0.4-1.3-1-0.8-1.7-0.9v-1.7c-1.9-0.5-2.1,0.7-3.4,0.9c-0.8-0.8,0.2-1.2,0.4-2.1
		c-1.3-0.8-2.8,0.6-1.3,1.3c-0.7,0-1.3,0.1-1.7,0.4c-0.7-2-2.1-3.7-2.1-5.1c-0.3,1-0.2,2.3-1.3,2.6c-0.1-0.5-0.5-0.3-0.9,0
		c-5,0.4,1.7,0.1,2.6,0.9c-1.1,1.1-3.7-0.9-5.1,0.4c-0.1-1-0.7-1.6-0.4-3c1.9-0.5,1.6-0.1,0.9,1.3c1-0.3,2-0.6,2.1-1.7
		c-3.2-2-5.1,3-3.4,3c-0.8,1,0.1,0.5,0.4,1.3c-3.3-0.5-2.9-2.3-5.5-3c1.3,0.6,2.6-1,1.7-1.3c-0.3,1.3-0.9-0.4-1.7,0
		c0.4,1.8-2.1,1.3-2.1,0c1.2,0.5,2,0.3,2.6-0.9c-2.3,0.2,1.5-1.1-0.4-1.7c-2.5,4.8-8.2,2.8-12,5.6c-2.6-0.7-4.2-4.1-7.3-3
		c-0.6-2.3-1.1-1.4-1.3-3c-1.2,0.1-3-1.2-3.8,0c0.3,0.1,0.8,0,0.9,0.4c-1.7-0.5-1.3-0.3-1.7,0.4c-0.9-0.8-1.8-0.4-2.1-0.9
		c-0.3-1,3.3,0,1.7-0.9c-2-0.7-2.9,0-5.1,0c0.1-0.8-0.5-0.9-0.4-1.7c0.6,0.1,2.7,1.8,1.7,0.9c-2-2.2-6.5-1.5-8.1-3
		C60.9,148.9,56.6,146.8,55.5,148.4 M134,172.3c-0.1-1.1-0.6-1.7-1.7-1.7c-0.7,0.5-1.6,2.7,0,3c0-1.1,0.2-2,0.9-2.6
		C133.4,171.6,133.6,172,134,172.3 M190.8,26.8c0.5,1.1,2.6-0.3,1.3-0.9c-0.2,1.2-0.4-1.8-1.3-0.4C191.5,25.6,191.1,26.4,190.8,26.8
		 M195.9,31.4c-1.4-0.2-1.8,0.7-2.6,1.3c1.2-0.4,1.1,0.6,2.1,0.4C195.4,32.3,196,32.2,195.9,31.4 M236.9,92.9
		c-0.7-1.3-0.7-3.3-1.7-4.3c0.2,3.9-6.5-0.7-6.4,0.9C232.3,89.6,235,92.6,236.9,92.9 M224.5,20.8c-0.1,2.6,4.1,1.5,4.7,0
		C226.5,19.2,226.4,21.7,224.5,20.8 M295.8,0.3c1.6,2.4,2.8,0.7,6.4,1.7c1.2,1.9,2.6,3.6,4.3,5.1C305.2,2.2,299.6-0.9,295.8,0.3
		 M287.7,2.4c2.1,0.4,6.3,0.3,7.7-2.1C293.2,1.4,289.5,1,287.7,2.4 M269.8,11c2.8-0.8,8.4-3.2,8.5-3.8C275.9,7.4,272.7,9,269.8,11
		 M308.2,11.8c0.2-1.6-0.2-2.7-1.3-3C306.3,9.6,306.7,11.9,308.2,11.8 M310.3,18.2c-1.2-1.4,0.4-3.7-1.7-4.7
		c0.1,0.8-0.5,0.9-0.4,1.7C310.1,15.1,308.4,18.4,310.3,18.2 M309.9,23.8c1-0.6,1.4-3.4-0.4-3.4C309.2,21.3,309.2,22.8,309.9,23.8
		 M321.9,25c-1.2-0.7-1.9-1.8-2.6-3c-0.9-0.3-1.8,1.6-0.9,1.7c0.1-0.1,1.6,1.2,2.6,3C321,25.9,322.2,26.2,321.9,25 M321,27.6
		c0.5,0.1,1.2-0.1,1.3,0.4c0,0.3,0.1,0.5,0.4,0.4c-0.3-1.3-0.3-0.8,0-2.1h-1.3C321.5,26.9,321.2,27.3,321,27.6 M189.5,31.4
		c1.1,0.1,1.4-0.6,1.3-1.7C189.6,29.8,188.7,30.7,189.5,31.4 M168.6,38.7c0.1-3.8,3.9-6.1,3.8-8.5C171.1,32.7,167.6,35.3,168.6,38.7
		 M305.2,37c1.5-0.2,1,1.5,2.6,1.3c0.4-0.4,0.9-2.7,0-3c0,0.7-0.3,1.1-0.9,1.3c0.5-1.8-0.1-1.7-0.9-3
		C305.1,34.9,305.9,35.8,305.2,37 M175.9,34.9c-0.7-1.3-2.6,0.6-1.3,1.3C174.6,35.3,176,35.8,175.9,34.9 M175.9,36.1
		c1.7,0.4,3-1.7,1.3-2.1C177.1,35.4,175.7,34,175.9,36.1 M166.5,36.1c1.1-0.1-0.6-0.7,0-1.7c-1.1-0.1-1.3,0.7-1.7,1.3
		C166.9,35,165.9,37.2,166.5,36.1 M162.2,37.9c0.8,0.1,0.9-0.5,1.7-0.4c0,0.4-0.3,0.5-0.4,0.9c1.4,0.4,0.6-1.4,1.3-1.7
		c-1.3-0.2-1.7,0.9-2.6,0V37.9z M175.4,38.7c0-0.8,1.2-0.5,0.9-1.7c-0.5,0-0.6-0.5-1.3-0.4C174.4,37.1,174.3,38.7,175.4,38.7
		 M176.7,37c-0.1,1,0.1,1.6,0.9,1.7c-0.1-0.8,0.4-1,1.3-0.9C178.9,36.1,177.7,36.7,176.7,37 M175.4,40.8c1.1,0.1,2.1,0.1,2.1-0.9
		c-1,0.1-0.5-1.2-1.3-1.3C176.6,40,175.1,39.5,175.4,40.8 M173.7,41.3c1.6,0.3,1.6-2,0-1.7V41.3z M300.5,40.4
		c-0.1,0.7,1.2,2.1,0,2.6c-0.6,0-0.4-0.7-0.9-0.9c-0.1,0.8-1.5,2.4-0.4,3c0.4-0.5,1.5-2.4,2.1-1.3c-2.2,0.3,1.5,0.7,1.3,1.7
		c-1.4,0.4,0.5,0.8,0.4,1.3c-0.8,0.4-1.3,1-1.7,1.7c1.2,1,2.1-0.4,3.4,0.4c-0.4-1.4,0.7-1.3,1.3-1.7c0,0.7-0.1,1.5,0.9,1.3
		c-0.3-1.6-1-5.9-1.3-7.3c-1.9,1.9-2-2.2-2.1-1.3C302.7,41.4,301.8,41.4,300.5,40.4 M168.2,42.5c-0.2-0.8,0.5-2.5-0.4-2.6
		C167.2,40.5,167,42.5,168.2,42.5 M152.4,44.3c1.4,0.1,2.1-0.5,2.1-1.7C153.3,42.6,152.9,43.5,152.4,44.3 M291.6,44.3
		c0.1-0.3,1.1-1.6,0-1.7c0.2,1.2-2.3-0.3-2.1,0.9c1.6,0.3,1.3,1.3,0.4,2.1h2.1c0.1-1.4,1.6-1.3,1.7-2.6
		C292.2,42.7,293.1,44.7,291.6,44.3 M145.5,52.8c0.9-3,6.6-4.9,5.5-8.5c-1.9,1.1-2.8,3.1-3.8,5.1c-1.1-1.8,1.3-1.6,1.3-3.4
		c-1-0.2-0.9,0.8-2.1,0.4c-0.1,1.9-1.1,2.9-2.1,3.8c0.2-1.1,1.3-1.3,1.3-2.6c-2.8,1.7-6.9,3.9-5.1,6.8C142,53.5,143.3,52,145.5,52.8
		 M143.4,55.8c0.4-1.3,0.7-0.5,1.3,0c0.4-1.3,2.1-1.3,2.1-3C144.7,52.5,143.2,55.1,143.4,55.8 M295.8,48.1c0.1-1.1,2.8-3.5,0.9-3.8
		C297.5,46.4,294.3,46.7,295.8,48.1 M159.2,45.1c-1.1,0.4-1.8,1.4-2.6,2.1c1.3-0.1-1.1,1.2,0.4,1.3c0.1-0.6,0.7-0.7,0.9-1.3
		c-0.3-0.1-0.8,0-0.9-0.4C158.3,46.8,158.7,45.8,159.2,45.1 M303.5,51.1c0.1-1.4-2.5-2.3-3-1.7C301.6,49.9,302.6,50.4,303.5,51.1
		 M161.8,53.2c0.5,1.1,1.6-0.9,2.1,0.4c-0.8-0.1-0.8,0.6-1.3,0.9c0-0.3-0.1-0.5-0.4-0.4c0.3,2.6,1.5,0.3,2.6,0
		c-1.4-1.6,0.7-2.1-0.9-3C164,53.4,162.3,51.4,161.8,53.2 M136.6,55.4c2.8-0.2,1.2-2.2,3-3.4C137.9,52.4,137,53.6,136.6,55.4
		 M134.4,57.1c-0.8-2,2.8-1.7,1.3-3C135.1,54.6,133,55.9,134.4,57.1 M154.1,61.3c1.4-2-0.3,1.3,1.7,1.3c-0.1,0.5-0.7,0.9,0.4,0.9
		c-0.2-3.7,4.2-2.9,4.7-6c-1.4-0.5-0.3,1.4-1.7,0.9c0-0.4-0.3-0.5-0.4-0.9c0.7-0.6,1.7-0.9,2.6-1.3c-0.1-0.5,0.1-1.2-0.4-1.3
		C159.9,56.8,153.8,58.4,154.1,61.3 M319.7,55.4c-1.9-0.6-3.8,1-5.5,0.9C316,56.9,319,57.5,319.7,55.4 M145.1,59.2
		c1.9-0.6,2.7,0.8,3.8-1.3c-1.7,0.1-1-0.2-0.9-1.3c-0.5,0-0.6-0.5-1.3-0.4C146.8,57.5,144.3,58.5,145.1,59.2 M303.5,57.9
		c-0.6-1.4-1.3-1.5,0-2.6c-3.6,0.1-3.7,1-5.5,2.6c-0.1-1.5-1.9,0.8-1.7-0.4c0.8-0.6,2.2-0.7,2.6-1.7c-1.3-0.2-1.5,0.8-3,0.4
		c-0.6,2.5-2.1,1.2-3.4,3c1.5,1.1,3.8-1.9,4.7,0c1.4-0.7,2.1-0.4,2.1-1.7C299.6,59.6,301.8,57.2,303.5,57.9 M129.3,58.8
		c-1.9,0.4-3.5,3.3-3,4.7c0.1-0.6,1-0.4,1.7-0.4C129.5,59.9,128.5,61.9,129.3,58.8 M129.3,63c0.6-1.3,1.8-1.9,3-2.6
		c-0.6-0.1-1.6,0.2-1.7-0.4c0-1.8,1.5-2.2,2.1-3.4C129.7,57.5,129.6,61.3,129.3,63 M297.5,59.6c-0.3,1.2,0.8,0.9,0.8,1.7
		c3.6,0,5.4-1.6,7.3-2.1c-1.2-1.4-5.8,1.7-3-0.4C299.3,58.9,300.7,60.5,297.5,59.6 M294.1,61.8c1.3,0.6,2.9,0.1,3.8-0.9
		C296.7,59.9,294.8,60.9,294.1,61.8 M134.4,63.9c-2.5-0.4-0.7,0.9-2.1,1.3c-0.4-1.7,1.3-1.3,0.9-3c-2.3-0.3-1.1,3.6-3.4,2.1
		c-1.3,1.4-1,3.2-2.1,3.8c-1-0.6,0.8-1.3-0.4-1.7c-0.8,1.1-1.2,2.8-2.1,3.8c-0.1-0.5-0.7-0.5-1.3-0.4c1.1,1.6-2.7,2.9-3.4,2.6
		c0.2,0,0.5-0.3,0-0.4c-0.1,1.1-1.6,2.8,0,4.3c0.7-2.5,3,0.7,5.1-0.9c-0.6,0.6-0.3,1.3,0.4,1.7c0.4-1.7,0.4-2.1,0-3.8
		c1.6-0.1,1-2.4,2.1-3c-0.7-0.2-1.1,0.6-1.3,0c0.7-0.3,0-2,0.9-2.1c0.5,0.6,0.5,1.1,0,1.7c1.5-0.6,2-3.1,1.7-4.3
		c2.1-0.7,1.4,0.2,0.9,1.7c0.9,0.9,1.4-0.1,2.1-0.4c0.3,1.8-0.1,1.7,0.4,3.4c1.4,0.4,0.6-1.4,1.7-1.3c-0.1,1.1-0.1,2.1,0.9,2.1
		c0.9-0.4,0.4-2.2,1.7-2.1c0.3,1.3-1.2,0.8-0.9,2.1c1.8,0.5,3.5-1.9,1.7-2.1c0.1-1.7,2.7,0.8,2.6-1.7c-1-0.2-0.9,0.8-2.1,0.4
		c0.1-1.9-2.1-1.5-0.9-3.4c-0.8-1.3-1.7,0.1-2.6-0.9c0-0.8,1.4-3.5,0.4-2.6C134.8,62,132.7,63.1,134.4,63.9 M160.9,60.5
		c-1,0.4-2.1,0.8-3,1.3C158.9,62.6,161,62,160.9,60.5 M305.6,63c-0.3-0.1-0.5-0.4-0.4-0.9c-0.6,0.2-2.2-0.5-2.1,0.4
		C303.8,62.7,305.3,64,305.6,63 M125.9,65.6c-0.1-1.1,1.7-0.3,1.3-1.7h-1.7C125.5,64.5,125.3,65.5,125.9,65.6 M166.9,65.6
		c1.6,0.3,1.6-2,0-1.7V65.6z M144.7,66.9h0.9c0-0.4,0.3-0.5,0.4-0.9c-0.6-0.2-0.7-0.5-1.3,0c-0.1-0.5,0.1-1.2-0.4-1.3
		C143.2,65.8,144.9,65.5,144.7,66.9 M319.7,68.2c0.6,1.3-0.3,1.7,0.9,2.6c1-2.3,0.5-3.4,1.7-5.6C320.1,65.3,320.9,69.3,319.7,68.2
		 M165.2,67.3c0.2,1.5-1.1,1.5-1.7,2.1c0.6,0.5,1.1,0.5,1.7,0c-0.4,1.4,1.1,0.9,1.3,1.7c-1.3-0.5-1,0.7-1.7,0.9
		c-1.3-0.8-2.6-0.2-4.3-1.7c-0.3,1.3,1.2,0.8,0.9,2.1c-1.7,0.5-1-1.2-2.1-1.3c-0.3,1.3,1.2,0.8,0.9,2.1c-1.7,0.6-1.3-0.9-2.6-0.9
		c-0.3,1.3,1.2,0.8,0.9,2.1c-0.9-0.3-1.4-0.9-2.1-1.3c0.3,1.6-2.4,2.4-2.6,2.1c0.9-1,2.1-1.6,2.1-3.4c-2.8,0.9-2.1,2.6-4.3,2.6
		c0.6,0.4,1.4,0.6,1.3,1.7c-2.3,0.1-0.3,0.1-0.4,1.3c-0.4,0.4-0.8,0.9-1.3,1.3c0-0.6-0.1-1.6-0.4-0.9c-0.3,0.8,1.3,1.8,0,2.1
		c-1.9-1.1-2.4-2.1-0.9-3.8c-2.1-0.4-2.6-0.8-2.6-2.6c-1.1-0.2-2.2,1.8-1.3,2.1c0.2-1.2,0.6,0.7,0.9,0.9c1.2,0.4,1.1-0.6,2.1-0.4
		c0,2.2-1.9,1.5-0.9,3.8h-1.7c-1,1.4-0.2,3-0.9,3.8c-0.5-0.1-0.7-0.5-0.9-0.9c0.6-0.5,0.3-2,0.9-2.6c-0.6-0.7-1.8,0-2.1,0.9
		c0.3,0.1,0.8,0,0.9,0.4c-0.6-0.1-1.6,0.2-1.7-0.4c0.6-0.3,0.8-0.9,0.9-1.7c-1.7,0.3-2.2,0.4-3.4-0.4c-0.3,1.4-0.6,2.1,0.4,0.9
		c0.4,2.1-1.6,1.1-1.7,1.7c1,1.2,0.5,2.7,2.1,1.3c0.6,2.4,2.3,3.6,3,6h-1.3c-0.1-0.5,0.1-1.2-0.4-1.3c0.1,1.1-0.2,1.8-0.9,2.1
		c0-0.7,0.1-1.3,0.4-1.7c-0.8,0.1-1-0.4-0.9-1.3c-0.8,1.4-2.7,1.4-4.3,3c1.2,1,2.6,4.2,0.4,3.8c1.1,0.1,0.1,1.4,0,1.7
		c0.6-0.2,2.2,0.5,2.1-0.4c-1-0.3,0.2-2,0.9-2.1c1-0.1,0.5,1.2,1.3,1.3c0.6-0.6,2.1-0.9,2.6-0.4c-0.5-1.6,0.9-1.4,1.3-2.1
		c-1.9,0.1-2.7,1.3-4.3,1.7c0.6-0.3,0.1-1.6,0.9-1.7c1.2,0,0.9-0.7,1.7,0v-2.1c1.2,0.3,0.9-0.8,1.7-0.9c-1,1.1-0.2,1.4-1.3,2.6
		c1.8,0.2,1.3-1.8,3.4-1.3c-0.6-1.6,1.2-0.8,0.9-2.1c-0.5-0.1-1.2,0.1-1.3-0.4c0.1-0.6,0.6-0.8,0.4-1.7c2.2-0.3,1.8-0.7,3-2.1
		c0,0.7-0.1,1.3-0.4,1.7c1-0.1,1.6,0.1,2.1,0.4c0.7-1.5-1.5-0.3-1.3-1.3c0-0.7,0.3-1.1,0.9-1.3c0.1,3.3,3.3-1.3,3.4,1.7
		c-0.1-1.5,1-1.8,1.3-3c-1.3-0.7-1.7,1.6-2.1,0.4c0.2-1.1,0.6-2,1.3-2.6c0.6,1-1.1,1.6,0,1.7c-0.5-0.8,2.6,0.7,1.3-0.4
		c-0.3-0.1-0.8,0-0.9-0.4c0.4-1.3,0.7-0.5,1.3,0c0.4-3.3,2.7-2.2,3.8-3.8c1,0.9,1.6,1.8,3,0.9c-0.5-0.2-1-0.5-1.3-0.9
		c0.6-0.3,0.1-1.6,0.9-1.7c0,1.5,0.8,0,1.3,1.3c-0.3-1.9,1.4-0.9,2.1-0.9c-0.2-1.3,1.1-2.2-0.4-2.6c0.4,1.5-1.1,0.4-1.3,0
		c0.9-0.3,1.4-0.9,2.1-1.3c0.9,0.4-0.2,2.7,0.9,3c0.4-0.7,0.1-2.1,0.9-2.6c0.1,0.3,0,0.8,0.4,0.9c0.3-1.9-0.7-1-1.7-0.9
		c0.2-0.8,1.2-0.8,0.9-2.1c-1.5-0.7-0.3,1.5-1.3,1.3c0-0.4-0.3-0.5-0.4-0.9c1.4-0.7,1.5-4.4,1.3-4.3
		C167.5,66.6,166.6,67.7,165.2,67.3 M137.4,87.8c-1.1-0.1-2.1-0.1-1.7,1.3C136.8,89.2,137.6,88.9,137.4,87.8 M135.7,90.8
		c0.1,1,0.4,1.8,1.3,2.1c0.8-0.8-0.3-0.8,0-2.1H135.7z M169.4,67.7c-0.4,0-0.5-0.3-0.9-0.4c0.1,0.6-0.2,1.6,0.4,1.7
		c0.3-0.5,1.7-2,0.4-2.6V67.7z M317.6,69c0.7-0.4,0.9-1.7,1.7-0.9c-0.1-0.8,0.5-0.9,0.4-1.7H318C318.6,67.8,316.6,68.6,317.6,69
		 M110.1,74.1c2-0.2,0.6,0.4,0.9,1.7c1.3-0.3,2.5-0.7,2.6-2.1c-1.5-1.1,0-3.4,1.3-4.3C111.9,69.7,111.2,72.1,110.1,74.1 M118.2,69
		c-0.1,1-1.1-0.6-2.1,0c-0.1,2.3-2.2,2.7-2.6,4.7C116.8,74.9,117.7,69.9,118.2,69 M182.3,74.1c1.2,0.2,5.2,2.9,3.4,0.9
		c1.8-0.2,1.9,1.2,3.8,0.9c1.6,3.6,1.5,6.4,3.8,9.4c-0.1-9.3-7.7-11-12-16.2C180.2,70.8,182.4,72.1,182.3,74.1 M266.8,72
		c1.8-0.6,4.8,0,6-1.3C270,71.3,267.9,70.2,266.8,72 M271.1,72.4c-4.2,1.6-9-0.3-12.8-0.4C261.8,73.4,267.1,74.9,271.1,72.4
		 M282.6,75.4c-1.4,0.2-0.7-1.8-1.3-2.6c-1.3-0.5-1,0-2.6,0C279,74.5,281.3,76.2,282.6,75.4 M107.5,75.9c0.6,0.7,1.7,0.3,2.1-0.4
		c-0.9-0.1-0.4-1.6-1.3-1.7C108.2,74.5,107.5,74.8,107.5,75.9 M119.1,77.1c0-1.5,0.1-3-0.9-3.4C117.1,74.9,117.3,76.8,119.1,77.1
		 M293.3,75c0-2.1-1.3-0.3-2.1-1.3C290.9,75,292,75.1,293.3,75 M138.7,76.7c0.1-1.1-1-1-1.3-1.7C136.3,75.9,137.6,78,138.7,76.7
		 M115.2,75.9c0.2,1.1,0.6,2,1.3,2.6c0.7-1-0.2-1.9,0.4-3C116.2,75.4,115.6,75.5,115.2,75.9 M113.5,78.8c1.2-0.3,0.9,0.8,1.7,0.9
		c-0.4-0.8-0.8-3.7-1.7-2.6C114.6,77.2,112.9,77.9,113.5,78.8 M139.1,77.6c0.6,0.1,0.7,0.7,1.3,0.9c0.1-0.6,0.6-0.8,0.4-1.7
		C139.9,76.6,139.2,76.8,139.1,77.6 M132.7,79.3c1.2,0,0.9,0.7,1.7,0c0.1,0.5-0.1,1.2,0.4,1.3c-0.2-1,0.8-0.9,0.4-2.1
		c-1.5,0.7-0.3-1.5-1.3-1.3C133.8,78,133.1,78.5,132.7,79.3 M125,80.1c0.8,0.2,1.1,0.9,2.1,0.9c-1.3-1.7-0.7-0.4-0.4-3
		c-0.6,0-0.9-0.2-1.3-0.4c0.5,1.4-1.4,0.3-0.9,1.7C126.4,78.8,125.6,79,125,80.1 M111.8,79.3c-0.4,1.4,1.1,0.9,1.3,1.7
		c-0.1,0.9-1.1,0.9-2.1,0.9c0-0.5,0.5-0.6,0.4-1.3h-1.7c1.2,2.8-3.8,0.5-4.3,3.4c1.6,0.5,3.1,1.1,4.7,1.7c0.5-2-2.2-0.7-2.6-1.7
		c2.8-1.4,5.5-0.2,8.1-1.7c-1.7,0.5-1.4-1.2-0.9-1.7c-2.1,0.8-2-2.8-3-1.7C112,78.8,112.3,79.2,111.8,79.3 M120.8,81.4
		c1.1-0.1,2.2-0.1,2.1-1.3C121.8,80.2,120.7,80.2,120.8,81.4 M295.4,81c0.1-0.7-2.6-0.7-2.6,0C294.2,80.3,295.4,82.9,295.4,81
		 M296.7,82.3c0.8-0.1,1.4-0.3,1.7-0.9c-1.1-1.1-0.3,0.7-1.7,0.4c1-0.5-0.5-2-0.9-0.9C296.4,81.1,296.3,81.9,296.7,82.3 M132.3,81.4
		c0,2.5-1-1.9-1.7,0c2.1,2-1,1-1.7,2.1c2.2,0.3,0.5,2.2,2.6,3c0.7-1.7,2.4,0.6,3-1.7c-0.1,1.1,0.2,1.8,1.3,1.7
		c0.3-0.7,1.3-0.7,1.7-1.3C136.3,83.4,133.7,83,132.3,81.4 M96.9,83.5c-0.1,1.8-0.8,2.2-0.4,3.4c2.7,0.2,1.3-1.6,2.1-2.6
		c-0.2,1.8,2,1.1,3,1.7c0.4-1.1,1.9-1,1.7-2.6c-1.1-0.1-2.1-0.1-2.6,0.4v-2.1C98.9,81.8,98.8,85,96.9,83.5 M204,90.8
		c0.1-1.1,0.1-2.1-0.4-2.6h-3.4c-0.7-1.9-3-2.2-3.4-4.3C194.2,88.2,202.5,88,204,90.8 M128,92.9c0.6,0.7,2.4,0.1,3,0.9
		c0.8-2.7,2-2.7,2.1-5.6C131.2,89.5,130.3,91.9,128,92.9 M133.6,91.2c3.1-0.3,1.2-3.8,0-4.7c0.1,0.8-0.5,0.9-0.4,1.7
		c1.2,0.1,1.3,1.3,1.7,2.1C134.4,90.6,133.9,90.8,133.6,91.2 M166.9,88.2c2.3-0.5,2.8,2.9,4.3,0.9c-0.7,0-1.5,0.1-1.3-0.9
		c1.2,0.1,2.2-0.1,2.6-0.9c-2.2,0-4-0.9-5.6-0.4C167.5,87.1,167.2,87.9,166.9,88.2 M166.9,88.7c0.2,1.3-2.1,0.2-1.7,1.7
		c1,0.6,1.6-1.1,1.7,0c-0.6,0.6-1.3,1.3-1.7,2.1c1-0.2,2.8-1.8,3.8-0.4c-1.2,0.9-4.1,0.2-4.7,1.7c0.5,0.2,1,0.5,1.3,0.9
		c1.2-0.2,1.8-1,3-1.3c1,0.6,0.4,1.8,0.9,2.1c0-0.7,1.2-0.2,1.3-0.9c-1.5-1,0.8-1.7,1.7-1.7C171.8,89.8,168.6,90.1,166.9,88.7
		 M172.4,91.2c1.4,0.3,0.6-1.5,1.7-0.4v-1.3C172.7,89.3,171.6,90.4,172.4,91.2 M149.8,89.5c1.5,0.3,1.8-0.8,2.6,0
		C152.8,88,149.6,88.5,149.8,89.5 M178.4,91.2c2-0.1,2.4-0.8,2.1,1.7c1.4-0.1,2.9-0.2,3.8-0.9C183.3,89.5,180.3,89.5,178.4,91.2
		 M106.7,91.6c2.8-0.8,5.6,1.1,7.3-0.9C111.4,90.1,109.1,90.3,106.7,91.6 M119.1,90.8c-0.2,0.5-0.5,1-0.9,1.3
		c-0.4-0.4-3.1-0.9-3.4,0c5.3,0.8,7.8,2.2,13.2,3.8c-0.1,0.9-0.9,1.1-1.3,1.7c0.8-0.6,2.8,0,3.4-0.9c-0.3-0.1-0.5-0.4-0.4-0.9
		c-1.5,0-2.2-2-5.5-2.1c-0.2-1.2,2.3,0.3,2.1-0.9c-0.6-1.1-2.8,0.9-1.7-0.9c-1.3-0.2-1,1.3-2.6,0.9c1.1-1.1-0.7-0.3-0.4-1.7
		C119.9,91.7,117.4,90.3,119.1,90.8 M187,92.5c0.1-0.5,0.7-1,0.9-0.4c0,1.5-0.2,3.4,0.9,3.8c-0.4-2.3,0.6-3.1,1.7-3.8
		c-1.5-0.5-2.5-1.5-4.3-1.7C186,91.4,186.3,92.1,187,92.5 M157.1,93.8c-0.2-2.3,1.1,1.5,1.7-0.4c-0.7,0.1-1.1-0.5,0-0.4
		c0.1-0.8-0.5-0.9-0.4-1.7C156.8,91,155.3,93.3,157.1,93.8 M155.4,92.9c-1.3,1.2-1.7-1.5-3,0C153.1,93.4,155,94.6,155.4,92.9
		 M112.7,94.6c2-0.4,1.4,1.7,3.4,1.3c0.9-0.9-0.4-1.4,0.4-2.1C115.2,93.2,113.3,93.4,112.7,94.6 M182.3,93.8c0.3,0,0.5-0.1,0.4-0.4
		c-1.6,0-1.9,1.2-3,1.7c1.4,1.1,0.2,2.9,2.6,3.4c1.3-1.3-0.6-1.6-1.3-2.1c0.2-0.6,0.7-1,1.3-1.3c0.6,0.6,2.3,1.5,2.6,0
		C183.9,95,184,95.4,182.3,93.8 M106.7,96.3c1.5-1.7,4.3,1.2,6-1.3C111.3,93.5,106.1,94.3,106.7,96.3 M119.1,95.1
		c-0.8-0.2-0.8-1.2-2.1-0.9C116.4,95.5,118.7,96,119.1,95.1 M154.1,95.5c1.8,0.1,1.7-0.6,3,0v-0.9c-0.4,0-0.5-0.3-0.9-0.4
		C155.9,95.1,154.2,94.5,154.1,95.5 M94.7,97.6c1.8,0,3.3-0.4,3.8-1.7c-1.4-1.2-3.5,1-3.4-1.3c-1.7-0.1-2.4,0.8-4.3,0.4
		c0.1,1.7-1.2,2.6-0.9,3.8c-2.1-0.5-1.2,2.4-0.4,0.4c-0.5,2.7-2.4,2.6-3,4.3c1.8-0.1,4.3-1,3-2.1c1-0.6,0.9-1.8,1.3-2.1h0.9
		c-1.2,1-0.7,1.8,0,3c-1.3-0.2-1.2,1.1-1.7,1.7c1.6,0.5,1.6-2.9,3-1.3c-1.8,0.3-1.8,3.3-4.3,1.7c-0.6,1.6,1.2,0.8,0.9,2.1
		c1.6-0.7,0.7,0.3,2.1,0.4c1.7-0.4,0.5-1.9-0.4-2.1c1.6,0,1.4-0.6,2.1,0.4c0.5-0.7,1.7-2.8,3.4-1.7c-1.3-0.4-2.8,1.2-1.7,1.7
		c0.8-0.9,2.3-2.8,3.4-2.1c0-0.7-0.1-1.3-0.4-1.7c-0.8-0.1-0.8,0.6-1.3,0.9c-0.7-1.9-3-2.1-4.3-3.4c0.4-0.7,1.4-0.9,1.7-1.7
		c-0.7-0.6-2.4,0.2-3-1.3c0.5-0.5,1.5-0.5,2.6-0.4C93.3,97.1,95.1,96.3,94.7,97.6 M148.5,94.6h-2.1C146,96.4,148.5,95.9,148.5,94.6
		 M135.7,98.1c0.7,0,1.1,0.3,1.3,0.9c-0.3,0.1-0.8,0-0.9,0.4c1.6,0.6,3-1.3,3.8,0c-1,0.6-2.4,0.8-1.7,2.1c0.1-0.9,1.1-0.9,2.1-0.9
		c0.4,2.1,2,0.7,3.4,2.1c-0.9,0.4-1.9,0.7-2.6,1.3c-0.5-0.7-0.9-1.7-2.1-1.7c0.5,1.4-1.4,0.3-0.9,1.7c0.1,1.3,2.3,0.6,2.6,1.7
		c-0.4,1-1.1,1.7-2.1,2.1c0.5,0.1,0.3,0.5,0,0.9c0.6,0.5,1.7,0.5,2.1,1.3c-1.7-1-2.3,0.9-3.8,0c0.4,1.6,2.6,0.8,3.8,1.3
		c-0.7-0.1-0.1-0.7,0.4-0.9c0,0.3,0.1,0.5,0.4,0.4c-0.3,1.2-1.8,1.1-1.7,2.6c2.4,0.4,1.9,1.4,3,2.6c0.4-0.9,0.7-1.8,1.7-2.1
		c-0.6,0.6-0.6,1.7,0.9,1.3c-0.8-2.3-0.5-1.9,0.4-3.8c-1.3,0.6-3.2,0.4-3.8-0.9c1.7-0.8,2.2,1.7,3,0.4c-0.5-0.2-0.9-0.6-0.9-1.3
		c0.3-0.1,0.8,0,0.9-0.4c-0.9-0.2-2.3,1.3-2.6,0.4c0.7-0.5,0.9-1.7,1.7-2.1c-1.4-0.2-2.1-1-3-1.7c0.5-0.9,1.2-1.6,2.1-2.1
		c0.5,0.6,1.8,0.5,1.7,1.7c-0.8-0.9-1,0.5-1.7,0.9c1.1,0,2.4,0.2,3-0.4c0,2.3,0.1,0.3,1.3,0.4c0.7,2-2.6,2.2-1.3,3.4
		c0.8-1.8,3.6-2.7,2.1-1.3c1.2-0.4,1.5-0.5,2.1,0.4c0.4-0.6,0.4-1.6,1.3-1.7c0.9,1.4,1.8-1.1,2.1,0c0.5,1.6-1.1,1.2-0.9,2.6
		c0.8,0.8,0.8-0.3,2.1,0c0.6-1.1-1.7-1.3-0.4-1.7c1.3-0.2,1.7,2.5,2.6,1.3c1.2-1.9-2.6-3.6-2.1-4.7c0.7,2.6,0.6-1.6,2.1-0.9
		c-0.5,1.8,0.2,3.9,1.7,3c-1.6,0.3-0.6-1.7,0.4-1.3c0.6,0.8-0.1,2.7,0.4,1.7c0.9-0.1,0.1-1.9,1.3-1.7c1.9,1,3.1,2.6,5.1,3.4
		c-1.3,0.3-1.6-0.4-2.6-0.4c0.8,1.9-1.7,0.6-1.3,2.1c1-0.1,1.6,0.1,2.1,0.4c0.5-1-0.2-1.3,1.3-1.7c-0.2,1.1-1.3,1.3-1.3,2.6
		c1.3-0.3,0.8-0.3,2.1,0c-0.2-1.1-0.6-1.5,0.4-2.1c0.7,0,1.3-0.1,1.7-0.4c-0.1,0.6-0.6,0.8-0.4,1.7c1.9,0,2.7,1.6,3.4-0.4
		c-0.7-0.2-1.1,0.6-1.3,0c1,0.2-0.2-1.9,1.3-1.3c-0.3-1.1-0.4-2.4-1.3-3c-0.2,1.6-1.8,1.4-2.1,1.7c0.5,0.2,1,0.5,1.3,0.9
		c-1.9-0.2-3.8-0.8-3.4-3c-2.3-0.2-1.5-1.4-2.6-2.1c0.1-0.8,0.3-1.4,0.9-1.7c0,0.4,0.3,0.5,0.4,0.9c0,0.6-0.7,0.4-0.9,0.9
		c0.9-0.1,1.2,2.8,2.1,1.3c-1-0.5,0.8-1.7,1.3-2.1c1.1-0.1,0.3,1.7,1.7,1.3c0.2-1.4,3.1-2.6,0.4-3.4c0.6,1.4-0.1,1.2-0.9,2.1
		c-0.6-0.4-1.6-0.4-1.7-1.3c0.6-0.5,1.7-0.5,2.1-1.3c-0.9-0.5-2.8,1.8-4.7,0.4c0.1,1.1-0.7,1.3-1.3,1.7c-0.9-0.8-1.6-1.1-2.1-1.3
		c0-0.7,1.2-0.2,1.3-0.9c-1.3-1.1-2.7,0.8-1.7,2.1c-1.1,0.4-2.2,0.4-3-0.4c0.8-0.1,1.4-0.3,1.7-0.9c-1.5-0.3-1.8,0.5-2.6,0.9
		c-1.5-0.6-3.3-3.3-4.7-2.6c1.8,0.5-1.8,1.2,0,1.7c1.2-1,1.7,0.5,1.7-0.9c0.8,0.1,1,0.7,0.9,1.7c-1.7,1-3.2-0.8-4.3,0
		c0.8,0.2-0.2,0.5-0.4,0.9c1.2,1,2.9-1,3,1.3c-1.1-1.1-1.6,0.6-2.1,1.3c0.3,0,1.3,1.4,0.4,1.3c-0.6-0.5-1-1.6-0.4-2.1
		c-3.7-1.5-5.7-4.6-10.2-5.1c0.4-1.4-0.4-1.6-0.9-2.1c0.6,0.1,1.6-0.2,1.7,0.4c-1.2,0.8,1.4,1.4,2.1,1.7c0.3-0.6,0.9-0.8,1.7-0.9
		c1.1,0,1.4,2.8,2.6,1.3c-1.8-0.4-2.1-1.8-2.1-3h-2.1c0-0.6-0.2-0.9-0.4-1.3c0.6,0.6,1.6,0.6,1.7-0.4C140.4,96,139.1,97,135.7,98.1
		 M161.3,106.2c0.3,1.5-1.7,0.5-1.3,2.1c0.3,0.1,1.6,1.1,1.7,0c-0.5-0.1-1.2,0.1-1.3-0.4c0.4,0,0.5-0.3,0.9-0.4
		c0.6,0.1,0.7,0.7,1.3,0.9c-0.6-1.6-0.9-0.7,0.4-1.7C162.2,106.7,162.1,106.1,161.3,106.2 M167.3,103.6c-0.4,1-0.5,1.8,0.4,3
		c0.1-1.4,1.9-0.9,2.6-1.7C168.8,104.9,168.5,103.8,167.3,103.6 M170.7,102.7c0,0.6-0.7,0.4-0.9,0.9c0.4,0.4,0.2,1.5,1.3,2.1
		c0.9-1.4,1.7-2.9,2.6-4.3c-1.1-0.1-1.8,0.2-2.1,0.9c0.6,0.1,0.5,0.9,0.9,1.3C171.1,104.1,171.4,102.9,170.7,102.7 M172,98.5
		c1.3-0.1,0.9-1.9,2.1-2.1c-1,0.1-1.9-2.1-2.6-0.9C173.4,96.1,172.4,97,172,98.5 M123.3,96.3c-0.1-0.3,0-0.8-0.4-0.9
		c0.9,2.6-0.6,1.1-1.7,1.7c0,2.4,2.5,0.4,3.4,0c-0.5,0-1-0.1-0.9-0.9c0.2,0,0.5-0.3,0-0.4C123.7,96.2,123.7,96.4,123.3,96.3
		 M155.4,98.1c-0.3,0.1-0.8,0-0.9,0.4c1.4,0,1.8,0.8,2.6-0.4c-0.6,0-1.7-1.6-2.1-0.4C155.2,97.6,155.4,97.7,155.4,98.1 M174.1,101
		c0-2.2,2.5-0.9,3-1.7c-2,0.6-2-3.1-3.4-1.7C176.3,98.9,172.2,100.6,174.1,101 M113.5,98.9c0.3,1.3-0.7,1.3-0.4,2.6
		c0.8-0.2,2.5,0.5,2.6-0.4c-0.6-1.4,3.1-2,4.3-3C117.9,96.9,115.9,99,113.5,98.9 M159.6,100.6c0.7-0.2-0.1-0.6,0-1.3
		c1.1,0,2.2-0.1,2.1-1.3C160.5,98,157.6,100.1,159.6,100.6 M207.9,101.5c5.4,3.6,8.3,9.6,9.8,17.1c-0.2,2,0.8,1,0.4-0.4
		c0.2-5.9-1.4-10-2.1-14.9c0.4-1.4,2.4-1.3,2.1-3.4c-1.2-0.1-1.5,0.8-2.1,1.3c-1-3.2-6.7-2.5-8.5-0.9
		C208.8,101,208.8,101.3,207.9,101.5 M129.7,103.2c1.2,0.6,2.5,1.2,3.8,2.6c-1.1-0.4-2.3,1.3-3,0c0.1-0.5,0.8-1,0-1.3
		c-1.3,1.4-2.4-0.9-2.1-1.3c-0.4,1.2-1.1-0.6-1.7,0.4c0.3-1.6-1.6-1.3-2.6-2.6c-0.1,1.8,1.4,1.3,1.7,1.7c1.6,1.1-1.8,0.7-0.4,1.3
		c2-0.5,0.7,2.1,3,1.3c0,0.6,0.2,0.9,0.4,1.3c-1.5,0.1-2.9,0.7-3.8,0.4v-0.9c0.6,0.6,1.6,0.6,1.7-0.4c-1,0.3-3.1-0.5-3.4,0.4
		c0.5,0,1,0.1,0.9,0.9c0.2,1-2.3,1.3-2.6,0.4c1.1,0.3,0.8-0.9,1.3-1.3c-1.3,0.6-1.7-0.1-2.6,0.4c0,0.6,0.2,0.9,0.4,1.3
		c-1,0.5-2.6,0.5-3.4,1.3c0-0.6-0.2-0.9-0.4-1.3c1.5,1.3,1.8-1.4,3.4-1.3c0-0.7,0.1-1.3,0.4-1.7c-2.7-0.3-5.6,0.4-6.4,0.9
		c1.9,0.5,0.4,1.7,2.1,2.1c-0.4,1.2-0.6,0.5-1.7,0.4c-0.2,1.3,1.1,1.1,1.3,2.1c-1.2-0.4-1.1,0.6-2.1,0.4c-1.2,2.8,2.6,3.5,3.8,3.8
		c0,0.4-1.8,0.9-0.4,1.3c0.6-0.5,1.2-1.1,1.7-1.7c0,0.4,0.7,0.5,0.9,0c-2.5-0.2-1.9-2.4-4.7-3c1.7-1.1,3,1.4,3.8,0.4
		c0,0.7-1.1,0.3-0.9,1.3c1.6-0.5,1.2,1.1,2.6,0.9c0.9-1,0.6-0.9,0.4-2.6c-1,0.2-0.9-0.8-2.1-0.4c0.5-1.3-0.7-1-0.9-1.7
		c0.4,0,0.5-0.3,0.9-0.4c1,1.6,3.2,3.2,4.3,3.4v0.9c-0.5,0-0.6-0.5-1.3-0.4c-0.5,1.3,1.4,2.2,1.7,1.3c-0.7-1.1,2.8,0.4,3.8-1.7
		c-1.3-0.6-1.6,0.5-2.1-0.9c0.8-0.1-0.2-0.7,0.4-0.9c1.5,0.6,2.3,2,3.8,2.6c0.2-0.8,1.7-0.3,1.3-1.7c0-0.6-0.7-0.4-0.9-0.9
		c0.6,0,0.4-0.7,0.9-0.9c0.4,1.5,1.7,2,3,2.6c0.7-2.2,3.6-2.1,4.3-4.3c-1.4-0.6-3.3-0.6-3,0.4c-0.6-0.5-1.7-0.5-2.1-1.3
		c0.1-0.6,0.9-0.5,1.3-0.9c0,1.9,1.9-0.3,2.6-0.4c-1.9-0.7-3-2.1-5.1-2.6c0.8,0.2,2.2-1.1,1.3-1.3c-0.1,0.9-1.8,0.2-2.6,0.4
		c-0.2-1.8-2.2-1.8-3.4-2.6c0.1,0.8,0.3,1.4,0.9,1.7C127.9,99.9,131.1,102,129.7,103.2 M178.4,101.9c0.8,0.2,1.1,0.9,2.1,0.9
		c1.2-0.2,1.2-1.6,1.7-2.6c-0.9-1.1-2.8,0.3-3.4-0.4C179,100.8,178.1,100.7,178.4,101.9 M111.8,100.2c-0.1,0.6-1,0.4-1.7,0.4
		c-0.2,0.7,0.6,1.1,0,1.3c-1.3-1.1-3.7,0.6-5.6-0.4c-0.6,0.3-0.1,1.6-0.9,1.7c-0.3-1.5-2.7-0.6-2.6,0.9c2.7-1-0.8,0.9,1.3,1.7
		c0.4-0.6,0.6-1.4,1.7-1.3c0,0.6,0.7,0.4,0.9,0.9c-2.1-0.7-0.4,1.6-2.6,1.3c0.3,0.1,0.8,0,0.9,0.4c-0.5,0.1-1,0.7-0.4,0.9
		c1-2.3,3.4-0.8,2.6-3.4c1.3,0,3-1.8,3,0.4c-0.8,1.3-1.3-1.2-1.7,0c1.8,1.4-2.4,2.1-0.9,3.4c-1.6-0.2-1.9,0.9-2.6,1.7
		c1.7,0,1.3-1.9,3-0.9c-0.1-3.4,3.4-3.1,3.8-6c-0.5-0.2-1-0.5-1.3-0.9c0.4,0,0.5-0.3,0.9-0.4C110.1,104,113.6,101.5,111.8,100.2
		 M295,113.4c0.2-0.5,0.6-0.9,1.3-0.9c-0.7,1,1.6,1.6,2.6,2.1c0.3-2.1-2.4-1.3-1.7-3.8c-1.2-0.5-2.5-0.7-3-0.9
		c-0.2-0.8,1.3-1.8-0.4-1.7c-0.2,2-3.2-2.3-3-3.4c-0.6,0.1-1.6-0.2-1.7,0.4c0.7,0.4-1.2,0.7-0.9,1.3c-1.2-2.2-3.2-5.9-5.5-5.6
		C283.8,108.1,290.2,110,295,113.4 M121.2,103.6c0-0.8,1.7,0.7,1.7-0.9c-2.4,1-2.1-3-3.8-1.3C120.9,101.1,119.8,103.6,121.2,103.6
		 M96.4,106.2c-1.5,0.8-1.3-0.1-2.6-0.4c-0.5,1.1-3,1.8-2.1,3c3.1-1.8,7-2.4,9-4.3c-0.7-0.2-1.1,0.6-1.3,0c-0.1-1,1.2-0.5,1.3-1.3
		c-1.2,0.2-0.4-1.6-1.3-1.7C100,103.6,97.2,104.1,96.4,106.2 M118.6,104.5v-0.9c0.3,0,0.5-0.1,0.4-0.4c-2,1-1.9-2.3-3-0.9
		C117,102.9,117.5,104,118.6,104.5 M183.1,110c1.5,0.7,0.3-1.5,1.3-1.3c2,5.3,5.9,6.1,8.1,11.1c0.1-4-2.6-5.4-3.8-8.1
		c-4.9-0.1-3.4-6.5-5.1-9.8C181.8,103.8,181.4,108,183.1,110 M176.3,105.7c-0.3-1.7,0-1.5-0.4-2.6c-1.3,0.4-1.6,0.6-2.1,0.9
		C174.5,104.6,174.9,105.7,176.3,105.7 M86.6,108.7c-0.3-1.4,2.3-3.6,0-4.3C86,105.6,85.1,107.9,86.6,108.7 M303.1,108.3
		c1.5,0,3-2.1,1.7-3.4C304.2,106,303.6,107.2,303.1,108.3 M111.4,106.6c0.5,0.1,0.7,0.5,0.9,0.9c-1,0.4-2.1,0.8-3,1.3
		c0.3,0.1,0.8,0,0.9,0.4c1.3-0.6,2.7-1.3,4.3-0.4c0-0.6,0.2-0.9,0.4-1.3c-0.8-0.3-1.8,1.3-2.1,0c0.2-0.6,0.6-1.1,0.9-1.7
		C112.8,106,111.7,106,111.4,106.6 M99.4,106.2c-1.3-0.4-2.8,1.2-1.7,1.7c0.1-0.4,1.2-1.9,1.3-0.9c-0.6,0.2-1,0.7-1.3,1.3
		C98.9,108.2,99.5,107.6,99.4,106.2 M98.1,109.6c1-0.7,2.2-1.2,2.6-2.6C99.6,107.4,97.6,109,98.1,109.6 M107.1,109.6
		c0.3-1.5,2.6-1.1,2.6-3C108.8,107.3,106.4,108.7,107.1,109.6 M203.6,124.9c-0.8-8.3-1.6-16.6-9-18.4
		C196.5,113.9,199.5,119.9,203.6,124.9 M112.2,111.7c-0.4-1.7,1.9-0.7,1.3-2.6C111.4,108.9,111.1,110.7,112.2,111.7 M108,110.9
		c1,1,1.9-0.3,2.6-0.9C110,109.4,108.3,109.9,108,110.9 M154.9,112.1c1.6,0.8,1.7-2.3,1.3-2.1C156.1,111,154.7,110.8,154.9,112.1
		 M205.7,119.8c-1-0.8-0.5,0.1-1.3,0.4c1.3,2.3,1.1,6,1.7,9c-0.1-0.2,0.3-1,0.4-0.9c1.7,2.4,3.6,7.3,6.8,9c2-9.1-5.7-12.1-7.3-17.9
		c-0.5-2,1.3-5.8-1.7-6.8C204.8,115.5,203.8,118,205.7,119.8 M151.1,115.1c0.2-0.5,0.6-0.9,1.3-0.9c0.4,0,0.5,0.3,0.9,0.4
		c0.4-1.4-1.4-0.6-1.7-1.3C151.6,114,149.8,114.7,151.1,115.1 M239,122.8c0.1-3.1-1.4-6.9-1.7-8.1C237.1,118.2,237.5,121,239,122.8
		 M164.7,116c-1-1.2-1.5-1.4-2.1,0.4c0.7,0,1.3-0.1,1.7-0.4C164.3,116.2,164.7,116.5,164.7,116 M150.2,117.7c-0.7,0-1.5-0.1-1.3,0.9
		c0.8-0.2,2.5,0.5,2.6-0.4C150.3,118,149.5,115.2,150.2,117.7 M161.3,118.5c1.6,0,3.5,0.3,3-1.7
		C162.5,116.6,161.6,117.3,161.3,118.5 M150.7,122c1.4-1.2,3.2-1.9,3.8-3.8c-0.8,0.1-0.9-0.5-1.7-0.4
		C152.3,119.3,151.3,120.4,150.7,122 M163.9,119.8c1.4,0.5,2.3-1.7,1.3-2.1C165,118.7,163.7,118.5,163.9,119.8 M141.7,120.3
		c0.2-0.8,1.7-0.3,1.3-1.7C141.7,118,140.6,119.8,141.7,120.3 M210.9,145.9c-1.7-1.9-4.7-3.9-5.5-5.5c0.6,1.1,0.2-5-0.4-3.4
		c-0.6,1.1,1,2.1,0,2.1c-1.3-1.3-2-3.1-4.3-3.4c0.7,3.7,1.5,7.3,4.3,9c-3.6,4.2,3,6.9,6.4,8.1c-2.8,0.2,1.5,0.6-1.3,1.3
		c0.9,0.3,2.8-0.5,3,0.4c-1.4,0-2.6,0.2-3.4,0.9c3.2,0,5.7,4.9,4.3,6.8c-3.8-2.3-7.6-4.6-12-6.4c-1.5,1.7-2.7,3.6-4.3,5.1
		c1.1-8.3-4.1-14.9-1.3-20.9c-2.8-1.4-1.5-7.1-4.3-8.5c0.7,0,1.3-0.1,1.7-0.4c-1.9-2.2-3.3-5-5.6-6.8c-4.3,1.4-5.3-2.9-6.8-5.6
		c1.2,5.5-2.4,14.3,3.4,14.5c2.9,6.1,8.6,12.8,8.1,19.6c-3.4-6.9-8.1-12.4-12.4-18.4c-1.8,8.4,1.7,16.8,0.4,24.3
		c-0.9,5.2-6.8,9.1-6.4,14.5c1.1,0.5,1.3-0.2,1.7,0.4c-1.1,2.1,0.4,3.8,1.3,5.1c1.9-1.2,1.9,0.6,3.4,0.9c1.2-3.8-2.3-7.8,0-10.2
		c0,0.6,0.7,0.4,0.9,0.9c-2.4,5,3.7,10.2,3.4,14.5c-5.6,1.2-10.4-1.4-12-5.6c-0.4,1-1,1.9-0.9,3.4c-1.1,0.2-2,0.6-2.6,1.3
		c3.8,0.6,5.2,3.6,6.8,6.4c-2.2,1.9-6.3,6.3-1.7,6.8c-1.4-0.6-1.1-1-0.9-2.6c3.1-0.1,2.8-3.5,4.7-4.7c-0.4,1.4,0.7,1.3,0.9,2.1
		c3-0.4,3.9-2.9,6.4-3.8c0.6,0.5,1.2,1.1,1.7,1.7c0.4-0.8-1.3-1.4,0-1.7c3,0.7,7.5,2.2,9,3c-0.7-1.9-3.3-1.8-3.8-3.8
		c0.9,0.2,2.8,3.1,3,1.3c-0.6-1.3-2.7-1-2.1-3.4c1.2-0.5,1.9,2.6,2.1,0.4c-0.3-6.9-4.5-12-3.8-18.4c3.4,1.9,1.6,6.3,3,10.2
		c-0.1,2.9,0.8,1,0.4-0.9c0.2-5,0.2-7.8,0-12.8c1-0.3,1.1-1.4,2.1-1.7c0.2,1.2,1.1,1.8,1.3,3c1.8,0.3,0.8-2,2.6-1.7
		c4.5,2.7,10.4,4.1,13.2,8.5c0.2-0.5,0.5-1,0.9-1.3c0.4,1.1-0.9,3.6,0,2.6c1.2-5.2,4.7-8.1,5.6-13.7
		C219.6,153.4,214.7,150.3,210.9,145.9 M318.4,127.1c0.6-3,1.2-5.2,0-7.3C316.6,120.8,317.4,125.3,318.4,127.1 M131.9,122.4
		c0.5,0.5,1.5,0.5,2.6,0.4c-0.5-0.9-0.5-2.4-1.7-2.6C133,121.6,131.6,121.1,131.9,122.4 M290.3,125.8c-0.4-1.4-1.3-1.9,0-3
		c-0.6,0.1-1.6-1.4-1.7-0.4C289.5,123.2,288.6,125.8,290.3,125.8 M118.2,124.9c1.1,1.6,4.9-1.2,3.4-0.9
		C121.2,124.9,118.7,123.3,118.2,124.9 M314.6,127.1c1.4,0.5,1-2.9,0.4-3C314.9,125.1,314.4,125.7,314.6,127.1 M317.2,133.1
		c1.4-2.3,5.8-5.8,3.8-8.5C322.2,126.9,317.2,130.8,317.2,133.1 M117.4,126.7c-0.6,1.6,1.9,0.1,1.3,1.7c1.7-0.5,2.3-1.1,3.4-1.3
		c-0.7-0.1-0.3-0.9,0-1.3C120.8,126.4,119.5,127,117.4,126.7 M306.5,126.7c-1,2.2-3.3,2.7-2.1,5.6c0.1-1.6,0.5-2.9,1.7-3.4
		c0.1,0.3,0.4,0.5,0.9,0.4c-0.4,1-0.7,2.8,0.9,3c0.2-2.1,1.7-5.1,1.3-6.4c-1.5,0.5-0.9,3.1-3,3C305.7,127.8,307.6,127,306.5,126.7
		 M154.9,127.9c1,1.1-0.6,2.2,0.4,3c0-0.7,1.2-0.2,1.3-0.9c-0.6-0.9-1,0.5-1.3-0.4c1.2,0.3-0.3-2,0.9-1.7c0,0.2,0.3,0.5,0.4,0
		C155.8,127.2,156.1,128,154.9,127.9 M298.8,129.2c-2.8,0.8-5.8-0.6-8.1,1.3c1.1,1.6,1.2,4.2,2.6,5.5c0-1.5,1.1-2.2,1.7-0.9
		c0.4-0.7,0-2.3,1.3-2.1c-0.7,0.7-0.1,2.3,0.4,3c0.6-1.3,1.1-2.6,2.6-3C298.7,131.3,298.5,131.4,298.8,129.2 M301.4,133.1
		c0.1-1.2,2.3-2.5,1.3-3.4C302.5,130.8,300,131.8,301.4,133.1 M156.2,137.3c-0.7,1.2,1.1,1.9,1.3,0.9c-1.8-1,1.5-0.4,0.9-1.7
		C157,136.2,157.5,137.6,156.2,137.3 M157.1,140.3c0-0.6-0.2-0.9-0.4-1.3c-1.2,0-0.9,0.7-1.7,0c0.4,1.2,0.6,1.1,0.9,1.7
		c0.4-1.3,1.4,0.2,1.7,0.4c0.7-0.7,3.7-2.9,0.9-3.4c-0.1,0.8,0.6,0.8,0.9,1.3C157.7,138.7,158.7,140.8,157.1,140.3 M299.2,139.9
		c0.9,0.8,2-0.5,2.1-1.7C300.1,138.2,299.6,139,299.2,139.9 M309.1,138.6c-1.9-0.1-1.2,2.5-2.6,3
		C308.1,141.4,308.5,139.9,309.1,138.6 M309.1,143.7c1.9,0.1,1.2-2.5,2.1-3.4c-0.9-0.6-1.3,0.2-2.6-0.4
		C309.3,141.6,310.4,141.9,309.1,143.7 M160.9,141.2h0.9c0.3,0,0.5-0.1,0.4-0.4c-1.2-0.2,0.7-0.7,0.4-1.3h-1.3
		C161.4,140.3,160.9,140.4,160.9,141.2 M313.3,144.6c0-1.3,1.3-3.5-0.9-3.4C313.5,142.5,312.5,143.3,313.3,144.6 M176.3,145
		c0.4,0.3-0.2,1.9,1.3,2.1c0.8-0.9,1.8-3.5,0-2.6C179,145.6,176.3,143.7,176.3,145 M173.3,147.6c0.6,1.5,3.2,0.6,3.4-0.9
		C175.3,146.7,173.7,146.6,173.3,147.6 M172.4,148.9c1.8-0.1-0.2-2.7-0.9-3c0.2,1.2-2.3-0.3-2.1,0.9c1,0.1,1,1.1,0.4,1.7
		c1.3,0.2,1.7-0.6,2.6-0.9C172.6,148.2,172.9,148.3,172.4,148.9 M129.7,150.6c0.6-1.1,1.8-4-0.9-3.8
		C130.3,148.3,128.8,149,129.7,150.6 M146.4,149.3c-0.1-1-0.3-2-1.7-1.7C144.5,148.9,145.1,149.5,146.4,149.3 M143.4,147.2
		c-1.3,1.2,0.7,4,1.3,1.7C142.9,149.2,145.3,147.2,143.4,147.2 M160.5,151.4c1.1-2,1.7-1.3,3-0.9c-0.2-1.5,0.2-2.4,0.4-3.4
		C162.1,147.6,159.9,149.9,160.5,151.4 M151.5,151c0.8-1.2,0.7-1.3,0.4-3h-1.7C149.9,149.8,150.8,150.3,151.5,151 M119.9,154.8
		c-0.5,0.1-1.2-0.1-1.3,0.4c0.3,0.1,0.8,0,0.9,0.4c-1.1,0.2-1.2,1.3-1.7,2.1c0.8-0.1,0.9,0.5,1.7,0.4c0.1-1.2-0.4-2.9,0.9-3
		c2.4,1.4,4-1,6,1.3c-0.3-3-3.9-0.4-5.1-2.1c0.1-0.5-0.1-1.2,0.4-1.3c1.1,0.9,3.7,1.6,3,0c-1.2,1.3-2.9-0.7-1.7-2.1
		C121,151.3,118.1,153.5,119.9,154.8 M122.9,150.1c-0.6-0.6-1.3-1.3-2.1-1.7c0.8,1.1-0.4,2,0.4,2.6
		C121.3,150.3,122.5,151.4,122.9,150.1 M154.5,149.7c-0.8,0.9,0.2,2.6,1.3,3C156,151,155.2,150.5,154.5,149.7 M154.9,153.1
		c0.2,0.6-0.5,2.2,0.4,2.1c0-1,2.3-1.9,0.9-3C156,152.8,155.7,153.1,154.9,153.1 M149,153.1c2-0.7,4.6-0.9,3.8-2.6
		c-1,2.9-2.9-0.9-3.4,0.9C151.2,151.3,149.2,152.7,149,153.1 M83.6,153.1c0-0.6-1.1-0.4-0.9,0.4c2.8-0.9,0.9,0.4,3,0.9
		c0.2-2.6,1.1-1.1,2.1-0.4c-0.2-1.9,1.3-1.4,0.4-3C86.4,151.3,84.5,151.7,83.6,153.1 M103.3,152.3c-0.4,0-0.5-0.3-0.9-0.4
		c0.3,2,3.1,0.3,3-0.9C103.7,150.4,104.4,152.2,103.3,152.3 M129.7,158.7c-0.4,1.4,1.1,0.9,1.3,1.7c-1.7-0.1-0.2,0.9-0.4,1.7
		c-1-0.2-0.9,0.8-2.1,0.4v1.7c3-1.2,2.6-3.2,4.7-5.1C131.6,159.4,130.7,157.8,129.7,158.7 M144.3,153.1c0,0.7-0.1,1.3-0.4,1.7
		c1.1-0.1,2.3,1,0.9,2.1c-0.8-1.2-3.4-0.6-3.4-2.6c0.5-0.2,1-0.5,1.3-0.9c-3.3-0.9-6.1-2.4-9-1.3c0.5,0.1,1,0.7,0.4,0.9
		c-1.6-0.9-1,0.9-2.6-0.4c-1.1,0-0.8,1.4-0.9,2.6c2.4-0.4,0.2,1.4,0.4,2.6c1.4,0.6,1.5,0.1,3,0c0.5,2.5-2.2,1.7-2.1,3.8
		c1.8-0.1,0.3,1,0,1.3c0.3,0.1,0.5,0.4,0.4,0.9c1-0.3,3.3,0.8,3-0.9c-1.2-0.6-2.2,1.2-2.6,0c0.9-0.8,0.4-1.3,0.9-1.7
		c0.9,1.6,1.3,0.5,3,1.7c-1,0.3-3.6,3-1.3,3.8c0.2-0.8-0.5-2.5,0.4-2.6c0,0.5,0.1,1,0.9,0.9c2.3-3,0.3-3.9,3.8-6
		c-0.2,0.6-0.5,0.7,0,1.3c2.6,0.4,1.4-2,1.3-3.4h-2.1c-1.1,0.5,0.9,1.6-0.4,2.1c-1.4,0.1-1-1.5-1.7-2.1c2.5-0.4,0.3-1.1,0-2.1
		c0.8,0.4,2.2,1.6,2.6,0c-1.8,0-2.6-1.1-3-2.6c4.4,2.1,5.9,5.3,6.8,10.2c0.5-1.5,0.9-1.3,1.3-4.3c-0.7-0.2-1.1,0.6-1.3,0
		c0.6,0,0.4-0.7,0.9-0.9c1.3-0.3,0.8,1.2,2.1,0.9C146.4,155.4,145.6,154.1,144.3,153.1 M109.7,152.7c-0.1,1.1,0.7,1.3,1.3,1.7
		c0-1.5,1.1-2.2,1.7-0.9v-1.7C111.1,151.6,110.6,152.3,109.7,152.7 M149.8,153.6c0,0.6-0.2,0.9-0.4,1.3c0.8,0,0.9,0.3,0.4,0.9
		c1.3-0.6,3.5-2.4,3-3.4C151.7,152.9,151.3,154.4,149.8,153.6 M176.7,155.3c1.2,0.1,0.8-1.4,2.6-0.9c-0.2-0.6,0.5-2.2-0.4-2.1
		C178.9,154.8,176.6,152.5,176.7,155.3 M90.9,155.3v-0.9c0-0.3-0.1-0.5-0.4-0.4c-0.2,0.7-2.7,1.3-1.7,1.7c1.7-1-0.3,0.5,0.9,0.9
		C90.8,155.8,89.5,154.4,90.9,155.3 M309.1,157.4c0.2-0.8,0.9-1.1,0.9-2.1c-0.7,0.1-2.1-1.2-2.6,0
		C308.9,155.4,308.7,157,309.1,157.4 M312.9,157.8c0.7-1.8-1.9-2.3-2.6-1.3C311.9,156.3,311.6,157.8,312.9,157.8 M154.9,157.4
		c-0.5,0-1.1,0.2-0.4,0.4c0.8-0.8,1.1,0,2.1,0c0.1-1.8-2-1.1-2.1-0.9C154.8,157,155,157,154.9,157.4 M169.4,158.7
		c1.8-1.4,2.6,0.6,3.4-0.9c-1.4,0.1-3.3-2-4.7-0.4C169.1,158.2,170.2,156.6,169.4,158.7 M119.9,157.8c-0.4,1.5,1.8,0.4,2.1,1.3
		c-0.2-1.8,1.3,0.6,0.9-1.7C121.9,157.5,121.3,158.1,119.9,157.8 M125,158.3c-0.5-0.1-1-0.8-1.3,0c1.3,0.7,2.9,1.2,3-0.9
		C125.6,157.1,125.9,158.2,125,158.3 M169.4,160c-1.1-1-3.5-1.9-4.3,0C166.8,159.1,168.6,160.5,169.4,160 M161.3,160.4
		c1.6,0.3,2.9,0.4,3.4-1.3C163.5,160.3,162.2,158.8,161.3,160.4 M157.9,159.5c-0.1,0.8,0.6,0.8,0.9,1.3h-1.7c1.2-0.7-0.8-2-1.3-0.9
		c1.2,0.6-1.2,1.3-1.3,2.1c0.7-0.3,4-1.8,3,0c1.9-0.3,3.4,0.7,4.7-1.3c-1.5-0.7-2.2,1.4-2.6,0.4C160.4,161,158.9,159.5,157.9,159.5
		 M166.9,168.5c1.2,1,3.7-2.1,4.7-1.3c-0.4,0.5-1.6,0.1-1.3,1.3c1.3,0.3,0.8-1.2,2.1-0.9c1.2,0.9-1.5,1.6,0.4,2.1
		c0-0.6,2.7-0.6,1.3-1.3c-2.3,0.6,0.6-2.2,0.9-3c-1.3,0-1.7,0.9-2.6,1.3c0.2-0.6,0.5-0.7,0-1.3c1.8-0.2,2.7-1.3,3.4-2.6
		c-1.8-0.1-2.1,1.3-3.8,1.3c0.1,2.5-2.6,1.7-3.4,2.6C169.7,167.4,166.7,167.4,166.9,168.5 M171.6,165.1c0.2-1.7-3-0.8-2.6,0.4
		C170.3,165.8,170.6,165.1,171.6,165.1 M169.4,168.5c-1.4,2-1.3,3.7,0.4,5.1c-0.3-1.7,1.4-1.5,2.6-1.7
		C171.6,170.6,171.2,168.9,169.4,168.5 M161.8,168.5c0.1-0.3,0.4-0.5,0.9-0.4c-0.1,0.9-1.2,0.8-1.3,1.7c1.3-0.4,1.3-0.4,2.6,0
		c0.3-1,1.4-1.1,1.7-2.1c-1,0.1-1.8,0.4-2.1,1.3c0.2,0,0.5,0.3,0,0.4c-0.6-0.1-0.4-1-0.4-1.7C162.2,167.3,160.7,168.3,161.8,168.5
		 M134.9,169.8c1.1,0.1,1.1-0.9,1.3-1.7h-1.3V169.8z M121.6,175.8c1.2-0.1,2.9,0.4,3-0.9C123.4,175,121.7,174.5,121.6,175.8
		 M124.6,175.8c-0.8,1.2,1.1,2.7,3,2.6c-0.1-1.5,0-2.2-0.4-2.6C126.7,177.1,125.7,175.3,124.6,175.8 M129.3,176.6
		c-0.5,0-0.6-0.5-1.3-0.4c0,1.6,2.2,0.5,0.4,1.7c0.8,0.8,1.6,0.1,2.6,0c0.2-1.3-0.5-1.7-1.3-2.1
		C129.6,176.1,129.7,176.6,129.3,176.6 M248,183c-1.8,1.2-4.1,1.8-5.1,3.8c3.1,1,7,1.7,9-0.4c0.9,0.4,1.8,1.6,2.6,0.9
		c0.9-1.6,0.5-0.8-0.4-2.1c1.2-0.5,2.3-0.9,3.4-0.4c0.5-1.3,1.6-4.4,0.4-6C257.2,182.5,252.2,185.6,248,183 M233.5,183.4
		c0.9,0,2.8,1.2,3,0.4c-0.5-0.1-0.3-0.5,0-0.9c-0.8-0.1-0.9,0.5-1.7,0.4C234.8,182.9,233.6,182.9,233.5,183.4 M125.9,186.4
		c2,0.1,2.2-3.5,0.4-3.8C125.3,184.2,125,184.5,125.9,186.4 M160.9,185.6c0.9-1-0.1,1-0.4,1.3c1,0.1,1.6,0.7,3,0.4
		c-0.3-1.7,1.4-1.5,0.9-3.4C163.5,183,160,184.7,160.9,185.6 M232.2,186c1.8-0.6,2.8,1.9,3.4,0c-1.6-0.1-1.9-0.8-2.6-0.9
		c0.2,0,0.5-0.3,0-0.4C233,185.3,232.4,185.4,232.2,186 M219,185.6c1.3,0.2,1.7-0.5,2.1-1.3C219.9,184.2,218.8,184.2,219,185.6
		 M219.8,186.9c1.4,3.2,6.1,3,9.8,3.8c0.8-4.3-1.4-5.7-4.3-6.4c0.1,1.4,2.2,1,2.6,2.1C225.4,186.2,221,186.2,219.8,186.9 M213.8,189
		c-0.3-0.8,1.3-1.8,0-2.1c-0.2,0.5-0.6,0.9-1.3,0.9c-0.2,1.5,0.4,2.2,1.3,2.6c-0.3-1.6,3.3-1.4,0.9-2.6
		C214.7,188.4,214.4,188.8,213.8,189 M255.7,190.3c-1.3-0.9-2.5-1.9-4.3-1.3C252.9,189.1,254.9,190.9,255.7,190.3 M215.1,191.6
		c0.1,1,0.4,1.8,1.3,2.1c0.4-0.8,1-1.3,1.7-1.7c-0.2-1.1-0.6-2-1.3-2.6C216.6,190.5,216.5,191.6,215.1,191.6 M204.5,190.7v1.3
		c1.3,0,1.8-0.8,2.1-1.7C205.4,189.9,205.5,190.9,204.5,190.7 M161.3,197.5c-0.2-1.8,1.7-3.7,0.4-5.1
		C161.9,193.8,160.5,195.9,161.3,197.5 M187.4,200.9c-0.8,0.8,0.2,1.2,0.4,2.1c2.9-0.7,5.5-1.6,9-1.7c-0.8-2.2-3.4-2.4-2.1-5.6
		c-0.4-2.7-8-5.8-9-1.3c0.6,0.1,1.6-0.2,1.7,0.4c-1.3-0.2-1.7,0.5-2.1,1.3c1.3,0.1,2.5,0.3,2.6,1.7c-0.1,1-1.9,0.4-2.1,1.3
		c0.1,1.2,3.6,1.2,2.6,2.1C188.1,201,187.9,200.9,187.4,200.9 M205.3,193.3h-1.7C202.9,195.2,205.8,194.7,205.3,193.3 M136.6,197.5
		c-0.5-0.9-0.1-2.8-1.3-3C134.4,195.6,135,197.7,136.6,197.5 M214.3,197.5c-1.5,2.6-0.3,8-3,9.4c0.6-2.3,0-3-1.3-3
		c0.1-0.7,1.4-2.2,0.4-2.6c-1,0.4-1.9,0.9-2.6,1.7c0-0.7,0.1-1.5-0.9-1.3c-2,2-2.9,5.6,0.9,6c-1.8-0.4-2.3,0.5-3,1.3
		c1.7,0.2,2.4-1.1,2.1,1.3c1.7-0.6,4.2-2.8,5.1-0.4c0.2-0.5,0.5-1,0.9-1.3c0.5,1,1.7-0.6,2.1,0.9c-0.7,0.5-1.7,0.9-1.7,2.1
		c0.8,0.2,1.8,0.2,1.7,1.3c1-0.1,1.8-0.4,2.1-1.3c-0.6-1-1.3,0.8-1.7-0.4c-0.4-2,1.7-1.4,1.3-3.4c-2.7,1.3,0.3-1.6-1.3-2.6
		c0,0.7-0.3,1.1-0.9,1.3c-0.7-3.6-1-7.1,0.4-9C215,198,214.7,197.8,214.3,197.5 M244.2,201.8c1.2,0.3,2,0.8,2.6,1.7H245
		c2.3,2.3,6.4,5,10.2,4.3c-4.4-2.7-7.4-6.8-11.5-9.8C242.2,199.5,246.5,200.7,244.2,201.8 M254,203.1c1.5,0.1,0,1.2,0.9,1.3
		c0.1-0.7,0.9-0.3,1.3,0C256.9,197.6,256.2,205.3,254,203.1 M191.2,203.5c2.3,4.2,3.5,5.7,9,8.5c-1.3,2.2,1,3.4,0.4,4.7
		c0.6,0.2,2.2-0.5,2.1,0.4c-0.5,0.1-1.2-0.1-1.3,0.4c1.1,0.2,1.5,0.6,2.1-0.4C202.1,210.2,200.5,197.3,191.2,203.5 M227.5,206.9
		c2.4-0.2,3.8,0.5,5.6,0.9c-0.5-1.6,1.1-1.2,0.9-2.6c-2.5,0.2-4.1-0.5-6-0.9C228.2,205.7,227.2,205.6,227.5,206.9 M137.9,207.3
		c1.6,0.3,1.9-0.7,1.7-2.1c-0.7,0.2-1.1-0.6-1.3,0C139.6,205.7,138,206.8,137.9,207.3 M119.9,214.6c3.4,0.2,1.9-2.4,2.6-3.4
		C121.1,211.8,119.8,212.5,119.9,214.6 M122.9,208.2c-1.2-0.1-0.5-2.1-1.3-2.6c-0.1,1.7-1.8,1.9-1.7,3.8c1,0.2,0.6,1.7,1.3,2.1
		C121.8,210.6,122.5,209.5,122.9,208.2 M210,213.3c0.1-1,1.9-4.4,0-3.4C211.4,210.8,207.8,212.9,210,213.3 M145.1,218.9
		c-0.2-2.6,2.1-5,1.3-6.8C145.2,213.9,143.1,216.2,145.1,218.9 M146.4,209.9c0,1.4-1.7,1.1-2.1,2.1c0.8-0.1,0.9,0.5,1.7,0.4
		c-0.4-1.4,2.4-1.9,1.3-2.6C147.2,210.4,146.8,210.2,146.4,209.9 M181,217.2c-1.3-0.9-2.6-2-2.1-4.7h-1.7c0.2,2,0.7,4.4,0.9,5.1
		c0.4-0.6,0.6-1.4,1.7-1.3C179.3,217.2,181.1,217.9,181,217.2 M181.8,217.6c1.5-0.7,1,6.3,0.4,7.7c2.7,0.2-0.9-8,2.6-5.1
		c-0.7-2-1.2-4.2-2.6-5.5C183,216.2,181,217.3,181.8,217.6 M206.2,217.2c0.3,1.2,0.8,2,1.7,2.6c-1-1.2,1.7-2.5-0.4-3.4
		C207.3,216.9,206.5,216.8,206.2,217.2 M209.6,217.6c-0.1,0.8,0.4,2.1-0.9,1.7c2.1,1.7,0,2.9,0.9,4.7c0.8-0.1,1.4-0.3,1.7-0.9
		c-1.4-0.8-0.8-3.7,0-4.7c1.1,0.5-0.4,2.1,0.4,2.1c0.6-1.6,0.1,1.3,0.9,0.9c-0.1-0.8,0.5-0.9,0.4-1.7c-0.5-0.8-1.1-1.4-1.7-2.1
		C209.6,219.4,210.9,218.1,209.6,217.6 M219,221c-0.4,2.9,3.2,3.8,5.1,4.3c0.4-1.1,0.6-2.3,0.4-3.8C222.6,221.5,220.1,220.4,219,221
		 M202.3,224.9c1.1,0.1,2.1,0.1,2.6-0.4C205.5,220.7,200.2,221.7,202.3,224.9 M255.7,226.1c0.5,2.2-0.4,4.9,1.7,5.1
		c0.1,0.3,0,0.8,0.4,0.9c0-2.6-0.6-4.5-1.3-6.4C256.4,226,256.2,226.2,255.7,226.1 M195.9,265.8c0,0.5,0.5,0.3,0.4-0.4
		c-0.7-11.7-1.5-23.6-4.7-35C193.1,243,195.4,252.9,195.9,265.8 M256.5,233.4v3.4c1.6-0.5,0.6-1.9,1.7,0c-0.2-1.2,0.5-5.3-0.9-3.8
		C258.2,233.4,257,234.9,256.5,233.4 M257,240.7c1.7-0.2,0.2,2.9,1.7,3c-0.3-1.6,0.6-4.3-0.4-5.1C258,240.1,258.3,239.9,257,240.7
		 M254.4,266.3c0.1-0.3,0.4-0.5,0.9-0.4c0.1,1,0.4,2.4,2.1,2.1c-1-2.3-2.7-6.1-4.3-6.4C253.9,262.5,253.5,264.3,254.4,266.3
		 M258.7,274.8c0.1-1.5-0.1-2.7-0.9-3.4C257.8,272.9,257.9,274.1,258.7,274.8 M226.2,283.3c-3.3-5,0.8,3.5,2.6,4.7
		c-0.4-1.7-0.7-3.6-1.3-5.1C227.4,283.4,226.8,283.4,226.2,283.3 M259.5,291c-0.6-0.2-0.7-0.5-1.3,0c-0.2-1.1-1.3-3.5-2.1-2.6
		c1.6,1,0.7,2.3,2.6,3.4c-0.1-1.9,1.3,0.1,1.7,0.4c1-4.1-2.4-8.9-3.8-9.8C258.1,284.5,259,289.4,259.5,291 M256.5,289.7
		c-1.5-1.2-3-2.4-4.7-3.4C252.3,288.1,254.9,289.7,256.5,289.7 M230.5,297.4c-0.1,0.4-2.6,0.4-1.3,0.9c2.1-0.8,1.8,2.3,1.3,5.1v-1.3
		c-3.4-0.2,1.9-0.6-2.1-1.3c0.6-0.2,2.2,0.5,2.1-0.4c-0.2,0-0.4-2.8-1.7-1.3c0.8-0.1,1,0.4,0.9,1.3c-2.8,0.7-1.1-1.9-2.6-1.7
		c0.3,2.6,0.9,4.5,3,4.3c-1.7,0.2,0.9,4.8-1.3,1.7c0,2.3,0.6,4.8,1.7,4.7c0,0.6-0.7,0.4-0.9,0.9c1.8,0.1,0.1,0.3,0,0.9
		c1.8,0.1,0.1,0.3,0,0.9c0.5,0.1,1.2-0.1,1.3,0.4c-2.8,0.2,1.5,0.6-1.3,1.3c2.5-0.2-0.7,1.1,1.3,2.1c0.7-2.7,2,0.7,3-0.4
		c-3.7-3.2-0.9-15.7-3-21.8c-1.5,0.5-2.3-1.9-2.6-1.3c-0.1,0.8,0.5,0.9,0.4,1.7c-2.3,0.6-3.3-4.2-3.8-2.6
		C226,294.2,228.2,297.2,230.5,297.4 M261.2,302.1c-0.1-0.5-0.8-1,0-1.3c0.8,1.8,0.1,2.8,1.3,3.8c0.2-2.8-1.6-3.7-0.9-6
		c-1.3,0-2-1.3-2.1,0c-2.2-2-4.3-4-6.8-4.7C255.7,296.3,259.8,299.7,261.2,302.1 M204.9,302.6c-0.1-1.2,0.4-2.9-0.9-3
		C204,300.9,204.2,301.9,204.9,302.6 M263.4,314.1c-1.3-0.1-1.7-1.1-2.1-2.1c-0.6,0.1-1.6-0.2-1.7,0.4
		C260.5,313,261.8,315.5,263.4,314.1 M232.6,330.3c2.7-1.9,0.9-8.7,0-11.1h-1.3C230.4,321.8,229.2,329.5,232.6,330.3 M235.6,323.1
		c1.8,0.3,0.1-3,1.3-3.4C235.1,319.4,236.8,322.6,235.6,323.1 M207,327.7c1.9,0.3,5.7-0.3,7.3-1.7c-2.6-0.8-4.8,1.5-5.6,0
		C208.6,327,207.4,327,207,327.7 M261.7,329.5c0-0.6-0.7-0.7,0-1.3c-0.6,0-0.9-0.2-1.3-0.4C260.3,331.7,261.4,333.6,261.7,329.5
		 M230.1,332.9c-2.1,0.8,0.1,0.3,0.4,0.9c-0.2,0.2-2.1,0.6-0.9,0.9c0.6-0.2,1.1-0.6,1.7-0.9c-0.1,0.6-0.7,0.7-0.9,1.3
		c1.1,0.6,1.3-1.7,1.7-0.4c-0.4,0.7-3,1.2-2.1,1.7c1.7-1,1,0.3,0,0.9c1.2-0.3,2.5-0.7,3-1.7c-0.7-0.2-1.1,0.6-1.3,0
		c0.7-0.5,1.7-1.4,2.6-0.4c-1-1.6,0.5-1.7,0.9-3c-1.2,0.2-3.8-0.2-4.7,0c2.2-0.4-1.8-4-0.9-3C229.2,330.1,228.7,332.4,230.1,332.9
		 M212.1,339.7c2.7,0.5-4.3,3.7-6,2.6c0.1-1.8,2.6-3.1,0.9-4.3c-0.2,3.2-2.1,4.7-3.8,6.4c5.7-1.1,12.5-2.6,13.2-9
		C216,337.8,214.7,339.5,212.1,339.7 M228.4,342.7c1,0.1,1.6-0.1,2.1-0.4c-0.7-3.1-1.4-4.5-1.3-6c-2.1-0.1,0.2,2.2-0.9,2.6
		C230,339.6,230.6,342.5,228.4,342.7 M228.8,348.7c-1.8-4.1,4.9-4,6.8-2.1c0.7-3,0.5-3-1.3-5.1c-0.3,1.2,0.5,3.4-0.4,3.8
		c-0.3-1.4-2.4-1-3.4-1.7c0.7,2.3-1.8,0.5-1.7,1.3C229.2,345,226.8,347.9,228.8,348.7 M235.2,347.8c1.8,0.2-0.4,1.7,1.3,2.6
		c0.1-0.5,0.5-0.7,0.9-0.9c-1.2,2.1,1.7-0.6,1.7,0.4c-1.8,0.9,0.5,1,0.4,2.6c-0.8,0.9-3.1,2.5-2.6,3.4c1.3-1.4,2-3.4,4.3-3.8
		c0.5,0.6,0.5,1.7,1.3,2.1c-0.4-2.1,3.2-0.2,3.4-2.6c-1.9-0.3-2.4-1.1-2.6-2.1c-0.7,1.7-3.4,0.2-3-0.9c-0.2,0.5-0.5,1-0.9,1.3
		c0.7-3.3-0.4-0.8-1.7-2.1c1.3-0.3-0.4-0.9,0-1.7C236.2,345.9,235.3,346.4,235.2,347.8 M238.2,359.3c0.2,0,0.5-0.3,0-0.4
		c-0.1,1.6-1.6,3-0.9,4.3c0.1-0.6,0.9-0.5,1.3-0.9c0.2,0.6-1.7,1-0.4,1.3c1.4-1.2,3.8-4.6,5.1-2.1c-0.2-4.3,4.7-4.9,4.7-7.7
		c0.5,1.7,2.7,0.6,3,0c1.2,0.9,3.7,0.9,5.5,0.4c-0.2-1-0.9-1.4-1.3-2.1c-3.6,3.2-6-1.2-9.4,0.4c1.4,0.1-2.2,0.7-1.3,1.3
		c1.5-1.3,1.3,1.5,2.1,0.4c-0.4,0-0.3-0.5,0.4-0.4c-1,1.8-4,2.5-3.8,4.7c-0.7-0.8,0.4-1.4-0.9-2.1c0.1,3.8-3.1,4.3-5.1,6
		c1.1-1.6,2.5-1.7,3.4-2.6c2.9-2.7-1.3,0.4-3,0.9c1.1-0.5,4-2.2,2.1-3C239.8,358.3,239.5,360.4,238.2,359.3 M267.6,354.2
		c-1.4-1.9-4.1-4.8-5.5-5.1C263.9,350.8,264.8,353.5,267.6,354.2 M198.5,352.5c0.7-0.4,1.5-0.3,2.6,0c-0.1-1.1-0.6-1.7-1.7-1.7
		C199.5,351.7,197,351.8,198.5,352.5 M195.5,353.4c-0.6,1.5-1.7,2.6-2.6,3.8c0.7,0,1.3,0.1,1.7,0.4c0.4-1.5,1.3-0.3,2.6-1.3
		c-0.1,0.5-0.7,0.9,0.4,0.9C197.2,355.5,197.7,354,195.5,353.4 M202.3,354.6c-2.4,0.1-2.6,2.6-4.3,3.4c2.2-0.3,3.2-1.1,4.3-0.9
		c-0.1-1.1,0.7-1.3,0.9-2.1c-0.7-0.2-1.1,0.6-1.3,0C202.2,355,202.4,355,202.3,354.6 M268.1,360.6c-0.9,0.2-3.2-1.2-3.8-0.9
		C265,360.2,268,362.3,268.1,360.6 M258.3,361.9c1.6-0.8,3-1,3.8,0.4c0-1.1-0.8-1.3,0-2.1C260.7,360.4,257.8,361.3,258.3,361.9
		 M189.5,363.2c0.4-0.8,1.7-0.5,1.3-2.1C189.7,360.9,188.9,363.1,189.5,363.2 M254.8,364c0.2-1.8,1.3-0.2,1.3-1.7
		c-2.8,0.8-6.3,0.8-8.5,2.1c0.8,0.3,1.1,1.1,1.3,2.1c-2.4,1.2-6.7,2.6-6,5.5c2.7-0.9,5.2-3.1,7.7-1.7c1.3-2,0.7-3.4,0.9-5.6
		c-0.5,0.7-0.9,1.7-2.1,1.7c0.1-1.1-0.7-1.3-0.9-2.1c0.8-0.6,2.4-0.4,3.4-0.9c-0.8,0.8,0.1,1.3,0.9,1.7c-0.6-2,0.1-0.3,0.9-1.7
		c0.1,2.6,0.5-2,1.3,0C254.6,363.6,254.4,364,254.8,364 M242.9,367c0.3-1.9,3.2-1.4,4.3-2.6C244.9,364.2,242,365.5,242.9,367
		 M245.4,378.6c0.7,2.4,1.9,4.4,3.4,6c0.4-3.1,5.4-5.9,5.6-6.4c-1-0.2-0.9,0.8-2.1,0.4c0.1-0.6,1.8-2.7,0.9-1.7
		c-0.9,0-0.5,1.2-1.7,0.9c0.9-1.4,1.8-2.6,0-2.6c0.5-1.8,1.9-2.6,3-3.8C249.3,372.5,249.9,376.8,245.4,378.6 M175.4,373.4
		c-3.7-0.2-6.5,0-0.9,0.4c5.5,0.4,18.7,0.2,22.2-0.9C191,373.4,180.6,373.7,175.4,373.4 M170.3,373.9c-0.4,1.1-0.6,2.3-0.4,3.8
		c12.1,1.5,22.2,1.1,30.7-3c3.8,0.2,10.9-0.3,15.4,0.4c-2.2,2.6,4.5,0,4.3,0c1.4,0.1,3.7,2.8,6,1.7c1.3-0.7,1.9-2.1,2.1-3.8
		C211.6,374.3,188.6,375.4,170.3,373.9 M257,386.7c1.4,0,2.1-0.7,3.8-0.4c0-1.5-3.6-1.5-3.8-1.3C258.2,385.2,256.6,385.9,257,386.7
		 M53.7,167.2c-0.2-1.3,0.6-1.7,0.9-2.6c-0.7-0.6-1.4-1.1-3-0.9C51.3,166,52.6,166.5,53.7,167.2"/>
	<path class="st1" d="M246.7,67.7c0.5,0.1,0.2,0.4,0,0.4c-0.1,0.9,0.3,1.4,1.3,1.3c-1.3,1.6-3.8-0.2-6.8,0.9
		C242.4,68.3,245.5,70.1,246.7,67.7"/>
	<path class="st1" d="M217.7,46c-1.4-2.9-5.4,1.2-7.3-1.7c3.1,1.2,8-1.3,2.6-2.6c-0.7,0.7-1.9,0.9-2.6,1.7c-1.1-0.6-3.4-1.7-2.6-3
		c-1.7,0.3-4.4-3-0.9-3.8c0.8,0.3-0.3,0.5-0.9,0.4c0.5,0.9,1.2,1.7,1.7,2.6c1-0.1,1.8-0.4,2.1-1.3c0.9,0.1,1.1,0.9,1.7,1.3
		c0.8-1.3-2.7-2.2-3.8-3c0.3-1.1,1.2-1.6,1.7-2.6c1,0.2,1.8,1.7,0.9,2.6c0.3-0.2,0.7-0.4,1.3-0.4c-0.2,0.6-0.8,0.7-0.9,1.3
		c0.5,0.2,2.1,0.4,3.4,0.9c0.1,1-0.1,1.6-0.4,2.1c1.2-0.4,1.8-0.4,3,0c-0.1,1.1-0.9,1.4,0.9,1.3c-0.1,0.5-0.8,0.3-0.9,0.9
		c1,0.3,2.8,0.1,3.4,1.7C220.3,45.7,217.7,44.5,217.7,46 M208.3,40.8c1.7-0.1-0.1,0.7,0.9,1.3c1.9,0.3,4.6-0.8,3.4-2.1
		C211.6,40,209.3,38.4,208.3,40.8"/>
	<path class="st1" d="M205.3,26.8c1.5,1.2-1.4,1.7-1.7,2.6C202.6,28.5,205.4,28,205.3,26.8"/>
	<path class="st1" d="M225.4,27.2c-0.3,0.6-0.9,0.8-1.7,0.9c0.1-1.1-0.5-0.7-0.4,0C221.7,27.1,224.8,26.1,225.4,27.2"/>
	<path class="st1" d="M210,27.2c0.2,1.5-1.3,1.3-1.7,2.1C207.6,29,208.6,26.9,210,27.2"/>
	<path class="st1" d="M293.3,29.3c-1.3,0.1-1.7,1.2-2.6,1.7c0.3,1,2.6-0.1,3,0.9c0.1-0.5-0.1-0.8-0.4-0.9c0.1-1.1,0.7,0.6,1.7,0
		c-0.1,1.3-0.8,2.1-2.1,2.1c-0.6-2.2-3.7,1.7-5.1,0c-0.4,1.4,1.4,0.6,1.7,1.3c-0.1,1.2-0.7,1.8-2.1,1.7c0.7-2,0.2-2.5-1.7-1.7
		c0-2.6,1.9-1.9,3.4-1.3c0.8-0.2,0.3-1.7,1.7-1.3c-0.1-0.9-1.1-0.9-2.1-0.9c0.8-1.2,2.4-1.6,3-3c1.3,0.1,1.7,1.1,2.6,1.7
		C294,30.3,293.4,29.8,293.3,29.3"/>
	<path class="st1" d="M296.7,32.3c0.7-0.3,0.6-1.4,1.7-1.3c-0.4,0.7-0.5,2.5,0.4,1.3c1.2,0.2-0.7,0.7-0.4,1.3
		C297.6,33.4,298,31.9,296.7,32.3"/>
	<path class="st1" d="M237.3,36.1c1.8-0.5-3.6,1.9-3-0.9C236.7,34.2,235.4,36.3,237.3,36.1"/>
	<path class="st1" d="M222,35.7c0.9,0.3-0.4,1.9-1.7,1.3c0.1-0.5-0.1-0.8-0.4-0.9C220.2,34,221.3,37.1,222,35.7"/>
	<path class="st1" d="M251.4,35.3c0.5,0.1,0.2,0.4,0,0.4c0.1,0.5,0.8,0.4,0.9,0c0.9,0.5-1.6,1.6,0.9,0.9c-0.2,1.7-3.3,1.4-3-0.9
		C250.7,35.8,251.3,35.8,251.4,35.3"/>
	<path class="st1" d="M260.8,36.1c-0.6,0.7-3.7-0.8-3.8,1.3C256.2,36.2,259.7,34.5,260.8,36.1"/>
	<path class="st1" d="M233.9,35.7c-2.4,1.4,1.8,1.9-0.9,2.6c0.4,1,2-0.6,3.4,0c-0.7,1.8-3.4,1.3-4.7,0.4
		C232,37.2,231.9,36.2,233.9,35.7"/>
	<path class="st1" d="M221.5,38.3c0.7-0.3,2.2-0.9,3.8-0.4c-0.6,1.1-0.7,2.7-3,2.1C221.8,39.7,222.3,38.3,221.5,38.3"/>
	<path class="st1" d="M236.9,39.6c-0.8-1.1,1.3,0.9,2.1,0.9c-0.4,0.6-0.6,1.4-1.7,1.3c0-0.4,0.5-0.3,0.9-0.4
		C238.1,40.4,237.3,40.1,236.9,39.6"/>
	<path class="st1" d="M231.8,44.3c-2.4,0.6-4.4,1.5-5.6-0.4c-0.1-0.1,0.6-0.7,0.4-0.9c-0.8-0.6-3.3-0.6-3-2.6
		c1.4,0.1,1.8-0.8,3.4-0.4c0.7,0.8,0,0.5,0,1.7c3.2-1.3,2.6,2.2,5.1,2.6c1-0.1,0.3-1.9-0.4-1.7c0.6-0.5,1-1.2,2.1-1.3
		c-0.2,0.3-0.4,0.7-0.4,1.3c1.8,0.1,1.7-0.5,1.3-1.7c1.1-0.1,1.3,0.7,2.1,0.9c-0.3,0.9-2.2,0.1-1.7,1.7c0.3,1.3,0.9-0.4,1.7,0
		c0.2,0.9-0.8,0.6-0.9,1.3c1,1.6,1.3-0.2,3,0c0,1.7-1.1,2.3-3,2.1c1-1.5-1,0.4-0.4-2.1h-1.7c-0.1,1,0.1,1.6,0.9,1.7
		c-1.2,0.8-2.8,1.3-4.7,0.9c0.1-0.6,1.1-0.4,1.7-0.4c-0.3-0.4-0.8-0.6-1.3-0.9c0.5-1.8,1.2,0.2,2.1,0.4
		C233.7,45.4,232,45.2,231.8,44.3 M227.1,43c0.8,0.4,0.7,1.6,1.7,1.7c0.2-0.8,1.2-0.8,0.9-2.1C228.6,42.2,227.7,41.9,227.1,43"/>
	<path class="st1" d="M246.7,40.8c0.8,0.8,0.1,1.6,0,2.6c-0.2-0.8-2.9-1.4-3-0.9C242.8,41.7,245.7,41.1,246.7,40.8"/>
	<path class="st1" d="M286,43c1-1.2,0.8,0.5,0.4,1.3c-1.1,0.1-1.8-0.2-1.7-1.3c0.7-0.1,0.7,0.4,1.3,0.4C286.5,43.3,286.2,43,286,43"
		/>
	<path class="st1" d="M277.5,46c1.5-0.1,1-1.2,2.6-0.4c-1,1.4-0.9,1.6,0.9,2.1c-0.6,1.6-1.1,0.9-3,0.9
		C279.6,47.6,277.4,47.5,277.5,46"/>
	<path class="st1" d="M220.3,48.5c0.1,1-0.1,1.6-0.4,2.1c1.2-1.2,2.3,0.2,3.4,0.4c-2.6,1.7,4.3,1.4,2.6,4.3c2.7-1.4,2.9,3,6,2.6
		c0.1,0.7-0.4,0.7-0.4,1.3c0.6-0.2,0.7-0.8,1.3-0.9c-1.6-1-1.5-2.4-3-1.7c-1.2-2.4-3.4-3.7-5.6-5.1c0.8-2,4.2-1.2,4.7,0.4
		c-0.3,0.4-0.8,0.6-1.3,0.9c2.7-1,3.8,2.4,6.8,2.6c0,1.2-0.7,0.9,0,1.7c0.5,0.1,1.8,0.4,3,0.9c-1,1.2,1.4,1.8,2.6,2.1
		c0.2,1-0.8,0.9-0.4,2.1c0.8,1.1,2.5-0.9,2.1,1.7c-2.8-0.1-3.2-2.5-6-2.6c-0.5,0.1-0.4,0.8-0.4,1.3c1.7,0.7,3.1,1.7,5.5,1.7
		c-0.4,1.1-1.5,2,0.4,1.3c-2.9,2.6-4.9-2.3-8.1-2.1c-0.8-2.3-3.3-3-5.5-3.8c-1.5-2.2-3.3-4-6-5.1c0.6-2.3-1.7-1.7-2.6-2.6
		c2.9,4.7,9.3,7.1,10.7,12c0.7-0.1-0.6-1.5,1.3-1.3c-0.1,2.6,2.7,3.3,4.7,5.5c-7.2-3.2-16-10.7-19.6-17.5c0.5-1.1,1.7,0.6,2.1,0.9
		c0.4-0.2,0.8-0.4,0.9-0.9c-1.1-0.2-1.5-0.7-3-1.3c-0.2-0.9,0.3-1.1,0.4-1.7c-1.7,0.2-3-0.2-3-1.7c0.8,0.7,0.5,0,1.7,0
		c-0.2,0.3-0.4,0.7-0.4,1.3c1.1,0,2.4,0.2,3-0.4C217.1,47.5,218.5,48.1,220.3,48.5 M232.2,59.6c1.1,0.2,2,0.6,2.6,1.3
		c-0.3,0-0.5,0.1-0.4,0.4C237.5,61.1,233.1,58.3,232.2,59.6"/>
	<path class="st1" d="M260,47.7c0.9-1.1-0.1,1.4-0.4,1.7c-0.8-0.1-1-0.7-0.9-1.7C259.4,47.6,259.8,48.4,260,47.7"/>
	<path class="st1" d="M270.6,47.2c1.9-0.1,1.3,1.7,0,1.7c0.1,0.3,0.4,0.4,0.4,0.9c0.7,0,1.1-0.3,1.3-0.9c1.4,1.8,0.6,3.6,4.3,3.4
		c-0.4,0.9-0.7,1.9-1.3,2.6c-2.8-1.8-3.6-3.2-5.5-5.6C270.3,48.9,271,48.6,270.6,47.2"/>
	<path class="st1" d="M232.2,49c0.1-0.5,0.4-0.2,0.4,0c0.6-0.1,0.1-1.3,0.9-1.3c1.3,0.2,1.4,1.4,2.6,1.7c0.4,0.1,0.4-0.2,0.4-0.4
		C237.5,50.3,232.7,49.9,232.2,49"/>
	<path class="st1" d="M283,48.5c-0.3,0.8-0.8,0.1-1.3,0c-0.1,1.1,0.9,1.1,1.7,1.3c-0.3,1.2-0.1,2,1.3,2.6c-0.2,0.3-0.4,0.7-0.4,1.3
		c-1,0.2-0.9-0.8-2.1-0.4c1.9-1.3-1-1.7,0-3c-1,0.1-1.6-0.1-2.1-0.4C280.5,48.8,282,47.6,283,48.5"/>
	<path class="st1" d="M246.3,50.2c0-0.7,2.2,0.5,2.1-1.3c1.1-0.1,1.4,0.6,1.3,1.7c-0.5,0.4-1.1,0.6-2.1,0.4
		C248.6,49.5,247,51.3,246.3,50.2"/>
	<path class="st1" d="M243.3,52.4c1.4-0.5-0.3-2-1.7-2.1c2.3-2.8,3.2,2.4,4.7,2.1c-0.1,0.5-0.8,0.4-1.3,0.4c0.1,0.3,0.4,0.4,0.4,0.9
		c1.5,0,2.1-1.1,3.4-1.3C247.8,54.5,244.3,54.2,243.3,52.4"/>
	<path class="st1" d="M270.2,55.8c-0.1,0.5-2.4,1.2-0.4,1.3c-0.2,0.4-0.4,0.8-0.9,0.9c-0.1,1.1,2.4-0.4,1.7,1.3
		c-5.1-1.3-7.4-5.8-10.7-7.7c-0.5-1.6,1.4-0.8,1.7-1.7c0.7-0.2,0.7,2.3,0,2.1c0.2,1,0.7-0.5,1.3,0.4c0.5-0.1,0.4-0.8,0.4-1.3
		C266,53,266,56,270.2,55.8"/>
	<path class="st1" d="M276.6,50.2c-0.1-0.7,2.8-0.9,2.1,0.4c-0.3-0.2-0.7-0.4-1.3-0.4c-0.1,0.4,0.2,0.4,0.4,0.4
		c0,0.4-0.5,0.3-0.9,0.4c-0.1,0.4,0.2,0.4,0.4,0.4c-0.2,0.6-0.5-0.2-1.3,0C276.1,51.1,278,50.6,276.6,50.2"/>
	<path class="st1" d="M256.1,50.7c0.1-1,1.1,0.5,1.7,0.4c-0.1,0.9-1.1,0.9-2.1,0.9c-1,0.9,0.5-0.6,0.9-0.9
		C256.6,50.7,256.4,50.7,256.1,50.7"/>
	<path class="st1" d="M259.1,52.4c0.3-0.8,0.7,0.5,0,0.4c0,0.4,0.5,0.3,0.9,0.4c-0.8,0.5-1.5,1.1-2.6,1.3c-0.7-0.3-0.7-1.3-1.3-1.7
		c0.6-1.3,0.8,1.5,1.7,1.3C258.7,54,258.7,52.9,259.1,52.4"/>
	<path class="st1" d="M261.2,58.3c-0.3-0.9-1.3-1.7-0.4-2.6c-1.6,0-1.4,1.8-2.1-0.9c1,0.8,1.5-1.6,3.8-0.9c0.6,1.6-1.2,0.8-0.9,2.1
		c0.7,0.6,1.4-0.8,3,0c0,1.3-1.5,1-1.3,2.6c0.4,0.9,1.9,0.7,2.6,1.3C264.1,61.5,263.5,57.9,261.2,58.3"/>
	<path class="st1" d="M283.9,54.5c-0.3-1.4,1.6,1.6,2.6,0.4c-0.2,0.3-0.4,0.7-0.4,1.3C285,55.9,284.9,54.8,283.9,54.5"/>
	<path class="st1" d="M252.3,54.9c0.3-0.5,2.5,0.3,2.6-0.4c1.3,0.4-0.9,0.7-0.9,1.3c0.8,1.5,1.5-0.7,2.6-0.4c0.4,1.2,1.2,1.9,3,1.7
		c-0.8,0.5-1,1.1,0,1.7c0.1,1-1.2,0.5-1.3,1.3c0.4-0.1,0.4,0.2,0.4,0.4c0.5-1.2,1.6-0.6,1.7,0.9c-1,0.2-0.9-0.8-2.1-0.4
		C256.9,58.3,254.3,56.9,252.3,54.9"/>
	<path class="st1" d="M272.8,56.6c0.4,0,0.3,0.5,0.4,0.9c0.4-0.3,0.4-1,1.3-0.9c-0.4,1,1.9,0.7,2.6,2.1v0.9
		C275.1,59.1,273.4,58.4,272.8,56.6"/>
	<path class="st1" d="M158.8,58.3c-1.2,0.5-1.1,1.5-3,2.1C156.3,59.3,157.1,58.4,158.8,58.3"/>
	<path class="st1" d="M258.7,64.7c-1-0.8,1.5,1.2,2.6,0c-0.1,0.8,0.5,0.9,0.4,1.7c0.3-0.4,1.2-0.3,1.3-0.9c0.7-0.1,0.3,3,1.3,1.3
		c1.3,0.3-0.4,0.9,0,1.7c-3.5,0.2-6,0.9-7.3-1.3c1.9,0.3,3.2,0.6,6,0.9C262.2,66.3,259.7,66.2,258.7,64.7"/>
	<path class="st1" d="M253.6,64.7c1.3,0.1,0.5,2.3,2.1,2.1c-0.1,0.5-0.8,0.4-1.3,0.4C255,65.6,253,66.4,253.6,64.7"/>
	<path class="st1" d="M125,73.3c0.2-0.4,0.4-0.8,0.9-0.9c0.2-1-1.9,0.2-1.3-1.3c1.1-0.1,1.3,0.7,2.1,0.9
		C126.1,72.3,126.1,73.4,125,73.3"/>
	<path class="st1" d="M261.2,88.2c-1.2,6.2-2.3,18.8,0.9,25.2c0.1-6.6-0.9-17.2,0.4-23.1c2.1,5-2.4,13.1,1.3,17.9
		c2.3-4,2.7-9.9,4.3-14.5c0.5,4.3-2,8.7-1.7,13.2c1-0.7,1.3-2.1,3-2.1c0.6,1.8-1.1,4.5-1.7,6.4c0.3,1.3,0.9-0.4,1.7,0
		c0.2,3.7-2.5,5-2.1,7.7c3.8-0.3,5.2-5.6,6.4-9c1.9-5.4,3.1-10.7,3-18.4c-0.8-3,0.8,1.1,0.9,1.7c1.6,11.9-6.4,23.5-10.2,31.2
		c1-1,2.1,3.1,4.7,4.3c4.5,1.9,11,3.4,14.5,6c-6.8,2.2-18.9-1-20.5,6.4c0.6-0.7,2.2-0.4,3.4-0.4c2,2.5,3.6,4.2,3.4,8.1
		c-3.1-0.6-2.3-5.1-5.1-6c-2-0.3-2.7,0.7-4.7,0.4c1-0.9,2.3-1.4,0.9-2.6c-0.9,0.3-0.1,2.2-1.7,1.7c0.6-1.2,1-2.4,0.9-4.3
		c-1.2,1.3-0.9,4.2-1.7,6c-4.1-4.3,0.6-12.1,0-15.8c-1.7-3.4-0.6-2.5-3.4-4.7c1.2-0.4,1.3-1.9,1.7-3c0.9,0.4,0.4,2.2,1.3,2.6
		c-0.6-2.3,0.2-4.9,0-7.7c-0.2-3-2.4-5-3-8.1C256.5,100.5,259.1,94.3,261.2,88.2 M263.8,128.4c0.4-1.3,3.6-2.1,2.6-3.4
		C266.1,126.4,262.9,127.2,263.8,128.4"/>
	<path class="st1" d="M149.4,104c0.2,0.9-0.8,0.6-0.9,1.3c0.1,0.6,1.1,0.4,1.7,0.4c0,0.6-0.1,1.2,0.4,1.3c0,0.8-2-0.3-0.9-0.9
		c-1.7,0.4-3.4-1.7-5.5-2.1c-0.4-2.1,1.3-1.4,0.4-3C146.7,101.6,147.4,103.5,149.4,104"/>
	<path class="st1" d="M152.8,106.2c-0.7-0.6-0.5-1.9,0.9-1.7c-0.4,1.5,0.2,1.3-0.9,2.1C152.3,106.5,152.6,106.2,152.8,106.2"/>
	<path class="st1" d="M130.2,107c0.2,1.2-2.9,2.7-2.6,1.3C129.1,108.5,128.7,106.8,130.2,107"/>
	<path class="st1" d="M123.3,109.2c0.1-0.5,0.4-0.2,0.4,0c0.9-0.4,1.3-1.3,2.6-1.3c-0.3,0.4-0.5,0.8,0,0.9
		C125.4,109.7,124.6,109.6,123.3,109.2"/>
	<path class="st1" d="M277.9,120.7c0.4,0.3,2.7,0.1,3,1.7c-1.9-0.8-2.9-0.4-3.4-2.1C278.2,120.1,278.3,120.7,277.9,120.7"/>
	<path class="st1" d="M321,141.6c1.7-0.2,2.7,0.4,2.6,2.1c-0.9,1.4-2.3-0.9-2.6,0C320.1,143.7,321.6,142.7,321,141.6"/>
	<path class="st1" d="M251.8,143.3c-1.1,3.4-5,7.5-7.7,10.7c0.6,1,1,0.7,2.1,0.4c-0.6,1.6-2.5,1.8-3.8,2.6
		C244.3,151.1,249.3,148.5,251.8,143.3"/>
	<path class="st1" d="M91.7,165.1c-1.9,0.2-1.8-1.6-1.7-3.4c3-5.3,16.5-4.3,14.9,3C105,156.3,90.3,157.6,91.7,165.1"/>
	<path class="st1" d="M116.5,160.8c0.1-1.1,0.7,0.6,1.7,0c-0.3,0.4-0.5,1-0.4,1.7C115.8,162.8,117.2,160.9,116.5,160.8"/>
	<path class="st1" d="M119.1,162.1c0.1-1,1.1,0.6,2.1,0c0.1,1.1-0.9,1.1-1.7,1.3C120,162.8,120,162.3,119.1,162.1"/>
	<path class="st1" d="M121.6,168.9h-0.9c0.9-1.4,1.2,1.3,2.6,0.9c-0.8,0.5-1.5,1.1-2.6,1.3C120.7,170,121.4,169.7,121.6,168.9"/>
	<path class="st1" d="M242,59.6c-0.1,0.8,4.2-1.4,3.4,1.3c0.6-0.2,1-0.7,1.3-1.3c-0.8-0.8-1.7-1.4-3.4-1.3c-0.4-3.3-4.4-3-5.1-6
		c0.4,0,0.3,0.5,0.4,0.9c0.7-1,2.6-1,3.8-0.4c0.2,0.9-0.3,1.1-0.4,1.7c1,0,1.3-0.7,2.6-0.4c0.5,0.6,0.5,1.1,0,1.7
		c3,0,3.1,2.9,5.6,3.4c-0.1,1.5-3.2,0-3,1.7c0.8,1.1,1.5-0.4,2.6,0.4c0.3,1.3,0.3,0.8,0,2.1c-4.2-1.7-7.3-2.5-11.5-4.7
		c0.3-1.5-0.2-2-1.7-1.7c0.5-0.6,0.5-1-0.4-1.3c0.5-1.4,2.5-1.5,3.8-0.9c-0.3,1.3-0.3,0.8,0,2.1h2.1C241.3,58.9,243.9,59,242,59.6"
		/>
	<path class="st1" d="M163,102.7c0.1,1.6-2.6,1.6-3.4,0.9C160,102.6,162.1,101.9,163,102.7"/>
	<path class="st1" d="M114.8,160.8c0.3,0.2,0.7,0.4,1.3,0.4v2.1c-1.2-0.1-2.3-0.1-2.1,1.3c0.4,0.9,1.6,0.9,3,0.9
		c-0.2,3.3-4-1.3-4.7,1.3c-1,0.1-0.5-1.2-1.3-1.3c0.5-1.3,1.6,0.6,2.1-0.4c0.1-1.1,0.1-2.1-0.9-2.1
		C113.1,162.6,114.9,163.1,114.8,160.8"/>
</g>
</svg>
