<?xml version="1.0" encoding="utf-8"?>
<!-- Generator: Adobe Illustrator 19.0.0, SVG Export Plug-In . SVG Version: 6.00 Build 0)  -->
<svg version="1.1" id="Layer_1" xmlns="http://www.w3.org/2000/svg" xmlns:xlink="http://www.w3.org/1999/xlink" x="0px" y="0px"
	 viewBox="0 0 320 378.9" style="enable-background:new 0 0 320 378.9;" xml:space="preserve">
<style type="text/css">
	.st0{fill:none;stroke:#EBEBEF;stroke-width:2;}
	.st1{fill:#EBEBEF;clip-path:url(#SVGID_2_);}
</style>
<line class="st0" x1="0" y1="378" x2="252" y2="378"/>
<g>
	<defs>
		<rect id="SVGID_1_" x="25" width="274" height="378"/>
	</defs>
	<clipPath id="SVGID_2_">
		<use xlink:href="#SVGID_1_"  style="overflow:visible;"/>
	</clipPath>
	<path class="st1" d="M216.9,174.4c0,0.1,0,0.1,0,0.2C216.9,174.6,216.9,174.5,216.9,174.4 M216.9,174.4L216.9,174.4L216.9,174.4
		c0.1-0.1,0.3-0.2,0.6-0.3c0.6-0.1,1.4,0.1,1.2,0.5c-0.5,0.2-1,0.5-1.4,0.9c2.6,0.2,2.5-1.7,2.7-2.7c-1.1-0.2-1.8,0.1-2.3,0.5
		c1.6-2.4-3.5-1.5-1.4-3.7c-2.4,0.8-2.6-2.3-4.1-0.9c0.3-2.1-1-1.9-2.3-1.4c-0.4-2.5-0.3-0.9,0.9-1.8c-0.7-1.1-2.1-1.5-3.7-1.8
		c0.5,1.5,0,1,0,2.7c1.1,0.1,1.4,0.9,2.3,0c0.2,1.7,2.3,1.5,1.8,2.7c3.1-0.8,3.9,2.6,6.4,3.2c-0.2,0-0.4,0.1-0.5,0.2
		c-0.1,0-0.1,0.1-0.2,0.2C216.8,173.1,216.9,174,216.9,174.4 M170.9,138.9c-0.4-0.2-0.3-0.8-0.7-0.9c-0.1,0.7-1,0.3-1.4,0
		c0.3,2-1,3.7-0.5,3.2C169.4,140.4,169.9,138.7,170.9,138.9 M169.9,299.1c0,0-0.1-0.1-0.2-0.3c-0.5-1.2-0.5-2.3,0.5-3.2
		c0.5,0.4,1.1,2.7,1.8,1.4c-1.1-0.7-1.5-2.1-2.7-2.7c0.8,0,0.2-1.3,0.9-1.4c0.4,0.9,0.8,1.7,0.9,2.7c2.1,0.4-0.6-1.2,0.9-1.4
		c0,1.2,2,0.5,1.4,2.3c2.4-0.2,2.4-0.7,2.7-2.3c-0.1,1,0.1,1.7,0.9,1.8c5.8-5.3,14.9-4.9,20.2-10.1c0.3,0.3,1.1,2.2,0,2.3
		c-0.9-2.4-0.6,1.5-1.8,0c-0.6,0.6,0,2.4-1.8,1.8c-0.6,1.5,1.5,0.3,0.9,1.8c-1.5,0.5-1.1-0.7-1.8-0.9c0.3,1.7-1.8,1-1.8,2.3
		c1.3,0.6,2.7-0.3,5,0c0.4-2.4,2.7-1.2,3.7-3.7c0.6,0.6,0.3,2.2,0.9,2.7c-2.6-0.5-0.9,0.7-1.8,1.4c-0.9-0.2-0.4-1.8-1.8-1.4
		c-0.1,0.9,0.5,1,0.5,1.8c-8.1,2.9-15.4,10.1-25.2,12.8c-3-0.1-5.6-1.7-8.7-0.9c0.6,0.6,2.3,0.2,2.3,1.4c-2.8,0.5-3.9,1.3-5.5,1.4
		c1.4,1.3-1.5-0.8-1.4,0.5c1.4-0.3,0.9,1.3,2.3,0.9c0.1-0.5-0.1-1.3,0.5-1.4c0.2,0.9,1.8,0.4,1.4,1.8c-1.8-0.7-1.8,0.9-4.1,0v1.4
		c0.3-0.7,3.9-1,4.6,0.9c-1.6-0.7-1.4,0.1-2.3,0.9c-0.1-0.9-1.2-0.9-1.8-1.4c0.6,3.2-2.6-2-4.1,0.5c0-0.9-1.3-0.6-0.9-1.8
		c1.1,0.3,2.3,0.9,2.3-0.9c-1.2,0.2-3.5-0.9-1.4-2.3c-2.7-1-1.7-0.6-3.7-1.4c-0.1,2,1.4,2,0.5,3.7c1.1,0.2,2.4,1.3,1.4,2.3
		c3.3,1.9,4.5,1.3,7.8,1.4c1.4,1,0.6,4.3,2.7,4.6c0.3-1-2.1-1.4-0.5-2.3c1.3,2.7,1.9,2.6,3.7,3.2c0,0.8-1.3,0.2-1.4,0.9
		c2,1.6,4.6,0.4,5.5,3.2c1.1,0.4,2-1.6,2.3-0.5c-0.7,0-2.3,1.3-0.9,1.8c1,0.4,4,2.3,5,4.1c4.8-0.6,6.2-1,9.6-0.5
		c-0.8,0-2.4,1.9-1.3,0.9c0.7,0.3,2.4-0.5,2.3,0.5c-0.3,0.6-1.8,0.1-1.8,0.9c1.4,0,2.5-0.2,3.2-0.9c-1.5-1.1,3.3-1.5,1.4-3.2
		c2.8,0.4,1.5-3.4,4.6-2.7c0.9-4.8,9.2-6.4,7.3-11c0.9-0.1,1,0.5,1.8,0.5c0.8-3.6,5.9-11,1.8-14.2c-0.6,3-2.7,7-3.2,7.3
		c-2.5,2.4-7.9,14-14.2,12.8c2.6-1.6,4.6-3.7,6-6.4c-0.3,1.4,1.8,0.5,1.8,0.5c-1.5-0.8,1.2-1.2,0.5-2.7c5.5-3.1,7.2-7.2,8.7-14.2
		c-1.4,0.6-1.5,2.5-3.7,2.3c2.1-4,8.4-6.2,9.2-10.1c0.6,0.3,1.1,0.3,1.6,0c0.2-0.1,0.3-0.2,0.5-0.3c0.1-0.1,0.2-0.1,0.2-0.2
		c0.2-0.1,0.3-0.3,0.5-0.4c0.1-0.1,0.2-0.1,0.2-0.2c0.2-0.2,0.5-0.4,0.7-0.5c0.3-0.2,0.6-0.3,1-0.3h0h0.1c0,0,0.1,0,0.2,0
		c-0.1,0-0.1,0-0.2,0c0,0-0.1,0-0.1,0c0,0,0,0,0,0h0c-0.1,0-0.1,0-0.2,0c-0.1,0-0.1,0-0.2-0.1c0,0,0,0,0,0c-0.1-0.1-0.1-0.1-0.1-0.2
		c2.1-0.1,1.7-2.6,3.7-2.7c-0.8-1.6,1.5-3.3,0-6.4c-1.2,0-2.6,0.2-3.2-0.5c-0.1,0.9,0.5,1,0.5,1.8c-2.2-1.7-0.2,2.2-2.3,0.5
		c-0.3,1.2,0.9,0.9,0.9,1.8c-1.5,0.5-3.6,0.1-4.6,0.5c0.4-2,2.9-1.7,3.2-1.4c-1.4-1.6,1.5-2.7,1.8-2.7c-0.9-0.9-1.3-1.6-2.7-0.9
		c-0.6,1.1,0.2,1.4-0.5,1.8c-1.9-1.6-3.2,1.8-6,1.8c-0.7,1.7,2,0.1,1.4,1.8c-1.7,0.7-0.9-1.3-2.3-0.9c0.3,1.2-0.2,1.6-1.4,1.4
		c-0.6,1.1,2.1,1.1,0.5,1.8c-0.7,0-0.4-1.2-1.4-0.9c-0.9,1.7-1.1,1.7-0.9,2.7c-1.6,0.7-0.3-1.5-1.4-1.4c0,2.5-1.5,0.8-2.3,2.3
		c0-0.7-1.2-0.4-0.9-1.4c5.6-0.6,7.5-11.9-0.5-11.5c0.1,1.1-0.1,1.7-0.9,1.8c0-0.6,0.2-1,0.5-1.4c-5.4,1.3-9.1,4.4-12.8,7.3
		c-2.2-1.6-6.7,1.7-9.6,2.3c0.1,1.7-1.1,2.4-2.7,2.3c-0.1,0.8,1.5,2.5-0.5,2.3c0.1-0.5,0.8-1,0-1.4c0.3,1.2-2.2-0.3-1.8,0.9
		c1.3,0.1,0.9,1.9-0.5,1.8c0-0.6,0.2-1,0.5-1.4c-2.3,0.5-1.1,3.5-2.7,1.4c-0.6,3.5-4.8,3.5-5,7.3c-0.5-0.1-0.4-2.8-0.9-1.4
		c0,0.6,0.2,1,0.5,1.4c-1.4,0.2-2.5,0.3-3.7,0c0.2,2.2-0.6,4.2-1.4,1.8c-0.3,1.5,0.3,2.1,0.5,3.2c-0.6,0-0.6-0.6-1.4-0.5
		c0.8,2.8,3,4,4.6,4.1c-1.3-0.5,1.5-0.4,0-1.4c0.8,0.2,1.5,0.7,2.3,0c-0.8-0.8-2.7-0.4-2.3-2.3c0.6,0.5,1.7,0.5,2.3,0.9
		c-0.1-1.7-2-1.4-2.3-1.8c0.8,0,0.2-1.3,0.9-1.4c0.3,0.7,0.7,1.1,1.4,1.4c0.1-1.4-2.4-2.4-0.9-3.7c0.3,1.1,2,3.2,2.7,2.3
		c-0.3-0.8-1.4-0.8-1.8-1.4c0.6-2.1,2.4-0.3,2.7-2.3c-0.1,1.3,1,1.4,0.9,2.7c-0.9-0.2-0.9-1.4-1.8-0.5c0,0.5,0.2,1.2,0.5,0.5
		c0.5-1.4,0.8,1,1.4,0.9c0.6-0.3,0.1-1.8,0.9-1.8c0.9,0.1,1.4,2.9,1.8,1.8c-0.7-1.1-1.1-2.2,0-3.2
		C168.5,297.4,169.7,298.9,169.9,299.1 M144.9,317.1c-0.1,0-0.2,0-0.3,0c-2.2-0.4-0.7-1.4-0.5-2.7c-1.7-0.8-3,0.3-5-0.5
		c0.2,1.3-1.7,0.4-1.8,1.4c2.2,0.2,3.1,0.4,5,0c0.6,0.6,0.3,1.4-0.5,1.8c-1.2-0.9-4.5-1.3-3.7,0.9c0.6-0.8,1.8,0.8,0.9,1.8
		c2.3,0.7,3.5,0.6,5,0c-0.9-1.2-2.4-1.8-2.3-0.5c-0.7-0.5-1.2-0.5-1.8,0c0.1-0.9-0.5-1-0.5-1.8c1.1,0.9,2.2-0.5,3.7,0.5
		c0-0.1,0-0.1,0-0.2c0-0.1,0-0.1,0-0.2c0,0,0,0,0-0.1c0-0.1,0.1-0.1,0.2-0.2c0.1,0,0.1-0.1,0.2-0.1c0,0,0.1,0,0.1,0
		c0.1,0,0.1-0.1,0.2-0.1c0.3-0.1,0.7-0.2,0.9-0.2C144.8,317.1,144.8,317.1,144.9,317.1 M142.2,307.7L142.2,307.7L142.2,307.7
		C142.2,307.8,142.1,307.8,142.2,307.7c-0.1,0.1-0.1,0.2-0.1,0.2c0,0.1-0.1,0.1-0.3,0c-0.7,0.2-1.1-1.8-1.4-0.5
		c1.2,0.5,0,3.7-0.9,2.3c-0.5,1.5,0.7,1.1,0.9,1.8c-0.9-0.1-0.9,0.6-1.4,0.9c-0.4-1.3-1.1,0.6-2.3,0c1.3,2.5,2.6-0.3,5.5,0.9
		c-0.6-1.5,3.3,0.3,1.4-1.8c-1.2,0.9-1.4-1-2.7,0.5c0-1.7,0.7-2.7,1.1-3.6c0.1-0.1,0.1-0.3,0.2-0.4
		C142.1,308,142.2,307.9,142.2,307.7C142.2,307.7,142.2,307.7,142.2,307.7 M142.2,307.7c0-0.1,0-0.2,0-0.2
		C142.2,307.5,142.2,307.6,142.2,307.7 M132.1,312.2c-0.6,0.9-1.1-1.4-2.2-1.1c-0.1,0.5,0.1,1.3-0.5,1.4c-0.5-0.1-0.7-0.5-0.9-0.9
		c-0.1-0.5,2-0.9,0.5-1.4c-0.9,0.8-1.3,2.1-1.8,3.2c0-0.9-1.2-0.6-0.9-1.8c1.1,0.7,1.4-1.6,0.5-1.4c-9,1.6-23.5,5-37.6,3.2
		c-1.2-1.3-3-1.9-6-1.8c-3.7,0.1-7.5,0.5-10.5-0.5c-1-0.3-0.9-0.9-1.8-0.9c-20.6-0.3-33.3,33.6-16,44.4c3.5-1.4,5.1-2.8,7.3-2.7
		c4-2.4,8.4-1.7,12.5-1.2c9,2.3,18.2,2.3,26.8-1.2c6.5-2.6,16.1-5.6,20.6-11.5c1.8-0.4,3.7-3,4.2-0.3c-0.6-0.6-1.7-0.6-1.8,0.5
		c1.5-0.4,1.7,0.4,2.3,0.9c0.9-0.9,0.2-2.2,0-3.2c1.9-0.5,2.5-2.4,2.7-3.7c-1.4,0.9-1.8,0.2-2.7,1.8c0.6,0.1,0.5,1,0.9,1.4
		c-1.1-0.6-2.2,1-2.3,0c0.8-0.2-0.1-0.6,0-1.4c0.5,0,0.6,0.4,0.9,0.5c-1.8-3.1-1-6.9-1.8-9.2c0.6,0.1,0.8,0.7,1.4,0.9
		c0.3-1.2,0.9-2.1,1.8-2.7c0.6,1.8,3.2,1.7,3.7,3.7c-0.1-0.9,0.5-1,0.5-1.8c-1.7-0.6-3.2-1.4-4.1-2.8c1.2,0.3-0.3-2.2,0.9-1.8
		c0.2,0.8,1.4,2.8,2.3,1.4c-1.3-0.6-2.7-3.3-5.5-3.7c-0.3,0.8,1.3,1.9,0,2.3c-3.1,0.3,0.9-2.9-1.4-2.7c-0.9,0.1,0.3,0.8-0.5,0.9
		c-0.2-1.3-1.8-1.2-2.3-2.3c0.8-1.6,4.1-0.7,4.5-2.7c0.3,0.4,0.7,0.7,1.4,0.8C127.6,313.1,131.1,314.4,132.1,312.2 M69.7,102
		c-1.1,1.4-1.4,3.6-1.2,8c-1.9-1.6-0.2-7-0.5-11c-0.9,2.9-0.6,4.2-0.9,7.8c-1.5,0.4-0.6-1.5-1.8-1.4c1.7,3.1-1.4,6.3,0.5,8.2
		c-0.4-0.1-0.5-0.5-0.9-0.5c-0.2,0.8,0.4,0.9,0.9,0.9c-1.5,0.5-0.8,3.2-0.9,5c-2.7,2.1,0.2,5.6,0.9,9.6c1.2,6.3-0.4,14.2,0.5,19.7
		c-0.9,0.5-2.2,0.6-3.2,0.9c1.6-6.1,1.9-20.3-0.5-26.1c-0.6-1.4-1.2-2.7-2-4c-1.2-5.4-4-10.1-5.6-15.4c-0.6-1.9-1.1-4-1.5-6.1
		c-0.1-1.2-0.3-2.3-0.6-3.5c0,0,0-0.1,0-0.1c-0.8-6-1.1-12.3-1.4-18c-0.1-1.6-0.1-3.2,0-4.8c0.1-1.3,0.2-2.7,0.3-4.2
		c0.3-3.1,0.9-6.1,1.6-9.1c0.9-3.2,2-6.4,2.8-9.5c1.7-5.1,3.8-10.1,5.9-15.1c0.9-1.6,1.8-3.2,2.5-4.9c5.1-7,8.8-14.4,18.2-18
		c0.8,0.4,0.8,1.7,1.8,1.8c-0.8-2.5,4.5-2.4,4.1-6c0.4-0.3,1.3-0.7,1.4,0c5-6.5,18.9-2.6,26.1-0.9c7.9,1.8,14.5,4.1,20.6,8.7
		c7.8,5.9,16.7,15.8,21.5,23.4C166,49.8,172,63.2,177,77.5c1.5,4.3,2.6,8.9,3.9,13.6c0,0.1,0,0.2,0,0.3c0,6.6-0.1,12.2,2.6,17.3v0
		c0.8,1.4,1.7,2.8,2.9,4.1l0,0c1.8,3.2,3,7.1,5.9,9.4c0,0.1,0,0.3,0.1,0.5c1.1,2,3.1,3.1,5.2,2.8v0c12,0.8,23.9,1.8,34.4,4.1
		c4.3-5.1,10.2-0.4,14.7,3.2c4.4,3.6,7.2,9.8,8.2,14.7c0.9,4.4,0.5,7.8,2.8,11c1.9,2.8,5.4,4,5,7.3c-7,2.9-13.4,6.5-20.6,9.2
		c0.4-2-0.1-3.5,1.8-4.6c-0.6-1-2.5-0.6-1.8-2.7c-1.2,0.9-0.4,2-2.3,0.5c0.1-1,1.2,0.7,1.8-0.5c-3.9-3.8-6-7.4-10.5-11
		c2.4,0.7-1-1.6-2.3-1.4c-0.3-2,0.9,0.4,0.9-0.9c-0.1-1.9-3.6-0.4-3.2-2.7c0.8,1.1,0.8,0.3,1.8,0.9c-0.4-1.9-3.2-1.3-4.1-2.7
		c0.3-1.1,1.2,0.9,2.3,0.5c-0.9-1.6-3.6-1.3-4.1-3.2c2.3,1.5-1.4-3-1.4-1.7c-0.2-1.4-1-1.3-1.3-3.4c-0.3,1.8-1,0.3-1.9-1.5
		c-0.2-0.3-0.3-0.6-0.5-0.9c-0.2-0.5-0.5-0.9-0.8-1.3c-0.2-0.4-0.5-0.7-0.8-1c0,0,0.1,0,0.1,0c0.1-0.1,0.1-0.2,0.2-0.3
		c0.1-0.2,0.2-0.4,0.5-0.5c-0.4-2.4-4.9-4.8-6.4-3.2c-1.1-1.9-3.1-1.6-5-2.3c0.7,1.5,1,1.1,2.7,0.9c-0.8,1.3-1.9,2.4-2.3,4.1
		c-3.4-2.4-7.3-2.4-9.6-4.1c-1,0.2,0.6,0.7-0.5,1.4c-0.8-0.1-1-0.8-0.9-1.8c-1.5,0.5-1.6-0.2-3.2,0.5c0.7-2.1-1.8-1-2.3-1.8
		c2.9-1.1,7.3,1.8,11.5,2.3c0.6-2-1.1-1.7-1.4-2.7c-0.5,0.3-0.5,1.1-1.4,0.9c1.6-0.9-1.9-3.5-1.8-1.4c-1.2-0.8-0.5-1.9-2.3-2.7
		c-0.4,0.3-0.7,0.8-0.9,1.4c0.1-2.1-1.5-3.3-3.7-1.8c-0.1-0.7,0.4-0.8,0.5-1.4c-3.2-0.1-4.6,0-7.3-1.4c-0.8,0.1-0.3,1.5-0.9,1.8
		c-1.4-0.3,0.4-1,0-1.8c-1.5,0.5-2.3-0.2-3.2,1.4c-1.8-1.7-4.1-2.4-6.4-1.4c0.1-1.2-1-1.2-1.8-1.4c0.7,0.5,1.2,3.6,3.7,2.3
		c0.1,0.7-0.4,0.8-0.5,1.4c1.7,0.2,2.3,0.8,2.8-0.9c1.4,0.5-0.2,1.5-0.5,1.8c1.9,0,2.2,1.3,3.2,3.2c2.5-0.1,3.2-1.9,5-0.5
		c0.8-0.1,0.3-1.5,0.9-1.8c1.3,0.4,0.5,0.7,0.5,1.8c1.3-0.6,2.8-0.6,4.1,0c-0.8,0.9,0,0.6,0,1.8c-3.2-2.1-5.7-0.5-8.2,0.9
		c-0.3-2.3-0.2,0-2.3-0.9c-0.8,0.1,0.6,1.6-1.4,1.4v-1.4c-1,0.6-1.3,2.2-2.3,0.5c-1,0.1,0.7,1.2-0.5,1.8c-1,0.2-0.9-0.6-0.9-1.4
		c-0.5,0.1-0.3,0.9-0.9,0.9c-0.2,2.7,2.5-0.3,2.3,2.3c1.4,0,2.6-1.5,3.7-0.5c1.9-0.1-0.3-1.9,0.9-2.3c1.9-0.1,0.2,1,0.5,1.8
		c1.4-1.8,6.7,0.2,8.2-1.8c0.5,0.1,0.4,0.8,0.5,1.4c3.6,1,5.6-2.3,5,0.5c5.1,0.1,7.5,5.2,10.5,3.7c0.8,2.2,0.3,2.9,0,6.4
		c-1.5-1.9-1.5,0.1-1.8,1.4c-4,0.5-7.6-1.2-9.6-0.9c-0.9,0.2-2.4,2-2.7,0.9c0-0.1,0.6-0.8,0.5-0.9c-2.1-1-6.8,1.7-7.8,4.6
		c-0.6-0.2-0.9-0.6-0.9-1.4c-0.9,1-1.6,2-3.2,2.3V149c-0.9,0.2-0.9,1.4-1.8,0.5c-0.6,1.5,1.5,0.3,0.9,1.8c2.2-1.5,5.6-0.2,6-2.7
		c0.8,0.6,4.2,1.5,3.2,0c0.8-0.1,3,1.7,4.2,0.1c0,0.1,0.1,0.2,0.2,0.3c0.1,0.1,0.1,0.1,0.2,0.2c0.1,0.1,0.2,0.1,0.2,0.1
		c0.1,0.1,0.2,0.1,0.3,0.1c0.7,0.2,1.6,0.2,2-0.2c0.2-0.2,0.3-0.6,0.1-1.1c0.5,1.3,2,2,3.2,1.4c0.1,0,0.8-1.4,0.5-1.4
		c0.5,0,2.8,3.7,3.2,0.5c0.2,0.9,3.6,2.7,3.2,0c0.6,1.4,1.8,1.8,3.7,2.7c0.2,2.2-1.6,2.4-1.4,4.6c-6.2,1-11.7,0.5-16.5,1.8
		c0.2,1.1-0.1,1.8-0.5,2.3c-0.7-0.2-1.2-0.7-1.8-0.9c0.2,2-2.4,0.9-3.7,2.7c0.4,1.3,1-1.4,1.8,0c-0.1,0.8-0.8,1-1.8,0.9
		c0.1,1.1,0.9,1.4,0,2.3c2.5,0.3,1.9-0.8,2.3-1.8c1.3,0.4,0.5,0.7,0.5,1.8c1.1,0.2,1-0.8,2.3-0.5c0.9-0.9-0.3-0.8,0-2.3
		c1.7,0.1,1.1,0.7,0.9,1.8c1.3-0.1,2.2-0.6,1.8-2.3c2.4,1.5,7.9,0.9,10.1-0.5c2.1,1,6.4,0.3,9.2,0.9c-0.8,2.9,6.2,3.9,7.3,7.8
		c1.4,0.3,0.9,0.3,2.3,0c-0.8,1.6-0.1,2.4,1.8,2.3c-1.5,0.9,0.7,3.2,1.4,1.8c0.4,1.4,1.4,5.1,3.2,4.6c1.1,0.5-0.9,2,1.4,1.8
		c-8.8,4.8-19.1,8.1-27.9,12.8c-0.5-1.4-0.9-2.7-1.3-3.8v0c-0.8-6.6-6-10.6-11-14.6c-1-1.1-1.9-1.8-3.7-2.7c0.6,0.7,1.1,1.5,1.6,2.4
		c-0.3,0.3-0.3,0.8,0.1,1.2c0.3,0.2,0.6,0.4,0.8,0.7v0c0.1,0.2,0.2,0.3,0.2,0.5v0c0,0.2,0.1,0.4,0.2,0.5c0,0.1,0.1,0.1,0.1,0.2
		c1.1,2.7,2,5.7,3.3,8.3c-0.9-1.5-4.9-2.8-6.4-0.9c-3.1-1.6-3.1-6.4-8.2-6c-2.9-3.9-11.7-4-15.6-8.2c-3-0.9-8.1,0.8-11.9,0
		c-0.6-0.8,0.5-2.8-0.9-3.7c-1.1-0.2-1,0.8-2.3,0.5c0.8-2.4,3.2-5.6,5.5-7.8c-2.2,0-4.4-1.4-6.4-2.7c-2.5,1.4,1.7,7.5-1.4,9.2
		c0.5,1.8,2.9,5.1-0.5,5.5c0.5,1,1,2,1.8,2.8c-0.3,2-2.1,2.4-0.5,4.1c-0.4-0.2-0.7-0.5-1.4-0.5c4.8,2.7,1.5,12.3-2.7,6
		c0.8-3.5,2.6-4.9,2.7-6.9c-0.6-0.8-2.2-0.6-2.3-1.8c0.1-1.2,0.7-1.8,1.8-1.8c-0.2-1.6-1.5-2.1-1.8-3.7c0.2-1,0.8-1.6,1.8-1.8
		c-0.4-1.4-2.7-4,0-4.6c-1-1.8-0.8-3.2-0.5-5.5c-2,1.8-2.4,5.2-6,5.5c-0.7-1.6,1.9-3.1,3.2-4.1c0.6-1.1-1.1-3-0.9-5
		c-6.1-0.5-16.1,6.1-20.6-1.4c-1.3,1-0.5,2.2-1.8,2.3c0.6,1.4,1.6,0.2,2.7,1.4c-1.3,1.8,1.6,2.6-0.5,3.2c0,1.2,1.7,0.7,2.3,1.4
		c-1.5,1.4-3.1-1.1-3.7-2.3c-0.6,0.1-0.4,1.1-0.5,1.8c-0.5-0.5-1.6-0.5-2.7-0.5c-0.2-1.1,0.8-1,0.5-2.3c-3.7-2.8-3.6-9.5-6.4-13.3
		c-0.7,0.7-2,0.5-1.8-0.9c0.8-0.1,1,0.6,1.8,0.5c-3-3-3.1-6.5-6.9-8.2c-1,0.1,0.7,1.2-0.5,1.8c-1.2,0-0.6-1.8-1.8-1.8
		c1.2-0.3,1.6-0.9,3.2-0.5c-0.8-2.1,0-3-2.3-3.7c-1.5-0.1-0.9,1.9-1.8,2.3c-1.2-0.5,0-2.4,0-3.2c-0.6-1-1.8,1.2-1.4,2.7
		c0.6,1.6,1.5,0.2,2.7,0.9c-1.8,0.8-0.1,3.7,1.8,3.7c-0.3,1.9,0.4,2.6,0.5,4.1c1.9,0.7,3.2,2.7,5.5,4.1c-0.8,0.8-0.4,2.7-0.5,4.1
		c1.7,1.2,3.7,2.1,3.2,5.5c0.3,0.6,1,0.9,1.8,0.9c0.8,4.5,4,8.7,7.8,8.7c0.6,1.7,1.5,3.1,3.7,3.2c5.8,7.2,12.4,17.1,16.5,27.5
		c-27.8-1.8-53.4-5.1-78.8-8.2c-0.7,1.6,1.5,0.3,1.4,1.4c36.8,5.6,71.8,15.1,107.2,20.6c0.7,0.3-0.1,2.2,1.4,1.8
		c1.6,0.1,0.5-2.6,2.3-2.3c1.3-0.1,1.5,1.3,0.9,1.8c1.2,0,2.9-0.4,2.3,1.4c1.9,0.1,2.5-1.2,4.6-0.9c0.1,0.7-0.4,0.8-0.5,1.4
		c1.5-0.4,1.7,0.4,2.3,0.9c0.7,0,1.5-1.2,0-0.9c1.1-2.5,4.6-1.4,4.6-3.2c8.6-2.6,16.4-9.8,25.7-13.3c-0.6-0.6-0.2-0.7,0-1.4
		c0.7,0.2,0,0.4,0,0.9c25.2-12.4,49.1-26,75.6-37.1c-1.2,17.3-4,35.2-6,52.7c-0.9,8.2-2.3,14.2-0.9,20.2c0.7,0.8,1.4,1.7,2,2.7
		c0.2,0.2,0.4,0.5,0.6,0.8c0.3,0.4,0.6,0.8,0.9,1.3c0.4,0.6,0.8,1.1,1.2,1.7c0.6,0.9,1.2,1.8,1.9,2.7c0.1,0.2,0.3,0.4,0.4,0.6
		c0.9,1.3,1.8,2.7,2.7,4.1c1.1,2.9,2.2,5.8,3.5,8.7c0.7,2.3,1.6,4.6,2.5,6.9c0.3,1.1,0.6,2.2,1,3.2c0.2,1.2,0.4,2.4,0.7,3.6
		c-0.1,0.2-0.1,0.4,0,0.7c0.1,0.2,0.2,0.5,0.2,0.7c0,1.6,0.1,3.3,0.4,4.9l-1.3,10.3c-0.4,1.8-0.9,3.6-1.1,5.4v0
		c-0.8,2-1.1,3.8-1.8,5.9c-2.1,6.1-4.8,8.7-9.6,12.8c-6,5.2-10.5,7.4-20.2,3.2c-3-1.3-6.8-2.8-8.7-4.1c-4.7-3-6.9-8.7-11-14.2
		c-4.2-5.7-8.9-8.3-9.6-14.2c-0.5-4.1,1.9-6.8-0.5-9.2c-1.9,10.4-3.1,19.8-5.5,30.7c-1.1,5.1-2.9,12.4-0.9,19.2
		c0.6,2.1,1.9,4.4,2.7,6.4c3.6,9,8.5,20.4,11.9,32.1c1.3,4.4,2.3,10.8,4.1,13.7c1.2,1.9,4.5,2.6,5.5,5H55.7c-0.3-7.4,6-8.1,9.6-11.5
		c1.2,0.4-0.5,1.6-0.5,2.3c2.7-2.7,3.5-7.2,5.5-10.5c-5-0.6-10.1-1.2-15.6-1.4c-9.2-4.3-9.8-11.9-15.6-23.4
		c-4.3-8.5-6.9-14.1-8.7-22c1.4,0,2.5,0.2,3.2,0.9c1.1-0.6,0.9-2.5,1.4-3.7c-4.8-4.9-0.4-10.6,0-16.5c0.5-7.2-8.5-14.6-2.3-20.6
		c0.2-17.7-7.8-31.8-4.6-49.5c-0.4-1.3-1.4-1.9-1.8-3.2c0.3-3.4,2.4-4.9,5-6c0-11.2,4.3-21.7,5-32.5c0.8-10.6,6-19.2,6-30.2
		c1.2-1.7,3-2.8,4.6-4.1c4.5,0.4,6.4,3.4,8.7,6c1.9-1,4.5-1.3,6.9-1.8c-0.4,0.4-0.5,1-0.5,1.8c0.8-1.1,1-0.9,0.9,0.9
		c1-0.2,0.2-2.3,0.5-3.2c4.2,1.8,1.6,6.2,3.2,11.5c0.5-0.3,0.5-1.1,1.4-0.9c-0.3-2.1-0.2-4.7-0.9-6.4c2.4,0.8,2.6,10.5,3.7,16
		c2.4,1.4,2,5.6,3.7,5.5c0.2-0.7,1.2-1.1,0.5-2.7c1.9,1.1,1.8,4.3,2.7,6.4c1.1-1.4-1.3-3.3-0.5-6c1,2.1,0.8,3.4,1.4,6.4
		c1.2,0.2-0.4-2.6,1.4-1.8c-0.5,1.9,0.2,2.4-0.9,3.2c0.7,0.8,1-0.6,0.5,1.4c1.5-0.9,1.4-4.4,1.8-5c1.5-0.3,0.7,1,0.5,1.4
		c2-1.3,1.6-2.2,0.9-4.6c0.6-1.5,0.3,1.8,0.9,1.8c0.6-1.1-1-3.9-0.5-6.4c0.8,1.3,2.4,5.8,3.2,8.7c1.4-0.3-0.4-1,0-1.8
		c1.4-0.1,1.6,1.2,1.8,2.3c0.6-0.1,0.4-1.1,0.5-1.8c1.3-0.2-0.4,2.5,0.9,2.3c1.1-2-1.9-4.3-0.5-6.9c-0.3-0.2-0.7,1.1-0.5,1.4
		c-1.7-1.6-1-8.1-2.3-8.2c-1,0.8-0.2,3.5-0.5,5c-2.2-3.1-3.9-6.8-3.2-12.8c-1.3,0.1-0.8,1.9-0.9,3.2c-0.4-0.3-0.7-0.8-0.9-1.4
		c-0.9,0.4-1,1.8-0.9,3.2c-1.5-1.7-3.4-6.4-2.3-7.8c-1.1,0.3-0.9-2.5-1.4-4.1c0.9,0.1,0.4,1.7,1.4,1.8c-0.4-1.9-1.2-3.4-1.4-5.5
		c1.5,2.8,2.3,6.2,3.2,9.6c0.6-3.7-1.6-6.3,0-9.6c1.1,1.9,0.4,3.1,1.4,5.5c1.4-1.3-0.6-3,0-5c0.6,0.2,0.7,0.8,1.4,0.9
		c-0.2-0.9-1-1.1-0.9-2.3c2,2,0.1-1.9,0-3.2c0.8,0.1,0.3,1.5,0.9,1.8c0.2-2.7,1.6-3.4-1.4-5.5c-1,0.1,0.6,1.1,0,2.3
		c-2.2-1.6-2.1-4.1-3.2-6c-1.1,0.3-0.3,2.4-2.3,1.8c-0.3,1.4,0.8,1.4,0.5,2.7c-1-0.1-1.5,0.4-1.4,1.4c-1.3-0.6,0.8-1.6,0.5-2.7
		c-0.8,0.5-1.1,2.5-2.3,1.4c0.1,2.9-0.5,6.3-0.5,9.2c1.9-1.3,0-3.7,1.4-5.5c1.5,1.9,0,5.4,0.9,8.7c1-0.1,0.2-1.9,0.5-2.7
		c0.9,2,2,7.8,2.3,11.9c-1.6-1.5-1.1-5-2.3-6.9c-1.2-0.1,1.2,1.8-0.9,1.4c1-2.4-0.7-2.7-0.5-5.5c-1.3,3.8,1.9,6.6,0.5,10.1
		c-0.6-0.8-0.1-3.3-0.9-5c-0.1,0.2-0.1,0.6-0.2,1.1c0,0.2-0.1,0.5-0.1,0.7c-0.1,0.5-0.1,1-0.2,1.4c-1.6-2.7,0.1-7.2-2.3-10.5
		c0.1-6.9-1.9-10.1-0.5-15.6c-0.3,0-0.5,0.4-0.5,0.8c-1-6.7,4.8-19.9,4.1-31.5c-1.9,2.5,1.1,5.8-1.8,7.8c0.9-2.6,0.1-7,1.8-8.7
		c-1.3-1.3-1.3,1-1.8,1.8c-0.6-0.1,0.4-2.3,0-3.7c-1.5,0.9,0.2,2.8-1.4,4.1C69.7,103.2,69.3,102.6,69.7,102 M296.1,284.9
		c2-4.8,2.2-10.2,1.3-15.3c-0.1-3.1-1-6.1-1.9-9c-0.1-0.2-0.2-0.4-0.4-0.5c-0.5-1.2-0.9-2.3-1.5-3.4c0,0,0,0,0-0.1
		c-0.7-2.6-1.7-5.2-3-7.5c-0.5-2-1.1-3.8-2.3-5.3c-2.9-3.9-5.6-7.4-8.2-10.5c0-0.3-0.1-0.5-0.5-0.5c-0.5,4.7-1,9.3-1.8,13.7
		c-9.7,6-21.2,10.2-30.2,16.9c2.8,10.1-0.9,18.2,5.5,27.5c1,1.4,3.8,3.7,6,5.5c2.1,1.8,4.1,4.2,6,5.5c0.4,0.3,0.8,0.6,1.3,0.9
		c3,1.9,5.8,2.7,8.5,2.7h0c4,0.1,7.9-1.4,11.3-3.9l0,0C291.8,299.9,294.9,292.7,296.1,284.9 M224.7,181.5v-1.8
		c-1.9-0.1-1.4-0.6-1.8-2.7c-2,0.8-1.2-0.4-0.5-1.4c-1.5-0.1-2.9-1-3.7,0.5c3.9,0.2-1.5,1.8-0.5,1.8c1.1,0.6,1.9-1.3,2.3,0
		c-1.3,0.1-0.8,2.5,0,1.4c-1.5-0.1,1.4-1.9,1.4-0.5c0.1,0.5-2,0.9-0.5,1.4C222.2,179.2,222.9,181.2,224.7,181.5 M208.2,295.1
		c-1.1-0.1-2.1,5,0,3.7C207.8,297.9,208,296.7,208.2,295.1 M205.9,163.6c-0.2,0.8-1.4-0.4-1.8,0.9c0.4,0.1,0.5,0.4,0.5,0.9
		c-0.2,0-0.5,0.4,0,0.5C205.8,164.9,205.8,164.9,205.9,163.6 M202.7,154c1-0.1,2.7-1.9,1.8-2.3c-2.7-1.5-7.6,0-11-0.9
		c-0.1,0.7,0.2,1.7-0.5,1.8c-0.8-0.9,0-0.6,0-1.8c-2,0.1-3.8,0-5.4,0.1c-0.2,0-0.4,0-0.6,0.1c-0.2,0-0.5,0.1-0.7,0.1
		s-0.4,0.1-0.6,0.2c-0.2,0.1-0.4,0.1-0.6,0.2c-0.3,0.1-0.7,0.3-0.9,0.5c-0.2,0.1-0.3,0.2-0.4,0.4c-0.1,0.1-0.3,0.3-0.3,0.4
		c-0.2,0.3-0.4,0.7-0.5,1.1c0,0,0,0,0,0c0-0.2,0-0.4-0.1-0.5c0-0.1,0-0.1,0-0.1c-0.2-0.4-0.4-0.4,0-0.9c0-0.1,0.1-0.1,0.2-0.2
		c-1.3-0.4-1.2,0.6-2.3,0.5c-0.1,0.9,0.5,1,0.5,1.8c-0.5,0-0.6,0.4-0.9,0.5c0.1-0.9-0.5-1-0.5-1.8c-1.1,0.2-2,0.5-2.3,1.4
		c1.3,1.1-0.7,2.4,0.5,3.2c1.2-1.1,0-2,1.8-2.7c0.1,0.7,1.1,0.4,1.8,0.5c0.6-1.1-0.2-1.4,0.5-1.8c0.3,0.1,0.6,0.2,0.9,0.3
		c0,0,0,0,0,0v0.1c0,0,0-0.1,0-0.1c0.3,0.1,0.7,0.2,1.1,0.2c0.2,0,0.4,0.1,0.6,0.1h0c1,0.1,1.9,0,2.9-0.4c0.2-0.1,0.3-0.1,0.5-0.2
		c0.3-0.2,0.6-0.3,0.8-0.5c0.1,0.9,0.3,1.5,0.9,1.8c1-0.4,1.5-1.3,2.3-1.8c0.6,0.3,0.1,1.8,0.9,1.8c1.7,0.2,1.1-0.6,2.3-1.8
		c0.5,0.7,0.5,1.1,0,1.8c1.4-0.3,0.9-0.3,2.3,0c-0.1-1,0.1-1.7,0.9-1.8c0.7,1.1,1.1,1,0,1.8c1.1-0.6,1.4,0.2,1.8-0.5
		c-0.9-0.6,1-1,1.8-0.5c0.1-0.7-0.2-1.7,0.5-1.8C203.2,152.9,203.2,153.3,202.7,154 M203.2,165.9c-0.1-0.9,0.5-1,0.5-1.8h-1.8
		c0,2.4,0.2,1.6,0.9,0.5C202.8,165.1,202.6,165.8,203.2,165.9 M201.8,139.8c0,0.5,0.8,0.6,0.9,0c-1.2-0.3-2.3-2.1-3.7-0.9
		c-1-3-5.4-2.5-8.2-3.7c-0.1,0.5,0.1,1.3-0.5,1.4c-1.7-2.1-4.7-1-7.8-0.9c-0.1,0.7,0.2,1.7-0.5,1.8c-1.4-0.5,0.1-1.1-0.9-1.8
		c-0.2,1.8-1.4-0.3-1.8,0.9c1.3-0.2-1.1,1.7,0.5,1.8c1.4-0.5,5.2-1.1,5,0.9c0.2-0.8,0.5,0.2,0.9,0.5c-0.1-1.2,0.2-2,1.4-1.8
		c0.5,1.4,0.2,1.2-0.5,2.3c1.4-0.5,1.2-0.2,2.3,0.5c-0.1-1.1,0.1-1.7,0.9-1.8c0,0.5,0.4,0.6,0.5,0.9c-0.1,0.6-0.7,0.8-0.9,1.4
		c1.9-1.1,1.1,0.7,2.7,0.9c-0.1-1.1-0.1-2.2,0.9-2.3c1.2,1.4-1.2,1.8,0,2.7c0.8-0.7,3-2.1,3.2,0c2.9,0.1,3.1-1.4,5-1.4
		C200.2,141.1,201.2,139.7,201.8,139.8 M200.4,165.9c0.1-1.1,0.9-1.4-0.5-1.8c-0.1,0.5,0.1,1.3-0.5,1.4c-0.1-0.5,0.1-1.3-0.5-1.4
		v1.8H200.4z M183,165c0-0.8,0.1-1.4,0.5-1.8c-0.8,0.4-2.5,0-2.3,1.4c0.6,0,1-0.2,1.4-0.5C182.5,164.7,182.6,165.8,183,165
		 M172.9,340.4c3.1-0.3,9.1-1.9,6-5.5c-0.1,1-2,0.1-2.3,0.9c-0.7,1.7,1.3,0.9,0.9,2.3c-2,0.3-3.4,0.5-5-0.5
		C172.4,338.8,172.4,339.9,172.9,340.4 M178.4,372c2.7-5.6-5.8-6-7.8-6.9c-0.2,2-0.4,5.2,0,8.7C174.1,374.1,176.4,373.2,178.4,372
		 M178.4,140.3c1.1-1.7-0.4-3.1-0.5-4.1c-1.3,0.3-1.1,2.3-2.3,2.7c-0.6-0.6-0.6-1.7,0-2.3c-1.1,1.3-4.7,0-3.7,2.3
		c1.2-1.8,2.4,0.6,3.7,0.9c1.2-0.3,1.3-1.8,2.7-1.8C179,139.1,177.4,140.2,178.4,140.3 M177,152.6c-0.1-0.7,0.2-1.7-0.5-1.8
		c-0.2,0.6-0.6,0.9-1.4,0.9c-0.1-0.4,0-0.9-0.5-0.9v1.8H177z M175.2,157.2c1.5,0.6,0.3-1.5,1.8-0.9c-0.1-0.9-0.3-1.5-0.9-1.8
		C174.5,156,175.7,155.2,175.2,157.2 M171.1,155.4c-0.3-2,4.2-1.6,2.8-3.2C173.5,154,169.7,152.8,171.1,155.4 M173.4,159
		c-0.3-0.8,0.6-2.7-0.5-2.7c0,0.6-0.8,0.4-0.9,0.9C173.2,157.1,171.6,159.8,173.4,159 M171.1,119.2c-0.3-0.6,2.4-2.9,1.4-4.1
		C172.6,116.6,168.9,118.5,171.1,119.2 M172,135.7c-0.3-1.4-0.3-0.9,0-2.3c-1.7,1-3.5,0.1-5,1.8c-0.5,0-0.6-0.4-0.9-0.5
		c1.2,3.8,3.5-2.3,3.7,1.4C171,134.7,169.7,134.9,172,135.7 M168.8,160.4c-0.6-1.9,3.5-1.4,1.8-2.7
		C170.4,158.7,167.4,158.5,168.8,160.4 M168.8,124.2c-2.2,0-4.2-1.9-5.5,0c1.4,0.3,1.7-0.5,2.8-0.5c0,0.6-0.6,0.6-0.5,1.4
		c1.1,0.2,1.8-0.1,2.3-0.5c0,0.6-0.2,1-0.5,1.4C168.6,126.2,168.6,125.1,168.8,124.2 M169.3,127.9c-2.3-0.9-1.5,0.8-3.7,0.9
		c-0.6-1.3,1.4-2.5-0.5-2.3c0.2,2.9-2.4,3.1-3.2,5c1.4,0.6,3.1,0.9,4.6,1.4C167.6,130.5,167.7,129.9,169.3,127.9 M166.5,118.3
		c5.3-11.7,5.4-28.6,0.9-41.2c-4.7,5.3-16,16.1-24.3,15.6c-5.3-0.3-9.3-7.5-12.8-1.8c-0.8,7.1,4.4,8.1,4.1,14.7
		c1.1,1.9,4.3,1.5,5,3.7c-2.7,1.8-8.1,1.7-11,0c-1.4-2-0.1-4.5-0.9-6.4c-4.8,3.1-16.2,12.4-23.8,11.5c-5.2-0.7-7.6-6.1-11.9-8.7
		c2.4,6.9,9,9.3,13.7,13.7c1.6,1.5,2.2,3.5,3.7,5c5.5,5.7,13.5,7.9,20.6,10.5h-0.5c-0.2,0-0.5,0.4,0,0.5c3.3-0.2,7.7,2.3,14.2,2.3
		c8.1-0.1,18-4.4,18.3-9.6c0.2-2.4-2.7-3.2-2.3-6.4C161,120.4,163.4,118.8,166.5,118.3 M167.4,140.3c0,0.5,0.8,0.6,0.9,0
		c-0.9-0.1-0.3-1.5-1.4-1.4c-0.3,0.5-1.8,2.1-0.5,2.7C166.5,140.9,166.9,140.5,167.4,140.3 M162.4,138.9c-1.4-0.4,1.1-0.7,0.5-1.8
		c-1.5,0.8-1.5,1.2-2.3-0.5c0.1,1.1-1.3,0.5-1.4,1.4c0.9,0-0.3,1.8-0.9,1.8c-0.1-0.4,0-0.9-0.5-0.9c-1.5,1,1.8,2.1,1.8,1.4
		c-0.9,0.1,0.1-1.3,0.5-1.4C160.9,139.6,161.6,140.1,162.4,138.9 M157.4,83c5.4-3.6,10-6.2,5-15.1c-3.9-0.9-3.6,2.6-4.6,4.6
		c-1-0.7-2-1.3-3.2-1.8c-4.8,2.3-5.1,9.3-12.4,9.2c0.1-0.5,0.8-1,0-1.4c-1.5,2.3-4.9,2.7-5.5,6c2.5,1.9,3.9,5,6.9,6.4
		C147.9,90.4,152.8,86.1,157.4,83 M160.6,316.6c-0.2-0.8,0.7-1.2,0-1.4c-0.1,0.4-0.4,0.5-0.9,0.5c-0.9,0-0.6-1.2-1.8-0.9
		C157.8,316.3,159.9,315.7,160.6,316.6 M155.1,63.3c1.3-2.4,2-6.1,0.5-8.2c-5.2-7.3-17.4-15.4-30.2-18.3c-4.6-1-11.1-2.1-16-1.4
		c-3.4,0.5-13.6,4.6-10.1,5.5c-2.7,0.6-4.3-0.6-5.5,1.4c0.8,0.3,1.9-1.3,2.3,0c-2.2,0.4-2.8,1.1-0.9,1.4c-4.3,1.3-6.9,6.2-6.4,9.6
		c2.4,2.1-1.1,7.7,1.4,8.7c-1.6-0.1-1.3,1-0.9,2.7c2.1,0-1.3-1.6,0.9-2.3c0.7,7.2,1.4,10.4,1.4,16c1.4,0.3,1.9,1.4,1.8,3.2
		c6.7,4.3,17.7-2,23.8,0.5c-6.3,3.1-15.1,0.8-21.1,4.1c0.1,1.3,0.9,1.6-0.5,0.9c2.2,6.5,11.2,2,15.5,2.3c-0.2,0-0.5,0.1-0.4,0.5
		c3.4-0.7,3.5-1.7,6-3.2c0,1.3,3.1,1.8,3.7,0.9c-3-0.4-2.6-1.7-4.6-2.7c3.3-5.9,7.7,1.5,11,1.8c2.9,0.3,4.3-1.5,6-4.1
		c0.1,0.6,0.1,1.1,0.9,0.9c0.4-2.2,2.2-3,3.2-4.6c-3.2-3.1,4.1-9,7.8-8.2C145.3,67.4,149.6,61.9,155.1,63.3 M153.2,71.1
		c1.2-1.4,3.4-1.8,4.6-3.2C156.1,68.5,152.8,69.9,153.2,71.1 M153.7,298.3c-0.1-0.9-0.3-1.5-0.9-1.8c-0.1,0.9-2,0.1-1.8,1.4
		C152.3,297.3,152.5,297.7,153.7,298.3 M150.5,304.3c0.8,2.7,1.2,0.5,3.2,1.4c-0.2-1.9-1.7-1.3-2.3-0.5
		C151.3,304.6,151.3,304.1,150.5,304.3 M150.5,302.4c0.8-0.1,2.3,1.3,2.7,0C152.4,302,150.8,300.7,150.5,302.4 M148.2,306.1
		c-0.2,1.2,2.4,1.8,2.7,0.9c-0.6,0-0.4-0.8-0.9-0.9C149.9,307.2,148.5,306.2,148.2,306.1 M149.1,319.4c-0.2,0.1-2.6-0.8-3.2,0
		c1.8,0.6,2.9,1.7,1.4,3.2c0.9,0.8,0.6,0,1.8,0C147.8,320.2,149,319.4,149.1,319.4 M145.4,313.4c0.8-1.2,2.5,0.7,3.7-0.5
		c-1.5-0.2-2.9-0.5-3.7-1.4c0.1-0.9,1.5-0.3,1.4-1.4c-0.4-0.1-0.5-0.4-0.5-0.9c-1.5-0.3-0.6,1.6-1.8,0.5
		C144.8,311,144.7,312.6,145.4,313.4 M147.7,314.8c-0.9-0.7-2.3,0.4-2.7-0.5c0-0.3-0.1-0.5-0.5-0.5c0.1,1.7,2,1.6,1.4,4.1
		c0.9-0.1,1.5-0.3,1.8-0.9C145.3,316.4,147.3,316,147.7,314.8 M145.4,307.9c0,0.3,0.1,0.5,0.5,0.5c-0.5-0.5-0.3-3.9-0.9-2.7
		c0.1,1-0.1,1.7-0.9,1.8c0-0.2-0.4-0.5-0.5,0C144.9,307.9,144.4,309.5,145.4,307.9 M144.5,182.9h-1.4v1.8
		C144.4,184.8,144.3,183.7,144.5,182.9 M143.2,78.4c2-0.4,3.8-1.1,4.6-2.7C146.2,76.6,144.4,77.2,143.2,78.4 M136.7,340
		c1.1-0.1,1.4-0.9,2.3,0c0-1.8-5.5-0.5-2.7-2.3c-1.1-1.1-1,0.5-1.8,0.9c-0.5,0-0.6-0.4-0.9-0.5C133.8,340.2,136.3,337.7,136.7,340
		 M138.1,341.8c-1.3,0.2,1.1-1.7-0.5-1.8c-0.3,1-1,1.5-1.4,2.3C137.4,341.7,137.7,342.5,138.1,341.8 M135.4,329.9
		c0.1,1.5,1.3-1.9,0.5-1.4c-0.5,1.5-1.9,1.6-2.7,0.5c0.1,1.2,0.7,1.8,1.8,1.8C135,330.5,134.9,329.9,135.4,329.9 M135.8,341.8
		c0.1-1.1-0.2-1.9-0.9-2.3c0,0.7-1.7,1.9-0.5,2.3c0.1-0.4,0-0.9,0.5-0.9C135,341.5,135,342,135.8,341.8 M131.7,333.1
		c0-1.2-0.8-0.9,0-1.8c-1.2,0.3-0.9-1-1.4-1.4c-0.9-0.1-1,0.5-1.8,0.5c0.1-1.1-0.1-1.7-0.9-1.8C127.3,332,130.6,330,131.7,333.1
		 M130.3,338.6c1,0.2,1-1.8,0.5-0.5c-0.6,0.2-3.3,0.2-2.3,1.4c0.5-1.7,2,1.9,2.7,0C130.7,339.4,130.5,339,130.3,338.6 M130.3,329
		c-0.7-2.9-2.2-2.3-4.1-3.7c-0.3,1.4,1.3,0.9,0.9,2.3C128.9,326.6,128.9,328.5,130.3,329 M127.1,330.4c0-1.1-0.8-1.4-0.5-2.7
		c-2.1,0-0.9,1.4-0.5,2.3c-0.5,0.1-1.1,0.8-0.5,0.9C125.8,330.3,126.5,330.3,127.1,330.4 M118.4,150.8c3.4,5.8,12.5,3.2,17.4,0.9
		C129.5,151.4,124.7,149,118.4,150.8 M124.4,99c-0.7-0.6-1.1-1.6-2.7-1.4c-0.6,0-0.4,0.8-0.9,0.9c0-2.5-0.6-5.2-3.2-4.6
		c-0.2,0.8,0.7,1.2,0,1.4c-1.3-0.7-3.3,1.9-4.6,2.7c-4.9,3.5-12.3,0.4-14.7,6.9c0.7,2.2,1.9,1.9,1.8,3.2c0.2-0.8,0.5,0.2,0.9,0.5
		c0-1.2,1.7-0.7,2.3-1.4c0.5,0.6,0.4,1.7,1.4,1.8c1.1-1.7,2.3,0.3,3.7,0.5C114.3,110.1,122.4,104.6,124.4,99 M113.4,96.3
		c1.6-1.1,4-1.5,4.6-3.7C115.8,93,113.2,95.2,113.4,96.3 M106,111.4c-2.4,0.2-4.5-2.2-5.5-1.8C102,110.2,104.5,113.7,106,111.4
		 M87.7,311.1c2,0.3,3.8,1.7,5.5,0.9c-0.5-12.2-3.3-22.1-4.6-33.4c-1-0.4-1.6-1.2-3.2-0.9c0.6,4-3.2,11.2-2.7,15.1
		c0.3,2.6,3.9,5.7,0,7.8C85.6,302.9,86.8,306.9,87.7,311.1 M92.3,168.2c0-0.6-0.2-1-0.5-1.4c0.4-0.1,0.9,0,0.9-0.5
		c-1.1-0.3-0.7-4.5-1.8-3.2C91.8,164,90.9,167.1,92.3,168.2 M86.8,62.9c1.2,0.8,1.4,5,2.7,4.1c-2.1-1.1-0.8-7.5-2.3-5.5
		c-0.5-5.3,0.5-5,0-10.5c-0.6,3.1-2.6,4.3-1.4,8.7c-0.6,0.2-0.8,0.6-1.4,0v5.5c0.8,0,1.2,0.3,1.4,0.9c-0.8,0,0.4,4.2,0.5,1.8
		C86.6,66.3,85.8,63.6,86.8,62.9 M86.4,143.9c-0.2-4.1-2.9-2.7-3.7-6c0.7,0,1.5-1.3,0-0.9c-1.3,2.5,1.1,3.7,1.8,5.5
		c0.1-0.5-0.1-1.3,0.5-1.4C85,142.6,85.4,143.5,86.4,143.9 M84.5,149.9c0.2-2.2-1-3.3,0-5c-1.6,0.7-0.3-1.6-1.4-1.4
		C83.4,146.4,83.5,147.3,84.5,149.9 M83.1,105.9c-0.1-1,0.4-4.9-0.5-3.7C82.8,103.2,82.3,107.1,83.1,105.9 M82.7,115.5
		c-0.5-2.4,1.1-4.7-0.5-5.5c-0.3,1.2-0.2,2.9-0.9,3.7c0.1-6.4-1.3-12.2-0.5-16c-0.2,0.5-0.5,1-0.9,1.4c-0.2-3.8,0.4-5.8-0.9-8.2
		c0.5,9.7-1.4,19.7,0,29.8c0-3.1,1.7-2.1,1.8-5.5C81.8,115.3,81.8,116.4,82.7,115.5 M81.3,96.3c-0.2-1.1,0.4-5.2-0.5-4.1
		C81,93.3,80.5,97.4,81.3,96.3 M80.4,71.1c0-2.5,1.3-7.3-0.9-8.7C80.5,63.5,79.1,68.1,80.4,71.1 M79.5,78.9
		c-0.7-1.3,0.9-5.2-0.5-6.9C78.9,73.6,77.4,78.1,79.5,78.9 M78.6,184.2c-0.3-1.1,0.6-3.3-0.5-3.7C77.3,181.5,78,183.4,78.6,184.2
		 M75.4,94.9c0.3-3.9,0.9-11.4,0-14.2C75.2,86.3,74.7,91.1,75.4,94.9 M72.6,18.9c1.6,0.5,2.8-1.8,1.8-2.3
		C74,17.5,72.4,17.3,72.6,18.9 M71.2,140.7c-0.1-1.1,0.5-5.3-0.9-3.7C71.7,138,69.3,140.1,71.2,140.7 M69.4,101.3
		c1.3-0.2,0.8-3.6,2.3-2.3c-0.2-1.1-0.9-1.9-1.4-2.7C70.4,98.1,68.9,100.7,69.4,101.3 M67.1,171.4c-1.4-4.6,0.6-8.9-1.8-11.5
		c0.7,2.1,0.3,4.3,0.5,6.4C65.9,167.9,65.8,171.4,67.1,171.4 M64.8,158.1c0-1.7,0.2-3.6-0.9-4.1C64,155.6,64.1,157.1,64.8,158.1"/>
	<path class="st1" d="M291.4,294.2C291.4,294.3,291.4,294.3,291.4,294.2C291.4,294.3,291.4,294.3,291.4,294.2"/>
	<path class="st1" d="M216,286.8C216,286.8,216.1,286.8,216,286.8L216,286.8L216,286.8C216,286.8,216,286.8,216,286.8"/>
	<path class="st1" d="M209.6,281.8c0.8,0.3,0.3,1.1-0.5,0.9c0,1.2,0.8,0.9,0,1.8c-0.8-1.6-1.1,0-2.3,0.5c0.1,1.1,0.9,1.4,0,2.3
		c-0.8-0.1-0.3-1.5-0.9-1.8c-0.4,1.4-1.7,2-1.4,4.1c-1.4-0.2-1.9,1.1-2.3-0.5c-0.4,0.1-0.5,0.5-0.9,0.5c1.3,0.7,0.5,1.2,0,2.3
		c-0.9-0.7,0.5-1.6-1.4-1.8c1.3-2.6,3.3-1.7,4.1-4.6C206.8,285.1,208.1,283.4,209.6,281.8"/>
	<path class="st1" d="M200.9,299.2c1.5,0.9,3.2-1.2,3.2,1.4c-0.5-0.1-0.3-0.9-0.9-0.9c-6.7,4.5-11.5,10.8-19.7,13.7
		c-1,0.2,0.6,0.7-0.5,1.4h-0.9c-0.8-0.4,0.3-0.5,0.9-0.5c-0.2-1-2.6-1.4,0-1.4c-0.1-0.8-1.5-0.3-1.8-0.9c1.5-0.5,3.9,0.3,2.7-2.8
		c2.3,1.4,5.6-1.2,6.9-3.7C194.4,305.4,198.5,302.2,200.9,299.2"/>
	<path class="st1" d="M175.7,368.4c-1,0.9-0.3,2.2,0.9,2.3c-0.5,1.4-2.8,0.9-4.1,1.4C169.7,369.9,171.9,366.8,175.7,368.4"/>
	<path class="st1" d="M175.2,208.1h-2.7c-2.5-4.4-7.3-6.4-11.9-8.7c0.4-4.3,3.2-4.1,3.7-6.4c1.1,0.9,2.7,1.3,3.2-0.5
		c1.2-0.9-0.6,1.4-0.9,1.8c1.4-0.6,2.8-0.6,3.7,0.5c-1.7,1.3,0.7,1.3-0.5,2.7c0.1,1.1,1.2-0.5,1.4-0.9c1.2,1-1.2,1.3,0,2.7
		c-0.4-0.2-0.7-0.5-1.4-0.5c0.3,0.5,1,0.5,0.9,1.4c0.5-0.3,0.5-1,1.4-0.9c-0.2,1.3-1.1,1.9-1.4,3.2c1.6-0.1,2-1.3,3.7-1.4
		c0,0.4-0.6,0.4-0.9,0.5c1.1,0.8,0.7,0.8,0,1.8c1.2,0.3,0.9-1,1.4-1.4C174.5,203.5,174.8,205.2,175.2,208.1"/>
	<path class="st1" d="M166.1,309.3c-0.3,1-2.6,0.2-2.3-0.9C165.2,308,165.2,309.1,166.1,309.3"/>
	<path class="st1" d="M159.2,301.5c0.6,1.5-1.1,2.8,0,3.2c-0.6,1-1.9-1.1-2.3-1.8c0.1-1.1,1.2,0.5,1.8,0.5c0.2-1.4-1.4-1-0.9-2.7
		C158.3,300.9,158.3,301.6,159.2,301.5"/>
	<path class="st1" d="M147.3,55.5h3.7c-0.5,1.2-3.5-0.2-4.1,0.9C145.9,56,147.3,56.2,147.3,55.5"/>
	<path class="st1" d="M133.1,121.5c4.3-1.5,9.6-5.5,12.8-5c-2.5,1.3-6.2,1.4-6.4,5c0.8,1.2,2.6,1.4,3.7,2.3
		c-1.8,1.1-5.9,0.5-7.3-0.5c0.1-0.5,0.8-0.4,1.4-0.5C136.3,121.9,134.1,122.3,133.1,121.5"/>
	<path class="st1" d="M140.4,63.3c-0.8,3-4,7.6-7.3,9.6C134.5,68.7,137.8,66.4,140.4,63.3"/>
	<path class="st1" d="M135.4,163.2c1.8,2.8-3.8,4.1-4.6,2.3c-0.7,0.6-1.1,1.6-2.7,1.4c-1.8,0.1-1.4-2-3.2-1.8c1.5-0.7,4.4-1.5,5.5,0
		C132.1,164.5,132.7,162.8,135.4,163.2"/>
	<path class="st1" d="M126.7,319.8c1.3,0.7,0.7,1.6,0.5,3.2C126,322,126.6,321.4,126.7,319.8"/>
	<path class="st1" d="M124.8,322.6c0.7,0.4,1.8,0.4,1.4,1.8h-1.8C124.3,323.6,124.9,323.4,124.8,322.6"/>
	<path class="st1" d="M78.6,172.8c0.8-1.2,0.3,2.7,0.5,3.7C78.2,177.7,78.7,173.8,78.6,172.8"/>
	<path class="st1" d="M74.4,16.6c1,0.5-0.2,2.8-1.8,2.3C72.4,17.3,74,17.5,74.4,16.6"/>
	<path class="st1" d="M70.8,117.8c-1.2,4-0.6,6.8-1.8,10.1c-1.8-2.7-0.1-5.5,0.9-8.2c-0.2-1.3-0.7,0.7-0.9,0.9
		C68,119.9,69.8,118.1,70.8,117.8"/>
</g>
</svg>
